<?xml version="1.0" encoding="utf-8"?>
<!-- Generator: Adobe Illustrator 27.0.0, SVG Export Plug-In . SVG Version: 6.00 Build 0)  -->
<svg version="1.1" xmlns="http://www.w3.org/2000/svg" xmlns:xlink="http://www.w3.org/1999/xlink" x="0px" y="0px"
	 viewBox="0 0 2475 1650" style="enable-background:new 0 0 2475 1650;" xml:space="preserve">
<style type="text/css">
	.st0{display:none;}
	.st1{display:inline;fill:#FFFFFF;}
	.st2{fill:url(#SVGID_1_);}
	.st3{fill:#91B3FA;}
	.st4{fill:#BDD0FB;}
	.st5{fill:url(#SVGID_00000079469914615746288080000003930949666887898508_);}
	.st6{fill:url(#SVGID_00000084506273147100558370000015196322972283862434_);}
	.st7{opacity:0.3;fill:#FFFFFF;}
	.st8{fill:#FFFFFF;}
	.st9{fill:url(#SVGID_00000084523950351225225920000016065852641733206955_);}
	.st10{fill:url(#SVGID_00000149370155810952061120000005832203620267132304_);}
	.st11{opacity:0.89;}
	.st12{fill:url(#SVGID_00000121268612859782353590000008235385821178487964_);}
	.st13{fill:url(#SVGID_00000173132833350558447840000001950034329828320646_);}
	.st14{fill:#7D97F4;}
	.st15{fill:url(#SVGID_00000167393113989553136030000009343851454351092877_);}
	.st16{fill:url(#SVGID_00000017475929024436970260000012702006143894848407_);}
	.st17{opacity:0.77;fill:#FFFFFF;}
	.st18{fill:url(#SVGID_00000176006676590298728080000017016841191712643227_);}
	.st19{fill:url(#SVGID_00000098943615597901347480000002700042613949523896_);}
	.st20{fill:url(#SVGID_00000034770868705791767430000016407515348717022385_);}
	.st21{fill:url(#SVGID_00000174574512606536666300000016160163476465424264_);}
	.st22{fill:url(#SVGID_00000128471553752388049840000007351069706290051728_);}
	.st23{opacity:0.35;fill:url(#SVGID_00000150798709048454814390000014378959305681300159_);}
	.st24{fill:url(#SVGID_00000173140567883702567480000002707069576976490383_);}
	.st25{fill:url(#SVGID_00000180361756667916905920000008844245811395903911_);}
	.st26{fill:url(#SVGID_00000162318322569770576260000017865232472089962421_);}
	.st27{fill:url(#SVGID_00000062897760481990868360000006839903696681746593_);}
	.st28{fill:url(#SVGID_00000108300431579859840050000005539425819805068708_);}
	.st29{fill:url(#SVGID_00000163049996796478172680000008540079781407935156_);}
	.st30{fill:url(#SVGID_00000029750068197600406760000011668492926592466617_);}
	.st31{opacity:0.44;fill:#FFFFFF;}
	.st32{fill:url(#SVGID_00000047740430825618145410000003834737632473651359_);}
	.st33{fill:url(#SVGID_00000047042742631340319760000002948832523599369876_);}
	.st34{fill:url(#SVGID_00000108288693943924376590000009016036093622824619_);}
	.st35{fill:url(#SVGID_00000094608869748705269780000009178208853083295635_);}
	.st36{fill:url(#SVGID_00000158000736441714202470000000680298853082050462_);}
	.st37{fill:url(#SVGID_00000111892095203897079200000005086225260930664122_);}
	.st38{fill:url(#SVGID_00000033340889663028208370000003502694061470810758_);}
	.st39{fill:url(#SVGID_00000167367633822494779880000008813500222527112832_);}
	.st40{fill:url(#SVGID_00000111172128814607435790000010104427509444219782_);}
	.st41{fill:url(#SVGID_00000016040451745137909560000002507332149338448056_);}
	.st42{fill:url(#SVGID_00000056394605484892861860000017752677751612482471_);}
	.st43{fill:url(#SVGID_00000125583703681057315800000008496096695548893111_);}
	.st44{fill:url(#SVGID_00000088847069615407906730000015788866575301229997_);}
	.st45{fill:url(#SVGID_00000142884289748383551720000000784773680418032013_);}
	.st46{fill:url(#SVGID_00000072972806514618053900000008638433900494621587_);}
	.st47{fill:url(#SVGID_00000132062240336269015950000010821689431992728711_);}
	.st48{fill:url(#SVGID_00000052102416317248038320000012851071032746736263_);}
	.st49{fill:url(#SVGID_00000060011321023181335140000005147084992855197880_);}
	.st50{fill:url(#SVGID_00000041268702521191665760000011092100931053004205_);}
	.st51{fill:url(#SVGID_00000030454078109861516580000011062776744140071078_);}
	.st52{fill:url(#SVGID_00000101818327997566306710000000150673229730529957_);}
	.st53{fill:url(#SVGID_00000071538063099136379590000013563023456910792879_);}
	.st54{opacity:0.8;fill:#FFFFFF;}
	.st55{fill:url(#SVGID_00000148630346501688089370000002856033349964579730_);}
	.st56{fill:url(#SVGID_00000153667113754480097360000012632191146426180785_);}
	.st57{fill:url(#SVGID_00000037677775380202662990000002881160197049202834_);}
	.st58{fill:url(#SVGID_00000125587695242505768120000016072939779902006415_);}
	.st59{fill:url(#SVGID_00000004522061476913163390000006511910111558290836_);}
	.st60{fill:url(#SVGID_00000075882765833172783060000015566873591980972725_);}
	.st61{fill:url(#SVGID_00000113343815546944560770000000234899081415019954_);}
	.st62{fill:url(#SVGID_00000097470028904476290960000018374677299894011268_);}
	.st63{fill:url(#SVGID_00000036951607258895591460000008031169795056890797_);}
	.st64{fill:url(#SVGID_00000089549460314645230580000013506656078788770213_);}
	.st65{fill:url(#SVGID_00000040554923425420276750000011697981928506581632_);}
	.st66{opacity:0.35;fill:url(#SVGID_00000116944572806215684350000018443703257547555730_);}
	.st67{opacity:0.35;fill:url(#SVGID_00000068646576447094238840000013804407274807478434_);}
	.st68{fill:url(#SVGID_00000097497664097797980620000001905729447745935253_);}
	.st69{fill:url(#SVGID_00000160160867797594972150000016811930497300157375_);}
	.st70{fill:url(#SVGID_00000150802444327070867320000010339016821133726627_);}
</style>
<g id="Background" class="st0">
	<rect class="st1" width="2475" height="1650"/>
</g>
<g id="Illustration">
	<g>
		<linearGradient id="SVGID_1_" gradientUnits="userSpaceOnUse" x1="934.6163" y1="-103.4579" x2="1586.4983" y2="1744.2126">
			<stop  offset="0" style="stop-color:#DAE3FE"/>
			<stop  offset="1" style="stop-color:#E9EFFD"/>
		</linearGradient>
		<path class="st2" d="M2329.53,369.1c-56.91-108.93-181.88-190.85-303.51-165.72c-72.83,15.05-145.21,65.53-215.05,40.19
			c-50.33-18.27-78.74-70.07-121.05-102.58c-65.12-50.03-157.55-49.45-236.91-27.03c-79.36,22.41-152.01,63.64-230.41,89.12
			c-133.62,43.43-282.76,38.72-413.28-13.07c-57.3-22.73-110.93-54.1-169.27-74.12c-58.33-20.01-124.49-27.79-180.8-2.76
			c-56.31,25.03-96.71,90.49-77.17,148.26c3.9,11.52,10.01,22.87,9.21,34.99c-1.28,19.43-20.32,33.66-39.57,37.98
			c-19.25,4.32-39.32,1.5-59.06,1.99c-88.59,2.21-167.76,81.9-168.18,169.28c-0.35,72.46,44.98,136.13,83.72,197.7
			c38.75,61.57,73.57,135.44,50.49,204.24c-13.69,40.79-45.8,72.7-66.83,110.33c-54.54,97.56-44.28,238.16,50.77,309.02
			c59.14,44.09,237.63,73.6,303.43,73.6c152.69,0,305.38,0,458.07,0c172.72,0,345.44,0,518.17,0c125.89,0,252.1,8.51,377.68,0
			c207.42-14.06,346.48-239.03,417.18-403.55c13.9-32.35,25.58-65.6,34.2-99.62c22.79-89.98,27.59-186.21,30.31-278.53
			C2384.15,534.29,2369.24,445.11,2329.53,369.1z"/>
		<g>
			<path class="st3" d="M2169.16,383.82c41.75,101.61,254.81,698.31-332.36,1057.67c-13.5,8.27-31.19,3.16-38.18-11.05
				c-45.59-92.68-155.18-441.18,352.44-1047.69C2156.3,376.48,2166.4,377.09,2169.16,383.82z"/>
			<path class="st4" d="M2132.53,497.42c-0.72,38.91-3.11,77.69-6.18,116.44c-3.18,38.73-7.25,77.39-12.23,115.93
				c-9.88,77.1-23.67,153.71-41.5,229.41c-9.11,37.8-19.3,75.35-30.64,112.57c-11.62,37.13-24.49,73.87-38.76,110.1
				c-14.65,36.07-30.7,71.59-48.61,106.2c-18.28,34.42-38.37,67.9-60.62,99.97c-1.24,1.79-3.69,2.23-5.48,0.99
				c-1.79-1.24-2.23-3.69-0.99-5.48l0.01-0.02l0.03-0.05c22.18-31.65,42.26-64.74,60.58-98.82c17.95-34.28,34.07-69.51,48.83-105.32
				c14.37-35.97,27.36-72.49,39.12-109.42c11.47-37.02,21.81-74.39,31.08-112.05c18.14-75.4,32.28-151.78,42.52-228.69
				c5.16-38.45,9.42-77.02,12.77-115.67c3.25-38.65,5.83-77.41,6.73-116.15l0-0.03c0.02-0.92,0.78-1.65,1.71-1.63
				C2131.82,495.74,2132.55,496.5,2132.53,497.42z"/>
		</g>
		<g>
			<path class="st4" d="M2330.67,829.2c-6.65,84.99-63.98,565.76-512.01,620.79c-23.96,2.94-44.58-17.06-42.32-41.1
				c9.62-102.61,81.98-362.51,543.69-586.97C2325.18,819.41,2331.12,823.48,2330.67,829.2z"/>
			
				<linearGradient id="SVGID_00000094606027899752381780000010206454957533676421_" gradientUnits="userSpaceOnUse" x1="880.141" y1="2755.4431" x2="1390.1117" y2="2755.4431" gradientTransform="matrix(0.9954 -0.0962 0.0962 0.9954 647.8488 -1480.1702)">
				<stop  offset="0" style="stop-color:#DAE3FE"/>
				<stop  offset="1" style="stop-color:#E9EFFD"/>
			</linearGradient>
			<path style="fill:url(#SVGID_00000094606027899752381780000010206454957533676421_);" d="M2273.84,896.16
				c-11.55,26.79-24.98,52.47-39.07,77.85c-14.17,25.32-29.32,50.09-45.25,74.34c-15.94,24.25-32.7,47.96-50.21,71.11
				c-17.58,23.1-35.95,45.6-54.99,67.52c-19,21.97-39.04,43.01-59.51,63.62c-10.38,10.16-20.71,20.38-31.47,30.14
				c-10.54,10.01-21.59,19.45-32.49,29.06c-44.12,37.85-91.17,72.34-140.56,103.12c-2.76,1.72-6.4,0.88-8.12-1.89
				c-1.72-2.76-0.88-6.4,1.89-8.12l0.05-0.03l0.04-0.02c49.15-29.96,96.07-63.65,140.17-100.74c10.9-9.43,21.95-18.68,32.49-28.5
				c10.77-9.58,21.11-19.62,31.52-29.6c20.51-20.25,40.62-40.95,59.7-62.59c19.12-21.59,37.59-43.77,55.3-66.56
				c17.63-22.85,34.53-46.26,50.62-70.23c16.08-23.97,31.4-48.46,45.74-73.51c14.25-25.07,27.92-50.63,39.55-76.89l0.04-0.08
				c0.56-1.26,2.03-1.83,3.29-1.27C2273.81,893.44,2274.38,894.9,2273.84,896.16z"/>
		</g>
		<g>
			<g>
				<path class="st4" d="M869.51,935.39c-12.16-103.97-79.79-208.65-126.78-309.26c-24.84-53.2-44.42-107.37-50.84-166.06
					c-6.38-58.35,3.35-126-36.11-175.07c-79.5-98.86-181.55-16.06-224.9,86.6c-50.3,119.13-27.56,285.09-23.11,416.46
					c2.68,79.19-3.05,162.75,8.36,241.07c18.91,129.75,71.14,209.14,147.29,251.57c73.04,40.7,163.96,28.4,223.69-30.11
					C841.06,1197.74,889.12,1103.12,869.51,935.39z"/>
				
					<linearGradient id="SVGID_00000000937310418922574330000002056689597164254631_" gradientUnits="userSpaceOnUse" x1="514.1318" y1="907.3693" x2="732.6322" y2="907.3693">
					<stop  offset="0" style="stop-color:#DAE3FE"/>
					<stop  offset="1" style="stop-color:#E9EFFD"/>
				</linearGradient>
				<path style="fill:url(#SVGID_00000000937310418922574330000002056689597164254631_);" d="M729.17,1470.16
					c-0.87-0.18-1.64-0.75-2.05-1.61c-23.11-49.89-79.11-188.61-125.6-356.49c-34.13-123.23-58.62-244.32-72.81-359.9
					c-17.73-144.53-19.3-280.82-4.66-405.09c0.19-1.58,1.62-2.71,3.2-2.53c1.59,0.17,2.72,1.62,2.53,3.2
					c-14.59,123.79-13.02,259.59,4.65,403.64c14.14,115.29,38.58,236.08,72.62,359.03c46.39,167.54,102.25,305.94,125.31,355.71
					c0.67,1.45,0.04,3.16-1.41,3.83C730.38,1470.22,729.75,1470.28,729.17,1470.16z"/>
			</g>
		</g>
		<g>
			<path class="st3" d="M512.37,1385.02c-95.13,34.23-239.57-93.63-243.96-206.08c-1.72-44.05,18.97-62.28,12.39-124.83
				c-7.98-75.89-42.41-86.77-41.92-146.04c0.43-52.13,27.78-129.77,87.28-148.86c55.59-17.84,118.04,22.23,142.52,68.01
				c25.73,48.12-3.47,78.3,21.57,133.4c24.76,54.49,66.13,53.18,96.53,92.35C653.7,1139.22,611.41,1349.38,512.37,1385.02z"/>
			<path class="st7" d="M334.51,820.94c13.27,42.84,26.16,85.73,38.99,128.6l19.39,64.26l9.74,32.1
				c3.31,10.68,6.65,21.35,9.87,32.06c3.2,10.72,6.65,21.34,10.02,32l5.07,15.98c1.63,5.35,3.39,10.65,5.1,15.97l10.34,31.9
				c3.64,10.56,7.11,21.18,10.67,31.78c14.48,42.29,29.51,84.36,46.22,125.93l-2.55,1.2c-5.14-9.97-10.17-20.02-15.17-30.1
				c-2.6-5-4.8-10.16-7.12-15.27l-6.91-15.37l-3.44-7.7c-1.14-2.57-2.28-5.14-3.32-7.75l-6.4-15.59
				c-4.27-10.39-8.57-20.79-12.45-31.32c-3.95-10.51-8-20.99-11.87-31.54l-11.15-31.78c-1.84-5.3-3.76-10.58-5.49-15.92l-5.22-16.01
				c-3.46-10.68-7.02-21.33-10.31-32.05c-13.62-42.78-25.65-86.03-36.97-129.44c-5.66-21.71-10.95-43.51-15.98-65.38
				c-4.94-21.89-9.78-43.79-13.8-65.9L334.51,820.94z"/>
			<path class="st8" d="M335.95,883.56c-26.73-15.57-46.72-44.6-46.92-44.89l1.16-0.79c0.2,0.29,20.02,29.06,46.47,44.47
				L335.95,883.56z"/>
			<path class="st8" d="M338.45,917.75c-39.17-16.67-61.39-50.65-61.61-50.99l1.18-0.76c0.22,0.34,22.22,33.96,60.98,50.45
				L338.45,917.75z"/>
			<path class="st8" d="M344.78,959.77c-47.37-13.44-71.85-56.94-72.09-57.38l1.23-0.68c0.24,0.43,24.45,43.42,71.24,56.7
				L344.78,959.77z"/>
			<path class="st8" d="M358.34,997.79c-46.48-6.17-76.77-48.43-77.07-48.85l1.15-0.81c0.3,0.42,30.25,42.18,76.11,48.27
				L358.34,997.79z"/>
			<path class="st8" d="M368.5,1032.19c-30.15-1.89-59.77-25.12-60.06-25.35l0.88-1.11c0.29,0.23,29.57,23.18,59.28,25.05
				L368.5,1032.19z"/>
			<path class="st8" d="M377.78,1072.96c-41.98-3.01-61.77-21.69-61.96-21.88l0.98-1.01c0.19,0.19,19.66,18.52,61.08,21.49
				L377.78,1072.96z"/>
			<path class="st8" d="M395.95,1121.99c-43.72,0.44-78.56-36.36-78.91-36.73l1.03-0.96c0.34,0.37,34.78,36.72,77.87,36.28
				L395.95,1121.99z"/>
			<path class="st8" d="M406.78,1170.93c-52.97,1.8-90.88-42.52-91.26-42.97l1.08-0.91c0.37,0.44,37.86,44.24,90.13,42.47
				L406.78,1170.93z"/>
			<path class="st8" d="M426.92,1223c-79.17-5.51-119.37-58.36-119.76-58.9l1.13-0.84c0.39,0.53,40.23,52.87,118.73,58.33
				L426.92,1223z"/>
			<path class="st8" d="M445.3,1283.57c-82.31,3.39-132.65-73.17-133.14-73.94l1.18-0.76c0.49,0.77,50.41,76.66,131.9,73.3
				L445.3,1283.57z"/>
			<path class="st8" d="M465.37,1338.95c-42.85,3.14-77.85-19.07-99.66-38.26c-23.6-20.76-37.28-42.57-37.42-42.78l1.2-0.75
				c0.54,0.86,54.68,86.34,135.78,80.39L465.37,1338.95z"/>
		</g>
		<g>
			<rect x="1555.72" y="838.2" class="st3" width="279.19" height="538.44"/>
			
				<linearGradient id="SVGID_00000048473686947953537450000012947284085749072029_" gradientUnits="userSpaceOnUse" x1="1584.8976" y1="807.4484" x2="1053.8436" y2="1056.4734">
				<stop  offset="0" style="stop-color:#4042E2"/>
				<stop  offset="1" style="stop-color:#4F52FF"/>
			</linearGradient>
			<path style="fill:url(#SVGID_00000048473686947953537450000012947284085749072029_);" d="M1872.31,884.73h-329.88l-60.37-242.63
				h319.62l83.63,222.28C1889.7,873.88,1882.77,884.73,1872.31,884.73z"/>
			
				<linearGradient id="SVGID_00000050623222910346151830000011551094485374147500_" gradientUnits="userSpaceOnUse" x1="1699.7313" y1="399.2814" x2="1654.7269" y2="561.2972">
				<stop  offset="0" style="stop-color:#4042E2"/>
				<stop  offset="1" style="stop-color:#4F52FF"/>
			</linearGradient>
			<path style="fill:url(#SVGID_00000050623222910346151830000011551094485374147500_);" d="M1801.68,645.43l-336.94,13.29v-26.59
				l314.86-13.29c12.2,0,22.09,7.22,22.09,16.12V645.43z"/>
			<g class="st11">
				<path class="st8" d="M1774.79,1230.4H1617.5c-0.62,0-1.12-0.5-1.12-1.12V985.57c0-0.62,0.5-1.12,1.12-1.12h157.29
					c0.62,0,1.12,0.5,1.12,1.12v243.71C1775.92,1229.9,1775.41,1230.4,1774.79,1230.4z"/>
				<g>
					
						<linearGradient id="SVGID_00000158014546106508584080000000329959902204928934_" gradientUnits="userSpaceOnUse" x1="2102.6633" y1="536.1848" x2="1862.6398" y2="845.2147">
						<stop  offset="0" style="stop-color:#4042E2"/>
						<stop  offset="1" style="stop-color:#4F52FF"/>
					</linearGradient>
					<path style="fill:url(#SVGID_00000158014546106508584080000000329959902204928934_);" d="M1689.33,1217.11h-60.69
						c-0.34,0-0.62-0.28-0.62-0.62V998.36c0-0.34,0.28-0.62,0.62-0.62h60.69c0.34,0,0.62,0.28,0.62,0.62v218.12
						C1689.95,1216.83,1689.67,1217.11,1689.33,1217.11z"/>
					
						<linearGradient id="SVGID_00000065055402239291441230000008135972821686438794_" gradientUnits="userSpaceOnUse" x1="2149.0247" y1="572.1949" x2="1908.9999" y2="881.2263">
						<stop  offset="0" style="stop-color:#4042E2"/>
						<stop  offset="1" style="stop-color:#4F52FF"/>
					</linearGradient>
					<path style="fill:url(#SVGID_00000065055402239291441230000008135972821686438794_);" d="M1763.66,1217.11h-60.69
						c-0.34,0-0.62-0.28-0.62-0.62V998.36c0-0.34,0.28-0.62,0.62-0.62h60.69c0.34,0,0.62,0.28,0.62,0.62v218.12
						C1764.28,1216.83,1764,1217.11,1763.66,1217.11z"/>
				</g>
			</g>
			<path class="st14" d="M588.11,1376.64h269.02V838.2H577.93v528.27C577.93,1372.09,582.49,1376.64,588.11,1376.64z"/>
			
				<linearGradient id="SVGID_00000171691422628393433590000017276898967072314803_" gradientUnits="userSpaceOnUse" x1="661.4734" y1="801.3538" x2="1213.4722" y2="537.3539">
				<stop  offset="0" style="stop-color:#4042E2"/>
				<stop  offset="1" style="stop-color:#4F52FF"/>
			</linearGradient>
			<path style="fill:url(#SVGID_00000171691422628393433590000017276898967072314803_);" d="M540.54,884.73h329.88l59.85-226.27
				l-319.1-16.36l-83.63,222.28C523.14,873.88,530.07,884.73,540.54,884.73z"/>
			
				<linearGradient id="SVGID_00000173852887305074300460000008959134046923714182_" gradientUnits="userSpaceOnUse" x1="769.0367" y1="369.0417" x2="797.9437" y2="699.4105">
				<stop  offset="0" style="stop-color:#4042E2"/>
				<stop  offset="1" style="stop-color:#4F52FF"/>
			</linearGradient>
			<path style="fill:url(#SVGID_00000173852887305074300460000008959134046923714182_);" d="M611.17,645.42l362.94,13.29v-26.59
				l-339.15-13.29c-13.14,0-23.79,7.22-23.79,16.12V645.42z"/>
			<g class="st11">
				<path class="st17" d="M638.05,1230.4h157.29c0.62,0,1.12-0.5,1.12-1.12V985.57c0-0.62-0.5-1.12-1.12-1.12H638.05
					c-0.62,0-1.12,0.5-1.12,1.12v243.71C636.93,1229.9,637.43,1230.4,638.05,1230.4z"/>
				<g>
					
						<linearGradient id="SVGID_00000070099666777837042490000017742590076012802479_" gradientUnits="userSpaceOnUse" x1="1538.1136" y1="97.7019" x2="1298.09" y2="406.7317">
						<stop  offset="0" style="stop-color:#4042E2"/>
						<stop  offset="1" style="stop-color:#4F52FF"/>
					</linearGradient>
					<path style="fill:url(#SVGID_00000070099666777837042490000017742590076012802479_);" d="M723.52,1217.11h60.69
						c0.34,0,0.62-0.28,0.62-0.62V998.36c0-0.34-0.28-0.62-0.62-0.62h-60.69c-0.34,0-0.62,0.28-0.62,0.62v218.12
						C722.89,1216.83,723.17,1217.11,723.52,1217.11z"/>
					
						<linearGradient id="SVGID_00000146476284660038239070000005950033323844527012_" gradientUnits="userSpaceOnUse" x1="1491.752" y1="61.6919" x2="1251.7284" y2="370.7217">
						<stop  offset="0" style="stop-color:#4042E2"/>
						<stop  offset="1" style="stop-color:#4F52FF"/>
					</linearGradient>
					<path style="fill:url(#SVGID_00000146476284660038239070000005950033323844527012_);" d="M649.19,1217.11h60.69
						c0.34,0,0.62-0.28,0.62-0.62V998.36c0-0.34-0.28-0.62-0.62-0.62h-60.69c-0.34,0-0.62,0.28-0.62,0.62v218.12
						C648.56,1216.83,648.84,1217.11,649.19,1217.11z"/>
				</g>
			</g>
			<path class="st4" d="M1206.42,501.43c0,0-378.51,285.75-387.88,285.75v593.64c0,10.82,8.77,19.59,19.59,19.59h738.83
				c9.59,0,17.36-7.77,17.36-17.36V787.18L1206.42,501.43z"/>
			<g>
				<path class="st14" d="M1309.34,1376.64h-240.53v-37.63c0-1.75,1.42-3.17,3.17-3.17h234.18c1.75,0,3.17,1.42,3.17,3.17V1376.64z"
					/>
				<path class="st14" d="M1309.34,1409.01h-240.53v-37.63c0-1.75,1.42-3.17,3.17-3.17h234.18c1.75,0,3.17,1.42,3.17,3.17V1409.01z"
					/>
				<path class="st14" d="M1271.16,1335.84H1107v-316.7c0-1.97,1.59-3.56,3.56-3.56h157.05c1.97,0,3.56,1.59,3.56,3.56V1335.84z"/>
				<path class="st17" d="M1259.57,994.02h-140.98c-6.4,0-11.59-5.19-11.59-11.59v-10.12c0-6.09,4.71-11.14,10.79-11.56l140.98-9.79
					c6.7-0.47,12.4,4.85,12.4,11.56v19.92C1271.16,988.83,1265.97,994.02,1259.57,994.02z"/>
				<g>
					<path class="st14" d="M1401.53,851.75h-1.56c-40.55,0-76.04,28.71-76.04,69.25v73.02h77.6V851.75z"/>
					<path class="st14" d="M1323.93,1015.58v214.82c0,7.23,8.49,18.45,15.72,18.45h61.88v-233.27H1323.93z"/>
					<path class="st14" d="M1422.72,851.75h-3.94v142.27h77.6V921C1496.38,880.46,1463.27,851.75,1422.72,851.75z"/>
					<path class="st14" d="M1418.78,1248.85h64.26c7.23,0,13.34-11.21,13.34-18.45v-214.82h-77.6V1248.85z"/>
				</g>
				<g>
					<path class="st14" d="M974.11,851.75h-1.56c-40.55,0-76.04,28.71-76.04,69.25v73.02h77.6V851.75z"/>
					<path class="st14" d="M896.5,1015.58v214.82c0,7.23,8.49,18.45,15.72,18.45h61.88v-233.27H896.5z"/>
					<path class="st14" d="M995.3,851.75h-3.94v142.27h77.6V921C1068.95,880.46,1035.84,851.75,995.3,851.75z"/>
					<path class="st14" d="M991.35,1248.85h64.26c7.23,0,13.34-11.21,13.34-18.45v-214.82h-77.6V1248.85z"/>
				</g>
				<g>
					<path class="st4" d="M1166.28,1249.75h-24.78c-8.26,0-14.98-6.72-14.98-14.98v-183.17c0-8.26,6.72-14.98,14.98-14.98h24.78
						c8.26,0,14.98,6.72,14.98,14.98v183.17C1181.27,1243.03,1174.55,1249.75,1166.28,1249.75z M1141.51,1038.41
						c-7.27,0-13.18,5.92-13.18,13.18v183.17c0,7.27,5.91,13.18,13.18,13.18h24.78c7.27,0,13.18-5.92,13.18-13.18v-183.17
						c0-7.27-5.92-13.18-13.18-13.18H1141.51z"/>
				</g>
				<g>
					<path class="st4" d="M1235.43,1249.75h-24.78c-8.26,0-14.98-6.72-14.98-14.98v-183.17c0-8.26,6.72-14.98,14.98-14.98h24.78
						c8.26,0,14.98,6.72,14.98,14.98v183.17C1250.41,1243.03,1243.69,1249.75,1235.43,1249.75z M1210.65,1038.41
						c-7.27,0-13.18,5.92-13.18,13.18v183.17c0,7.27,5.92,13.18,13.18,13.18h24.78c7.27,0,13.18-5.92,13.18-13.18v-183.17
						c0-7.27-5.91-13.18-13.18-13.18H1210.65z"/>
				</g>
				<path class="st8" d="M1166.28,1311.5h-24.78c-8.26,0-14.98-6.72-14.98-14.98v-21.07c0-8.26,6.72-14.98,14.98-14.98h24.78
					c8.26,0,14.98,6.72,14.98,14.98v21.07C1181.27,1304.78,1174.55,1311.5,1166.28,1311.5z M1141.51,1262.27
					c-7.27,0-13.18,5.91-13.18,13.18v21.07c0,7.27,5.91,13.18,13.18,13.18h24.78c7.27,0,13.18-5.92,13.18-13.18v-21.07
					c0-7.27-5.92-13.18-13.18-13.18H1141.51z"/>
				<path class="st8" d="M1235.43,1311.5h-24.78c-8.26,0-14.98-6.72-14.98-14.98v-21.07c0-8.26,6.72-14.98,14.98-14.98h24.78
					c8.26,0,14.98,6.72,14.98,14.98v21.07C1250.41,1304.78,1243.69,1311.5,1235.43,1311.5z M1210.65,1262.27
					c-7.27,0-13.18,5.91-13.18,13.18v21.07c0,7.27,5.92,13.18,13.18,13.18h24.78c7.27,0,13.18-5.92,13.18-13.18v-21.07
					c0-7.27-5.91-13.18-13.18-13.18H1210.65z"/>
				<path class="st17" d="M1503.09,1262.27h-186.81c-10.71,0-19.43-8.71-19.43-19.43V919.4c0-51.15,41.61-92.76,92.76-92.76h40.14
					c51.15,0,92.76,41.61,92.76,92.76v323.44C1522.52,1253.55,1513.81,1262.27,1503.09,1262.27z M1389.62,828.44
					c-50.16,0-90.96,40.8-90.96,90.96v323.44c0,9.72,7.91,17.63,17.63,17.63h186.81c9.72,0,17.63-7.91,17.63-17.63V919.4
					c0-50.16-40.8-90.96-90.96-90.96H1389.62z"/>
				<path class="st17" d="M1075.75,1262.27H888.95c-10.71,0-19.43-8.71-19.43-19.43V919.4c0-51.15,41.61-92.76,92.76-92.76h40.14
					c51.15,0,92.76,41.61,92.76,92.76v323.44C1095.18,1253.55,1086.46,1262.27,1075.75,1262.27z M962.28,828.44
					c-50.16,0-90.96,40.8-90.96,90.96v323.44c0,9.72,7.91,17.63,17.63,17.63h186.81c9.72,0,17.63-7.91,17.63-17.63V919.4
					c0-50.16-40.8-90.96-90.96-90.96H962.28z"/>
			</g>
			<g>
				<rect x="1376.27" y="507.67" class="st3" width="64.17" height="104.48"/>
				<path class="st3" d="M1461.59,524.6h-103.72v-25.99c0-3.37,2.73-6.1,6.1-6.1h88.34c5.12,0,9.28,4.15,9.28,9.28V524.6z"/>
				
					<linearGradient id="SVGID_00000011018480645918149450000013289826376915562422_" gradientUnits="userSpaceOnUse" x1="1252.3872" y1="-26.7997" x2="1237.386" y2="249.2279">
					<stop  offset="0" style="stop-color:#4042E2"/>
					<stop  offset="1" style="stop-color:#4F52FF"/>
				</linearGradient>
				<path style="fill:url(#SVGID_00000011018480645918149450000013289826376915562422_);" d="M794.76,817.14l411.67-315.71
					l390.77,303.1c14.2,11.02,35.04,3.3,38.64-14.31l5.48-26.81l-434.88-331.28L785.47,753.66c-7.54,5.76-10.27,15.86-6.67,24.63
					L794.76,817.14z"/>
			</g>
		</g>
		<g>
			
				<linearGradient id="SVGID_00000154401341122474645720000017557304230104218522_" gradientUnits="userSpaceOnUse" x1="2085.3096" y1="179.0467" x2="1401.3088" y2="1611.0509">
				<stop  offset="0" style="stop-color:#09005D"/>
				<stop  offset="1" style="stop-color:#1A0F91"/>
			</linearGradient>
			<path style="fill:url(#SVGID_00000154401341122474645720000017557304230104218522_);" d="M1946.9,670.61
				c-150.71-30.34-315.98-35.11-500.3,0.36c-9.89,1.9-17.72,9.52-19.86,19.36c-40.27,184.79-36.46,381.48-3.81,585.94
				c4.76,29.8,17.86,57.88,38.05,81.16c63.13,72.78,138.19,136.22,230.07,186.48c90.05-53.15,169.74-112.09,234.13-179.56
				c25.15-26.36,40.57-59.76,43.84-95.16c19.4-210.13,22.96-406.46-2.32-577.7C1965.17,681.07,1957.24,672.7,1946.9,670.61z"/>
			
				<linearGradient id="SVGID_00000134952086589882838300000018096717801187542440_" gradientUnits="userSpaceOnUse" x1="2540.0562" y1="408.8738" x2="2216.0559" y2="644.874">
				<stop  offset="0" style="stop-color:#09005D"/>
				<stop  offset="1" style="stop-color:#1A0F91"/>
			</linearGradient>
			<path style="fill:url(#SVGID_00000134952086589882838300000018096717801187542440_);" d="M1903.54,717.35
				c-124.1-25.67-259.76-30.34-410.43-2.41c-17.84,3.31-31.9,17.2-35.39,35.01c-31.1,158.55-27.22,326.84-0.2,501.59
				c4.06,26.27,15.24,51.02,32.47,71.55c53.88,64.17,117.93,120.1,196.34,164.4c76.85-46.86,144.86-98.82,199.81-158.3
				c21.47-23.24,34.62-52.68,37.41-83.89c16.53-184.99,19.58-357.86-1.89-508.67C1920.29,727.03,1913.04,719.32,1903.54,717.35z"/>
			
				<linearGradient id="SVGID_00000171693126101668705270000005550595984306231736_" gradientUnits="userSpaceOnUse" x1="2354.4319" y1="211.6758" x2="2066.4319" y2="543.6754">
				<stop  offset="0" style="stop-color:#4042E2"/>
				<stop  offset="1" style="stop-color:#4F52FF"/>
			</linearGradient>
			<path style="opacity:0.35;fill:url(#SVGID_00000171693126101668705270000005550595984306231736_);" d="M1686.46,696.43
				c-64.47,0.61-129.84,7.01-199.13,20.35c-13.28,2.55-23.65,12.88-26.35,26.13c-32.7,160.73-29.07,331.56-1.63,509.05
				c4.06,26.27,15.16,51.02,32.39,71.55c53.52,63.74,117.51,119.36,194.72,163.52V696.43z"/>
		</g>
		<g>
			
				<linearGradient id="SVGID_00000038404271881099264590000000991401438029155715_" gradientUnits="userSpaceOnUse" x1="1333.963" y1="427.31" x2="914.3254" y2="82.6073" gradientTransform="matrix(0.986 0.1665 -0.1665 0.986 112.8554 659.22)">
				<stop  offset="0" style="stop-color:#E1473D"/>
				<stop  offset="1" style="stop-color:#E9605A"/>
			</linearGradient>
			<path style="fill:url(#SVGID_00000038404271881099264590000000991401438029155715_);" d="M659.58,468.46
				c-1.02,78.73,16,132.69,91.66,142.07l1.89-11.2c-64.36-6.96-81.73-55.18-83.58-135.11L659.58,468.46z"/>
			
				<linearGradient id="SVGID_00000170256612054273158700000016598358680744744851_" gradientUnits="userSpaceOnUse" x1="1049.0148" y1="783.7696" x2="629.392" y2="439.0789">
				<stop  offset="0" style="stop-color:#E1473D"/>
				<stop  offset="1" style="stop-color:#E9605A"/>
			</linearGradient>
			<circle style="fill:url(#SVGID_00000170256612054273158700000016598358680744744851_);" cx="666.21" cy="469.32" r="19.05"/>
			
				<linearGradient id="SVGID_00000142895097029780206160000009094356660623330984_" gradientUnits="userSpaceOnUse" x1="827.5629" y1="536.4781" x2="769.0659" y2="816.9645">
				<stop  offset="0" style="stop-color:#FE7062"/>
				<stop  offset="1" style="stop-color:#FF928E"/>
			</linearGradient>
			<path style="fill:url(#SVGID_00000142895097029780206160000009094356660623330984_);" d="M880.87,629.68H752.66
				c-6.33,0-11.51-5.18-11.51-11.51v-59.83c0-6.33,5.18-11.51,11.51-11.51h128.21c6.33,0,11.51,5.18,11.51,11.51v59.83
				C892.38,624.5,887.2,629.68,880.87,629.68z"/>
			
				<ellipse transform="matrix(0.7071 -0.7071 0.7071 0.7071 -92.1239 715.2659)" class="st8" cx="817.34" cy="468.84" rx="119.42" ry="119.42"/>
			<g>
				<path class="st8" d="M918.79,564.69c-0.5,0-1-0.19-1.37-0.58c-0.74-0.76-0.73-1.97,0.03-2.71
					c25.15-24.55,39.01-57.42,39.01-92.56c0-33.59-12.82-65.42-36.09-89.62c-0.73-0.76-0.71-1.98,0.05-2.71
					c0.76-0.73,1.98-0.71,2.71,0.05c23.96,24.92,37.16,57.69,37.16,92.28c0,36.18-14.26,70.03-40.17,95.3
					C919.76,564.5,919.28,564.69,918.79,564.69z"/>
				<path class="st8" d="M680.46,444.59c-0.13,0-0.25-0.01-0.38-0.04c-1.04-0.21-1.71-1.22-1.5-2.26
					c6.18-30.56,23.1-58.15,47.64-77.69c0.83-0.66,2.04-0.52,2.69,0.31c0.66,0.83,0.52,2.04-0.31,2.7
					c-23.83,18.97-40.27,45.77-46.27,75.45C682.15,443.96,681.35,444.59,680.46,444.59z"/>
				<path class="st8" d="M726.62,572.85c-0.42,0-0.85-0.14-1.21-0.43c-23.34-18.87-39.77-45.3-46.28-74.42
					c-0.23-1.03,0.42-2.06,1.45-2.29c1.04-0.23,2.06,0.42,2.29,1.45c6.32,28.27,22.28,53.94,44.95,72.27
					c0.82,0.67,0.95,1.87,0.29,2.7C727.73,572.61,727.18,572.85,726.62,572.85z"/>
				<path class="st8" d="M907.84,559.67c-0.51,0-1.01-0.2-1.39-0.59c-0.73-0.77-0.71-1.98,0.06-2.71
					c24.2-23.14,37.53-54.32,37.53-87.79c0-37.6-17-72.48-46.65-95.69c-0.83-0.65-0.98-1.86-0.33-2.69
					c0.65-0.83,1.86-0.98,2.69-0.33c30.58,23.94,48.12,59.92,48.12,98.71c0,34.53-13.75,66.69-38.71,90.56
					C908.79,559.49,908.31,559.67,907.84,559.67z"/>
				<path class="st8" d="M735.23,566.35c-0.42,0-0.85-0.14-1.21-0.43c-29.49-23.93-46.4-59.41-46.4-97.34
					c0-22.14,5.85-43.9,16.93-62.92c10.74-18.46,26.13-33.99,44.51-44.89c0.91-0.54,2.09-0.24,2.63,0.67
					c0.54,0.91,0.24,2.09-0.67,2.63c-36.73,21.8-59.55,61.85-59.55,104.52c0,36.77,16.4,71.17,44.98,94.36
					c0.82,0.67,0.95,1.88,0.28,2.7C736.34,566.1,735.79,566.35,735.23,566.35z"/>
				<path class="st8" d="M704.83,566.35c-0.52,0-1.04-0.21-1.42-0.62c-14.02-15.37-24.35-33.16-30.68-52.87
					c-0.32-1.01,0.23-2.09,1.24-2.41c1.01-0.32,2.09,0.23,2.41,1.24c6.16,19.18,16.21,36.49,29.86,51.46c0.71,0.78,0.66,2-0.12,2.71
					C705.76,566.18,705.29,566.35,704.83,566.35z"/>
				<path class="st8" d="M942.86,553.66c-0.39,0-0.78-0.12-1.12-0.36c-0.86-0.62-1.05-1.82-0.43-2.68
					c17.25-23.92,26.37-52.2,26.37-81.78c0-27.45-7.94-54.03-22.98-76.86c-0.58-0.88-0.34-2.07,0.55-2.66
					c0.88-0.58,2.07-0.34,2.66,0.55c15.44,23.46,23.61,50.76,23.61,78.97c0,30.4-9.37,59.45-27.1,84.03
					C944.04,553.38,943.45,553.66,942.86,553.66z"/>
				<path class="st8" d="M669.85,446.54c-0.11,0-0.22-0.01-0.33-0.03c-1.04-0.18-1.74-1.17-1.56-2.22
					c4.8-27.9,17.66-53.57,37.21-74.24c0.73-0.77,1.94-0.8,2.71-0.08c0.77,0.73,0.8,1.94,0.08,2.71
					c-19.03,20.12-31.55,45.1-36.22,72.25C671.58,445.89,670.77,446.54,669.85,446.54z"/>
			</g>
			
				<linearGradient id="SVGID_00000037682216027548559100000018005617162151883916_" gradientUnits="userSpaceOnUse" x1="884.8284" y1="332.5829" x2="740.8354" y2="623.5686">
				<stop  offset="0" style="stop-color:#FE7062"/>
				<stop  offset="0.5304" style="stop-color:#FE7164"/>
				<stop  offset="0.7214" style="stop-color:#FE776B"/>
				<stop  offset="0.8575" style="stop-color:#FE8076"/>
				<stop  offset="0.9668" style="stop-color:#FF8D87"/>
				<stop  offset="1" style="stop-color:#FF928E"/>
			</linearGradient>
			<circle style="fill:url(#SVGID_00000037682216027548559100000018005617162151883916_);" cx="817.34" cy="468.96" r="107.2"/>
			
				<linearGradient id="SVGID_00000172423573225771952210000015221820562573992360_" gradientUnits="userSpaceOnUse" x1="943.1321" y1="242.6006" x2="892.1348" y2="334.096">
				<stop  offset="0" style="stop-color:#E1473D"/>
				<stop  offset="1" style="stop-color:#E9605A"/>
			</linearGradient>
			<circle style="fill:url(#SVGID_00000172423573225771952210000015221820562573992360_);" cx="816.76" cy="469.32" r="55.44"/>
			
				<linearGradient id="SVGID_00000061432104602114134140000009953548953803042949_" gradientUnits="userSpaceOnUse" x1="783.6177" y1="466.859" x2="1075.1602" y2="485.9349">
				<stop  offset="0" style="stop-color:#E1473D"/>
				<stop  offset="1" style="stop-color:#E9605A"/>
			</linearGradient>
			<circle style="fill:url(#SVGID_00000061432104602114134140000009953548953803042949_);" cx="816.76" cy="469.03" r="49.7"/>
			<g>
				
					<linearGradient id="SVGID_00000144330234493477409770000001884152761513132678_" gradientUnits="userSpaceOnUse" x1="799.948" y1="468.8362" x2="834.7327" y2="468.8362">
					<stop  offset="0" style="stop-color:#FF928E"/>
					<stop  offset="1" style="stop-color:#FEB3B1"/>
				</linearGradient>
				<circle style="fill:url(#SVGID_00000144330234493477409770000001884152761513132678_);" cx="817.34" cy="468.84" r="17.39"/>
				
					<ellipse transform="matrix(0.7071 -0.7071 0.7071 0.7071 -92.1239 715.2659)" class="st31" cx="817.34" cy="468.84" rx="11.56" ry="11.56"/>
			</g>
		</g>
		<g>
			<g>
				<g>
					<path class="st8" d="M1276.83,423.99c7.5-3.46,41.28-36.06,66.44,18.04c3.45,3.19,15.43,0.14,15.22-4.34
						c-26.23-75.17-96.49-30.4-92.96-22.44C1269.08,423.23,1268.1,428.02,1276.83,423.99z"/>
				</g>
				<g>
					<path class="st8" d="M1389.73,426.33c8.36,1.25,17.48-2.21,17.13-9.91c-0.35-7.59-53.13-118.94-166.93-40.5
						c-1.4,0.96-2.35,2.44-2.65,4.11c-0.3,1.67,0.08,3.39,1.05,4.78c3.03,4.33,5.78,7.43,10.26,8.08
						C1351.68,324.93,1381.36,425.08,1389.73,426.33z"/>
				</g>
				<g>
					<path class="st8" d="M1437.31,410.28c5.44,2.72,18.38,1.59,17.91-8.7c-95.88-185.08-259.27-62.78-256.52-55.32
						c2.75,7.47,11.7,10.15,15.9,9.03C1360.75,245.73,1431.87,407.56,1437.31,410.28z"/>
				</g>
			</g>
		</g>
		<g>
			<g>
				<g>
					<g>
						<path class="st8" d="M1882.31,1051.36c-2.51,3.23-22.04,15.86,1.23,34.09c1.15,2.02-1.67,7.46-3.8,6.86
							c-33.32-21.11-3.81-49.98-0.36-47.37C1882.81,1047.53,1885.23,1047.6,1882.31,1051.36z"/>
					</g>
					<g>
						<path class="st8" d="M1870.73,1106.09c-0.34,4.18-3.03,8.19-6.71,7.15c-3.62-1.02-51.4-39.02-0.76-85.1
							c0.62-0.57,1.44-0.86,2.28-0.82c0.84,0.04,1.63,0.42,2.19,1.04c1.75,1.95,2.94,3.62,2.74,5.86
							C1826.09,1076.32,1871.07,1101.92,1870.73,1106.09z"/>
					</g>
					<g>
						<path class="st8" d="M1857.63,1127.25c0.7,2.93-1.3,9.05-6.21,7.66c-78.5-67.09-1.11-132.16,2.18-129.99
							c3.29,2.16,3.58,6.79,2.57,8.69C1786.86,1071.79,1856.93,1124.32,1857.63,1127.25z"/>
					</g>
				</g>
			</g>
			<g>
				
					<linearGradient id="SVGID_00000115491198746999372110000002183785755645297076_" gradientUnits="userSpaceOnUse" x1="286.6504" y1="1063.4866" x2="266.6736" y2="1091.6716" gradientTransform="matrix(-1 0 0 1 2218.675 0)">
					<stop  offset="0" style="stop-color:#FF928E"/>
					<stop  offset="1" style="stop-color:#FEB3B1"/>
				</linearGradient>
				<path style="fill:url(#SVGID_00000115491198746999372110000002183785755645297076_);" d="M1938.23,1079.32
					c0,0,2.81-5.08,2.5-9.16s2.24-10.08-0.46-9.64c-2.71,0.44-3.27,0.08-4,4.98C1935.54,1070.41,1928.93,1088.48,1938.23,1079.32z"
					/>
				<g>
					
						<linearGradient id="SVGID_00000070804501618274543680000014849188532780963254_" gradientUnits="userSpaceOnUse" x1="115.3812" y1="1545.3486" x2="245.4058" y2="1502.4757" gradientTransform="matrix(-1 0 0 1 2218.675 0)">
						<stop  offset="0" style="stop-color:#09005D"/>
						<stop  offset="1" style="stop-color:#1A0F91"/>
					</linearGradient>
					<path style="fill:url(#SVGID_00000070804501618274543680000014849188532780963254_);" d="M2053.7,1524.91
						c1.24-4.4,5.31-7.39,9.88-7.25l4.52,0.14c23.82,5.71,36.24,19.52,41.14,26.31c0.19,0.27,0.02,0.64-0.31,0.67
						c-7.52,0.61-24.99,1.82-39.77,1.4c-9.86-0.28-15.13-0.66-17.76-1.74C2051.43,1536.75,2052.49,1529.18,2053.7,1524.91z"/>
					
						<linearGradient id="SVGID_00000142894194840651288230000003911524081499653030_" gradientUnits="userSpaceOnUse" x1="2007.4971" y1="1522.5488" x2="2211.5205" y2="1587.9553">
						<stop  offset="0" style="stop-color:#4042E2"/>
						<stop  offset="1" style="stop-color:#4F52FF"/>
					</linearGradient>
					<path style="fill:url(#SVGID_00000142894194840651288230000003911524081499653030_);" d="M2068.99,1545.68
						c-9.86-0.28-14.96-1.44-17.6-2.52c-0.01,0.98,0,1.98,0.03,3.01c0.03,1.1,0.85,1.99,1.86,1.98l54.15-0.35
						c1.73-0.01,2.74-2.02,1.99-3.6C2102.32,1544.79,2084.23,1546.1,2068.99,1545.68z"/>
				</g>
				
					<linearGradient id="SVGID_00000182527394467258448600000016912040789743273398_" gradientUnits="userSpaceOnUse" x1="153.5609" y1="1484.75" x2="145.8605" y2="1551.9542" gradientTransform="matrix(-1 0 0 1 2218.675 0)">
					<stop  offset="0" style="stop-color:#FF928E"/>
					<stop  offset="1" style="stop-color:#FEB3B1"/>
				</linearGradient>
				<path style="fill:url(#SVGID_00000182527394467258448600000016912040789743273398_);" d="M2075.7,1502.27l-3.78,18.21
					c-0.28,1.33-1.3,2.33-2.54,2.45c-1.52,0.14-3.68,0.23-5.86-0.09c-1.95-0.29-3.31-2.27-2.96-4.4l2.63-16.17H2075.7z"/>
				<g>
					
						<linearGradient id="SVGID_00000145038046945141568050000016879190957973009835_" gradientUnits="userSpaceOnUse" x1="1944.4562" y1="1527.2206" x2="2059.6604" y2="1577.0186">
						<stop  offset="0" style="stop-color:#4042E2"/>
						<stop  offset="1" style="stop-color:#4F52FF"/>
					</linearGradient>
					<path style="fill:url(#SVGID_00000145038046945141568050000016879190957973009835_);" d="M1997.34,1545.68
						c9.86-0.28,14.96-1.44,17.6-2.52c0.01,0.98,0,1.98-0.03,3.01c-0.03,1.1-0.85,1.99-1.86,1.98l-54.15-0.35
						c-1.73-0.01-2.74-2.02-1.99-3.6C1964.01,1544.79,1982.09,1546.1,1997.34,1545.68z"/>
					
						<linearGradient id="SVGID_00000140733191144811010800000018077128342260634788_" gradientUnits="userSpaceOnUse" x1="207.9957" y1="1539.9646" x2="328.8507" y2="1500.1152" gradientTransform="matrix(-1 0 0 1 2218.675 0)">
						<stop  offset="0" style="stop-color:#09005D"/>
						<stop  offset="1" style="stop-color:#1A0F91"/>
					</linearGradient>
					<path style="fill:url(#SVGID_00000140733191144811010800000018077128342260634788_);" d="M1956.91,1544.2
						c0.07-0.14,0.12-0.28,0.21-0.41c4.78-6.68,16.96-19.99,41.03-25.76l11.55-0.36c0,0,5.14,8.94,5.24,25.49
						c-2.64,1.08-7.74,2.24-17.6,2.52C1982.09,1546.1,1964.01,1544.79,1956.91,1544.2z"/>
				</g>
				
					<linearGradient id="SVGID_00000139264298211471524870000009704969244547692193_" gradientUnits="userSpaceOnUse" x1="216.2865" y1="1491.9376" x2="208.5861" y2="1559.1412" gradientTransform="matrix(-1 0 0 1 2218.675 0)">
					<stop  offset="0" style="stop-color:#FF928E"/>
					<stop  offset="1" style="stop-color:#FEB3B1"/>
				</linearGradient>
				<path style="fill:url(#SVGID_00000139264298211471524870000009704969244547692193_);" d="M2011.84,1500.17
					c-0.13,0.86-1.71,13.94-2.32,19.01c-0.15,1.21-1.02,2.14-2.12,2.27c-1.97,0.23-5.15,0.45-7.93-0.12
					c-1.5-0.31-2.59-1.75-2.59-3.43v-20.53L2011.84,1500.17z"/>
				
					<linearGradient id="SVGID_00000115515196115619150040000013328303416663806858_" gradientUnits="userSpaceOnUse" x1="2035.4139" y1="418.8637" x2="2043.218" y2="1294.0457">
					<stop  offset="0" style="stop-color:#09005D"/>
					<stop  offset="1" style="stop-color:#1A0F91"/>
				</linearGradient>
				<path style="fill:url(#SVGID_00000115515196115619150040000013328303416663806858_);" d="M2021.11,1261.46
					c0,0-27.85,105.83-27.35,239.02c0.01,2.43,1.71,4.52,4.09,5.02c3.5,0.74,8.65,1.61,12.91,1.49c2.27-0.06,4.18-1.75,4.56-3.99
					c3.9-22.9,26.31-151.9,39.08-172.84c0,0,8.4,114.9,5.71,174.5c-0.07,1.48,1.02,2.77,2.49,2.94c2.24,0.26,5.81,0.45,10.36-0.03
					c1.73-0.18,3.12-1.49,3.37-3.21c2.78-19.38,18.79-134.74,18.11-217.84c-0.04-4.69-12.39-25.06-12.39-25.06H2021.11z"/>
				
					<linearGradient id="SVGID_00000011741068069516433550000004156883154929578630_" gradientUnits="userSpaceOnUse" x1="110.3628" y1="1143.1504" x2="137.3647" y2="1065.629" gradientTransform="matrix(-1 0 0 1 2218.675 0)">
					<stop  offset="0" style="stop-color:#53D8FF"/>
					<stop  offset="1" style="stop-color:#3840F7"/>
				</linearGradient>
				<path style="fill:url(#SVGID_00000011741068069516433550000004156883154929578630_);" d="M2107.92,1169.42
					c7.57-20.72,4.82-45.73,4.79-45.98l-2.09,0.24c0.03,0.25,2.72,24.78-4.68,45.02L2107.92,1169.42z"/>
				<g>
					
						<linearGradient id="SVGID_00000168082936437976796540000010129808894441430154_" gradientUnits="userSpaceOnUse" x1="268.6962" y1="1020.7139" x2="322.544" y2="1274.296" gradientTransform="matrix(-1 0 0 1 2218.675 0)">
						<stop  offset="0" style="stop-color:#FF928E"/>
						<stop  offset="1" style="stop-color:#FEB3B1"/>
					</linearGradient>
					<path style="fill:url(#SVGID_00000168082936437976796540000010129808894441430154_);" d="M1913.87,1178.08
						c-6.25-34,2.21-93.38,2.21-93.38l13.46,13.29c0,0,1.33,48.45,10.02,67.38C1933.84,1166.06,1922.75,1168.62,1913.87,1178.08z"/>
					
						<linearGradient id="SVGID_00000016770827937656153800000013604653851297127591_" gradientUnits="userSpaceOnUse" x1="263.6102" y1="1081.2007" x2="-166.4651" y2="1571.2262" gradientTransform="matrix(-1 0 0 1 2218.675 0)">
						<stop  offset="0" style="stop-color:#FE7062"/>
						<stop  offset="1" style="stop-color:#FF928E"/>
					</linearGradient>
					<path style="fill:url(#SVGID_00000016770827937656153800000013604653851297127591_);" d="M1939.57,1165.38
						c1.64,3.57,3.52,6.2,5.66,7.37c7.85,4.31,23.09-20.29,34.44-41.61c8.17-15.33,14.33-28.95,14.33-28.95
						c8.17-9.22,28.39-10.49,47.21-9.32c19.59,1.22,37.62,5.07,38.92,5.36c0.05,0.01,0.08,0.01,0.08,0.01
						c9.02,1.19,16.84,2.18,22.5,2.9c6.61,0.84,12.66,4.1,17.02,9.15c17.29,20,55.23,74.79,10.57,129.99
						c-5.71-3.17-13.84-8.26-19.35-14.15c4.94-13.93,5.34-31.72-5-53.56c-0.35,1.74-0.8,3.45-1.32,5.13
						c-14.28,45.21-15.04,82.84-15,91.5c0,1.19-0.71,2.25-1.8,2.68c-18.78,7.53-54.94,3.04-67.06,1.24
						c-2.23-0.33-3.72-2.4-3.42-4.64c3.62-26.22-6.26-62.73-16.37-91.33c-59.34,58.81-80.54,36.6-87.1,0.93
						C1922.75,1168.62,1933.84,1166.06,1939.57,1165.38z"/>
				</g>
				
					<linearGradient id="SVGID_00000154413900823698676250000012394375758729953929_" gradientUnits="userSpaceOnUse" x1="88.3672" y1="1263.293" x2="156.5454" y2="1263.293" gradientTransform="matrix(-1 0 0 1 2218.675 0)">
					<stop  offset="0" style="stop-color:#FF928E"/>
					<stop  offset="1" style="stop-color:#FEB3B1"/>
				</linearGradient>
				<path style="fill:url(#SVGID_00000154413900823698676250000012394375758729953929_);" d="M2077.78,1264.07
					c5.15-2.89,25.14-15.3,33.17-37.95c5.52,5.89,13.64,10.97,19.35,14.15c-8.53,10.55-20.08,21.11-35.37,31.45
					c-0.54,11.76-9.59,16.12-11.65,19.93c-2.07,3.81,0.87,2.94-0.44,7.73c-1.31,4.79-15.02-7.62-18.29-10.45
					c-3.27-2.83-1.31-10.67-1.31-10.67s-0.22-1.63-1.09-4.9C2061.29,1270.1,2077.72,1264.09,2077.78,1264.07z"/>
				<g>
					
						<linearGradient id="SVGID_00000042007454157970858670000006854406377676696495_" gradientUnits="userSpaceOnUse" x1="170.5726" y1="1054.3602" x2="141.171" y2="1181.4174" gradientTransform="matrix(-1 0 0 1 2218.675 0)">
						<stop  offset="0" style="stop-color:#FF928E"/>
						<stop  offset="1" style="stop-color:#FEB3B1"/>
					</linearGradient>
					<path style="fill:url(#SVGID_00000042007454157970858670000006854406377676696495_);" d="M2070.32,1064.25l3.62,36.98
						c0,0-20.8,6.27-35.94-4.41l10.64-33.61L2070.32,1064.25z"/>
					<g>
						
							<linearGradient id="SVGID_00000029766545142188057870000002776832496619630987_" gradientUnits="userSpaceOnUse" x1="2158.1135" y1="1022.1943" x2="2103.4468" y2="1038.1943">
							<stop  offset="0" style="stop-color:#FF928E"/>
							<stop  offset="1" style="stop-color:#FEB3B1"/>
						</linearGradient>
						<path style="fill:url(#SVGID_00000029766545142188057870000002776832496619630987_);" d="M2035,1032.74
							c-0.25,0.64-1.29,46.1-1.29,46.1l25.97,0.05l7.39-42.93C2067.07,1035.94,2039.14,1021.99,2035,1032.74z"/>
						
							<linearGradient id="SVGID_00000092451297529911712680000017633977912223673517_" gradientUnits="userSpaceOnUse" x1="-1169.8528" y1="-1178.1357" x2="-1107.5477" y2="-1178.1357" gradientTransform="matrix(-0.9332 -0.3594 -0.3594 0.9332 560.538 1745.4685)">
							<stop  offset="0" style="stop-color:#09005D"/>
							<stop  offset="1" style="stop-color:#1A0F91"/>
						</linearGradient>
						<path style="fill:url(#SVGID_00000092451297529911712680000017633977912223673517_);" d="M2058.17,1041.31
							c0.84,0.79,1.27,1.92,1.17,3.07l-2.09,22.57c-0.03,0.34-0.11,0.67-0.23,0.99c-0.69,1.77-3.34,7.21-8.87,4.19
							c-4.71-2.58-9.07-4.88-12.62-4.99c-2.07-0.06-3.78,1.6-3.82,3.67c-0.08,4.27-0.07,12.87,1.01,20.52
							c0.27,1.92,1.99,3.29,3.92,3.17c5.1-0.32,15.04-1.25,23.02-3.81c1.31-0.42,2.28-1.52,2.53-2.88
							c1.1-5.96,4.25-22.65,5.87-27.22c1.5-4.25,7.33-5.72,10.05-6.18c1.03-0.18,1.94-0.77,2.52-1.64
							c1.73-2.63,4.21-8.31-2.63-12.61c-1.7-1.07-2.19-3.35-1.16-5.07c1.85-3.09,3.19-7.85-2.22-11.92
							c-5.48-4.12-10.78-2.18-14.03-0.1c-1.44,0.92-3.37,0.86-4.64-0.28c-0.56-0.51-1.34-0.8-2.39-0.53
							c-1.99,0.5-3.97-0.58-4.48-2.56c-0.88-3.4-3.28-7.21-9.55-7.56c-11.5-0.63-15.55,11.35-14.27,19.2
							c1.28,7.85,13.78,7.82,20.57,5.56C2050.81,1035.24,2055.85,1039.13,2058.17,1041.31z"/>
						
							<linearGradient id="SVGID_00000065039898983649603460000011668719815623787942_" gradientUnits="userSpaceOnUse" x1="-1205.4619" y1="-1140.3646" x2="-1164.175" y2="-1182.7239" gradientTransform="matrix(-0.9332 -0.3594 -0.3594 0.9332 560.538 1745.4685)">
							<stop  offset="0" style="stop-color:#FF928E"/>
							<stop  offset="1" style="stop-color:#FEB3B1"/>
						</linearGradient>
						<path style="fill:url(#SVGID_00000065039898983649603460000011668719815623787942_);" d="M2066.01,1068.56
							c0,0-0.46-13.4,4.92-15.45c5.39-2.05,11.94,1.15,8.31,10.03C2074.73,1074.18,2066.01,1068.56,2066.01,1068.56z"/>
					</g>
				</g>
				<g>
					
						<linearGradient id="SVGID_00000036228558944383538630000016272103676872692136_" gradientUnits="userSpaceOnUse" x1="1837.6561" y1="1110.2091" x2="2113.2366" y2="1189.1099">
						<stop  offset="0" style="stop-color:#E1473D"/>
						<stop  offset="1" style="stop-color:#E9605A"/>
					</linearGradient>
					<path style="fill:url(#SVGID_00000036228558944383538630000016272103676872692136_);" d="M2000.54,1175.91
						c0.03,0,0.05,0,0.08-0.01c0.36-0.04,0.61-0.37,0.57-0.73c-0.04-0.29-3.56-28.84-1.65-37.06c0.08-0.35-0.14-0.7-0.49-0.78
						c-0.35-0.09-0.7,0.14-0.78,0.49c-1.96,8.45,1.47,36.34,1.62,37.52C1999.93,1175.67,2000.21,1175.91,2000.54,1175.91z"/>
				</g>
				<g>
					
						<linearGradient id="SVGID_00000137854247427411604550000010645957491499624605_" gradientUnits="userSpaceOnUse" x1="824.0056" y1="977.7159" x2="677.7109" y2="1184.1222" gradientTransform="matrix(-0.9953 0.0967 0.0967 0.9953 2622.2661 -52.6712)">
						<stop  offset="0" style="stop-color:#4042E2"/>
						<stop  offset="1" style="stop-color:#4F52FF"/>
					</linearGradient>
					<path style="fill:url(#SVGID_00000137854247427411604550000010645957491499624605_);" d="M1914.9,1000.81
						c-0.09-1.6,0.53-3.16,1.71-4.25c1.17-1.09,2.77-1.61,4.36-1.41l39.72,5.07c1.54,0.2,2.69,1.52,2.67,3.08l-1.49,102.11
						c-0.01,0.44-0.19,0.86-0.51,1.17c-0.32,0.3-0.74,0.47-1.18,0.46l-34.32-0.82c-2.81-0.07-5.1-2.28-5.26-5.09L1914.9,1000.81z"/>
					<path class="st3" d="M1926.4,1005.58c-0.04-0.91,0.33-1.79,1.01-2.4c0.68-0.61,1.59-0.88,2.49-0.75l26.19,3.91
						c1.51,0.23,2.63,1.54,2.6,3.07l-1.35,86.96c-0.01,0.46-0.2,0.89-0.54,1.2c-0.34,0.31-0.79,0.46-1.24,0.42l-23.99-1.91
						c-0.83-0.07-1.48-0.74-1.52-1.58L1926.4,1005.58z"/>
					<path class="st14" d="M1940.87,1001.84c-0.03,0.31,0.42,0.61,1.01,0.68l8.72,0.94c0.59,0.06,1.1-0.14,1.13-0.45l0.03-0.3
						c0.03-0.31-0.42-0.61-1.01-0.68l-8.72-0.94c-0.59-0.06-1.1,0.14-1.13,0.45L1940.87,1001.84z"/>
				</g>
				
					<linearGradient id="SVGID_00000007394836239914940650000012630771469017965209_" gradientUnits="userSpaceOnUse" x1="290.2585" y1="1016.1352" x2="344.1064" y2="1269.7178" gradientTransform="matrix(-1 0 0 1 2218.675 0)">
					<stop  offset="0" style="stop-color:#FF928E"/>
					<stop  offset="1" style="stop-color:#FEB3B1"/>
				</linearGradient>
				<path style="fill:url(#SVGID_00000007394836239914940650000012630771469017965209_);" d="M1911.29,1061.34
					c3.02-1.11,8.92-11.33,10.05-7.97c1.13,3.36-0.48,7.97,0,9.4c0.48,1.43,3.74,9.37,2.27,13.02c-1.06,2.64-2.81,10.75-3.7,15.06
					c-0.3,1.43-0.46,3.3-1.92,3.3c-1.46,0-2.8-1.82-3.1-3.25C1914.78,1090.33,1908.27,1062.45,1911.29,1061.34z"/>
			</g>
			<g>
				<g>
					<g>
						
							<linearGradient id="SVGID_00000158737740147676072130000010220535545911778432_" gradientUnits="userSpaceOnUse" x1="1930.964" y1="781.3982" x2="1920.6727" y2="949.4917">
							<stop  offset="0" style="stop-color:#FE7062"/>
							<stop  offset="1" style="stop-color:#FF928E"/>
						</linearGradient>
						<circle style="fill:url(#SVGID_00000158737740147676072130000010220535545911778432_);" cx="1926.35" cy="856.74" r="42.06"/>
						
							<linearGradient id="SVGID_00000004519542203029197430000001046303584183587979_" gradientUnits="userSpaceOnUse" x1="1930.9023" y1="781.3943" x2="1920.6111" y2="949.4874">
							<stop  offset="0" style="stop-color:#FE7062"/>
							<stop  offset="1" style="stop-color:#FF928E"/>
						</linearGradient>
						<path style="fill:url(#SVGID_00000004519542203029197430000001046303584183587979_);" d="M1968.34,854.49h-41.99h-42.06
							c0,0-3.35,23.35,34.19,87.29c1.64,2.79,4.63,4.46,7.87,4.46c3.24,0,6.23-1.64,7.87-4.43
							C1971.75,877.86,1968.34,854.49,1968.34,854.49z"/>
					</g>
					<g>
						
							<linearGradient id="SVGID_00000091714215675720504040000009326911537073322675_" gradientUnits="userSpaceOnUse" x1="1960.7957" y1="684.2303" x2="1925.7285" y2="860.3285">
							<stop  offset="0" style="stop-color:#E1473D"/>
							<stop  offset="1" style="stop-color:#E9605A"/>
						</linearGradient>
						<path style="fill:url(#SVGID_00000091714215675720504040000009326911537073322675_);" d="M1926.33,947.6v0.24h0.01
							c-3.66,0-7.08-2.01-8.92-5.15c-21.94-37.38-29.98-61.01-32.86-74.24c-0.82-3.04-1.29-6.02-1.44-9.08
							c-0.25-3.13-0.06-4.45-0.04-4.58l0.11-0.67c1.69-22.59,20.5-40.18,43.16-40.18c22.96,0,41.93,17.83,43.21,40.61
							c0.03,0.3,0.09,1.05,0.07,2.32l0,0.16c0,4.13-0.58,8.22-1.73,12.16c-2.98,13.21-11.07,36.62-32.64,73.36
							C1933.41,945.7,1930.12,947.6,1926.33,947.6z M1885.44,856.38c-0.01,0.63,0.01,1.53,0.12,2.89c0.14,2.9,0.59,5.68,1.37,8.57
							l0.01,0.05c2.84,13.05,10.79,36.39,32.59,73.51c1.4,2.39,4,3.87,6.8,3.87l-0.01,1.22v-1.22c2.52,0,5.41-1.5,6.82-3.91
							c21.43-36.51,29.43-59.72,32.37-72.76l0.02-0.08c1.09-3.73,1.4-7.6,1.4-11.51l-0.25-0.17v-0.01c0-1.22,0.21-1.88,0.19-2.05
							l0.12-0.07c-1.19-21.5-19.04-38.34-40.72-38.34c-21.63,0-39.51,17.08-40.74,38.76l-0.03,1.24H1885.44z"/>
					</g>
					
						<ellipse transform="matrix(0.2916 -0.9565 0.9565 0.2916 545.345 2449.5811)" class="st54" cx="1926.49" cy="856.61" rx="24.29" ry="24.29"/>
					<g>
						
							<linearGradient id="SVGID_00000183238191641700016680000008653926293439743924_" gradientUnits="userSpaceOnUse" x1="1936.9095" y1="823.2872" x2="1967.4097" y2="725.7872">
							<stop  offset="0" style="stop-color:#FE7062"/>
							<stop  offset="0.5304" style="stop-color:#FE7164"/>
							<stop  offset="0.7214" style="stop-color:#FE776B"/>
							<stop  offset="0.8575" style="stop-color:#FE8076"/>
							<stop  offset="0.9668" style="stop-color:#FF8D87"/>
							<stop  offset="1" style="stop-color:#FF928E"/>
						</linearGradient>
						<path style="fill:url(#SVGID_00000183238191641700016680000008653926293439743924_);" d="M1926.49,882.25
							c-14.14,0-25.65-11.5-25.65-25.65c0-14.14,11.5-25.65,25.65-25.65c14.14,0,25.65,11.5,25.65,25.65
							C1952.13,870.75,1940.63,882.25,1926.49,882.25z M1926.49,833.67c-12.64,0-22.93,10.29-22.93,22.93
							c0,12.64,10.29,22.93,22.93,22.93c12.64,0,22.93-10.29,22.93-22.93C1949.42,843.96,1939.13,833.67,1926.49,833.67z"/>
					</g>
				</g>
				<g>
					<path class="st54" d="M1903.45,831.32c-0.11,0-0.23-0.05-0.31-0.14c-0.15-0.17-0.13-0.43,0.04-0.57
						c6.82-5.86,15.54-9.09,24.55-9.09c0.22,0,0.41,0.18,0.41,0.41c0,0.22-0.18,0.41-0.41,0.41c-8.81,0-17.34,3.16-24.02,8.89
						C1903.64,831.29,1903.54,831.32,1903.45,831.32z"/>
				</g>
				<g>
					<path class="st54" d="M1890.44,859.62c-0.22,0-0.41-0.18-0.41-0.41c0-7.03,1.95-13.89,5.64-19.84
						c0.12-0.19,0.37-0.25,0.56-0.13c0.19,0.12,0.25,0.37,0.13,0.56c-3.61,5.82-5.52,12.53-5.52,19.41
						C1890.85,859.43,1890.67,859.62,1890.44,859.62z"/>
				</g>
			</g>
			<g>
				<g>
					<path class="st3" d="M1808.65,988.69h-84.56c-8.26,0-14.96-6.7-14.96-14.96v-91.9h114.32v92.06
						C1823.45,982.06,1816.82,988.69,1808.65,988.69z"/>
					<path class="st3" d="M1694.13,885.67l74.09-83.92c2.11-2.39,5.87-2.26,7.81,0.26l64.95,84.34c1.94,2.51,0.14,6.15-3.03,6.15
						h-140.73C1693.67,892.51,1691.79,888.32,1694.13,885.67z"/>
				</g>
				
					<linearGradient id="SVGID_00000138571037903777619720000015435377740082555790_" gradientUnits="userSpaceOnUse" x1="1721.2483" y1="925.7612" x2="1813.623" y2="925.7612">
					<stop  offset="0" style="stop-color:#DAE3FE"/>
					<stop  offset="1" style="stop-color:#E9EFFD"/>
				</linearGradient>
				<circle style="fill:url(#SVGID_00000138571037903777619720000015435377740082555790_);" cx="1767.44" cy="925.76" r="46.19"/>
				<g>
					
						<linearGradient id="SVGID_00000031913143580116090330000009069092521800145818_" gradientUnits="userSpaceOnUse" x1="1799.1967" y1="859.273" x2="1719.7006" y2="997.2661">
						<stop  offset="0" style="stop-color:#FE7062"/>
						<stop  offset="0.5304" style="stop-color:#FE7164"/>
						<stop  offset="0.7214" style="stop-color:#FE776B"/>
						<stop  offset="0.8575" style="stop-color:#FE8076"/>
						<stop  offset="0.9668" style="stop-color:#FF8D87"/>
						<stop  offset="1" style="stop-color:#FF928E"/>
					</linearGradient>
					<path style="fill:url(#SVGID_00000031913143580116090330000009069092521800145818_);" d="M1757.46,954.03
						c0-1.36,0.25-2.66,0.76-3.88c0.5-1.23,1.21-2.28,2.11-3.16c0.9-0.88,1.96-1.58,3.19-2.11c1.23-0.53,2.55-0.79,3.95-0.79
						c1.36,0,2.66,0.26,3.89,0.79c1.23,0.53,2.28,1.23,3.16,2.11c0.88,0.88,1.58,1.93,2.11,3.16c0.53,1.23,0.79,2.52,0.79,3.88
						c0,1.41-0.26,2.71-0.79,3.92c-0.53,1.21-1.23,2.25-2.11,3.13c-0.88,0.88-1.93,1.57-3.16,2.07c-1.23,0.5-2.53,0.76-3.89,0.76
						c-1.41,0-2.72-0.25-3.95-0.76c-1.23-0.5-2.29-1.19-3.19-2.07c-0.9-0.88-1.6-1.92-2.11-3.13
						C1757.71,956.74,1757.46,955.43,1757.46,954.03z M1775.31,867.75v37.67c0,4-0.2,7.92-0.59,11.76
						c-0.39,3.84-0.92,7.91-1.58,12.22h-11c-0.66-4.3-1.18-8.38-1.58-12.22c-0.4-3.84-0.59-7.76-0.59-11.76v-37.67H1775.31z"/>
				</g>
			</g>
		</g>
		<g>
			<g>
				
					<linearGradient id="SVGID_00000047749337434022275360000008926358128311492794_" gradientUnits="userSpaceOnUse" x1="612.6431" y1="1093.1791" x2="608.8405" y2="1210.425">
					<stop  offset="0" style="stop-color:#E1473D"/>
					<stop  offset="1" style="stop-color:#E9605A"/>
				</linearGradient>
				<path style="fill:url(#SVGID_00000047749337434022275360000008926358128311492794_);" d="M642.83,1259.61H572.6v-28.77
					c0-9.89,8.02-17.9,17.9-17.9h33.73c10.27,0,18.6,8.33,18.6,18.6V1259.61z"/>
				
					<linearGradient id="SVGID_00000094609379866636307010000003367714685159786937_" gradientUnits="userSpaceOnUse" x1="607.7828" y1="1253.9271" x2="604.4586" y2="1356.4224">
					<stop  offset="0" style="stop-color:#FF928E"/>
					<stop  offset="1" style="stop-color:#FEB3B1"/>
				</linearGradient>
				<path style="fill:url(#SVGID_00000094609379866636307010000003367714685159786937_);" d="M636.05,1262.02h-56.3v-23.14
					c0-9.89,8.02-17.9,17.9-17.9h19.8c10.27,0,18.6,8.33,18.6,18.6V1262.02z"/>
			</g>
			<path class="st14" d="M718.2,1257.23c81.55,20.39,129.39,74.9,152.98,80.41c23.59,5.51,118.09,10.55,133.5,24.87
				c15.41,14.32,0.69,24.49,20.5,42.9c21.92,61.85-45.95,80.36-45.95,80.36l-616.94-5.01c0,0-41.63,3.74-42.55-25.99
				c-0.92-29.73,9.19-44.75,11.38-71.53c2.19-26.78,2.24-28.12,8.2-42.01c5.96-13.89,63.88-15.39,75.15-30.84
				c11.27-15.44,24.69-40.07,72.51-48.47C553.04,1250.33,670.9,1245.41,718.2,1257.23z"/>
			<path class="st8" d="M714.62,1262.94c77.85,19.08,123.55,69.95,146.07,75.11c22.52,5.16,112.72,9.94,127.44,23.3
				c14.72,13.36,0.68,22.84,19.6,40.02c20.97,57.7-43.79,74.9-43.79,74.9l-588.82-5.17c0,0-39.73,3.46-40.64-24.27
				c-0.9-27.73,8.74-41.73,10.8-66.7c2.07-24.97,2.11-26.23,7.79-39.17c5.68-12.94,60.96-14.3,71.7-28.7
				c10.75-14.39,23.53-37.35,69.17-45.14C556.98,1256.36,669.47,1251.87,714.62,1262.94z"/>
			<g>
				
					<linearGradient id="SVGID_00000121272885419851025610000000284177759314459532_" gradientUnits="userSpaceOnUse" x1="1337.4182" y1="872.4417" x2="926.2382" y2="1202.1488">
					<stop  offset="0" style="stop-color:#4042E2"/>
					<stop  offset="1" style="stop-color:#4F52FF"/>
				</linearGradient>
				<path style="fill:url(#SVGID_00000121272885419851025610000000284177759314459532_);" d="M1025.19,1404.68
					c-19.81-18.41-5.09-28.58-20.5-42.9c-10.74-9.98-59.9-15.45-96.7-19.72l-165.3,111.2H576.73l-175.47-135.13
					c-21.09,8.24-57.3,11.55-61.94,22.37c-5.96,13.89-6.01,15.23-8.2,42.01c-2.19,26.78-12.3,41.8-11.38,71.53
					c0.92,29.73,42.55,25.99,42.55,25.99l616.94,5.01C979.24,1485.04,1047.11,1466.54,1025.19,1404.68z"/>
			</g>
			<path class="st14" d="M316.44,1453.01c1.06,34.18,59,28.12,59.26,28.1c0,0,46.07-35.26-17.31-33.91
				c-19.04-0.49-38.35-10.58-38.35-10.58L316.44,1453.01z"/>
			<path class="st14" d="M1028.95,1420.69c0,0,0.61,8.72-15.73,17.62c-20.24,11.04-90.53-1.1-90.53-1.1l-8.02,45.23l66.24,3.38
				C979.37,1486.24,1067.9,1481.14,1028.95,1420.69z"/>
			<path class="st14" d="M457.67,1355.99c0,0-1.66-15.51,12.65-34.61c14.31-19.1,22.67-31.69,33.62-34.98
				c10.95-3.29,91.04-16.41,96.25-6.68c5.21,9.74,11.7,69.65,11.7,69.65L457.67,1355.99z"/>
			<path class="st4" d="M505.39,1284.75c8.97-1.58,77.09-11.02,94.66-8.53l4.45,20.03l-146.9,59.72c0,0-0.64-12.77,6.74-25.4
				C476.75,1309.36,496.01,1286.15,505.39,1284.75z"/>
			<path class="st14" d="M615.36,1279.63c2.54,11.59,11.91,68.08,11.91,68.08l198.41-0.92c0,0-62.55-57.48-110.63-66.57
				C666.97,1271.12,613.73,1273.5,615.36,1279.63z"/>
			<path class="st4" d="M708.27,1275.95c-39.16-5.44-53.52-4.4-94.58-0.81l3.95,16.42c0,0,61.1-11.98,118.03-5.05
				C735.68,1286.51,721.05,1277.72,708.27,1275.95z"/>
			
				<linearGradient id="SVGID_00000132082105623575061030000007599955895658418575_" gradientUnits="userSpaceOnUse" x1="-14681.6963" y1="1682.3231" x2="-14848.2129" y2="1739.1826" gradientTransform="matrix(0.9997 0.0258 -0.0258 0.9997 15733.0098 75.396)">
				<stop  offset="0" style="stop-color:#FE7062"/>
				<stop  offset="1" style="stop-color:#FF928E"/>
			</linearGradient>
			<path style="fill:url(#SVGID_00000132082105623575061030000007599955895658418575_);" d="M1000.11,1359.56
				c0,0-32.15-10.31-39.99,15.11c-7.48,24.23,65.06,30.75,65.06,30.75S1019.84,1369.47,1000.11,1359.56z"/>
			<path class="st8" d="M413.94,1327.7c0.18,0,0.36-0.03,0.54-0.08c7.55-2.28,13.91-10.23,21.27-19.44
				c10.75-13.45,22.94-28.69,42.81-32.48c38.11-7.28,95.89-12.32,96.47-12.37c1.03-0.09,1.79-0.99,1.7-2.02
				c-0.09-1.03-0.96-1.8-2.02-1.7c-0.58,0.05-58.55,5.11-96.85,12.42c-21.23,4.05-34.43,20.55-45.03,33.81
				c-6.97,8.72-13,16.25-19.43,18.2c-0.99,0.3-1.55,1.34-1.25,2.33C412.39,1327.18,413.13,1327.7,413.94,1327.7z"/>
			<path class="st3" d="M354.86,1348.86c0.69,0,1.35-0.38,1.67-1.04c3.13-6.31,16.99-9.17,30.4-11.94c4.8-0.99,9.75-2.01,14.31-3.21
				c1-0.26,1.6-1.28,1.33-2.28c-0.26-1-1.28-1.58-2.28-1.33c-4.47,1.17-9.38,2.18-14.12,3.16c-14.94,3.08-29.05,6-32.99,13.94
				c-0.46,0.92-0.08,2.04,0.84,2.5C354.3,1348.8,354.58,1348.86,354.86,1348.86z"/>
			<g>
				
					<linearGradient id="SVGID_00000067946869529249301040000006909769114523014028_" gradientUnits="userSpaceOnUse" x1="-14832.9756" y1="1800.5502" x2="-14678.1807" y2="1674.6073" gradientTransform="matrix(0.9997 0.0258 -0.0258 0.9997 15733.0098 75.396)">
					<stop  offset="0" style="stop-color:#09005D"/>
					<stop  offset="1" style="stop-color:#1A0F91"/>
				</linearGradient>
				<circle style="fill:url(#SVGID_00000067946869529249301040000006909769114523014028_);" cx="880.95" cy="1475.03" r="59.42"/>
				<path class="st14" d="M918.21,1475.34c-0.54,20.93-17.95,37.46-38.88,36.92c-20.93-0.54-37.46-17.95-36.92-38.88
					c0.54-20.93,17.95-37.46,38.88-36.92C902.22,1437,918.75,1454.4,918.21,1475.34z"/>
			</g>
			<g>
				
					<linearGradient id="SVGID_00000133488018786943322290000005155124347749610914_" gradientUnits="userSpaceOnUse" x1="-15256.7402" y1="1815.152" x2="-15101.9443" y2="1689.2089" gradientTransform="matrix(0.9997 0.0258 -0.0258 0.9997 15733.0098 75.396)">
					<stop  offset="0" style="stop-color:#09005D"/>
					<stop  offset="1" style="stop-color:#1A0F91"/>
				</linearGradient>
				<circle style="fill:url(#SVGID_00000133488018786943322290000005155124347749610914_);" cx="456.93" cy="1478.7" r="59.42"/>
				<path class="st14" d="M494.19,1479c-0.54,20.93-17.95,37.46-38.88,36.92c-20.93-0.54-37.46-17.95-36.92-38.88
					c0.54-20.93,17.95-37.46,38.88-36.92C478.2,1440.66,494.73,1458.07,494.19,1479z"/>
			</g>
			
				<linearGradient id="SVGID_00000005951629879736765760000007999066635769865366_" gradientUnits="userSpaceOnUse" x1="353.8709" y1="1356.0079" x2="333.503" y2="1454.6654">
				<stop  offset="0" style="stop-color:#FE7062"/>
				<stop  offset="1" style="stop-color:#FF928E"/>
			</linearGradient>
			<path style="fill:url(#SVGID_00000005951629879736765760000007999066635769865366_);" d="M332.08,1371.05
				c54.22,22.86,28.08,54.88-9.82,54.88L332.08,1371.05z"/>
			<g>
				
					<linearGradient id="SVGID_00000032620764999674123390000017493312814409651903_" gradientUnits="userSpaceOnUse" x1="677.8286" y1="1221.9006" x2="644.8286" y2="1288.9006">
					<stop  offset="0" style="stop-color:#09005D"/>
					<stop  offset="1" style="stop-color:#1A0F91"/>
				</linearGradient>
				<path style="fill:url(#SVGID_00000032620764999674123390000017493312814409651903_);" d="M619.79,1359.72
					c-16.22-3.27-34.02-3.78-53.86,0.04c-1.06,0.2-1.91,1.03-2.14,2.08c-4.34,19.89-3.93,41.07-0.41,63.08
					c0.51,3.21,1.92,6.23,4.1,8.74c6.8,7.84,14.88,14.67,24.77,20.08c9.7-5.72,18.27-12.07,25.21-19.33
					c2.71-2.84,4.37-6.43,4.72-10.24c2.09-22.62,2.47-43.76-0.25-62.19C621.76,1360.85,620.9,1359.95,619.79,1359.72z"/>
				
					<linearGradient id="SVGID_00000140006942656070148370000008051137751154672312_" gradientUnits="userSpaceOnUse" x1="600.2906" y1="1514.2131" x2="590.8379" y2="1379.2676">
					<stop  offset="0" style="stop-color:#4042E2"/>
					<stop  offset="1" style="stop-color:#4F52FF"/>
				</linearGradient>
				<path style="opacity:0.35;fill:url(#SVGID_00000140006942656070148370000008051137751154672312_);" d="M615.12,1364.76
					c-13.36-2.76-27.97-3.27-44.19-0.26c-1.92,0.36-3.43,1.85-3.81,3.77c-3.35,17.07-2.93,35.19-0.02,54
					c0.44,2.83,1.64,5.49,3.5,7.7c5.8,6.91,12.7,12.93,21.14,17.7c8.27-5.04,15.59-10.64,21.51-17.04c2.31-2.5,3.73-5.67,4.03-9.03
					c1.78-19.92,2.11-38.53-0.2-54.76C616.92,1365.8,616.14,1364.97,615.12,1364.76z"/>
				
					<linearGradient id="SVGID_00000162349656159734527210000006811830204814573200_" gradientUnits="userSpaceOnUse" x1="550.0173" y1="1423.9437" x2="734.5079" y2="1317.449">
					<stop  offset="0" style="stop-color:#4042E2"/>
					<stop  offset="1" style="stop-color:#4F52FF"/>
				</linearGradient>
				<path style="opacity:0.35;fill:url(#SVGID_00000162349656159734527210000006811830204814573200_);" d="M591.75,1362.5
					c-6.94,0.07-13.98,0.76-21.44,2.19c-1.43,0.28-2.55,1.39-2.84,2.81c-3.52,17.3-3.13,35.7-0.18,54.8
					c0.44,2.83,1.63,5.49,3.49,7.7c5.76,6.86,12.65,12.85,20.96,17.6V1362.5z"/>
			</g>
		</g>
		<g>
			
				<linearGradient id="SVGID_00000042716726558419568440000014257074655609516980_" gradientUnits="userSpaceOnUse" x1="1309.8516" y1="907.849" x2="1358.2788" y2="1417.9514">
				<stop  offset="0" style="stop-color:#FE7062"/>
				<stop  offset="1" style="stop-color:#FF928E"/>
			</linearGradient>
			<path style="fill:url(#SVGID_00000042716726558419568440000014257074655609516980_);" d="M1196.79,1228.4h-42.97v-178.59
				c0-70.14,50.35-129.42,117.13-137.88l87.87-11.14c37.82-4.79,75.87,7.57,104.39,33.91c28.52,26.34,44.88,64.24,44.88,103.97
				v155.91h-42.97v-155.91c0-26.91-11.08-52.58-30.4-70.42c-19.32-17.84-45.09-26.22-70.71-22.97l-87.87,11.14
				c-45.23,5.73-79.34,45.88-79.34,93.4V1228.4z"/>
			
				<linearGradient id="SVGID_00000130627352515988706330000013541850381565557134_" gradientUnits="userSpaceOnUse" x1="1295.9338" y1="1160.8081" x2="1419.8215" y2="1753.3137">
				<stop  offset="0" style="stop-color:#FE7062"/>
				<stop  offset="1" style="stop-color:#FF928E"/>
			</linearGradient>
			<path style="fill:url(#SVGID_00000130627352515988706330000013541850381565557134_);" d="M1141.12,1188.3l376.72-21.76
				c15.3-0.88,28.17,11.82,28.17,27.8v311.21c0,15.37-11.95,27.84-26.7,27.84h-367.67c-14.41,0-26.21-11.92-26.68-26.93
				l-9.05-289.45C1115.44,1201.89,1126.63,1189.14,1141.12,1188.3z"/>
			
				<linearGradient id="SVGID_00000102535072122470199670000008695788048795916439_" gradientUnits="userSpaceOnUse" x1="1409.1" y1="1147.3969" x2="1097.4852" y2="2057.6423">
				<stop  offset="0" style="stop-color:#E1473D"/>
				<stop  offset="1" style="stop-color:#E9605A"/>
			</linearGradient>
			<path style="fill:url(#SVGID_00000102535072122470199670000008695788048795916439_);" d="M1392.37,1444.23l-22.8-68.36
				c-2.74-8.22-0.87-17.41,4.99-23.6c11.68-12.35,18.65-29.56,17.82-48.47c-1.45-33.34-27.58-60.38-59.56-61.66
				c-35.4-1.42-64.52,28.09-64.52,64.68c0,20.3,8.97,38.41,22.99,50.28c7.28,6.15,10.27,16.27,7.19,25.49l-20.56,61.64
				c-5,14.99,5.67,30.64,20.89,30.64h72.67C1386.69,1474.87,1397.37,1459.22,1392.37,1444.23z"/>
		</g>
		<g>
			<path class="st3" d="M1545.04,1536.29c-1.26-0.08-2.42-0.65-3.24-1.6c-12-13.87-99.9-122.87-2.32-235.88
				c92.63-107.28,136.48-131.18,138.11-190.24c0.19-6.9,9.32-9.24,12.83-3.29c26.22,44.4,69.76,149.35-42.24,228.8
				c-123.55,87.64-106.52,172.25-98.44,196.05C1550.8,1533.28,1548.36,1536.49,1545.04,1536.29z"/>
			<path class="st3" d="M1561.26,1537.27c-2.97-0.18-5.48-2.27-6.15-5.18c-4.59-19.76-17.79-93.88,35.75-117.83
				c58.94-26.36,112.09,26.38,153.3-21.13c2.17-2.5,6.26-0.77,5.95,2.52c-2.23,23.37-15.87,78.12-93.6,94.78
				c-83.2,17.83-91.94,28.18-89.34,40.02C1567.95,1534.11,1564.98,1537.5,1561.26,1537.27z"/>
			<path class="st4" d="M1679.15,1168.55c-0.7,4.43-1.76,8.61-3.08,12.78c-1.3,4.17-2.84,8.25-4.56,12.26
				c-3.39,8.05-7.62,15.73-12.32,23.11c-9.47,14.72-21.28,27.91-34.54,39.34c-6.61,5.68-13.73,10.99-20.81,15.83
				c-6.89,4.72-13.46,9.91-19.72,15.47c-12.52,11.12-23.68,23.76-33.35,37.44c-19.25,27.36-31.95,59.59-34.41,93.07
				c-1.28,16.71-0.04,33.62,3.48,50.1c3.5,16.51,9.48,32.48,16.93,47.75c0.4,0.81,0.07,1.8-0.75,2.2c-0.78,0.39-1.73,0.08-2.16-0.66
				c-8.5-15.01-15.22-31.14-19.53-47.99c-2.19-8.41-3.76-17.01-4.67-25.69c-0.86-8.68-1.15-17.44-0.71-26.17
				c0.8-17.48,4.41-34.82,10.25-51.32c5.86-16.51,14.06-32.14,23.93-46.58c9.86-14.46,21.58-27.6,34.59-39.3
				c6.52-5.84,13.39-11.3,20.61-16.29c7.07-4.8,13.77-9.64,20.2-15.06c12.84-10.71,24.54-22.85,34.37-36.43
				c4.99-6.74,9.42-13.89,13.41-21.29c3.9-7.41,7.48-15.19,9.87-23.13l0.03-0.1c0.24-0.79,1.08-1.24,1.87-1
				C1678.83,1167.1,1679.26,1167.83,1679.15,1168.55z"/>
			<path class="st4" d="M1556.75,1523.98c0.2-0.74,0.07-1.41,0-2.1l-0.22-2.06l-0.36-4.11c-0.2-2.75-0.35-5.49-0.44-8.25
				c-0.17-5.5-0.11-11.02,0.21-16.52c0.68-11,2.33-22.03,5.95-32.59c3.58-10.48,9.43-20.67,18.5-27.73
				c4.52-3.47,9.72-6.09,15.2-7.63c5.47-1.59,11.16-2.19,16.79-2.12c22.07,0.89,43.84,3.48,65.6,5.27
				c10.83,0.79,21.8,1.4,32.21-0.83c2.58-0.58,5.12-1.34,7.56-2.34c2.41-1.05,4.77-2.24,6.94-3.75c4.38-2.96,8.13-6.83,11.43-11.06
				l0.01-0.01c0.45-0.58,1.29-0.69,1.88-0.23c0.58,0.45,0.68,1.27,0.25,1.85c-3.33,4.47-7.2,8.66-11.84,11.94
				c-2.3,1.66-4.82,3.02-7.4,4.2c-2.61,1.13-5.32,2.01-8.06,2.68c-11.08,2.48-22.29,1.92-33.23,1.25
				c-10.98-0.73-21.86-1.94-32.76-2.87c-10.87-0.94-21.85-1.81-32.64-2.26c-5.32-0.11-10.64,0.41-15.71,1.84
				c-5.08,1.38-9.85,3.74-14.05,6.9c-8.46,6.33-14.23,15.81-17.87,25.89c-3.69,10.13-5.53,20.93-6.39,31.75
				c-0.42,5.42-0.57,10.87-0.51,16.32c0.04,2.72,0.13,5.45,0.28,8.17l0.28,4.07l0.18,2.03c0.07,0.67,0.09,1.37,0.47,1.98
				c0.36,0.58,0.18,1.35-0.4,1.71c-0.58,0.36-1.35,0.18-1.71-0.4c-0.19-0.3-0.23-0.66-0.14-0.98L1556.75,1523.98z"/>
		</g>
	</g>
</g>
</svg>
