<?xml version="1.0" encoding="utf-8"?>
<!-- Generator: Adobe Illustrator 27.0.0, SVG Export Plug-In . SVG Version: 6.00 Build 0)  -->
<svg version="1.1" xmlns="http://www.w3.org/2000/svg" xmlns:xlink="http://www.w3.org/1999/xlink" x="0px" y="0px"
	 viewBox="0 0 2475 1650" style="enable-background:new 0 0 2475 1650;" xml:space="preserve">
<style type="text/css">
	.st0{display:none;}
	.st1{display:inline;fill:#FFFFFF;}
	.st2{fill:url(#SVGID_1_);}
	.st3{fill:#91B3FA;}
	.st4{fill:#BDD0FB;}
	.st5{fill:url(#SVGID_00000003077080164132939860000011237647387897209479_);}
	.st6{fill:url(#SVGID_00000147191424169387758040000010075239452865912224_);}
	.st7{fill:url(#SVGID_00000094580337160794090820000008618984772102992275_);}
	.st8{fill:url(#SVGID_00000099639505957330839580000000791162063735171004_);}
	.st9{fill:url(#SVGID_00000003092418649419689050000013955275544159261350_);}
	.st10{fill:url(#SVGID_00000165935059566521324880000005181765296102977673_);}
	.st11{fill:url(#SVGID_00000150808761557261648100000001403520111575295367_);}
	.st12{fill:url(#SVGID_00000021827642645411757210000007932793308681269180_);}
	.st13{opacity:0.29;fill:#FFFFFF;}
	.st14{fill:#7D97F4;}
	.st15{fill:url(#SVGID_00000029026959159333519950000010701733726766776460_);}
	.st16{fill:url(#SVGID_00000025431595139986296180000016583439485385062024_);}
	.st17{fill:#FFFFFF;}
	.st18{opacity:0.19;fill:url(#SVGID_00000052783218885646935610000016420891207758021803_);}
	.st19{fill:url(#SVGID_00000089566084526785658130000005536265626447559051_);}
	.st20{fill:url(#SVGID_00000018943487061707523980000001639478845612978825_);}
	.st21{fill:url(#SVGID_00000139268129464810671700000009005371083223338405_);}
	.st22{fill:url(#SVGID_00000096767542120920710610000010130632801383765633_);}
	.st23{opacity:0.8;fill:#FFFFFF;}
	.st24{fill:url(#SVGID_00000067915518335981328260000018088714219229797530_);}
	.st25{fill:url(#SVGID_00000172432839106466181830000007299331476606637189_);}
	.st26{fill:url(#SVGID_00000075138490265402823270000009663244453086061456_);}
	.st27{fill:url(#SVGID_00000133490782987353396510000017284229302472511134_);}
	.st28{fill:url(#SVGID_00000073687597327134054970000015831318551808040865_);}
	.st29{fill:url(#SVGID_00000097465034969110200610000013891478542519903412_);}
	.st30{fill:url(#SVGID_00000000203514730514370390000012013138681402629046_);}
	.st31{fill:url(#SVGID_00000052068295756003388060000003396394693566360458_);}
	.st32{fill:url(#SVGID_00000067227721548402104700000010555437612470162854_);}
	.st33{fill:url(#SVGID_00000061469918905847454070000014994539384373914035_);}
	.st34{fill:url(#SVGID_00000047767272601658285110000006403327891075536309_);}
	.st35{fill:url(#SVGID_00000123403564026519433960000003760063677330409407_);}
	.st36{fill:url(#SVGID_00000148660164667374600810000010523831641802054035_);}
	.st37{fill:url(#SVGID_00000130646416232954354600000013306635206636743304_);}
	.st38{fill:url(#SVGID_00000174580198783155622420000003466517370439017380_);}
	.st39{fill:url(#SVGID_00000153691183393832882180000005547915814151001234_);}
	.st40{fill:url(#SVGID_00000041278873884975345400000003181002837786794133_);}
	.st41{fill:url(#SVGID_00000013887099319441603220000013883673044252711359_);}
	.st42{fill:url(#SVGID_00000170236856586847254540000015984825278870024844_);}
	.st43{fill:url(#SVGID_00000029735719792887921540000011538246501701894797_);}
	.st44{fill:url(#SVGID_00000060723188180998465320000007112218349081372547_);}
	.st45{fill:url(#SVGID_00000150088241126178741630000001147277395422806658_);}
	.st46{fill:url(#SVGID_00000120556747555333203980000015090479026104187066_);}
	.st47{fill:url(#SVGID_00000178166440795234694470000006553103306579385259_);}
	.st48{fill:url(#SVGID_00000018194647764565755030000009357654882447255205_);}
	.st49{fill:url(#SVGID_00000049210930305429439630000002514278940733514117_);}
	.st50{fill:url(#SVGID_00000061451358602349864750000006381164715155517850_);}
	.st51{fill:url(#SVGID_00000116223533877118158830000015441192885729963925_);}
	.st52{fill:url(#SVGID_00000110433476347875075760000013957894980995929016_);}
	.st53{fill:url(#SVGID_00000170243969656011187720000010493650652322072501_);}
	.st54{fill:url(#SVGID_00000134246229648380625960000006870345306393727662_);}
	.st55{fill:url(#SVGID_00000063631202661583091010000008171343031067765689_);}
	.st56{fill:url(#SVGID_00000006673786643229496070000005987940758362654866_);}
	.st57{fill:url(#SVGID_00000137089704796082520530000004034897205032534172_);}
	.st58{fill:url(#SVGID_00000173139807673423041460000006346466938468232334_);}
	.st59{fill:url(#SVGID_00000131342315340140666630000000308307379004384928_);}
	.st60{fill:url(#SVGID_00000124157033536777961840000009559137360419282563_);}
	.st61{fill:url(#SVGID_00000096021710887307842140000012476162578958189697_);}
	.st62{fill:url(#SVGID_00000144326736752439408300000001654493953294603668_);}
	.st63{fill:url(#SVGID_00000145749848673018602470000017544709637775807661_);}
	.st64{fill:url(#SVGID_00000121965370522230201780000015810130587482370454_);}
	.st65{fill:url(#SVGID_00000108278326068220726720000002582938871947334019_);}
	.st66{fill:url(#SVGID_00000011740210673718642940000012604507452898030009_);}
	.st67{fill:url(#SVGID_00000010295411874857530220000015097668608266931849_);}
	.st68{fill:url(#SVGID_00000019650600652366272380000000136225637043664310_);}
	.st69{fill:url(#SVGID_00000075870379747706065050000012494620194351500952_);}
	.st70{fill:url(#SVGID_00000138554034959949249580000018357410354389793712_);}
	.st71{fill:url(#SVGID_00000061470383780178055240000007770871819203724218_);}
</style>
<g id="Background" class="st0">
	<rect class="st1" width="2475" height="1650"/>
</g>
<g id="Illustration">
	<g>
		<linearGradient id="SVGID_1_" gradientUnits="userSpaceOnUse" x1="139.743" y1="825.7158" x2="2344.6958" y2="825.7158">
			<stop  offset="0" style="stop-color:#DAE3FE"/>
			<stop  offset="1" style="stop-color:#E9EFFD"/>
		</linearGradient>
		<path class="st2" d="M2229.73,485.89c6.83-37.14,13.6-77.05,18.65-117.99c11.66-94.41-64.25-177.55-162.42-177.55
			c-3.06,0-6.12,0-9.17,0c-93.04,0-186.09,0-279.13,0c-164.95,0-329.9,0-494.86,0c-158.17,0-316.35,0.07-474.52,0
			c-352.56-0.16-363.23-4.14-446.97,29.7c-91.01,36.77-179.01,96.22-218.39,187.67c-24.64,57.21-29.12,122.64-15.87,183.66
			c13.24,61.01,43.73,117.56,84.57,164.12c20.63,23.52,44.15,44.97,59.53,72.35c18.18,32.35,23.58,70.59,24.34,107.88
			c1.03,50.43,1.25,131.09-34.5,169.87c-19.21,20.83-44.76,35.8-59.81,59.93c-21.74,34.84-16.06,82.19,5,117.46
			c21.06,35.27,54.99,60.46,89.8,81.54c80.09,48.51,183.45,93.98,278.25,92.42c33.43-0.55,66.91,0,100.34,0
			c88.49,0,176.98,0,265.47,0c162.59,0,325.17,0,487.76,0c18.9,0,37.8,0,56.7,0c13.75-0.88,27.56-0.91,41.34,0
			c68.07,0,136.14,0,204.2,0c58.9,0,117.8,0,176.7,0c59.93,0,122.22,7.73,181.65,2.66c34.13-2.91,67.89-11.26,98.97-26.09
			c230.04-109.77,116.92-431.23,47.38-610.33C2210.35,708.83,2206.77,610.73,2229.73,485.89z"/>
		<g>
			<g>
				<path class="st3" d="M2222.1,1046.1c4.63-1.02,8.61,3.4,7.14,7.91c-22.45,69.01-169.49,465.28-566.13,394.1
					C1663.11,1448.1,1692.76,1162.3,2222.1,1046.1z"/>
				<path class="st4" d="M2170.67,1096.75c-14.45,19.27-30.2,37.29-46.42,54.93c-16.27,17.58-33.22,34.53-50.7,50.92
					c-17.48,16.38-35.52,32.17-54.05,47.37c-18.58,15.14-37.67,29.65-57.19,43.56c-19.5,13.96-39.65,26.97-60.07,39.56
					c-10.3,6.15-20.57,12.35-31.09,18.11c-10.39,5.99-21.09,11.44-31.7,17.05c-42.73,21.85-87.17,40.43-132.77,55.59
					c-2.55,0.85-5.31-0.53-6.15-3.09c-0.85-2.55,0.53-5.31,3.08-6.15l0.05-0.02l0.03-0.01c45.24-14.55,89.42-32.51,131.99-53.75
					c10.57-5.46,21.23-10.75,31.59-16.6c10.5-5.61,20.74-11.66,31.02-17.66c20.38-12.29,40.52-25.02,60.02-38.69
					c19.53-13.63,38.64-27.87,57.26-42.73c18.57-14.93,36.66-30.46,54.21-46.58c17.54-16.13,34.57-32.83,50.93-50.16
					c16.28-17.37,32.2-35.24,46.61-54.07l0.04-0.06c0.69-0.9,1.99-1.08,2.89-0.38C2171.18,1094.57,2171.35,1095.85,2170.67,1096.75z
					"/>
			</g>
			<g>
				<path class="st3" d="M1954.28,411.69c27.61,106.11,163.85,730.69-380.36,974.83c0,0-192.12-386.1,365.26-978.81
					C1944.07,402.53,1952.48,404.76,1954.28,411.69z"/>
				<path class="st4" d="M1918.34,506.57c-4.74,35.29-10.17,70.44-15.9,105.55c-5.74,35.11-11.88,70.16-18.4,105.13
					c-13.05,69.95-27.61,139.62-44.23,208.82c-16.67,69.17-35.29,137.93-57.5,205.55c-11,33.84-23.19,67.31-36.59,100.28
					c-13.45,32.94-28.18,65.42-45.36,96.62c-1.02,1.84-3.27,2.5-5.04,1.47c-1.77-1.03-2.38-3.36-1.36-5.21l0.01-0.02l0.01-0.01
					c17.13-30.75,31.91-62.9,45.44-95.58c13.49-32.7,25.79-65.96,36.92-99.62c22.47-67.27,41.39-135.79,58.37-204.76
					c16.94-69,31.83-138.52,45.22-208.33c6.7-34.91,13-69.89,18.91-104.94c5.9-35.05,11.5-70.17,16.41-105.35l0-0.01
					c0.12-0.89,0.92-1.51,1.77-1.39C1917.86,504.88,1918.46,505.69,1918.34,506.57z"/>
			</g>
			<g>
				<path class="st4" d="M1675.03,1433.09c0,0-9.95-123.29,101.23-260.43c103.16-127.24,358.45-423.31,408.48-577.94
					c2.22-6.85,12.15-5.9,12.95,1.25c8.61,76.75,15.06,270.66-98.19,475.62C1953.44,1335.91,1675.03,1433.09,1675.03,1433.09z"/>
				
					<linearGradient id="SVGID_00000111168102650866043070000011244236454645006479_" gradientUnits="userSpaceOnUse" x1="1706.1279" y1="1071.9484" x2="2153.9299" y2="1071.9484">
					<stop  offset="0" style="stop-color:#DAE3FE"/>
					<stop  offset="1" style="stop-color:#E9EFFD"/>
				</linearGradient>
				<path style="fill:url(#SVGID_00000111168102650866043070000011244236454645006479_);" d="M2153.93,736.83
					c-0.48,17.08-3.08,34.05-6.61,50.76c-0.43,2.09-0.82,4.2-1.28,6.28l-1.51,6.23l-3.04,12.46l-3.55,12.33
					c-1.22,4.1-2.27,8.25-3.75,12.27c-10.68,32.5-24.02,64.17-40.05,94.43c-3.7,7.73-8.19,15.03-12.41,22.48l-6.39,11.14
					c-1.09,1.84-2.08,3.75-3.25,5.54l-3.46,5.41l-13.86,21.63c-2.23,3.66-4.84,7.06-7.3,10.56l-7.48,10.44l-7.48,10.44l-3.76,5.21
					l-3.99,5.03l-15.97,20.11c-2.69,3.33-5.27,6.76-8.04,10l-8.29,9.75l-16.59,19.5l-16.81,19.31c-5.62,6.42-11.18,12.89-16.9,19.23
					c-11.34,12.75-22.76,25.44-34.32,37.99c-11.48,12.63-23.15,25.07-34.76,37.57l-35.21,37.13
					c-23.49,24.72-47.02,49.39-69.68,74.78c-5.76,6.28-11.18,12.82-16.73,19.27c-2.81,3.2-5.4,6.56-8.06,9.87
					c-2.63,3.34-5.35,6.61-7.9,10c-4.96,6.89-10.18,13.61-14.64,20.83l-3.48,5.33c-0.57,0.9-1.19,1.76-1.71,2.68l-1.55,2.77
					l-6.23,11.11l-0.02,0.04c-0.25,0.44-0.81,0.6-1.26,0.35c-0.43-0.24-0.59-0.77-0.38-1.21c7.52-15.4,16.67-29.95,26.67-43.84
					c2.49-3.48,5.16-6.82,7.73-10.24c2.6-3.39,5.14-6.85,7.89-10.12c5.42-6.61,10.74-13.31,16.36-19.74l8.34-9.73
					c2.8-3.22,5.68-6.37,8.52-9.56l8.54-9.54l8.63-9.45c11.49-12.62,23.12-25.1,34.69-37.62c23.16-25.03,46.32-50.03,69.2-75.29
					c22.91-25.23,45.4-50.81,67.69-76.57l16.54-19.47l8.27-9.73c2.76-3.24,5.34-6.6,8.02-9.9l15.94-19.87l3.99-4.97l3.75-5.14
					l7.47-10.31c20.28-27.25,38.22-56.17,54.61-85.89c16.52-29.68,30.38-60.83,41.65-92.89c1.54-3.96,2.66-8.07,4.02-12.09
					l3.92-12.13l3.41-12.29l1.7-6.15c0.53-2.06,0.98-4.14,1.47-6.2c0.94-4.15,2-8.27,2.84-12.44l2.4-12.54
					c1.33-8.4,2.74-16.82,3.21-25.32c0-0.06,0.05-0.11,0.11-0.11C2153.88,736.71,2153.93,736.77,2153.93,736.83z"/>
			</g>
		</g>
		<g>
			<g>
				<path class="st4" d="M493.84,441.99c-28.81,103.63-165.24,705.95,463.32,983.97c19.49,8.62,42.37-1.32,48.64-21.12
					c34.17-107.87,78.51-455.16-493.86-966.15C505.85,433.25,495.76,435.1,493.84,441.99z"/>
				
					<linearGradient id="SVGID_00000066511036833542630330000007502258378642424502_" gradientUnits="userSpaceOnUse" x1="545.4373" y1="966.0861" x2="908.0563" y2="966.0861">
					<stop  offset="0" style="stop-color:#DAE3FE"/>
					<stop  offset="1" style="stop-color:#E9EFFD"/>
				</linearGradient>
				<path style="fill:url(#SVGID_00000066511036833542630330000007502258378642424502_);" d="M545.46,547.96
					c5.76,37.78,13.18,75.21,21.29,112.53c8.21,37.29,17.32,74.4,27.33,111.28c19.93,73.79,43.74,146.62,71.51,218.05
					c14.07,35.65,29.2,70.91,45.44,105.71c16.52,34.68,34.24,68.82,53.31,102.29c19.44,33.27,40.2,65.82,62.73,97.27
					c22.88,31.21,47.45,61.28,74.03,89.71c1.48,1.58,4.01,1.71,5.65,0.28c1.64-1.43,1.77-3.87,0.29-5.45l-0.01-0.01l-0.04-0.04
					c-26.45-28.03-50.97-57.72-73.84-88.6c-22.53-31.12-43.33-63.38-62.83-96.38c-19.14-33.21-36.96-67.12-53.58-101.58
					c-16.35-34.59-31.61-69.67-45.82-105.15c-28.04-71.1-52.17-143.66-72.44-217.22c-10.17-36.77-19.45-73.77-27.84-110.97
					c-8.28-37.2-15.89-74.6-21.81-112.18l-0.01-0.03c-0.14-0.89-1-1.51-1.93-1.37C545.95,546.24,545.32,547.07,545.46,547.96z"/>
			</g>
			<g>
				<path class="st3" d="M826.02,406.56c-54.27,93.14-339.7,639.36,200.92,994.7c16.74,11,39.46,6.25,50.21-10.49
					c59.73-93.07,197.15-413.53-232.72-984.6C839.89,400.14,829.63,400.37,826.02,406.56z"/>
				<path class="st4" d="M849.62,513.76c-2.32,18.31-4,36.63-5.48,54.98c-1.46,18.35-2.6,36.73-3.49,55.11
					c-1.79,36.77-2.47,73.6-2.12,110.42c0.77,73.62,5.69,147.28,16.31,220.23c10.65,72.9,26.9,145.23,51.83,214.86
					c12.45,34.8,27.19,68.85,44.6,101.58c8.77,16.33,18.07,32.4,28.24,47.95c10.19,15.53,21.06,30.63,32.66,45.2
					c1.07,1.34,3.04,1.58,4.4,0.53c1.36-1.05,1.6-2.99,0.53-4.33l-0.01-0.01l-0.02-0.02c-11.52-14.35-22.34-29.25-32.49-44.58
					c-10.13-15.35-19.4-31.24-28.17-47.39c-17.4-32.39-32.17-66.14-44.69-100.68c-25.07-69.12-41.56-141.1-52.47-213.73
					c-10.88-72.68-16.09-146.16-17.16-219.64c-0.49-36.75,0.03-73.51,1.67-110.24c0.81-18.36,1.88-36.71,3.26-55.04
					c1.4-18.32,3.01-36.65,5.24-54.86l0-0.02c0.09-0.72-0.43-1.37-1.16-1.45C850.36,512.54,849.7,513.05,849.62,513.76z"/>
			</g>
			<g>
				<path class="st3" d="M166.48,831.84c-1.56-5.78,5.68-9.82,9.76-5.44c39.45,42.36,146.39,150.21,243.98,186.37
					c158.89,58.87,319.63,204.66,302.89,331.76C723.1,1344.53,336.75,1461.66,166.48,831.84z"/>
				<path class="st4" d="M214.74,896.46c0.75,1.08,1.8,2.43,2.74,3.67l2.94,3.77l5.97,7.49l12.08,14.87
					c8.13,9.85,16.38,19.6,24.73,29.27c16.64,19.38,33.61,38.48,50.96,57.21c34.79,37.38,70.51,73.91,108.14,108.39
					c18.89,17.15,37.83,34.25,57.47,50.52c19.64,16.27,39.66,32.08,60.26,47.09c41.09,30.16,84.48,57.28,130.56,79.29
					c0.63,0.29,0.9,1.04,0.61,1.66c-0.28,0.61-1.01,0.88-1.62,0.62c-23.63-9.98-46.48-21.74-68.79-34.42
					c-22.21-12.87-43.65-27.02-64.69-41.7c-41.74-29.87-81.33-62.65-118.94-97.5c-18.84-17.39-37.09-35.4-55.08-53.65
					c-17.98-18.26-35.56-36.91-52.58-56.06c-17.05-19.12-33.83-38.48-50.04-58.31c-8.09-9.93-16.08-19.94-23.95-30.04
					c-3.92-5.07-7.84-10.13-11.67-15.26l-5.7-7.74l-2.81-3.91c-0.93-1.35-1.83-2.54-2.81-4.15c-0.36-0.58-0.17-1.35,0.41-1.7
					c0.56-0.34,1.29-0.19,1.66,0.35L214.74,896.46z"/>
			</g>
			<g>
				<path class="st4" d="M1089.98,1426.17c0,0-73.18-53.45-238.48-66.33c-153.37-11.96-520.7-33.97-655.38-77.19
					c-5.97-1.92-12.17,2.25-8.07,5.44c43.9,34.19,165.31,114.75,376.05,154.16C835.85,1493.08,1089.98,1426.17,1089.98,1426.17z"/>
				
					<linearGradient id="SVGID_00000127761521760500958710000000130375609175997852_" gradientUnits="userSpaceOnUse" x1="309.5615" y1="1371.7394" x2="1052.9397" y2="1371.7394">
					<stop  offset="0" style="stop-color:#DAE3FE"/>
					<stop  offset="1" style="stop-color:#E9EFFD"/>
				</linearGradient>
				<path style="fill:url(#SVGID_00000127761521760500958710000000130375609175997852_);" d="M310.01,1321.35
					c12.22,6.13,25.54,11.45,39.19,16.35c6.72,2.55,13.82,4.75,20.7,7.13c7.13,2.14,14.13,4.39,21.31,6.45
					c7.26,1.97,14.35,4.12,21.71,5.94c7.38,1.8,14.69,3.67,22.09,5.42l22.39,4.95c7.54,1.52,15.17,2.9,22.74,4.36
					c30.44,5.55,61.41,10.12,92.83,13.3c15.62,1.89,31.47,2.98,47.27,4.23c15.76,1.3,31.87,2.13,47.8,3.22
					c31.96,1.89,63.96,3.61,95.99,5.15c32.04,1.52,64.12,2.87,96.24,4.27c16.07,0.68,32.14,1.37,48.22,2.22
					c8.04,0.39,16.08,0.82,24.13,1.29c8.04,0.41,16.09,0.96,24.12,1.56c32.02,2.38,64.55,5.32,94.87,12.54
					c1.09,0.26,1.62,0.99,1.18,1.63c-0.42,0.61-1.56,0.92-2.61,0.73l-0.06-0.01c-15.23-2.79-30.86-4.64-46.62-6.09
					c-15.82-1.29-31.73-2.24-47.74-2.83c-31.98-1.34-64.13-1.98-96.3-2.91l-48.29-1.35c-16.1-0.57-32.2-1.1-48.3-1.77
					c-32.21-1.18-64.37-2.94-96.5-4.82c-32.01-1.98-64.41-4.12-96.31-7.96c-7.96-0.98-16-1.73-23.89-2.9l-23.64-3.57
					c-7.92-1.09-15.63-2.67-23.42-4.04c-7.75-1.45-15.6-2.71-23.18-4.48c-30.72-6.3-60.47-14.23-88.7-23.66
					c-7.1-2.31-13.9-4.94-20.83-7.4c-6.68-2.72-13.58-5.22-20.02-8.12c-13.08-5.62-25.64-11.69-36.72-18.62
					c-0.1-0.06-0.09-0.16,0.01-0.22C309.74,1321.3,309.91,1321.3,310.01,1321.35z"/>
			</g>
		</g>
		<g>
			<g>
				<g>
					<g>
						
							<linearGradient id="SVGID_00000039812263190180009720000013990235113204392075_" gradientUnits="userSpaceOnUse" x1="1754.6932" y1="795.7277" x2="1795.2743" y2="795.7277">
							<stop  offset="0" style="stop-color:#DAE3FE"/>
							<stop  offset="1" style="stop-color:#E9EFFD"/>
						</linearGradient>
						<path style="fill:url(#SVGID_00000039812263190180009720000013990235113204392075_);" d="M1757.76,760.44
							c5.16,6.63,45.23,32.54-2.52,69.95c-2.36,4.15,3.43,15.31,7.81,14.07c68.36-43.33,7.81-102.55,0.75-97.21
							C1756.73,752.58,1751.76,752.72,1757.76,760.44z"/>
					</g>
					<g>
						
							<linearGradient id="SVGID_00000080164908081511224230000013425003208341264777_" gradientUnits="userSpaceOnUse" x1="1781.5079" y1="799.4344" x2="1844.2972" y2="799.4344">
							<stop  offset="0" style="stop-color:#DAE3FE"/>
							<stop  offset="1" style="stop-color:#E9EFFD"/>
						</linearGradient>
						<path style="fill:url(#SVGID_00000080164908081511224230000013425003208341264777_);" d="M1781.51,872.75
							c0.69,8.57,6.22,16.8,13.77,14.67c7.44-2.1,105.48-80.07,1.55-174.62c-1.28-1.16-2.96-1.76-4.68-1.67
							c-1.72,0.09-3.34,0.86-4.49,2.14c-3.59,4-6.02,7.44-5.63,12.02C1873.12,811.66,1780.82,864.18,1781.51,872.75z"/>
					</g>
					<g>
						
							<linearGradient id="SVGID_00000056422015257925847120000000679268256280479907_" gradientUnits="userSpaceOnUse" x1="1808.1156" y1="798.6627" x2="1893.0759" y2="798.6627">
							<stop  offset="0" style="stop-color:#DAE3FE"/>
							<stop  offset="1" style="stop-color:#E9EFFD"/>
						</linearGradient>
						<path style="fill:url(#SVGID_00000056422015257925847120000000679268256280479907_);" d="M1808.39,916.15
							c-1.43,6.02,2.67,18.57,12.75,15.73c161.09-137.66,2.29-271.18-4.47-266.74c-6.76,4.44-7.35,13.93-5.26,17.83
							C1953.62,802.35,1809.83,910.14,1808.39,916.15z"/>
					</g>
				</g>
			</g>
			<g>
				<g>
					
						<linearGradient id="SVGID_00000047046764351434515530000014276162640641030824_" gradientUnits="userSpaceOnUse" x1="1372.0834" y1="1600.6327" x2="1390.0786" y2="262.8949">
						<stop  offset="0" style="stop-color:#09005D"/>
						<stop  offset="1" style="stop-color:#1A0F91"/>
					</linearGradient>
					<path style="fill:url(#SVGID_00000047046764351434515530000014276162640641030824_);" d="M1098.79,498.21
						c-26.33,1.71-46.96,23.27-47.61,49.65c-4,161.3-16.97,717.67-10.78,914.83c0.66,20.89,17.4,37.65,38.29,38.34
						c103.31,3.38,400.49,11.95,569.46,4.86c35.19-1.48,63.18-29.98,63.91-65.2c3.51-169.3,11.26-645.48-7.16-863.62
						c-2.21-26.14-22.72-46.95-48.82-49.56C1543.59,516.25,1244.78,488.74,1098.79,498.21z"/>
					
						<linearGradient id="SVGID_00000005249796635895521520000017044210069792782768_" gradientUnits="userSpaceOnUse" x1="1290.2424" y1="1375.6648" x2="1572.1858" y2="19.932">
						<stop  offset="0" style="stop-color:#FE7062"/>
						<stop  offset="1" style="stop-color:#FF928E"/>
					</linearGradient>
					<path style="fill:url(#SVGID_00000005249796635895521520000017044210069792782768_);" d="M1093.16,597.98
						c-5.64,132.1-23.44,571.57-17.79,734.08c0.83,23.75,19.55,42.96,43.27,44.35c97.69,5.72,348.25,18.32,491.54,6.85
						c25.8-2.07,46.05-22.93,47.44-48.78c7.26-134.77,28.11-543.98,22.7-704.66c-0.86-25.63-20.72-46.57-46.27-48.86
						c-105.68-9.49-377.11-32.07-498.87-25.42C1112.31,556.77,1094.14,575.11,1093.16,597.98z"/>
					<path class="st13" d="M1134.05,624.15c-4.83,124.25-20.07,537.59-15.23,690.43c0.71,22.34,16.74,40.4,37.06,41.71
						c83.65,5.38,298.21,17.23,420.91,6.44c22.09-1.94,39.43-21.57,40.62-45.88c6.22-126.76,24.07-511.64,19.43-662.77
						c-0.74-24.11-17.74-43.8-39.62-45.96c-90.5-8.92-322.93-30.16-427.19-23.91C1150.45,585.39,1134.88,602.64,1134.05,624.15z"/>
					<path class="st14" d="M1354.49,526.39L1354.49,526.39c0,4.95,3.86,9.03,8.8,9.29c24.4,1.28,93.14,4.89,123.86,6.68
						c6.06,0.35,10.81-5.09,9.66-11.05l-0.2-1.02c-0.78-4.06-4.16-7.12-8.28-7.5c-20.76-1.9-83.42-7.18-124.93-5.7
						C1358.41,517.27,1354.49,521.4,1354.49,526.39z"/>
				</g>
				<g>
					<g>
						
							<linearGradient id="SVGID_00000175293168567887112880000016592294850122506664_" gradientUnits="userSpaceOnUse" x1="678.8359" y1="2004.8568" x2="1896.0574" y2="469.4965">
							<stop  offset="0" style="stop-color:#4042E2"/>
							<stop  offset="1" style="stop-color:#4F52FF"/>
						</linearGradient>
						<path style="fill:url(#SVGID_00000175293168567887112880000016592294850122506664_);" d="M1568.33,1347.91h-406.36
							c-8.26,0-14.96-6.7-14.96-14.96V940.26h436.12v392.86C1583.13,1341.29,1576.51,1347.91,1568.33,1347.91z"/>
						
							<linearGradient id="SVGID_00000088816753309488310090000014293830996083673729_" gradientUnits="userSpaceOnUse" x1="630.8786" y1="1897.2605" x2="1801.6525" y2="420.4875">
							<stop  offset="0" style="stop-color:#4042E2"/>
							<stop  offset="1" style="stop-color:#4F52FF"/>
						</linearGradient>
						<path style="fill:url(#SVGID_00000088816753309488310090000014293830996083673729_);" d="M1089.79,954.9l282.64-320.14
							c8.04-9.11,22.4-8.63,29.81,1L1650,957.51c7.38,9.59,0.55,23.48-11.55,23.48h-536.89
							C1088.04,980.99,1080.84,965.04,1089.79,954.9z"/>
					</g>
					<g>
						<g>
							
								<ellipse transform="matrix(0.7071 -0.7071 0.7071 0.7071 -407.8005 1303.6548)" class="st17" cx="1369.75" cy="1144.09" rx="181.56" ry="181.56"/>
							
								<ellipse transform="matrix(0.7071 -0.7071 0.7071 0.7071 -407.8005 1303.6548)" class="st17" cx="1369.75" cy="1144.09" rx="181.56" ry="181.56"/>
							
								<linearGradient id="SVGID_00000049901314189077051000000009557872705094536889_" gradientUnits="userSpaceOnUse" x1="1190.6654" y1="1144.7983" x2="1553.7764" y2="1144.7983">
								<stop  offset="0" style="stop-color:#FF928E"/>
								<stop  offset="1" style="stop-color:#FEB3B1"/>
							</linearGradient>
							
								<circle style="opacity:0.19;fill:url(#SVGID_00000049901314189077051000000009557872705094536889_);" cx="1372.22" cy="1144.8" r="181.56"/>
							
								<linearGradient id="SVGID_00000134929558063319200200000008714246232542295942_" gradientUnits="userSpaceOnUse" x1="1494.978" y1="1004.821" x2="1244.5223" y2="1283.3516">
								<stop  offset="0" style="stop-color:#E1473D"/>
								<stop  offset="1" style="stop-color:#E9605A"/>
							</linearGradient>
							<path style="fill:url(#SVGID_00000134929558063319200200000008714246232542295942_);" d="M1369.75,1331.46
								c-103.32,0-187.37-84.05-187.37-187.37s84.06-187.37,187.37-187.37c103.32,0,187.37,84.05,187.37,187.37
								S1473.07,1331.46,1369.75,1331.46z M1369.75,968.35c-96.9,0-175.74,78.84-175.74,175.74s78.84,175.74,175.74,175.74
								c96.9,0,175.74-78.84,175.74-175.74S1466.65,968.35,1369.75,968.35z"/>
						</g>
						
							<linearGradient id="SVGID_00000003819762152213160670000005209249553367435710_" gradientUnits="userSpaceOnUse" x1="1408.2996" y1="677.1279" x2="1372.436" y2="1159.2975">
							<stop  offset="0" style="stop-color:#E1473D"/>
							<stop  offset="1" style="stop-color:#E9605A"/>
						</linearGradient>
						<path style="fill:url(#SVGID_00000003819762152213160670000005209249553367435710_);" d="M1386.67,1273.83
							c74.96-14.22,104.98-48.44,100.51-98.01c-4.11,18.4-16.21,25.6-33.52,25.49c21.28-28.42,29.41-54.11,25.04-77.22l-4.79,3.88
							c0.16-14.28,1.69-27.5,6.01-38.59c-21.06-0.22-37.64,10.05-52.66,23.97c9.1-30.1-59.68-72.16-8.07-103.15
							c-25.24-2.42-52.13,6.65-80.11,23.33l7.09-11.59c-29.64,15.49-37.74,47.44-35.67,87.16c-21.99,1.79-28.85-10.64-26.07-32.14
							c-14.06,9.5-19.97,24.6-18.95,44.46l-6.86-6.95c-4.56,32.05,8.2,61.26,32.13,84.23c-16,5.37-27.79-3.89-33.87-17.45
							c-1.81,57.12,39.6,86.95,115.61,94.94c0.38-0.06,0.74-0.11,1.12-0.17c-0.49,0.01-0.98,0.03-1.47,0.03
							c-26.66-1.09-78.17-48.89-62.23-117.18c3.06,16.12,12.39,12.79,22.03,28.42c3.58-66.07,46.97-61.87,39.8-95.39
							c20.69,33.68,34.3,59.89,26.5,91.94c15.64-26.14,29.54-12.17,38.57-29.14C1441.58,1210.05,1422.13,1262.54,1386.67,1273.83z"
							/>
					</g>
				</g>
			</g>
			<g>
				<g>
					<g>
						
							<linearGradient id="SVGID_00000034049683146454765420000016965451895141831338_" gradientUnits="userSpaceOnUse" x1="1318.0476" y1="198.7132" x2="1262.048" y2="359.7125">
							<stop  offset="0" style="stop-color:#4042E2"/>
							<stop  offset="1" style="stop-color:#4F52FF"/>
						</linearGradient>
						<circle style="fill:url(#SVGID_00000034049683146454765420000016965451895141831338_);" cx="1218.88" cy="483.81" r="79.77"/>
						
							<linearGradient id="SVGID_00000039120737852384239640000015591430762943485076_" gradientUnits="userSpaceOnUse" x1="1320.1908" y1="199.4578" x2="1264.1908" y2="360.4578">
							<stop  offset="0" style="stop-color:#4042E2"/>
							<stop  offset="1" style="stop-color:#4F52FF"/>
						</linearGradient>
						<path style="fill:url(#SVGID_00000039120737852384239640000015591430762943485076_);" d="M1298.51,479.54h-79.63h-79.77
							c0,0-6.35,44.28,64.84,165.55c3.11,5.29,8.78,8.45,14.92,8.46c6.14,0,11.82-3.11,14.93-8.4
							C1304.99,523.86,1298.51,479.54,1298.51,479.54z"/>
					</g>
					<g>
						<g>
							<path class="st14" d="M1218.85,656.13v0.45h0.02c-6.94,0-13.42-3.82-16.91-9.76c-41.62-70.89-56.86-115.71-62.33-140.79
								c-1.56-5.77-2.45-11.43-2.73-17.22c-0.48-5.93-0.11-8.43-0.07-8.69l0.21-1.28c3.21-42.85,38.88-76.2,81.85-76.2
								c43.53,0,79.52,33.82,81.95,77.01c0.06,0.57,0.18,2,0.13,4.4l0,0.29c0,7.84-1.11,15.6-3.29,23.07
								c-5.65,25.06-20.99,69.44-61.9,139.13C1232.27,652.52,1226.02,656.13,1218.85,656.13z M1141.29,483.13
								c-0.02,1.2,0.02,2.9,0.23,5.48l0.01-0.01c0.27,5.49,1.11,10.78,2.6,16.26l0.03,0.09c5.38,24.74,20.47,69,61.81,139.42
								c2.66,4.53,7.59,7.34,12.9,7.35l-0.01,2.31v-2.32c4.78,0,10.26-2.84,12.94-7.41c40.64-69.25,55.82-113.25,61.38-137.98
								l0.04-0.14c2.07-7.07,2.66-14.42,2.66-21.83l-0.47-0.33v-0.03c0-2.31,0.39-3.56,0.35-3.89l0.22-0.13
								c-2.26-40.77-36.12-72.7-77.21-72.7c-41.02,0-74.92,32.39-77.26,73.51l-0.07,2.36H1141.29z"/>
						</g>
					</g>
					
						<ellipse transform="matrix(0.8457 -0.5337 0.5337 0.8457 -69.929 725.28)" class="st23" cx="1219.14" cy="483.56" rx="46.06" ry="46.06"/>
					<g>
						<g>
							<path class="st14" d="M1219.14,532.19c-26.82,0-48.63-21.82-48.63-48.63c0-26.82,21.82-48.63,48.63-48.63
								c26.82,0,48.63,21.82,48.63,48.63C1267.77,510.37,1245.96,532.19,1219.14,532.19z M1219.14,440.07
								c-23.98,0-43.49,19.51-43.49,43.49c0,23.98,19.51,43.49,43.49,43.49s43.49-19.51,43.49-43.49
								C1262.63,459.58,1243.12,440.07,1219.14,440.07z"/>
						</g>
					</g>
				</g>
				<g>
					<path class="st3" d="M1175.45,435.6c-0.22,0-0.43-0.09-0.59-0.27c-0.28-0.32-0.24-0.81,0.08-1.09
						c12.94-11.11,29.47-17.23,46.55-17.23c0.43,0,0.77,0.35,0.77,0.77c0,0.43-0.35,0.77-0.77,0.77c-16.71,0-32.89,5.99-45.55,16.86
						C1175.8,435.54,1175.62,435.6,1175.45,435.6z"/>
				</g>
				<g>
					<path class="st3" d="M1150.78,489.27c-0.43,0-0.77-0.35-0.77-0.77c0-13.34,3.7-26.35,10.69-37.63c0.23-0.36,0.7-0.47,1.06-0.25
						c0.36,0.22,0.47,0.7,0.25,1.06c-6.84,11.03-10.46,23.76-10.46,36.82C1151.55,488.92,1151.21,489.27,1150.78,489.27z"/>
				</g>
			</g>
		</g>
		<g>
			
				<linearGradient id="SVGID_00000157307730876360600520000012896136367859793082_" gradientUnits="userSpaceOnUse" x1="593.9136" y1="669.4655" x2="450.394" y2="850.9758" gradientTransform="matrix(0.986 0.1665 -0.1665 0.986 112.8554 659.22)">
				<stop  offset="0" style="stop-color:#E1473D"/>
				<stop  offset="1" style="stop-color:#E9605A"/>
			</linearGradient>
			<path style="fill:url(#SVGID_00000157307730876360600520000012896136367859793082_);" d="M575.54,1272.48
				c-1.42,109.3,22.21,184.2,127.24,197.23l2.63-15.54c-89.34-9.66-113.46-76.61-116.03-187.56L575.54,1272.48z"/>
			
				<linearGradient id="SVGID_00000088837874520132596360000006255507318046214808_" gradientUnits="userSpaceOnUse" x1="585.9284" y1="1272.1503" x2="501.6314" y2="1378.7614">
				<stop  offset="0" style="stop-color:#E1473D"/>
				<stop  offset="1" style="stop-color:#E9605A"/>
			</linearGradient>
			<circle style="fill:url(#SVGID_00000088837874520132596360000006255507318046214808_);" cx="584.73" cy="1273.67" r="26.44"/>
			
				<linearGradient id="SVGID_00000010307769523850688270000015983622422111946395_" gradientUnits="userSpaceOnUse" x1="801.4036" y1="1231.7275" x2="793.904" y2="1434.2178">
				<stop  offset="0" style="stop-color:#E1473D"/>
				<stop  offset="1" style="stop-color:#E9605A"/>
			</linearGradient>
			<path style="fill:url(#SVGID_00000010307769523850688270000015983622422111946395_);" d="M887.26,1496.28H700.21
				c-6.29,0-11.45-5.15-11.45-11.45v-92.11c0-6.3,5.15-11.45,11.45-11.45h187.05c6.29,0,11.45,5.15,11.45,11.45v92.11
				C898.71,1491.13,893.56,1496.28,887.26,1496.28z"/>
			
				<linearGradient id="SVGID_00000140008833973610657010000002067292610207854477_" gradientUnits="userSpaceOnUse" x1="856.1848" y1="1277.027" x2="1828.7456" y2="1340.6624">
				<stop  offset="0" style="stop-color:#E1473D"/>
				<stop  offset="1" style="stop-color:#E9605A"/>
			</linearGradient>
			<circle style="fill:url(#SVGID_00000140008833973610657010000002067292610207854477_);" cx="794.54" cy="1272.99" r="165.79"/>
			<g>
				
					<linearGradient id="SVGID_00000096781788296484643670000011057938522070940315_" gradientUnits="userSpaceOnUse" x1="933.4372" y1="1275.0645" x2="992.2707" y2="1275.0645">
					<stop  offset="0" style="stop-color:#DAE3FE"/>
					<stop  offset="1" style="stop-color:#E9EFFD"/>
				</linearGradient>
				<path style="fill:url(#SVGID_00000096781788296484643670000011057938522070940315_);" d="M935.38,1405.33
					c-0.5,0-1.01-0.2-1.39-0.58c-0.75-0.77-0.73-1.99,0.03-2.74c35.06-34.21,54.37-80.03,54.37-129.01
					c0-46.81-17.86-91.18-50.3-124.91c-0.74-0.77-0.72-2,0.05-2.74s2-0.72,2.74,0.05c33.14,34.46,51.38,79.78,51.38,127.6
					c0,50.03-19.72,96.84-55.54,131.79C936.35,1405.15,935.86,1405.33,935.38,1405.33z"/>
				
					<linearGradient id="SVGID_00000053507981191089463050000006624112496539837319_" gradientUnits="userSpaceOnUse" x1="602.5695" y1="1183.5225" x2="671.6353" y2="1183.5225">
					<stop  offset="0" style="stop-color:#DAE3FE"/>
					<stop  offset="1" style="stop-color:#E9EFFD"/>
				</linearGradient>
				<path style="fill:url(#SVGID_00000053507981191089463050000006624112496539837319_);" d="M604.51,1238.61
					c-0.13,0-0.26-0.01-0.39-0.04c-1.05-0.21-1.73-1.24-1.52-2.29c8.55-42.26,31.95-80.41,65.88-107.42
					c0.84-0.67,2.06-0.53,2.73,0.31c0.67,0.84,0.53,2.06-0.31,2.73c-33.22,26.44-56.12,63.79-64.49,105.16
					C606.22,1237.97,605.41,1238.61,604.51,1238.61z"/>
				
					<linearGradient id="SVGID_00000062882529307790317220000016404559485376547221_" gradientUnits="userSpaceOnUse" x1="603.3338" y1="1363.8174" x2="670.5342" y2="1363.8174">
					<stop  offset="0" style="stop-color:#DAE3FE"/>
					<stop  offset="1" style="stop-color:#E9EFFD"/>
				</linearGradient>
				<path style="fill:url(#SVGID_00000062882529307790317220000016404559485376547221_);" d="M668.59,1416.67
					c-0.43,0-0.86-0.14-1.22-0.43c-32.27-26.09-54.99-62.64-63.99-102.9c-0.23-1.04,0.42-2.08,1.47-2.32
					c1.04-0.23,2.08,0.42,2.32,1.47c8.81,39.41,31.06,75.19,62.65,100.73c0.83,0.67,0.96,1.89,0.29,2.73
					C669.72,1416.42,669.16,1416.67,668.59,1416.67z"/>
				
					<linearGradient id="SVGID_00000057841202711047160760000001997739876999976373_" gradientUnits="userSpaceOnUse" x1="905.3657" y1="1267.0669" x2="975.0218" y2="1267.0669">
					<stop  offset="0" style="stop-color:#DAE3FE"/>
					<stop  offset="1" style="stop-color:#E9EFFD"/>
				</linearGradient>
				<path style="fill:url(#SVGID_00000057841202711047160760000001997739876999976373_);" d="M920.16,1398.37
					c-0.51,0-1.02-0.2-1.4-0.6c-0.74-0.77-0.71-2,0.06-2.74c33.74-32.26,52.32-75.73,52.32-122.39c0-52.42-23.7-101.05-65.03-133.4
					c-0.84-0.66-0.99-1.88-0.33-2.72c0.66-0.84,1.88-0.99,2.72-0.33c42.28,33.1,66.52,82.83,66.52,136.46
					c0,47.73-19.01,92.2-53.52,125.2C921.13,1398.19,920.65,1398.37,920.16,1398.37z"/>
				
					<linearGradient id="SVGID_00000083083540341672580030000000761561714099237779_" gradientUnits="userSpaceOnUse" x1="615.1744" y1="1265.4746" x2="703.0305" y2="1265.4746">
					<stop  offset="0" style="stop-color:#DAE3FE"/>
					<stop  offset="1" style="stop-color:#E9EFFD"/>
				</linearGradient>
				<path style="fill:url(#SVGID_00000083083540341672580030000000761561714099237779_);" d="M680.55,1407.64
					c-0.43,0-0.86-0.14-1.22-0.43c-40.77-33.08-64.15-82.13-64.15-134.57c0-30.61,8.09-60.69,23.4-86.99
					c14.85-25.52,36.13-46.98,61.53-62.06c0.92-0.55,2.11-0.24,2.66,0.68c0.55,0.92,0.24,2.11-0.68,2.66
					c-24.83,14.74-45.63,35.72-60.16,60.67c-14.96,25.71-22.87,55.12-22.87,85.04c0,51.27,22.86,99.22,62.72,131.56
					c0.83,0.68,0.96,1.9,0.28,2.73C681.67,1407.39,681.11,1407.64,680.55,1407.64z"/>
				
					<linearGradient id="SVGID_00000173143187417198526860000002784073813073938562_" gradientUnits="userSpaceOnUse" x1="594.3873" y1="1369.4896" x2="640.2864" y2="1369.4896">
					<stop  offset="0" style="stop-color:#DAE3FE"/>
					<stop  offset="1" style="stop-color:#E9EFFD"/>
				</linearGradient>
				<path style="fill:url(#SVGID_00000173143187417198526860000002784073813073938562_);" d="M638.35,1407.64
					c-0.53,0-1.05-0.21-1.43-0.63c-19.4-21.26-33.68-45.86-42.43-73.13c-0.33-1.02,0.23-2.11,1.25-2.44
					c1.02-0.33,2.11,0.23,2.44,1.25c8.59,26.73,22.58,50.85,41.61,71.7c0.72,0.79,0.67,2.02-0.13,2.74
					C639.28,1407.47,638.81,1407.64,638.35,1407.64z"/>
				
					<linearGradient id="SVGID_00000041979399707308412540000015554363046064560305_" gradientUnits="userSpaceOnUse" x1="966.8414" y1="1276.4586" x2="1007.8319" y2="1276.4586">
					<stop  offset="0" style="stop-color:#DAE3FE"/>
					<stop  offset="1" style="stop-color:#E9EFFD"/>
				</linearGradient>
				<path style="fill:url(#SVGID_00000041979399707308412540000015554363046064560305_);" d="M968.78,1390.03
					c-0.39,0-0.79-0.12-1.13-0.37c-0.87-0.63-1.06-1.84-0.44-2.71c24.04-33.32,36.74-72.73,36.74-113.96
					c0-38.25-11.07-75.29-32.01-107.1c-0.59-0.89-0.34-2.1,0.55-2.69c0.89-0.59,2.1-0.34,2.69,0.55
					c21.36,32.44,32.65,70.21,32.65,109.23c0,42.05-12.96,82.24-37.48,116.23C969.97,1389.75,969.38,1390.03,968.78,1390.03z"/>
				
					<linearGradient id="SVGID_00000062871999284411119240000009785684634017381010_" gradientUnits="userSpaceOnUse" x1="587.8443" y1="1188.5437" x2="642.6905" y2="1188.5437">
					<stop  offset="0" style="stop-color:#DAE3FE"/>
					<stop  offset="1" style="stop-color:#E9EFFD"/>
				</linearGradient>
				<path style="fill:url(#SVGID_00000062871999284411119240000009785684634017381010_);" d="M589.79,1241.32
					c-0.11,0-0.22-0.01-0.33-0.03c-1.06-0.18-1.76-1.18-1.58-2.24c6.63-38.59,24.43-74.09,51.47-102.69
					c0.74-0.78,1.96-0.81,2.74-0.08c0.78,0.74,0.81,1.96,0.08,2.74c-26.51,28.03-43.96,62.85-50.47,100.68
					C591.53,1240.66,590.71,1241.32,589.79,1241.32z"/>
			</g>
			
				<linearGradient id="SVGID_00000160877585172029477760000008074999696514941335_" gradientUnits="userSpaceOnUse" x1="351.2221" y1="1244.1656" x2="1224.2344" y2="1301.2875">
				<stop  offset="0" style="stop-color:#FE7062"/>
				<stop  offset="1" style="stop-color:#FF928E"/>
			</linearGradient>
			<circle style="fill:url(#SVGID_00000160877585172029477760000008074999696514941335_);" cx="794.54" cy="1273.17" r="148.82"/>
			
				<linearGradient id="SVGID_00000181079247381318199440000006468580622201955768_" gradientUnits="userSpaceOnUse" x1="792.117" y1="1282.1411" x2="729.1204" y2="1612.1241">
				<stop  offset="0" style="stop-color:#FE7062"/>
				<stop  offset="1" style="stop-color:#FF928E"/>
			</linearGradient>
			<circle style="fill:url(#SVGID_00000181079247381318199440000006468580622201955768_);" cx="793.73" cy="1273.67" r="76.96"/>
			
				<linearGradient id="SVGID_00000101104988462187228740000016306246112316336789_" gradientUnits="userSpaceOnUse" x1="761.8088" y1="1364.1793" x2="692.8121" y2="1560.6698">
				<stop  offset="0" style="stop-color:#E1473D"/>
				<stop  offset="1" style="stop-color:#E9605A"/>
			</linearGradient>
			<circle style="fill:url(#SVGID_00000101104988462187228740000016306246112316336789_);" cx="793.74" cy="1273.26" r="68.99"/>
			<g>
				
					<linearGradient id="SVGID_00000082363680374069745130000001408541762518403466_" gradientUnits="userSpaceOnUse" x1="743.187" y1="1269.6334" x2="884.8265" y2="1278.901">
					<stop  offset="0" style="stop-color:#FE7062"/>
					<stop  offset="1" style="stop-color:#FF928E"/>
				</linearGradient>
				<circle style="fill:url(#SVGID_00000082363680374069745130000001408541762518403466_);" cx="794.54" cy="1272.99" r="24.14"/>
				
					<linearGradient id="SVGID_00000030461497940164916610000004392145051641580206_" gradientUnits="userSpaceOnUse" x1="804.8732" y1="1004.2192" x2="800.3734" y2="1121.2131">
					<stop  offset="0" style="stop-color:#E1473D"/>
					<stop  offset="1" style="stop-color:#E9605A"/>
				</linearGradient>
				<circle style="fill:url(#SVGID_00000030461497940164916610000004392145051641580206_);" cx="794.54" cy="1272.99" r="16.05"/>
			</g>
		</g>
		<g>
			<g>
				
					<linearGradient id="SVGID_00000156579214986336802790000007617373880593457846_" gradientUnits="userSpaceOnUse" x1="1663.827" y1="921.1144" x2="1770.827" y2="1074.1144">
					<stop  offset="0" style="stop-color:#FF928E"/>
					<stop  offset="1" style="stop-color:#FEB3B1"/>
				</linearGradient>
				<path style="fill:url(#SVGID_00000156579214986336802790000007617373880593457846_);" d="M1703.64,990.54
					c-0.48,1.53,5.08,3.85,8.35-2.39c0.11-2.99,1.93-15.81,0.15-18.25c-9.52-12.98-27.98-29.25-27.98-29.25
					c-3.12,3.08-0.55,6.1-0.55,6.1l8.96,9.33c-1.87,3.39-4.16,6.24-5.23,10.34c-0.81,3.1-0.31,6.41,1.25,9.24
					c1.57,2.83,3.72,6.51,5.74,9.39C1698.17,990.5,1703.64,990.54,1703.64,990.54z"/>
				
					<linearGradient id="SVGID_00000095323579610839119560000004903618779527160987_" gradientUnits="userSpaceOnUse" x1="1725.4692" y1="896.4901" x2="1709.4692" y2="944.4899">
					<stop  offset="0" style="stop-color:#FF928E"/>
					<stop  offset="1" style="stop-color:#FEB3B1"/>
				</linearGradient>
				<path style="fill:url(#SVGID_00000095323579610839119560000004903618779527160987_);" d="M1696.49,962.13l8.16,6.92l2.56,6.89
					l-7.28,8.07c0,0-2.45-13.67-4.26-16.62C1693.85,964.42,1694.79,962.99,1696.49,962.13z"/>
			</g>
			<g>
				
					<linearGradient id="SVGID_00000140707751306060777130000013157300904568647830_" gradientUnits="userSpaceOnUse" x1="5305.7671" y1="1483.885" x2="5106.6909" y2="1700.4243" gradientTransform="matrix(-1 0 0 1 7106.7852 0)">
					<stop  offset="0" style="stop-color:#09005D"/>
					<stop  offset="1" style="stop-color:#1A0F91"/>
				</linearGradient>
				<path style="fill:url(#SVGID_00000140707751306060777130000013157300904568647830_);" d="M1863.95,1500.02
					c0,0,2.06,11.67,3.07,23.23c0.4,4.52-3.09,8.44-7.61,8.62c-15.39,0.64-48.3,1.89-60.11,1.36c-1.78-0.08-2.94-1.9-2.28-3.55l0,0
					c0.55-1.38,1.61-2.5,2.97-3.12l54.36-24.99L1863.95,1500.02z"/>
				
					<linearGradient id="SVGID_00000129178894218793036490000011093497493602441347_" gradientUnits="userSpaceOnUse" x1="-1056.4535" y1="3381.105" x2="-714.47" y2="3279.1099" gradientTransform="matrix(-1 0 0 1 7106.7852 0)">
					<stop  offset="0" style="stop-color:#FE7062"/>
					<stop  offset="1" style="stop-color:#FF928E"/>
				</linearGradient>
				<path style="fill:url(#SVGID_00000129178894218793036490000011093497493602441347_);" d="M1865.63,1493.16l-1.66,13.96
					c0,0-9.52,4.43-16.03-0.56l3.94-15.56L1865.63,1493.16z"/>
				
					<linearGradient id="SVGID_00000023241237139691524620000010849016874535208346_" gradientUnits="userSpaceOnUse" x1="5321.4424" y1="1239.0023" x2="5152.0474" y2="1468.5951" gradientTransform="matrix(-1 0 0 1 7106.7852 0)">
					<stop  offset="0" style="stop-color:#09005D"/>
					<stop  offset="1" style="stop-color:#1A0F91"/>
				</linearGradient>
				<path style="fill:url(#SVGID_00000023241237139691524620000010849016874535208346_);" d="M1864.39,1230.69
					c0.72,3.65,3.84,181.93-15.22,261.83c-0.31,1.3,0.35,2.65,1.59,3.15c2.92,1.19,8.65,2.92,15.52,3.15
					c2.13,0.07,4.03-1.31,4.63-3.35c5.45-18.54,31.55-111.41,34.96-200.13c3.8-99.14,0-3.38,0-3.38l-2.23-61.28L1864.39,1230.69z"/>
				
					<linearGradient id="SVGID_00000138558479258039616990000003952807540644263058_" gradientUnits="userSpaceOnUse" x1="5261.1074" y1="1442.8276" x2="5062.0322" y2="1659.3657" gradientTransform="matrix(-1 0 0 1 7106.7852 0)">
					<stop  offset="0" style="stop-color:#09005D"/>
					<stop  offset="1" style="stop-color:#1A0F91"/>
				</linearGradient>
				<path style="fill:url(#SVGID_00000138558479258039616990000003952807540644263058_);" d="M1926.48,1506.1
					c0,0,3.28,5.89,6.46,21.55c0.57,2.83-1.4,5.53-4.27,5.82c-5.08,0.5-12.9,1.14-19.17,1.1c-2.89-0.02-5.14-2.53-4.79-5.4
					c0.69-5.71,2.86-15.09,9.53-22.4L1926.48,1506.1z"/>
				
					<linearGradient id="SVGID_00000041294542394449070310000015453657735033735867_" gradientUnits="userSpaceOnUse" x1="-1062.0637" y1="3362.2739" x2="-720.0801" y2="3260.2786" gradientTransform="matrix(-1 0 0 1 7106.7852 0)">
					<stop  offset="0" style="stop-color:#FE7062"/>
					<stop  offset="1" style="stop-color:#FF928E"/>
				</linearGradient>
				<path style="fill:url(#SVGID_00000041294542394449070310000015453657735033735867_);" d="M1929.36,1488.15l-3.87,21.11
					c0,0-3.83,2.85-11.4,0.78l1.85-22.72L1929.36,1488.15z"/>
				
					<linearGradient id="SVGID_00000051345131037252660800000002780800567678163594_" gradientUnits="userSpaceOnUse" x1="5291.252" y1="1216.7279" x2="5121.8574" y2="1446.3206" gradientTransform="matrix(-1 0 0 1 7106.7852 0)">
					<stop  offset="0" style="stop-color:#09005D"/>
					<stop  offset="1" style="stop-color:#1A0F91"/>
				</linearGradient>
				<path style="fill:url(#SVGID_00000051345131037252660800000002780800567678163594_);" d="M1939.82,1236.16
					c15.59,94.07-3.38,232.49-9.78,259.58c-0.39,1.66-1.73,2.93-3.41,3.21c-2.86,0.47-7.56,0.86-12.19-0.49
					c-1.6-0.46-2.72-1.9-2.78-3.57c-0.86-21.9,0.69-156.37-13.84-209.52c-0.74-2.69-2.38-5.04-4.66-6.66l-28.19-20.04l-2.16-32.39
					L1939.82,1236.16z"/>
				<g>
					
						<linearGradient id="SVGID_00000029761647676666537740000002316707651882680970_" gradientUnits="userSpaceOnUse" x1="1918.3547" y1="1083.259" x2="1658.286" y2="1409.8568">
						<stop  offset="0" style="stop-color:#FE7062"/>
						<stop  offset="1" style="stop-color:#FF928E"/>
					</linearGradient>
					<path style="fill:url(#SVGID_00000029761647676666537740000002316707651882680970_);" d="M1840.5,1057.93
						c46.71-0.77,98.25,12.26,98.25,12.26c13.92,81.24,2.43,174.95,2.43,174.95c-36.16,9.48-76.95-5.8-76.95-5.8
						c-6.01-33.96-34.05-129.52-34.05-129.52c-22.82-2.83-41.62-9.42-57.1-18.12c11.81-13.69,17.38-31.11,19.79-41.4
						C1809.38,1055.43,1826.1,1058.17,1840.5,1057.93z"/>
					
						<linearGradient id="SVGID_00000136386033900888083500000005948753763979080582_" gradientUnits="userSpaceOnUse" x1="1667.9852" y1="918.2064" x2="1774.9856" y2="1071.2068">
						<stop  offset="0" style="stop-color:#FF928E"/>
						<stop  offset="1" style="stop-color:#FEB3B1"/>
					</linearGradient>
					<path style="fill:url(#SVGID_00000136386033900888083500000005948753763979080582_);" d="M1702.53,989.13
						c4.59-5.54,9.64-3.18,9.64-3.18c6.87,29.04,43.67,52.84,80.7,64.35c-2.42,10.3-7.99,27.72-19.79,41.4
						C1711.62,1057.15,1702.53,989.13,1702.53,989.13z"/>
				</g>
				
					<linearGradient id="SVGID_00000126302550172928663200000011490339203043188138_" gradientUnits="userSpaceOnUse" x1="1956.3951" y1="1113.5504" x2="1696.3262" y2="1440.1484">
					<stop  offset="0" style="stop-color:#FE7062"/>
					<stop  offset="1" style="stop-color:#FF928E"/>
				</linearGradient>
				<path style="fill:url(#SVGID_00000126302550172928663200000011490339203043188138_);" d="M1920.83,1115.42l17.92-45.23
					c0,0,43.63,29.64,50.8,67.23c-8.24,0.61-23.24,2.75-37.93,10.17C1948.4,1129.84,1920.83,1115.42,1920.83,1115.42z"/>
				
					<linearGradient id="SVGID_00000008859738609056109480000000673968336547326592_" gradientUnits="userSpaceOnUse" x1="1877.9851" y1="1011.2153" x2="1885.9851" y2="1123.2153">
					<stop  offset="0" style="stop-color:#FF928E"/>
					<stop  offset="1" style="stop-color:#FEB3B1"/>
				</linearGradient>
				<path style="fill:url(#SVGID_00000008859738609056109480000000673968336547326592_);" d="M1887.82,1020.01l14.86,42.98
					c0.25,0.71-0.05,1.5-0.71,1.86c-4.05,2.24-18.65,8.71-36.24-2.44c-1.83-1.16-3.08-3.06-3.36-5.21l-4.81-37.2H1887.82z"/>
				<g>
					
						<linearGradient id="SVGID_00000160889155623392114320000002187421893396019072_" gradientUnits="userSpaceOnUse" x1="-3451.9954" y1="1601.9314" x2="-3391.9958" y2="1600.9314" gradientTransform="matrix(-0.746 -0.6659 -0.6659 0.746 1451.5446 -1476.3188)">
						<stop  offset="0" style="stop-color:#FF928E"/>
						<stop  offset="1" style="stop-color:#FEB3B1"/>
					</linearGradient>
					<path style="fill:url(#SVGID_00000160889155623392114320000002187421893396019072_);" d="M1855.48,980.21
						c0,0-16.32,30.72-14.23,43.13c2.09,12.41,22.32,11.52,39.98,1.44l12.34-33.17L1855.48,980.21z"/>
					
						<linearGradient id="SVGID_00000170988308412907809600000007977801063087164603_" gradientUnits="userSpaceOnUse" x1="-1969.6179" y1="1498.8148" x2="-1955.4888" y2="1579.403" gradientTransform="matrix(-0.746 -0.6659 -0.6659 0.746 1451.5446 -1476.3188)">
						<stop  offset="0" style="stop-color:#09005D"/>
						<stop  offset="1" style="stop-color:#1A0F91"/>
					</linearGradient>
					<path style="fill:url(#SVGID_00000170988308412907809600000007977801063087164603_);" d="M1880.45,1008.49
						c-0.72-0.32-0.98-1.2-0.55-1.85c1.31-2,3.76-6.07,4.54-9.64c0,0,2.93-1.88-7.47-4.37c-10.4-2.49-25.91-6.35-29.17-15.21
						c-3.18-8.63,5.17-30.34,18.5-13.04c0.51,0.66,1.5,0.67,2.01,0.01c2.18-2.84,7.93-8.74,15.9-5.17c7.46,3.35,8.3,8.82,8.2,11.57
						c-0.03,0.81,0.69,1.44,1.49,1.29c3.77-0.72,12.82-1.34,17.05,7.95c3.48,7.65,1.22,11.98-0.84,14.1
						c-0.67,0.69-0.38,1.82,0.54,2.1c2.48,0.76,5.68,2.86,5.36,8.67c-0.44,8.03-9.42,7.32-11.98,6.96c-0.42-0.06-0.84,0.08-1.12,0.4
						c-2.19,2.43-12.07,12.72-22.75,13.97c-0.93,0.11-1.64-0.81-1.34-1.69l4.63-13.45c0.21-0.62-0.08-1.31-0.69-1.58
						L1880.45,1008.49z"/>
					
						<linearGradient id="SVGID_00000070104141802148774530000013095674935730888881_" gradientUnits="userSpaceOnUse" x1="-3452.1201" y1="1593.7332" x2="-3392.1206" y2="1592.7332" gradientTransform="matrix(-0.746 -0.6659 -0.6659 0.746 1451.5446 -1476.3188)">
						<stop  offset="0" style="stop-color:#FF928E"/>
						<stop  offset="1" style="stop-color:#FEB3B1"/>
					</linearGradient>
					<path style="fill:url(#SVGID_00000070104141802148774530000013095674935730888881_);" d="M1878.59,1010.4
						c0,0,11.62-7.97,12.47-1.26c0.85,6.71-10.46,9.73-16.07,7.22L1878.59,1010.4z"/>
				</g>
				
					<linearGradient id="SVGID_00000125584039476340014030000017699204087319247257_" gradientUnits="userSpaceOnUse" x1="-1755.5835" y1="1339.7261" x2="-1643.5834" y2="1319.726" gradientTransform="matrix(-1 0 0 1 1008.1051 0)">
					<stop  offset="0" style="stop-color:#FF928E"/>
					<stop  offset="1" style="stop-color:#FEB3B1"/>
				</linearGradient>
				<path style="fill:url(#SVGID_00000125584039476340014030000017699204087319247257_);" d="M1951.63,1147.59
					c0,0,15.25,68.8,1.44,107.47c16.93,7.85,13.81,6.37,13.81,6.37s33.5-97.88,22.69-124.01
					C1968.23,1135.16,1957.65,1140.89,1951.63,1147.59z"/>
				
					<linearGradient id="SVGID_00000146483385905044578830000003494936563934418088_" gradientUnits="userSpaceOnUse" x1="-1741.8235" y1="1416.7792" x2="-1629.8236" y2="1396.7792" gradientTransform="matrix(-1 0 0 1 1008.1051 0)">
					<stop  offset="0" style="stop-color:#FF928E"/>
					<stop  offset="1" style="stop-color:#FEB3B1"/>
				</linearGradient>
				<path style="fill:url(#SVGID_00000146483385905044578830000003494936563934418088_);" d="M1953.06,1255.06
					c0,0-8.73,11.29-8.03,15.79c0.7,4.5,0.86,6.33,0.86,6.33s4.39-3,4.11-6.83c-0.61,12.16-4.68,25.99-0.98,25.33
					c3.7-0.67,22.86-18.33,18.53-37.16C1957.73,1251.69,1954.97,1252.43,1953.06,1255.06z"/>
			</g>
		</g>
		<g>
			<g>
				<path class="st14" d="M533.77,261.91h-0.29c-4.75,0-8.63-3.88-8.63-8.63v-30.03c0-4.75,3.88-8.63,8.63-8.63h0.29
					c4.75,0,8.63,3.88,8.63,8.63v30.03C542.4,258.03,538.52,261.91,533.77,261.91z"/>
				<path class="st14" d="M613.87,261.91h-0.29c-4.75,0-8.63-3.88-8.63-8.63v-30.03c0-4.75,3.88-8.63,8.63-8.63h0.29
					c4.75,0,8.63,3.88,8.63,8.63v30.03C622.5,258.03,618.62,261.91,613.87,261.91z"/>
				<path class="st14" d="M702.09,260.81h-0.29c-4.75,0-8.63-3.88-8.63-8.63v-30.03c0-4.75,3.88-8.63,8.63-8.63h0.29
					c4.75,0,8.63,3.88,8.63,8.63v30.03C710.72,256.93,706.83,260.81,702.09,260.81z"/>
				<path class="st14" d="M781.46,260.81h-0.29c-4.75,0-8.63-3.88-8.63-8.63v-30.03c0-4.75,3.88-8.63,8.63-8.63h0.29
					c4.75,0,8.63,3.88,8.63,8.63v30.03C790.09,256.93,786.21,260.81,781.46,260.81z"/>
				
					<linearGradient id="SVGID_00000175302793391046377410000014890322139568402345_" gradientUnits="userSpaceOnUse" x1="681.5261" y1="378.6526" x2="727.5264" y2="666.653">
					<stop  offset="0" style="stop-color:#4042E2"/>
					<stop  offset="1" style="stop-color:#4F52FF"/>
				</linearGradient>
				<path style="fill:url(#SVGID_00000175302793391046377410000014890322139568402345_);" d="M790.32,222.62H518.5
					c-6.3,0-11.45-5.15-11.45-11.45v-4.55c0-6.29,5.15-11.45,11.45-11.45h271.82c6.3,0,11.45,5.15,11.45,11.45v4.55
					C801.77,217.47,796.62,222.62,790.32,222.62z"/>
				
					<linearGradient id="SVGID_00000156578329441432365550000012520841448868154504_" gradientUnits="userSpaceOnUse" x1="660.9229" y1="144.4537" x2="674.4221" y2="-59.5356">
					<stop  offset="0" style="stop-color:#4042E2"/>
					<stop  offset="1" style="stop-color:#4F52FF"/>
				</linearGradient>
				<path style="fill:url(#SVGID_00000156578329441432365550000012520841448868154504_);" d="M852.99,210.6h-391.6
					c-5.26,0-9.56-4.3-9.56-9.56v-0.32c0-5.26,4.3-9.56,9.56-9.56h391.6c5.26,0,9.56,4.3,9.56,9.56v0.32
					C862.55,206.3,858.25,210.6,852.99,210.6z"/>
				
					<linearGradient id="SVGID_00000029740322490380363440000008970648525513684157_" gradientUnits="userSpaceOnUse" x1="667.3465" y1="144.7539" x2="658.347" y2="306.7458">
					<stop  offset="0" style="stop-color:#4042E2"/>
					<stop  offset="1" style="stop-color:#4F52FF"/>
				</linearGradient>
				<path style="fill:url(#SVGID_00000029740322490380363440000008970648525513684157_);" d="M527.67,303.6l24.27,63.18
					c1.72,4.48,6.03,7.44,10.83,7.44h202.87c5.48,0,10.21-3.83,11.35-9.19l13.39-63.18c1.53-7.21-3.97-14-11.35-14H538.49
					C530.36,287.84,524.75,296,527.67,303.6z"/>
				
					<linearGradient id="SVGID_00000144330659640323923620000010212018954910626205_" gradientUnits="userSpaceOnUse" x1="583.0279" y1="295.8072" x2="599.5272" y2="75.3183">
					<stop  offset="0" style="stop-color:#4042E2"/>
					<stop  offset="1" style="stop-color:#4F52FF"/>
				</linearGradient>
				<path style="fill:url(#SVGID_00000144330659640323923620000010212018954910626205_);" d="M561.63,325.02h32.43
					c2.24,0,4.12,1.68,4.38,3.9l3.26,27.79c0.31,2.62-1.74,4.92-4.38,4.92h-28.52c-2.01,0-3.77-1.36-4.27-3.31l-7.16-27.79
					C556.64,327.74,558.75,325.02,561.63,325.02z"/>
				
					<linearGradient id="SVGID_00000177454130219565881300000003509950328130341822_" gradientUnits="userSpaceOnUse" x1="636.5238" y1="299.81" x2="653.0231" y2="79.3212">
					<stop  offset="0" style="stop-color:#4042E2"/>
					<stop  offset="1" style="stop-color:#4F52FF"/>
				</linearGradient>
				<path style="fill:url(#SVGID_00000177454130219565881300000003509950328130341822_);" d="M619.75,326.45h26.18
					c3.25,0,5.91,2.58,6.02,5.82l0.75,23.14c0.11,3.4-2.62,6.22-6.02,6.22h-25.8c-3.21,0-5.86-2.52-6.01-5.73l-1.13-23.14
					C613.57,329.33,616.31,326.45,619.75,326.45z"/>
				
					<linearGradient id="SVGID_00000082335999543814394620000002736147681037545118_" gradientUnits="userSpaceOnUse" x1="745.3764" y1="307.9556" x2="761.8757" y2="87.4667">
					<stop  offset="0" style="stop-color:#4042E2"/>
					<stop  offset="1" style="stop-color:#4F52FF"/>
				</linearGradient>
				<path style="fill:url(#SVGID_00000082335999543814394620000002736147681037545118_);" d="M760.53,325.61H728.1
					c-2.24,0-4.12,1.67-4.38,3.9l-3.26,27.79c-0.31,2.62,1.74,4.92,4.38,4.92h28.52c2.01,0,3.77-1.36,4.27-3.31l7.16-27.79
					C765.52,328.33,763.41,325.61,760.53,325.61z"/>
				
					<linearGradient id="SVGID_00000138547206717383504980000010811206166848175781_" gradientUnits="userSpaceOnUse" x1="694.0752" y1="304.1167" x2="710.5745" y2="83.6276">
					<stop  offset="0" style="stop-color:#4042E2"/>
					<stop  offset="1" style="stop-color:#4F52FF"/>
				</linearGradient>
				<path style="fill:url(#SVGID_00000138547206717383504980000010811206166848175781_);" d="M704.7,327.04h-26.18
					c-3.25,0-5.91,2.58-6.02,5.82L671.75,356c-0.11,3.4,2.62,6.22,6.02,6.22h25.8c3.21,0,5.86-2.52,6.01-5.73l1.13-23.14
					C710.88,329.91,708.14,327.04,704.7,327.04z"/>
				
					<linearGradient id="SVGID_00000168096890931016498990000006169513608158807458_" gradientUnits="userSpaceOnUse" x1="559.3437" y1="316.3553" x2="1105.6691" y2="94.2111">
					<stop  offset="0" style="stop-color:#4042E2"/>
					<stop  offset="1" style="stop-color:#4F52FF"/>
				</linearGradient>
				<path style="fill:url(#SVGID_00000168096890931016498990000006169513608158807458_);" d="M796.73,303.86H521.42
					c-5.46,0-9.78-4.63-9.4-10.08l2.69-38.36c0.35-4.93,4.45-8.76,9.4-8.76h269.07c4.87,0,8.93,3.71,9.38,8.55l3.55,38.36
					C806.62,299.09,802.28,303.86,796.73,303.86z"/>
				<path class="st14" d="M804.92,284.27c-7.87,0.58-242.15-0.84-292.22,0l-0.67,9.51c-0.38,5.45,3.94,10.08,9.4,10.08h275.31
					c5.54,0,9.89-4.77,9.38-10.29L804.92,284.27z"/>
			</g>
			<g>
				<path class="st17" d="M477.52,268.3c3.77-18.91,20.28-32.04,38.82-32.25c-2.52-1.08-5.19-1.92-7.99-2.48
					c-21.71-4.33-42.82,9.77-47.15,31.48c-4.33,21.71,9.77,42.82,31.48,47.15c2.8,0.56,5.58,0.8,8.33,0.77
					C483.96,305.67,473.75,287.22,477.52,268.3z"/>
				<path class="st17" d="M502.21,426.83c-31.48-6.27-51.92-36.88-45.65-68.36c4.99-25.02,25.34-43.04,49.29-46.25
					c-30.14-4.02-58.61,16.01-64.64,46.25c-6.27,31.48,14.16,62.09,45.64,68.36c6.46,1.29,12.89,1.43,19.08,0.61
					C504.69,427.27,503.45,427.08,502.21,426.83z"/>
				<path class="st17" d="M507.34,471.58c-0.69-3.83-1.08-7.78-1.08-11.81c0-4.61,0.48-9.1,1.38-13.45
					c3.46-21.84,15.07-40.74,31.39-53.01c-29.33,8.99-50.65,36.28-50.65,68.56c0,35.58,25.92,65.1,59.9,70.73
					C526.59,520.78,510.91,498.26,507.34,471.58z"/>
				<path class="st17" d="M720.8,449.96c0.65-3.6,1.01-7.29,1.01-11.08c0-4.32-0.45-8.54-1.29-12.61
					c-3.24-20.49-14.13-38.21-29.44-49.71c27.5,8.44,47.5,34.03,47.5,64.3c0,33.37-24.31,61.06-56.18,66.34
					C702.74,496.11,717.45,474.99,720.8,449.96z"/>
				<path class="st17" d="M676.95,781.87c0.65-3.6,1.01-7.29,1.01-11.08c0-4.32-0.45-8.54-1.29-12.61
					c-3.24-20.49-14.13-38.21-29.44-49.71c27.5,8.44,47.5,34.03,47.5,64.3c0,33.37-24.31,61.06-56.18,66.33
					C658.89,828.01,673.6,806.89,676.95,781.87z"/>
				<path class="st17" d="M843.89,262.73c-3.61-18.1-19.41-30.67-37.15-30.87c2.41-1.03,4.97-1.84,7.64-2.37
					c20.78-4.14,40.98,9.35,45.12,30.13c4.14,20.78-9.35,40.98-30.13,45.12c-2.68,0.53-5.34,0.77-7.97,0.74
					C837.72,298.49,847.5,280.83,843.89,262.73z"/>
				<path class="st17" d="M805.55,408.59c30.13-6,49.69-35.3,43.69-65.43c-4.77-23.94-24.25-41.2-47.17-44.26
					c28.84-3.85,56.1,15.32,61.86,44.26c6,30.13-13.55,59.43-43.69,65.43c-6.19,1.23-12.33,1.37-18.26,0.58
					C803.17,409.01,804.36,408.83,805.55,408.59z"/>
				<path class="st17" d="M809.51,459.36c0.87-4.35,1.34-8.82,1.34-13.39c0-5.22-0.6-10.32-1.72-15.24
					c-4.32-24.76-18.83-46.18-39.23-60.09c36.65,10.2,63.3,41.14,63.3,77.73c0,40.34-32.39,73.81-74.86,80.19
					C785.44,515.14,805.05,489.61,809.51,459.36z"/>
				<path class="st17" d="M651.92,389.87c-2.77,7.42-5.3,14.85-7.42,22.32c-2.1,7.47-3.78,14.99-4.77,22.5
					c-2.04,15-1.35,30.01,3.04,43.73c2.17,6.86,5.21,13.39,8.9,19.56c3.74,6.14,8.1,11.94,13.02,17.34
					c4.89,5.41,10.3,10.46,16.05,15.15c5.72,4.73,11.72,9.21,18.06,13.3l2.34,1.58l2.45,1.55l4.93,3.11
					c1.85,1.33,3.75,2.63,5.54,4.01l2.56,2.15c0.84,0.74,1.74,1.39,2.51,2.22c6.47,6.17,11.98,13.51,15.8,21.75
					c3.86,8.21,5.91,17.33,5.91,26.44c0.13,9.12-2.17,18.19-6.12,26.25c-0.24,0.51-0.47,1.02-0.73,1.52l-0.84,1.45l-1.71,2.88
					c-0.61,0.94-1.29,1.82-1.93,2.72c-0.67,0.88-1.26,1.83-2.01,2.65l-2.18,2.49l-1.09,1.23l-1.18,1.14l-2.38,2.26
					c-0.78,0.77-1.68,1.38-2.51,2.07c-6.76,5.44-14.43,9.36-22.3,12.03c-7.89,2.64-16,4.07-24.04,4.61
					c-8.06,0.48-16.06-0.04-23.89-1.11c3.93-0.66,7.83-0.93,11.67-1.79l2.88-0.52l1.43-0.26l1.42-0.34l5.64-1.33
					c7.43-2.03,14.61-4.61,21.19-8.06c6.59-3.41,12.56-7.68,17.48-12.73c0.6-0.65,1.28-1.22,1.81-1.92l1.68-2.01l0.84-0.99
					l0.74-1.06l1.48-2.12c0.52-0.68,0.87-1.48,1.32-2.2c0.41-0.75,0.87-1.47,1.25-2.22l1.06-2.31l0.54-1.14
					c0.16-0.39,0.29-0.79,0.44-1.19l0.87-2.36c0.29-0.79,0.44-1.62,0.67-2.42l0.32-1.21c0.12-0.4,0.21-0.8,0.27-1.22l0.42-2.46
					c0.18-0.81,0.21-1.64,0.29-2.47c0.07-0.82,0.17-1.64,0.22-2.47l0-2.48l0.01-1.23l-0.11-1.23c-0.54-6.56-2.2-13.06-5.37-18.9
					c-3.08-5.86-7.22-11.22-12.26-15.72c-1.24-1.14-2.6-2.17-3.89-3.27c-1.33-0.99-2.69-1.89-4.01-2.86l-5.06-3.13l-2.54-1.58
					l-2.55-1.7c-13.56-9.05-26.47-19.65-37.25-32.58c-5.34-6.48-10.19-13.49-14.06-21.09c-1.95-3.78-3.68-7.69-5.14-11.7
					c-0.4-0.99-0.71-2.01-1.02-3.03l-0.95-3.06c-0.61-2.04-1.05-4.14-1.58-6.2c-0.44-2.08-0.79-4.19-1.15-6.28
					c-0.23-2.11-0.5-4.22-0.68-6.32c-0.09-2.11-0.27-4.22-0.27-6.32l0.04-3.15l0.03-1.57l0.1-1.57c0.47-8.36,2.02-16.53,4.32-24.36
					c2.33-7.83,5.4-15.33,9.04-22.46C643.1,403.07,647.3,396.3,651.92,389.87z"/>
				<path class="st17" d="M651.84,550.29c3.76,4.76,7.1,9.85,10.05,15.23c2.95,5.38,5.45,11.08,7.38,17.07
					c1.9,5.99,3.23,12.28,3.69,18.76c0.09,0.81,0.12,1.62,0.14,2.43l0.07,2.45c0.03,1.63-0.09,3.27-0.14,4.91
					c-0.11,1.64-0.3,3.28-0.46,4.93c-0.25,1.63-0.51,3.27-0.83,4.9c-0.39,1.61-0.72,3.25-1.17,4.84c-0.49,1.58-0.9,3.21-1.48,4.76
					c-1.1,3.14-2.43,6.2-3.92,9.16c-2.96,5.95-6.7,11.42-10.81,16.48c-8.31,10.08-18.26,18.29-28.69,25.26l-1.96,1.3l-1.94,1.2
					l-3.86,2.38l-2.87,2.04c-0.93,0.8-1.92,1.53-2.81,2.35c-3.66,3.22-6.64,7.05-8.89,11.22c-2.32,4.16-3.54,8.78-4.01,13.46
					l-0.1,0.88l-0.01,0.88l-0.03,1.77c0.02,0.59,0.09,1.17,0.13,1.77c0.05,0.59,0.06,1.19,0.18,1.77c0.18,1.17,0.31,2.37,0.65,3.51
					c0.16,0.58,0.25,1.18,0.45,1.75l0.59,1.71c3.2,9.2,10.87,17.07,20.56,22.41c4.84,2.71,10.18,4.82,15.76,6.54
					c5.6,1.64,11.43,2.79,17.41,3.85c-5.95,1.1-12.06,1.66-18.26,1.49c-6.19-0.23-12.46-1.18-18.62-3.09
					c-6.14-1.94-12.16-4.88-17.52-9.06c-1.38-0.99-2.64-2.15-3.89-3.34l-0.94-0.89l-0.87-0.96l-1.74-1.94
					c-0.6-0.63-1.07-1.37-1.61-2.06c-0.52-0.71-1.06-1.4-1.55-2.13l-1.38-2.26l-0.68-1.14c-0.21-0.39-0.39-0.79-0.59-1.19
					c-3.19-6.34-5.08-13.52-5.03-20.76c-0.06-7.23,1.54-14.48,4.56-21c3-6.55,7.35-12.37,12.44-17.26c1.27-1.23,2.66-2.3,3.99-3.45
					c1.42-1.09,2.92-2.13,4.4-3.18l3.73-2.36l1.85-1.17l1.75-1.19c4.76-3.06,9.25-6.41,13.53-9.93c4.32-3.47,8.35-7.22,12.02-11.2
					c3.68-3.97,6.94-8.24,9.77-12.73c1.42-2.25,2.65-4.59,3.8-6.97c0.62-1.18,1.06-2.42,1.61-3.63c0.51-1.22,0.91-2.49,1.38-3.73
					c3.43-10.07,4.2-21.2,2.97-32.54c-0.6-5.67-1.71-11.39-3.12-17.11C655.47,561.77,653.7,556.06,651.84,550.29z"/>
			</g>
		</g>
		<g>
			<g>
				<path class="st14" d="M1921.14,309.69h-0.32c-5.23,0-9.5-4.28-9.5-9.5v-45.04c0-5.23,4.28-9.5,9.5-9.5h0.32
					c5.23,0,9.5,4.28,9.5,9.5v45.04C1930.64,305.41,1926.36,309.69,1921.14,309.69z"/>
				
					<linearGradient id="SVGID_00000008109468627099106700000003319368176101956002_" gradientUnits="userSpaceOnUse" x1="1927.2673" y1="242.0028" x2="1921.2677" y2="357.4969">
					<stop  offset="0" style="stop-color:#4042E2"/>
					<stop  offset="1" style="stop-color:#4F52FF"/>
				</linearGradient>
				<path style="fill:url(#SVGID_00000008109468627099106700000003319368176101956002_);" d="M1921.14,395.09h-0.32
					c-5.23,0-9.5-4.28-9.5-9.5v-45.04c0-5.23,4.28-9.5,9.5-9.5h0.32c5.23,0,9.5,4.28,9.5,9.5v45.04
					C1930.64,390.81,1926.36,395.09,1921.14,395.09z"/>
				
					<linearGradient id="SVGID_00000084495012471893476960000011203526430889450173_" gradientUnits="userSpaceOnUse" x1="1912.0297" y1="36.7769" x2="1915.0295" y2="167.2706">
					<stop  offset="0" style="stop-color:#4042E2"/>
					<stop  offset="1" style="stop-color:#4F52FF"/>
				</linearGradient>
				<polygon style="fill:url(#SVGID_00000084495012471893476960000011203526430889450173_);" points="2000.74,238.05 
					1999.06,309.69 1956.27,340.86 1878.92,340.86 1836.13,309.69 1834.45,238.05 1825.54,238.05 1825.54,319.79 1878.92,356.03 
					1956.27,356.03 2009.65,319.79 2009.65,238.05 				"/>
				
					<linearGradient id="SVGID_00000012434303531960860900000000848211392466174903_" gradientUnits="userSpaceOnUse" x1="1929.218" y1="242.1047" x2="1923.2184" y2="357.5987">
					<stop  offset="0" style="stop-color:#4042E2"/>
					<stop  offset="1" style="stop-color:#4F52FF"/>
				</linearGradient>
				<path style="fill:url(#SVGID_00000012434303531960860900000000848211392466174903_);" d="M2054.26,414.19H1787.7
					c-6.3,0-11.45-5.15-11.45-11.45v-4.06c0-6.29,5.15-11.45,11.45-11.45h266.56c6.3,0,11.45,5.15,11.45,11.45v4.06
					C2065.71,409.04,2060.56,414.19,2054.26,414.19z"/>
				
					<linearGradient id="SVGID_00000132065299226222646570000012271765819850109585_" gradientUnits="userSpaceOnUse" x1="1884.6821" y1="305.927" x2="1629.9631" y2="764.4212">
					<stop  offset="0" style="stop-color:#4042E2"/>
					<stop  offset="1" style="stop-color:#4F52FF"/>
				</linearGradient>
				<path style="fill:url(#SVGID_00000132065299226222646570000012271765819850109585_);" d="M2009.41,268.68h-182.47
					c-6.3,0-11.45-5.15-11.45-11.45v-23.18c0-6.29,5.15-11.45,11.45-11.45h182.47c6.3,0,11.45,5.15,11.45,11.45v23.18
					C2020.85,263.53,2015.7,268.68,2009.41,268.68z"/>
				<path class="st14" d="M2049.68,225.42h-266.56c-6.29,0-11.45-5.15-11.45-11.45v-4.06c0-6.29,5.15-11.45,11.45-11.45h266.56
					c6.29,0,11.45,5.15,11.45,11.45v4.06C2061.13,220.27,2055.98,225.42,2049.68,225.42z"/>
				
					<linearGradient id="SVGID_00000175308255956729085180000017482955961305462712_" gradientUnits="userSpaceOnUse" x1="1649.7162" y1="309.7242" x2="2318.2507" y2="37.888">
					<stop  offset="0" style="stop-color:#4042E2"/>
					<stop  offset="1" style="stop-color:#4F52FF"/>
				</linearGradient>
				<path style="fill:url(#SVGID_00000175308255956729085180000017482955961305462712_);" d="M2092.93,211.94h-354.32
					c-5.63,0-10.23-4.6-10.23-10.23v-0.34c0-5.63,4.6-10.23,10.23-10.23h354.32c5.63,0,10.23,4.6,10.23,10.23v0.34
					C2103.16,207.34,2098.56,211.94,2092.93,211.94z"/>
				
					<linearGradient id="SVGID_00000017508423052453538080000008235941130809833657_" gradientUnits="userSpaceOnUse" x1="1932.152" y1="39.7409" x2="1924.6523" y2="156.7352">
					<stop  offset="0" style="stop-color:#4042E2"/>
					<stop  offset="1" style="stop-color:#4F52FF"/>
				</linearGradient>
				<path style="fill:url(#SVGID_00000017508423052453538080000008235941130809833657_);" d="M1815.5,253.44v8.5
					c0,3.71,3.03,6.74,6.74,6.74h191.87c3.71,0,6.74-3.03,6.74-6.74v-10.67C1952.5,253.14,1885.19,254.55,1815.5,253.44z"/>
			</g>
			<g>
				<path class="st17" d="M1841.49,354.17c-86.26,14.24-155.94,39.9-196.37,88.7c-6.82,6.67,2.65,16.08,8.57,10.15
					C1704.46,396.67,1762.56,375.18,1841.49,354.17z"/>
				<path class="st17" d="M1985.41,362.91c84.92,14.02,153.51,39.28,193.31,87.32c6.71,6.57-2.6,15.83-8.44,10
					C2120.31,404.75,2063.11,383.59,1985.41,362.91z"/>
				<path class="st17" d="M1988.14,348.72c79.84,0.27,146.39,13.25,189.96,51.36c7.12,5.02-0.04,14.88-6.25,10.4
					C2117.87,367.08,2062.36,356.17,1988.14,348.72z"/>
				<path class="st17" d="M1858.87,345.2c-85.07-13.13-158.37-10.04-211.88,24.57c-8.52,4.33-2.74,16.38,4.71,12.5
					C1717.29,343.58,1778.44,340.91,1858.87,345.2z"/>
				<path class="st17" d="M1803.84,427.99c-68.24,35.9-119.42,76.75-139.69,128.84c-3.85,7.48,6.68,12.72,9.99,6.12
					C1700.97,501.67,1743.62,467.52,1803.84,427.99z"/>
				<path class="st17" d="M2076.67,412.51c1.34,15.88,7.46,38.95,8.23,48.01c0.86,17.4,31.31,11.33,22.33-4.33
					C2098.56,448.06,2085.22,427.43,2076.67,412.51z"/>
				<path class="st17" d="M2131.75,470.7c4.7,15.22,9.43,30.51,12.12,39.2c4.56,16.81,33,4.37,20.89-9.01
					C2154.56,494.8,2143.3,483.45,2131.75,470.7z"/>
				<path class="st17" d="M1883.35,427.02c4.36,15.32,8.75,30.71,11.24,39.46c5.35,16.58-25.27,21.68-22.42,3.85
					C1877.39,459.67,1880.63,444.01,1883.35,427.02z"/>
				<path class="st17" d="M1906.9,494.36c4.36,15.32,9.65,25.24,12.14,33.99c5.35,16.58-25.27,21.68-22.42,3.85
					C1901.84,521.53,1904.18,511.34,1906.9,494.36z"/>
				<path class="st17" d="M1985.41,438.56c-4.36,15.32-8.5,53.78-10.99,62.53c-5.35,16.58,25.27,21.68,22.42,3.85
					C1991.62,494.28,1988.13,455.55,1985.41,438.56z"/>
				<path class="st17" d="M1944.75,543.39c4.36,15.32,8.5,22.76,10.99,31.51c5.35,16.58-25.27,21.68-22.42,3.85
					C1938.54,568.08,1942.03,560.37,1944.75,543.39z"/>
				<path class="st17" d="M2041.64,659.14c4.36,15.32,8.5,22.76,10.99,31.51c5.35,16.58-25.27,21.68-22.42,3.85
					C2035.44,683.83,2038.93,676.12,2041.64,659.14z"/>
			</g>
		</g>
	</g>
</g>
</svg>
