<?xml version="1.0" encoding="utf-8"?>
<!-- Generator: Adobe Illustrator 27.0.0, SVG Export Plug-In . SVG Version: 6.00 Build 0)  -->
<svg version="1.1" xmlns="http://www.w3.org/2000/svg" xmlns:xlink="http://www.w3.org/1999/xlink" x="0px" y="0px"
	 viewBox="0 0 3710 3710" style="enable-background:new 0 0 3710 3710;" xml:space="preserve">
<style type="text/css">
	.st0{display:none;}
	.st1{display:inline;}
	.st2{fill:#FFFFFF;}
	.st3{opacity:0.3;fill:url(#SVGID_1_);}
	.st4{opacity:0.79;}
	.st5{opacity:0.3;}
	.st6{fill:url(#SVGID_00000168815881472966415820000001641459896964920733_);}
	.st7{fill:url(#SVGID_00000007405414118473206230000011998395679181923742_);}
	.st8{fill:url(#SVGID_00000089567158577192064790000006050544688043786369_);}
	.st9{fill:url(#SVGID_00000053519024517335175620000011325892524282871981_);}
	.st10{fill:url(#SVGID_00000159465770913270929020000017331779759651804069_);}
	.st11{fill:url(#SVGID_00000007411770076505862500000015827567231623363728_);}
	.st12{opacity:0.56;fill:#FFFFFF;}
	.st13{fill:url(#SVGID_00000085934958744182461480000013366240289014468994_);}
	.st14{fill:url(#SVGID_00000080169602192145833710000007972067442584567683_);}
	.st15{fill:url(#SVGID_00000011744801774478374170000009773449206740789918_);}
	.st16{fill:url(#SVGID_00000109012964140330418780000006261360826750318519_);}
	.st17{fill:url(#SVGID_00000103946969542052254700000016842420427295705484_);}
	.st18{fill:url(#SVGID_00000047752372500304957770000001505683067820346032_);}
	.st19{fill:url(#SVGID_00000165923663069611565750000018293011468410510782_);}
	.st20{fill:url(#SVGID_00000127760293301309561970000008258965249822743998_);}
	.st21{fill:url(#SVGID_00000158010783459111517290000009342795640319903112_);}
	.st22{fill:url(#SVGID_00000007422479286724560480000016124488900287639692_);}
	.st23{opacity:0.89;}
	.st24{fill:url(#SVGID_00000135660455764168332580000017202443148287144593_);}
	.st25{fill:url(#SVGID_00000077288379331260140280000001435660021502277784_);}
	.st26{fill:url(#SVGID_00000005964129697969588480000015848231898780771714_);}
	.st27{fill:url(#SVGID_00000169557553250246172010000005703765322308412086_);}
	.st28{fill:url(#SVGID_00000093884142880075274870000009209193531693338260_);}
	.st29{fill:url(#SVGID_00000145775740883707271770000012703422042854732705_);}
	.st30{fill:url(#SVGID_00000168080727087715659350000009086127414523931041_);}
	.st31{opacity:0.9;fill:url(#SVGID_00000041254231944547260550000003213792181424696980_);}
	.st32{opacity:0.9;fill:url(#SVGID_00000166643163148183646110000016193708703044047551_);}
	.st33{opacity:0.9;fill:url(#SVGID_00000104680887921443891410000006297361978740951183_);}
	.st34{opacity:0.9;fill:url(#SVGID_00000140692706443451957530000009705984938554846610_);}
	.st35{fill:url(#SVGID_00000105389529858567352710000008316754178309085092_);}
	.st36{fill:url(#SVGID_00000159471618755450210750000001494333756799210171_);}
	.st37{fill:url(#SVGID_00000077317108656565443050000008459416588031774094_);}
	.st38{fill:url(#SVGID_00000147204085021162189630000014639791806178202798_);}
	.st39{fill:url(#SVGID_00000051369363080731018210000004010974212010503831_);}
	.st40{fill:url(#SVGID_00000048460514485203814560000007257395773206542243_);}
	.st41{fill:url(#SVGID_00000122684630275457727100000006900623240558250659_);}
	.st42{fill:url(#SVGID_00000180364034938677916460000006790822198271038091_);}
	.st43{fill:url(#SVGID_00000008126704130448189810000005162537261344788358_);}
	.st44{fill:url(#SVGID_00000011022194352351241900000012460715213225191306_);}
	.st45{fill:url(#SVGID_00000096768030992622762010000001497503151702291383_);}
	.st46{fill:url(#SVGID_00000140007281366257737580000002471861977580074904_);}
	.st47{fill:url(#SVGID_00000064321525276337018950000014498021155257132208_);}
	.st48{fill:url(#SVGID_00000052826057275537389120000017790977194554631552_);}
	.st49{fill:url(#SVGID_00000167397318313780382120000009760508925700837560_);}
	.st50{fill:url(#SVGID_00000154416843893196432120000004840680529831682201_);}
	.st51{fill:url(#SVGID_00000147189591845445223050000011278274951496542597_);}
	.st52{fill:url(#SVGID_00000054988750431226716660000004814836354053762483_);}
	.st53{fill:url(#SVGID_00000005254036434226361120000008514376023857256890_);}
	.st54{fill:url(#SVGID_00000183238861463575412160000000077239341319865505_);}
	.st55{fill:url(#SVGID_00000080177808504562426510000009433110961119299491_);}
	.st56{fill:url(#SVGID_00000016058071378505962490000018415594583107939263_);}
	.st57{fill:url(#SVGID_00000063602842541654837780000002655114830721705892_);}
	.st58{fill:url(#SVGID_00000021832641647764542060000001892836364098633406_);}
	.st59{fill:url(#SVGID_00000015323257229886069320000006300636616229587622_);}
	.st60{fill:url(#SVGID_00000016055925178714482500000010806097278577533874_);}
	.st61{fill:url(#SVGID_00000100352178035913100830000008075194680387687558_);}
	.st62{fill:url(#SVGID_00000127030665218873792130000005321215745567106491_);}
	.st63{fill:url(#SVGID_00000120529160737229162840000006881456115446955648_);}
	.st64{fill:url(#SVGID_00000054973255036991320990000010936969300732781973_);}
	.st65{fill:url(#SVGID_00000151504547076587486250000012873121889682610582_);}
	.st66{fill:url(#SVGID_00000018197772817744253950000008832778783514883738_);}
	.st67{fill:url(#SVGID_00000101815696999681028760000001956189194878574749_);}
	.st68{opacity:0.25;fill:#FFFFFF;}
	.st69{fill:url(#SVGID_00000168101526130518907530000003873763277117104792_);}
	.st70{fill:url(#SVGID_00000023993753381056053900000017196960180790048143_);}
</style>
<g id="Background" class="st0">
	<g class="st1">
		<g>
			<rect class="st2" width="3710" height="3710"/>
		</g>
	</g>
</g>
<g id="Illustration">
	<g>
		
			<linearGradient id="SVGID_1_" gradientUnits="userSpaceOnUse" x1="3405.4062" y1="3615.3416" x2="1361.6901" y2="1409.4255" gradientTransform="matrix(-1 0 0 1 3710 0)">
			<stop  offset="0" style="stop-color:#7D8AFF"/>
			<stop  offset="1" style="stop-color:#CD97F7"/>
		</linearGradient>
		<path class="st3" d="M588.03,2357.78c281.13,655.76,1023.23,937.43,1604.67,889.4c158.76-13.11,478.18-39.5,727.59-274.87
			c478.97-452.02,405.21-1396.87-53.31-1953.14c-59.05-71.64-467.76-551.59-1104.67-545.17c-466.31,4.7-793.61,267.57-833.4,300.32
			c-50.28,41.37-161.16,139.68-261.1,295.64C433,1436.42,412.35,1947.99,588.03,2357.78z"/>
		<g class="st4">
			<g>
				<g class="st5">
					
						<linearGradient id="SVGID_00000113312009528937733800000013574484359410232713_" gradientUnits="userSpaceOnUse" x1="-4289.8862" y1="11609.3936" x2="-3680.3025" y2="11609.3936" gradientTransform="matrix(0.6071 0.7946 -0.7946 0.6071 14538.7783 -3135.6492)">
						<stop  offset="0" style="stop-color:#7D8AFF"/>
						<stop  offset="1" style="stop-color:#CD97F7"/>
					</linearGradient>
					<path style="fill:url(#SVGID_00000113312009528937733800000013574484359410232713_);" d="M2526.14,660
						c-3.28-4.29-2.85-10.46,1.16-14.25c8.78-8.29,18.04-16.32,27.54-23.87c4.62-3.67,11.35-2.9,15.02,1.72
						c0.04,0.06,0.08,0.11,0.13,0.17c3.53,4.61,2.72,11.22-1.84,14.85c-9.03,7.17-17.83,14.8-26.17,22.67
						c-4.29,4.05-11.06,3.86-15.11-0.43C2526.61,660.58,2526.37,660.29,2526.14,660z M2600.54,604.02
						c-0.25-0.33-0.49-0.68-0.71-1.05c-3.01-5.08-1.33-11.63,3.75-14.64c10.43-6.18,21.23-11.97,32.1-17.21
						c5.32-2.57,11.68-0.35,14.27,4.98c2.56,5.32,0.33,11.71-4.98,14.27c-10.33,4.99-20.59,10.49-30.5,16.36
						C2609.76,609.51,2603.78,608.27,2600.54,604.02z M2685.41,565.82c-0.72-0.95-1.3-2.03-1.68-3.23
						c-1.8-5.62,1.29-11.64,6.92-13.44c11.52-3.69,23.35-6.93,35.15-9.62c5.76-1.31,11.48,2.3,12.8,8.04
						c1.31,5.75-2.29,11.48-8.04,12.8c-11.21,2.56-22.43,5.63-33.38,9.14C2692.75,570.92,2688.08,569.31,2685.41,565.82z
						 M2776.71,547.55c-1.19-1.56-1.97-3.47-2.15-5.58c-0.5-5.88,3.86-11.05,9.74-11.55c12.06-1.02,24.32-1.54,36.42-1.53
						c5.9,0.01,10.68,4.79,10.68,10.7c0,5.9-4.79,10.68-10.7,10.68c-11.49-0.01-23.13,0.48-34.59,1.45
						C2782.34,552.04,2778.86,550.36,2776.71,547.55z M2869.79,550.1c-1.67-2.19-2.5-5.02-2.09-7.97c0.82-5.85,6.22-9.92,12.06-9.1
						c11.96,1.67,24.02,3.88,35.83,6.57c5.76,1.3,9.36,7.03,8.05,12.79c-1.31,5.75-7.03,9.36-12.79,8.05
						c-11.23-2.56-22.69-4.66-34.06-6.25C2873.91,553.79,2871.44,552.26,2869.79,550.1z M2959.99,573.18
						c-2.17-2.84-2.87-6.7-1.51-10.28c2.09-5.52,8.26-8.3,13.78-6.21c11.31,4.28,22.58,9.11,33.49,14.34
						c5.32,2.55,7.57,8.94,5.02,14.26c-2.55,5.32-8.93,7.57-14.26,5.02c-10.37-4.97-21.07-9.55-31.82-13.62
						C2962.75,575.94,2961.16,574.71,2959.99,573.18z M3217.96,868.91c-0.9-1.18-1.56-2.56-1.92-4.09
						c-2.57-11.19-5.67-22.42-9.2-33.37c-1.81-5.62,1.27-11.64,6.89-13.45c5.62-1.81,11.64,1.27,13.45,6.89
						c3.72,11.53,6.98,23.36,9.69,35.14c1.32,5.75-2.27,11.49-8.02,12.81C3224.63,873.81,3220.42,872.14,3217.96,868.91z
						 M3042.77,615.64c-2.69-3.52-3-8.5-0.41-12.4c3.27-4.92,9.9-6.26,14.82-2.99c10.08,6.69,19.99,13.91,29.45,21.44
						c4.6,3.7,5.39,10.4,1.71,15.02c-3.67,4.62-10.4,5.38-15.02,1.71c-8.99-7.16-18.4-14-27.97-20.36
						C3044.34,617.37,3043.47,616.56,3042.77,615.64z M3187.01,781.11c-0.43-0.56-0.81-1.17-1.13-1.83
						c-5.01-10.34-10.54-20.59-16.43-30.49c-3.02-5.07-1.35-11.63,3.72-14.65c5.07-3.01,11.65-1.37,14.65,3.72
						c6.19,10.41,12.01,21.2,17.29,32.08c2.58,5.31,0.36,11.71-4.95,14.28C3195.51,786.48,3190.03,785.06,3187.01,781.11z
						 M3113.99,675.53c-3.27-4.29-2.85-10.44,1.15-14.23c4.28-4.06,11.05-3.88,15.11,0.4c8.31,8.77,16.36,18.02,23.91,27.49
						c0.05,0.06,0.1,0.12,0.14,0.18c3.52,4.61,2.72,11.2-1.83,14.84c-4.62,3.68-11.34,2.93-15.02-1.69
						c-7.18-8.99-14.82-17.78-22.72-26.11C3114.47,676.12,3114.22,675.83,3113.99,675.53z"/>
					
						<linearGradient id="SVGID_00000176733094493613262360000004843072059192405932_" gradientUnits="userSpaceOnUse" x1="-3650.6689" y1="11448.8291" x2="-3615.0669" y2="11448.8291" gradientTransform="matrix(0.6071 0.7946 -0.7946 0.6071 14538.7783 -3135.6492)">
						<stop  offset="0" style="stop-color:#7D8AFF"/>
						<stop  offset="1" style="stop-color:#CD97F7"/>
					</linearGradient>
					<path style="fill:url(#SVGID_00000176733094493613262360000004843072059192405932_);" d="M3228.08,943.27
						c-1.28-1.67-2.08-3.74-2.18-6c-0.24-5.51-0.61-11.09-1.08-16.62c-0.5-5.88,3.86-11.06,9.73-11.56
						c5.88-0.51,11.06,3.85,11.56,9.74c0.5,5.81,0.88,11.69,1.14,17.48c0.26,5.89-4.3,10.89-10.2,11.15
						C3233.42,947.63,3230.13,945.95,3228.08,943.27z"/>
				</g>
				<g class="st5">
					
						<linearGradient id="SVGID_00000041257577308459067250000009473463785874814336_" gradientUnits="userSpaceOnUse" x1="-3465.8745" y1="11720.8701" x2="-3441.4441" y2="11720.8701" gradientTransform="matrix(0.6071 0.7946 -0.7946 0.6071 14538.7783 -3135.6492)">
						<stop  offset="0" style="stop-color:#7D8AFF"/>
						<stop  offset="1" style="stop-color:#CD97F7"/>
					</linearGradient>
					<path style="fill:url(#SVGID_00000041257577308459067250000009473463785874814336_);" d="M3114.4,1248.61
						c-3.13-4.1-2.92-9.98,0.75-13.84c3.79-3.99,7.57-8.14,11.22-12.31c3.89-4.44,10.64-4.9,15.08-1.01
						c4.46,3.9,4.9,10.64,1.01,15.08c-3.84,4.39-7.81,8.76-11.81,12.96c-4.06,4.28-10.83,4.45-15.11,0.39
						C3115.12,1249.48,3114.74,1249.06,3114.4,1248.61z"/>
					
						<linearGradient id="SVGID_00000092449646712182550830000014520625577463174812_" gradientUnits="userSpaceOnUse" x1="-4064.1079" y1="11998.7607" x2="-3436.2217" y2="11998.7607" gradientTransform="matrix(0.6071 0.7946 -0.7946 0.6071 14538.7783 -3135.6492)">
						<stop  offset="0" style="stop-color:#7D8AFF"/>
						<stop  offset="1" style="stop-color:#CD97F7"/>
					</linearGradient>
					<path style="fill:url(#SVGID_00000092449646712182550830000014520625577463174812_);" d="M2481.86,1215.28
						c-2.99-3.91-5.92-7.88-8.79-11.92c-3.42-4.81-2.3-11.48,2.51-14.91c4.81-3.42,11.52-2.29,14.91,2.5
						c6.64,9.32,13.63,18.34,20.88,26.93c3.8,4.52,3.24,11.25-1.27,15.06c-4.51,3.81-11.25,3.24-15.06-1.27
						C2490.55,1226.37,2486.12,1220.85,2481.86,1215.28z M2443.56,1155.27c-0.36-0.47-0.69-0.99-0.98-1.54
						c-5.54-10.56-10.69-21.47-15.32-32.43c-2.29-5.44,0.26-11.71,5.69-14c5.44-2.29,11.73,0.26,14,5.69
						c4.39,10.41,9.29,20.77,14.55,30.81c2.74,5.23,0.73,11.69-4.5,14.43C2452.33,1160.69,2446.66,1159.33,2443.56,1155.27z
						 M2534.22,1272.02c-3.06-4-2.94-9.74,0.55-13.62c3.95-4.39,10.7-4.75,15.1-0.8c8.39,7.55,17.23,14.84,26.26,21.67
						c4.7,3.57,5.64,10.26,2.08,14.97c-3.56,4.71-10.27,5.64-14.97,2.08c-9.51-7.19-18.81-14.87-27.66-22.82
						C2535.07,1273.03,2534.62,1272.54,2534.22,1272.02z M2410.18,1069.92c-0.82-1.08-1.45-2.33-1.82-3.72
						c-3.08-11.51-5.71-23.29-7.81-35.01c-1.04-5.81,2.83-11.36,8.63-12.4c5.81-1.04,11.36,2.82,12.4,8.64
						c1.99,11.13,4.49,22.31,7.41,33.24c1.53,5.7-1.86,11.56-7.56,13.09C2417.14,1074.91,2412.73,1073.26,2410.18,1069.92z
						 M2608.67,1325.32c-2.51-3.28-2.98-7.88-0.83-11.71c2.88-5.15,9.4-6.99,14.55-4.1c9.84,5.51,20.07,10.68,30.38,15.37
						c5.37,2.44,7.75,8.77,5.31,14.15c-2.44,5.37-8.77,7.75-14.15,5.31c-10.86-4.93-21.62-10.37-31.99-16.18
						C2610.63,1327.41,2609.53,1326.44,2608.67,1325.32z M2693.02,1360.99c-2.01-2.63-2.77-6.14-1.75-9.55
						c1.69-5.66,7.64-8.87,13.3-7.18c10.85,3.24,21.96,6.05,33.02,8.37c5.78,1.2,9.48,6.87,8.27,12.65
						c-1.21,5.78-6.88,9.48-12.65,8.27c-11.64-2.44-23.33-5.41-34.75-8.81C2696.2,1364.07,2694.34,1362.72,2693.02,1360.99z
						 M2783.13,1377.43c-1.53-2-2.36-4.53-2.16-7.24c0.42-5.89,5.53-10.32,11.41-9.91c11.3,0.8,22.76,1.13,34.06,0.99
						c5.9-0.08,10.75,4.64,10.82,10.55c0.07,5.9-4.65,10.75-10.55,10.82c-11.89,0.15-23.95-0.2-35.84-1.04
						C2787.69,1381.38,2784.93,1379.78,2783.13,1377.43z M2874.68,1373.82c-1.06-1.38-1.79-3.04-2.07-4.89
						c-0.88-5.84,3.13-11.28,8.97-12.16c11.2-1.69,22.45-3.88,33.44-6.5c5.74-1.37,11.51,2.18,12.88,7.91
						c1.37,5.74-2.17,11.51-7.91,12.88c-11.58,2.77-23.42,5.07-35.21,6.85C2880.78,1378.51,2876.97,1376.82,2874.68,1373.82z
						 M2963.24,1350.19c-0.59-0.78-1.09-1.65-1.46-2.61c-2.15-5.5,0.57-11.7,6.07-13.84c10.52-4.11,21.01-8.72,31.17-13.71
						c5.3-2.6,11.71-0.4,14.3,4.88c2.6,5.3,0.41,11.7-4.88,14.3c-10.7,5.25-21.74,10.11-32.81,14.43
						C2971.08,1355.43,2966.06,1353.88,2963.24,1350.19z M3044.39,1307.72c-0.13-0.17-0.26-0.35-0.39-0.54
						c-3.29-4.9-1.99-11.54,2.91-14.83c6.92-4.65,13.77-9.56,20.38-14.61c2.39-1.83,4.76-3.68,7.1-5.55
						c4.61-3.68,11.34-2.93,15.02,1.68c3.82,4.6,2.93,11.33-1.68,15.02c-2.46,1.97-4.95,3.91-7.47,5.84
						c-6.95,5.31-14.16,10.48-21.44,15.36C3054.12,1313.26,3047.79,1312.17,3044.39,1307.72z"/>
					
						<linearGradient id="SVGID_00000057107369315546183170000003152359637443131537_" gradientUnits="userSpaceOnUse" x1="-4126.6953" y1="12131.1123" x2="-4091.5479" y2="12131.1123" gradientTransform="matrix(0.6071 0.7946 -0.7946 0.6071 14538.7783 -3135.6492)">
						<stop  offset="0" style="stop-color:#7D8AFF"/>
						<stop  offset="1" style="stop-color:#CD97F7"/>
					</linearGradient>
					<path style="fill:url(#SVGID_00000057107369315546183170000003152359637443131537_);" d="M2396.41,979.06
						c-1.29-1.69-2.09-3.77-2.18-6.05c-0.23-5.78-0.34-11.68-0.33-17.52c0.01-5.9,4.8-10.68,10.7-10.67
						c5.9,0.01,10.68,4.79,10.67,10.7c-0.01,5.55,0.1,11.15,0.32,16.64c0.24,5.89-4.35,10.87-10.25,11.1
						C2401.72,983.4,2398.45,981.73,2396.41,979.06z"/>
				</g>
				<g>
					
						<linearGradient id="SVGID_00000023988547505178904080000015869149426393215894_" gradientUnits="userSpaceOnUse" x1="4870.3115" y1="10115.5713" x2="7206.5879" y2="13258.6191" gradientTransform="matrix(-0.6562 -0.7546 -0.7546 0.6562 15351.127 -2138.9639)">
						<stop  offset="0" style="stop-color:#7D8AFF"/>
						<stop  offset="1" style="stop-color:#CD97F7"/>
					</linearGradient>
					<path style="fill:url(#SVGID_00000023988547505178904080000015869149426393215894_);" d="M2503.67,915.27
						c-0.49,2.07,0.38,4.23,2.18,5.37l51.31,32.6c-0.11,28.39,4.31,57,13.54,84.72l-38.54,46.96c-1.35,1.65-1.51,3.97-0.39,5.79
						l38.21,62.11c1.12,1.82,3.26,2.72,5.34,2.26l59.3-13.22c20.58,20.74,44.13,37.58,69.51,50.29l5.96,60.5
						c0.21,2.12,1.74,3.87,3.81,4.37l70.93,16.9c2.07,0.49,4.23-0.38,5.37-2.18l32.6-51.31c28.39,0.11,57-4.31,84.72-13.54
						l46.96,38.54c1.65,1.35,3.97,1.51,5.79,0.39l62.11-38.21c1.81-1.12,2.72-3.26,2.26-5.34l-13.22-59.3
						c20.74-20.58,37.58-44.12,50.29-69.51l60.5-5.96c2.12-0.21,3.87-1.74,4.37-3.81l16.9-70.93c0.5-2.07-0.38-4.23-2.18-5.37
						l-51.31-32.6c0.11-28.39-4.31-57-13.54-84.72l38.54-46.96c1.35-1.65,1.51-3.97,0.39-5.79l-38.21-62.11
						c-1.12-1.82-3.26-2.72-5.34-2.26l-59.3,13.22c-20.58-20.74-44.13-37.58-69.51-50.29l-5.96-60.5c-0.21-2.12-1.74-3.88-3.81-4.37
						l-70.93-16.9c-2.07-0.49-4.23,0.38-5.37,2.18l-32.6,51.31c-28.39-0.11-57,4.31-84.72,13.54l-46.96-38.54
						c-1.65-1.35-3.97-1.51-5.79-0.39l-62.11,38.21c-1.81,1.12-2.72,3.26-2.26,5.34l13.22,59.3
						c-20.74,20.58-37.58,44.12-50.29,69.51l-60.5,5.96c-2.12,0.21-3.87,1.74-4.37,3.81L2503.67,915.27z"/>
					<path class="st12" d="M2765.29,998.48c-21.69-28.39-19.89-69.25,5.76-95.6c28.2-28.96,74.69-29.58,103.65-1.38
						c14.03,13.66,21.9,31.96,22.16,51.54c0.26,19.58-7.11,38.08-20.77,52.11c-28.2,28.96-74.69,29.58-103.65,1.39
						C2769.82,1003.99,2767.44,1001.29,2765.29,998.48z M2868.3,919.98c-1.68-2.19-3.52-4.28-5.53-6.24
						c-22.2-21.62-57.85-21.14-79.47,1.06c-21.62,22.2-21.16,57.86,1.06,79.47c22.2,21.62,57.85,21.14,79.47-1.06
						c10.47-10.76,16.13-24.95,15.93-39.96C2879.6,941.06,2875.58,929.51,2868.3,919.98z"/>
					<path class="st12" d="M2682.08,1063.94c-3.73-4.88-7.23-9.97-10.49-15.27l0,0c-1.03-1.67-2.03-3.35-3-5.05
						c-4.79-8.38-8.91-17.13-12.29-26.12c-0.05-0.12-0.09-0.24-0.14-0.37c-0.13-0.35-0.26-0.7-0.38-1.05
						c-0.25-0.68-0.49-1.36-0.73-2.04c-0.63-1.79,0-3.72,1.43-4.82c0.35-0.27,0.74-0.48,1.18-0.64c2.23-0.79,4.66,0.39,5.45,2.61
						c4.04,11.46,9.35,22.55,15.76,32.98c31.87,51.82,87.01,80.76,143.75,81.67c31.56,0.51,63.61-7.66,92.43-25.39
						c5.05-3.11,9.91-6.45,14.56-10c31.3-23.92,53.23-57.59,62.49-96.43c10.63-44.61,3.25-90.69-20.77-129.74
						c-49.63-80.66-155.55-105.88-236.18-56.28c-4.97,3.06-9.77,6.36-14.38,9.88c-19.96,15.26-36.37,34.72-47.96,57.03
						c-0.3,0.58-0.71,1.06-1.2,1.42c-1.27,0.97-3.05,1.19-4.57,0.4c-2.09-1.1-2.92-3.67-1.82-5.77
						c12.18-23.43,29.4-43.86,50.35-59.88c4.83-3.7,9.87-7.16,15.09-10.37c84.65-52.07,195.89-25.54,247.94,59.08
						c25.22,41,32.97,89.38,21.81,136.21c-9.71,40.77-32.74,76.12-65.6,101.23c-4.88,3.73-9.98,7.24-15.29,10.5
						c-41.01,25.22-89.38,32.97-136.21,21.81C2742.55,1119.85,2707.19,1096.81,2682.08,1063.94z"/>
				</g>
			</g>
			<g>
				<g class="st5">
					
						<linearGradient id="SVGID_00000075123646908993467890000011774340762004263553_" gradientUnits="userSpaceOnUse" x1="-4611.2339" y1="12119.0645" x2="-4595.0112" y2="12119.0645" gradientTransform="matrix(0.6071 0.7946 -0.7946 0.6071 14538.7783 -3135.6492)">
						<stop  offset="0" style="stop-color:#7D8AFF"/>
						<stop  offset="1" style="stop-color:#CD97F7"/>
					</linearGradient>
					<path style="fill:url(#SVGID_00000075123646908993467890000011774340762004263553_);" d="M2104.77,574
						c-1.62-2.12-1.73-5.13-0.07-7.39c3.09-4.22,6.36-8.4,9.7-12.43c2.17-2.62,6.05-2.98,8.68-0.81c2.63,2.17,2.98,6.06,0.81,8.68
						c-3.19,3.84-6.3,7.83-9.25,11.85c-2.01,2.74-5.87,3.33-8.61,1.32C2105.54,574.88,2105.12,574.46,2104.77,574z"/>
					
						<linearGradient id="SVGID_00000040560431775220706290000012538185208067076237_" gradientUnits="userSpaceOnUse" x1="-4617.8018" y1="11936.8164" x2="-4299.8569" y2="11936.8164" gradientTransform="matrix(0.6071 0.7946 -0.7946 0.6071 14538.7783 -3135.6492)">
						<stop  offset="0" style="stop-color:#7D8AFF"/>
						<stop  offset="1" style="stop-color:#CD97F7"/>
					</linearGradient>
					<path style="fill:url(#SVGID_00000040560431775220706290000012538185208067076237_);" d="M2136.2,538.51
						c-1.9-2.48-1.64-6.05,0.68-8.23c6.57-6.17,13.52-12.07,20.68-17.53c1.51-1.15,3.03-2.29,4.57-3.42
						c2.75-2.01,6.61-1.19,8.62,1.33c2.01,2.75,1.41,6.6-1.33,8.61c-1.47,1.08-2.93,2.16-4.37,3.26
						c-6.82,5.21-13.46,10.84-19.72,16.72c-2.48,2.33-6.38,2.21-8.71-0.27C2136.47,538.84,2136.33,538.68,2136.2,538.51z
						 M2187.86,500.75c-0.18-0.23-0.34-0.48-0.49-0.74c-1.66-2.97-0.6-6.73,2.38-8.39c9.53-5.33,19.48-10.11,29.56-14.21
						c3.15-1.28,6.75,0.25,8.03,3.38c1.28,3.16-0.23,6.75-3.38,8.03c-9.62,3.91-19.11,8.48-28.2,13.56
						C2193.05,503.89,2189.69,503.15,2187.86,500.75z M2247.13,476.64c-0.47-0.62-0.84-1.34-1.05-2.14
						c-0.88-3.29,1.07-6.67,4.36-7.55c10.53-2.82,21.36-5.02,32.17-6.52c3.38-0.47,6.48,1.88,6.95,5.26
						c0.47,3.37-1.89,6.48-5.26,6.95c-10.31,1.43-20.63,3.52-30.67,6.21C2251.14,479.52,2248.6,478.57,2247.13,476.64z
						 M2310.52,467.84c-0.77-1.01-1.24-2.28-1.26-3.65c-0.05-3.4,2.67-6.21,6.08-6.25c10.92-0.15,21.95,0.37,32.78,1.55
						c3.38,0.37,5.82,3.42,5.45,6.8c-0.37,3.38-3.41,5.82-6.8,5.46c-10.32-1.13-20.84-1.63-31.25-1.48
						C2313.48,470.3,2311.66,469.34,2310.52,467.84z M2374.13,474.79c-1.08-1.42-1.54-3.29-1.1-5.16c0.78-3.31,4.1-5.36,7.41-4.58
						c10.62,2.51,21.18,5.69,31.4,9.46c3.2,1.18,4.83,4.72,3.65,7.92c-1.18,3.19-4.73,4.83-7.92,3.65
						c-9.75-3.6-19.83-6.64-29.96-9.03C2376.17,476.7,2374.96,475.88,2374.13,474.79z M2434.12,496.96
						c-1.4-1.83-1.71-4.39-0.58-6.58c1.56-3.02,5.28-4.2,8.3-2.64c9.69,5.01,19.16,10.67,28.14,16.83c2.81,1.94,3.52,5.76,1.59,8.57
						c-1.92,2.81-5.76,3.52-8.57,1.6c-8.56-5.87-17.59-11.27-26.83-16.05C2435.35,498.26,2434.65,497.66,2434.12,496.96z
						 M2486.85,533.12c-1.75-2.3-1.7-5.58,0.29-7.82c2.26-2.55,6.15-2.78,8.7-0.53c8.14,7.21,15.93,15.03,23.16,23.23
						c2.21,2.6,2,6.45-0.55,8.7c-2.55,2.25-6.45,2-8.7-0.55c-6.89-7.83-14.32-15.29-22.08-22.16
						C2487.36,533.73,2487.09,533.43,2486.85,533.12z M2545.56,608.68c-0.22-0.28-0.41-0.59-0.58-0.92
						c-4.12-7.98-8.75-15.88-13.77-23.47c-0.75-1.15-1.51-2.28-2.27-3.39c-1.92-2.81-1.21-6.64,1.6-8.57
						c2.81-1.93,6.74-1.25,8.57,1.6c0.81,1.19,1.62,2.38,2.4,3.59c5.24,7.94,10.09,16.21,14.42,24.59c1.56,3.03,0.38,6.74-2.65,8.3
						C2550.59,611.8,2547.35,611.01,2545.56,608.68z"/>
				</g>
				<g class="st5">
					
						<linearGradient id="SVGID_00000018210545044731302640000007501464234227810733_" gradientUnits="userSpaceOnUse" x1="-4475.9043" y1="12241.6113" x2="-4113.0176" y2="12241.6113" gradientTransform="matrix(0.6071 0.7946 -0.7946 0.6071 14538.7783 -3135.6492)">
						<stop  offset="0" style="stop-color:#7D8AFF"/>
						<stop  offset="1" style="stop-color:#CD97F7"/>
					</linearGradient>
					<path style="fill:url(#SVGID_00000018210545044731302640000007501464234227810733_);" d="M2110.08,888.57
						c-2.04-2.67-1.56-6.5,1.09-8.59c2.67-2.1,6.55-1.64,8.65,1.04c6.33,8.06,13.2,15.8,20.42,23.01c2.37,2.41,2.42,6.31,0.01,8.72
						c-2.41,2.41-6.31,2.41-8.72,0.01c-7.57-7.57-14.78-15.68-21.41-24.13C2110.11,888.61,2110.08,888.57,2110.08,888.57z
						 M2092.14,862.64c-0.14-0.18-0.26-0.36-0.38-0.55c-5.57-9.17-10.63-18.77-15.06-28.54c-1.4-3.1-0.03-6.75,3.07-8.15
						c3.1-1.41,6.75-0.01,8.16,3.07c4.22,9.32,9.06,18.48,14.37,27.24c1.77,2.91,0.84,6.7-2.07,8.46
						C2097.5,865.81,2094.02,865.11,2092.14,862.64z M2154.63,933c-1.66-2.17-1.72-5.27,0.04-7.53c2.09-2.68,5.96-3.17,8.65-1.08
						c8.09,6.29,16.64,12.15,25.4,17.4c2.92,1.77,3.87,5.54,2.11,8.46c-1.75,2.92-5.54,3.87-8.46,2.12
						c-9.18-5.5-18.14-11.64-26.62-18.24C2155.31,933.79,2154.94,933.41,2154.63,933z M2066.19,805.27c-0.43-0.56-0.76-1.2-0.99-1.9
						c-3.2-10.25-5.8-20.8-7.72-31.35c-0.61-3.35,1.61-6.56,4.96-7.17c3.34-0.6,6.55,1.61,7.17,4.96
						c1.84,10.06,4.31,20.12,7.36,29.89c1.01,3.25-0.8,6.71-4.05,7.72C2070.39,808.21,2067.72,807.27,2066.19,805.27z
						 M2208.6,965.35c-1.32-1.73-1.69-4.12-0.74-6.25c1.38-3.11,5.03-4.51,8.14-3.13c9.34,4.16,19.04,7.79,28.82,10.78
						c3.26,1,5.09,4.45,4.09,7.7c-1,3.25-4.45,5.09-7.7,4.09c-10.26-3.15-20.42-6.95-30.22-11.3
						C2210.01,966.8,2209.2,966.14,2208.6,965.35z M2268.75,983.8c-1.01-1.33-1.49-3.06-1.17-4.83c0.6-3.35,3.8-5.58,7.15-4.99
						c10.09,1.8,20.38,3.01,30.58,3.58c3.4,0.19,6,3.11,5.81,6.5c-0.19,3.4-3.1,6-6.5,5.8c-10.69-0.6-21.48-1.86-32.05-3.75
						C2270.99,985.84,2269.66,984.98,2268.75,983.8z M2331.6,987.31c-0.71-0.93-1.17-2.08-1.25-3.34c-0.22-3.4,2.35-6.33,5.75-6.55
						c10.23-0.66,20.5-1.96,30.54-3.86c3.34-0.63,6.57,1.57,7.2,4.91c0.63,3.34-1.56,6.57-4.91,7.2
						c-10.52,1.99-21.3,3.35-32.03,4.05C2334.77,989.87,2332.81,988.9,2331.6,987.31z"/>
					
						<linearGradient id="SVGID_00000016056826720854017660000013486479128147866554_" gradientUnits="userSpaceOnUse" x1="-4515.7969" y1="12264.3135" x2="-4490.9785" y2="12264.3135" gradientTransform="matrix(0.6071 0.7946 -0.7946 0.6071 14538.7783 -3135.6492)">
						<stop  offset="0" style="stop-color:#7D8AFF"/>
						<stop  offset="1" style="stop-color:#CD97F7"/>
					</linearGradient>
					<path style="fill:url(#SVGID_00000016056826720854017660000013486479128147866554_);" d="M2054.87,743.05
						c-0.72-0.94-1.18-2.11-1.25-3.38c-0.3-5.27-0.45-10.56-0.45-15.75c0.01-3.4,2.77-6.16,6.17-6.16c3.4,0.01,6.15,2.77,6.16,6.17
						c-0.01,4.94,0.13,10,0.42,15.03c0.2,3.4-2.4,6.31-5.8,6.51C2058,745.59,2056.07,744.62,2054.87,743.05z"/>
				</g>
				<g>
					
						<linearGradient id="SVGID_00000033352644943251529540000014088174554107161221_" gradientUnits="userSpaceOnUse" x1="5168.8267" y1="10066.6436" x2="7350.0894" y2="13001.1484" gradientTransform="matrix(-0.6562 -0.7546 -0.7546 0.6562 15351.127 -2138.9639)">
						<stop  offset="0" style="stop-color:#7D8AFF"/>
						<stop  offset="1" style="stop-color:#CD97F7"/>
					</linearGradient>
					<path style="fill:url(#SVGID_00000033352644943251529540000014088174554107161221_);" d="M2121.24,698.79
						c-0.31,1.29,0.24,2.64,1.36,3.36l32.06,20.37c-0.07,17.74,2.69,35.61,8.46,52.93l-24.08,29.34c-0.84,1.03-0.94,2.48-0.25,3.61
						l23.87,38.8c0.7,1.13,2.04,1.7,3.34,1.41l37.05-8.26c12.86,12.96,27.57,23.48,43.43,31.42l3.72,37.8
						c0.13,1.32,1.09,2.42,2.38,2.73l44.32,10.56c1.3,0.31,2.64-0.24,3.36-1.36l20.37-32.06c17.74,0.07,35.61-2.69,52.93-8.46
						l29.34,24.08c1.03,0.84,2.48,0.94,3.61,0.25l38.8-23.87c1.13-0.7,1.7-2.04,1.41-3.34l-8.26-37.05
						c12.96-12.86,23.48-27.57,31.42-43.43l37.8-3.72c1.32-0.13,2.42-1.09,2.73-2.38l10.56-44.32c0.31-1.29-0.24-2.64-1.36-3.36
						l-32.06-20.37c0.07-17.74-2.69-35.61-8.46-52.93l24.08-29.34c0.84-1.03,0.94-2.48,0.25-3.61l-23.87-38.8
						c-0.7-1.13-2.04-1.7-3.34-1.41l-37.05,8.26c-12.86-12.96-27.57-23.48-43.43-31.42l-3.72-37.8c-0.13-1.33-1.09-2.42-2.38-2.73
						l-44.32-10.56c-1.29-0.31-2.64,0.24-3.36,1.36l-20.37,32.06c-17.74-0.07-35.61,2.69-52.93,8.46l-29.34-24.08
						c-1.03-0.84-2.48-0.94-3.61-0.24l-38.8,23.87c-1.13,0.7-1.7,2.04-1.41,3.34l8.26,37.05c-12.96,12.86-23.48,27.57-31.42,43.43
						l-37.8,3.72c-1.32,0.13-2.42,1.09-2.73,2.38L2121.24,698.79z"/>
					<path class="st12" d="M2283.99,751.22c-6.04-7.9-9.37-17.49-9.51-27.61c-0.17-12.45,4.53-24.22,13.22-33.14
						c17.92-18.41,47.49-18.81,65.91-0.88c18.41,17.99,18.81,47.51,0.88,65.92c-8.69,8.92-20.33,13.93-32.77,14.09
						c-12.45,0.17-24.22-4.52-33.14-13.22C2286.91,754.77,2285.38,753.04,2283.99,751.22z M2348.36,702.19
						c-1.01-1.32-2.12-2.58-3.34-3.77c-13.55-13.19-35.3-12.89-48.49,0.65c-6.39,6.56-9.84,15.22-9.72,24.37
						c0.12,9.16,3.81,17.72,10.37,24.11l0,0c6.56,6.39,15.22,9.84,24.38,9.72c9.16-0.12,17.72-3.8,24.11-10.37
						C2357.66,734.6,2358.51,715.48,2348.36,702.19z"/>
					<path class="st12" d="M2229.86,793.7c-2.37-3.1-4.6-6.34-6.68-9.73c-4.14-6.73-7.6-13.89-10.3-21.3
						c-0.12-0.33-0.24-0.67-0.36-1c-0.91-2.58,0-5.36,2.06-6.95c0.5-0.38,1.07-0.7,1.7-0.92c3.21-1.13,6.72,0.56,7.86,3.76
						c2.45,6.94,5.65,13.65,9.53,19.93l0,0c0.21,0.35,0.43,0.69,0.64,1.03c9.3,14.8,21.94,26.72,36.79,35.06
						c8.06,4.52,16.78,7.99,25.98,10.27c0.07,0.02,0.15,0.04,0.22,0.06c0.23,0.05,0.46,0.11,0.69,0.16
						c26.96,6.42,54.81,1.97,78.42-12.56c3.06-1.88,5.99-3.9,8.8-6.04c18.92-14.46,32.18-34.81,37.77-58.29
						c6.42-26.96,1.96-54.81-12.56-78.41c-14.52-23.59-37.37-40.15-64.33-46.58c-26.96-6.42-54.81-1.97-78.42,12.56
						c-3.01,1.85-5.9,3.84-8.69,5.97c-12.07,9.22-21.98,20.98-28.99,34.47c-0.43,0.83-1.03,1.52-1.73,2.05
						c-1.84,1.4-4.4,1.71-6.58,0.57c-3.02-1.58-4.2-5.29-2.63-8.31c7.84-15.09,18.93-28.25,32.43-38.57
						c3.12-2.38,6.36-4.61,9.72-6.68c26.42-16.25,57.57-21.24,87.74-14.05c30.16,7.19,55.73,25.67,71.97,52.1
						c16.25,26.41,21.24,57.57,14.05,87.73c-6.25,26.26-21.09,49.03-42.25,65.21c-3.14,2.4-6.43,4.66-9.84,6.76
						C2331.74,853.48,2265.55,840.41,2229.86,793.7z"/>
				</g>
			</g>
		</g>
		<g>
			
				<linearGradient id="SVGID_00000133490879885636235880000005393649857582090139_" gradientUnits="userSpaceOnUse" x1="1585.1475" y1="324.2139" x2="703.3456" y2="1663.7434" gradientTransform="matrix(-1 0 0 1 3710 0)">
				<stop  offset="0" style="stop-color:#CB236D"/>
				<stop  offset="1" style="stop-color:#28256B"/>
			</linearGradient>
			<polygon style="fill:url(#SVGID_00000133490879885636235880000005393649857582090139_);" points="2529.56,1200.4 2696.99,1200.4 
				2696.99,931.94 2529.56,931.94 			"/>
			
				<linearGradient id="SVGID_00000138543248950488104490000011079676354475878064_" gradientUnits="userSpaceOnUse" x1="1084.7878" y1="558.5679" x2="1128.2981" y2="1624.5717" gradientTransform="matrix(-1 0 0 1 3710 0)">
				<stop  offset="0" style="stop-color:#CB236D"/>
				<stop  offset="1" style="stop-color:#28256B"/>
			</linearGradient>
			<path style="fill:url(#SVGID_00000138543248950488104490000011079676354475878064_);" d="M2474.39,975.44H2745V899.1
				c0-3.37-2.73-6.1-6.1-6.1h-255.24c-5.12,0-9.28,4.15-9.28,9.28V975.44z"/>
			<g>
				
					<linearGradient id="SVGID_00000041266115160149812560000012655062310632770486_" gradientUnits="userSpaceOnUse" x1="258.856" y1="2575.0459" x2="2070.3528" y2="1930.5068" gradientTransform="matrix(-1 0 0 1 3710 0)">
					<stop  offset="0" style="stop-color:#6300FF"/>
					<stop  offset="1" style="stop-color:#EF497A"/>
				</linearGradient>
				<path style="fill:url(#SVGID_00000041266115160149812560000012655062310632770486_);" d="M3171.49,3042.61h-714.72V1659.07
					h728.47v1369.8C3185.24,3036.46,3179.08,3042.61,3171.49,3042.61z"/>
				
					<linearGradient id="SVGID_00000183966002827451770110000004028298356559720097_" gradientUnits="userSpaceOnUse" x1="-669.9803" y1="2320.6028" x2="1931.4058" y2="949.4769" gradientTransform="matrix(-1 0 0 1 3710 0)">
					<stop  offset="0" style="stop-color:#CB236D"/>
					<stop  offset="1" style="stop-color:#28256B"/>
				</linearGradient>
				<path style="fill:url(#SVGID_00000183966002827451770110000004028298356559720097_);" d="M3210.2,1778.63h-788.12
					l-167.46-623.45h843.89l146.18,579.16C3250.37,1756.82,3233.38,1778.63,3210.2,1778.63z"/>
				
					<linearGradient id="SVGID_00000082360181725147327370000003960361710357048228_" gradientUnits="userSpaceOnUse" x1="1073.4596" y1="1175.9871" x2="1342.7117" y2="-1.9905" gradientTransform="matrix(-1 0 0 1 3710 0)">
					<stop  offset="0" style="stop-color:#CB236D"/>
					<stop  offset="1" style="stop-color:#28256B"/>
				</linearGradient>
				<path style="fill:url(#SVGID_00000082360181725147327370000003960361710357048228_);" d="M3105.24,1163.72l-948.43,6.37
					l-3.92-74.7l890.27,0c34.28,0,62.07,18.55,62.07,41.43V1163.72z"/>
				<g class="st23">
					
						<linearGradient id="SVGID_00000173120249003572835400000015850930525222376613_" gradientUnits="userSpaceOnUse" x1="3713.7732" y1="657.8688" x2="2518.8689" y2="1373.4604" gradientTransform="matrix(-1 0 0 1 3710 0)">
						<stop  offset="0" style="stop-color:#7D8AFF"/>
						<stop  offset="1" style="stop-color:#CD97F7"/>
					</linearGradient>
					<path style="fill:url(#SVGID_00000173120249003572835400000015850930525222376613_);" d="M3030.18,2666.83h-414.02
						c-0.62,0-1.12-0.5-1.12-1.12v-629.74c0-0.62,0.5-1.12,1.12-1.12h414.02c0.62,0,1.12,0.5,1.12,1.12v629.74
						C3031.3,2666.33,3030.8,2666.83,3030.18,2666.83z"/>
					<g>
						
							<linearGradient id="SVGID_00000110461326176081852860000007418374939435874944_" gradientUnits="userSpaceOnUse" x1="2422.7458" y1="1527.254" x2="-701.8568" y2="3315.6304" gradientTransform="matrix(-1 0 0 1 3710 0)">
							<stop  offset="0" style="stop-color:#CB236D"/>
							<stop  offset="1" style="stop-color:#28256B"/>
						</linearGradient>
						<path style="fill:url(#SVGID_00000110461326176081852860000007418374939435874944_);" d="M2806.38,2632.67h-160.37
							c-0.34,0-0.62-0.28-0.62-0.62v-562.42c0-0.34,0.28-0.62,0.62-0.62h160.37c0.34,0,0.62,0.28,0.62,0.62v562.42
							C2807.01,2632.39,2806.73,2632.67,2806.38,2632.67z"/>
						
							<linearGradient id="SVGID_00000088851790578196415940000002409569586509649283_" gradientUnits="userSpaceOnUse" x1="2375.2654" y1="1443.4257" x2="-749.3373" y2="3231.8018" gradientTransform="matrix(-1 0 0 1 3710 0)">
							<stop  offset="0" style="stop-color:#CB236D"/>
							<stop  offset="1" style="stop-color:#28256B"/>
						</linearGradient>
						<path style="fill:url(#SVGID_00000088851790578196415940000002409569586509649283_);" d="M3000.33,2632.67h-160.37
							c-0.34,0-0.62-0.28-0.62-0.62v-562.42c0-0.34,0.28-0.62,0.62-0.62h160.37c0.34,0,0.62,0.28,0.62,0.62v562.42
							C3000.95,2632.39,3000.67,2632.67,3000.33,2632.67z"/>
					</g>
				</g>
			</g>
			
				<linearGradient id="SVGID_00000123423625892584679090000006856365330318889122_" gradientUnits="userSpaceOnUse" x1="3397.511" y1="1568.6091" x2="570.358" y2="2780.2466" gradientTransform="matrix(-1 0 0 1 3710 0)">
				<stop  offset="0" style="stop-color:#6300FF"/>
				<stop  offset="1" style="stop-color:#EF497A"/>
			</linearGradient>
			<path style="fill:url(#SVGID_00000123423625892584679090000006856365330318889122_);" d="M1686.24,793.73
				c0,0,987.6,734.24,1012.07,734.24v1508.55c0,37.09-30.53,67.15-68.19,67.15H722.61c-26.75,0-48.43-21.35-48.43-47.69V1527.97
				L1686.24,793.73z"/>
			<g>
				
					<linearGradient id="SVGID_00000127722157563900766480000005816246818267581117_" gradientUnits="userSpaceOnUse" x1="2241.4595" y1="2202.6494" x2="2112.7051" y2="2588.9141" gradientTransform="matrix(-1 0 0 1 3710 0)">
					<stop  offset="0" style="stop-color:#7D8AFF"/>
					<stop  offset="1" style="stop-color:#CD97F7"/>
				</linearGradient>
				<path style="fill:url(#SVGID_00000127722157563900766480000005816246818267581117_);" d="M1417.71,3042.61h627.58v-101.67
					c0-1.75-1.42-3.17-3.17-3.17h-621.24c-1.75,0-3.17,1.42-3.17,3.17V3042.61z"/>
				
					<linearGradient id="SVGID_00000042719452243458827510000011371080522591884457_" gradientUnits="userSpaceOnUse" x1="1956.7429" y1="2737.4321" x2="1994.1349" y2="3288.9673" gradientTransform="matrix(-1 0 0 1 3710 0)">
					<stop  offset="0" style="stop-color:#7D8AFF"/>
					<stop  offset="1" style="stop-color:#CD97F7"/>
				</linearGradient>
				<path style="fill:url(#SVGID_00000042719452243458827510000011371080522591884457_);" d="M1417.71,3109.32h627.58v-101.67
					c0-1.75-1.42-3.17-3.17-3.17h-621.24c-1.75,0-3.17,1.42-3.17,3.17V3109.32z"/>
				
					<linearGradient id="SVGID_00000124143302959161071070000012714482865207949448_" gradientUnits="userSpaceOnUse" x1="1988.5455" y1="238.9493" x2="1975.5991" y2="3190.6663" gradientTransform="matrix(-1 0 0 1 3710 0)">
					<stop  offset="0" style="stop-color:#CB236D"/>
					<stop  offset="1" style="stop-color:#28256B"/>
				</linearGradient>
				<path style="fill:url(#SVGID_00000124143302959161071070000012714482865207949448_);" d="M1517.32,2937.77h428.35V2118.4
					c0-1.97-1.59-3.56-3.56-3.56h-421.23c-1.97,0-3.56,1.59-3.56,3.56V2937.77z"/>
				<g>
					
						<linearGradient id="SVGID_00000127748560201218401200000008993689968388676486_" gradientUnits="userSpaceOnUse" x1="2842.8489" y1="887.5101" x2="2168.0256" y2="2630.7996" gradientTransform="matrix(-1 0 0 1 3710 0)">
						<stop  offset="0" style="stop-color:#FDF53F"/>
						<stop  offset="1" style="stop-color:#D93C65"/>
					</linearGradient>
					<path style="opacity:0.9;fill:url(#SVGID_00000127748560201218401200000008993689968388676486_);" d="M1177.16,1693.88h4.07
						c105.79,0,198.41,73.76,198.41,177.94v187.63h-202.48V1693.88z"/>
					
						<linearGradient id="SVGID_00000155825125125632306900000016933819565634794145_" gradientUnits="userSpaceOnUse" x1="2999.113" y1="948.4617" x2="2325.0854" y2="2689.6958" gradientTransform="matrix(-1 0 0 1 3710 0)">
						<stop  offset="0" style="stop-color:#FDF53F"/>
						<stop  offset="1" style="stop-color:#D93C65"/>
					</linearGradient>
					<path style="opacity:0.9;fill:url(#SVGID_00000155825125125632306900000016933819565634794145_);" d="M1379.64,2114.84v551.99
						c0,18.59-22.16,47.4-41.03,47.4h-161.45v-599.39H1379.64z"/>
					
						<linearGradient id="SVGID_00000093175957419672111910000004174063389497945738_" gradientUnits="userSpaceOnUse" x1="3033.2397" y1="961.7406" x2="2359.3323" y2="2702.6648" gradientTransform="matrix(-1 0 0 1 3710 0)">
						<stop  offset="0" style="stop-color:#FDF53F"/>
						<stop  offset="1" style="stop-color:#D93C65"/>
					</linearGradient>
					<path style="opacity:0.9;fill:url(#SVGID_00000093175957419672111910000004174063389497945738_);" d="M1121.88,1693.88h10.29
						v365.57H929.69v-187.63C929.69,1767.64,1016.08,1693.88,1121.88,1693.88z"/>
					
						<linearGradient id="SVGID_00000101066233829082727170000000053383424551897734_" gradientUnits="userSpaceOnUse" x1="3208.2954" y1="1027.8" x2="2534.0972" y2="2769.4751" gradientTransform="matrix(-1 0 0 1 3710 0)">
						<stop  offset="0" style="stop-color:#FDF53F"/>
						<stop  offset="1" style="stop-color:#D93C65"/>
					</linearGradient>
					<path style="opacity:0.9;fill:url(#SVGID_00000101066233829082727170000000053383424551897734_);" d="M1132.17,2714.24H964.5
						c-18.87,0-34.81-28.82-34.81-47.4v-551.99h202.48V2714.24z"/>
				</g>
				<g>
					
						<linearGradient id="SVGID_00000105389226592301035510000014611493211687867049_" gradientUnits="userSpaceOnUse" x1="920.0037" y1="2611.5862" x2="2104.7148" y2="612.3889" gradientTransform="matrix(-1 0 0 1 3710 0)">
						<stop  offset="0" style="stop-color:#CB236D"/>
						<stop  offset="1" style="stop-color:#28256B"/>
					</linearGradient>
					<path style="fill:url(#SVGID_00000105389226592301035510000014611493211687867049_);" d="M2292.4,1693.88h4.07
						c105.79,0,198.41,73.76,198.41,177.94v187.63H2292.4V1693.88z"/>
					
						<linearGradient id="SVGID_00000018225804233479834170000015348945368636434849_" gradientUnits="userSpaceOnUse" x1="1091.8866" y1="2756.1267" x2="2175.6252" y2="1106.9574" gradientTransform="matrix(-1 0 0 1 3710 0)">
						<stop  offset="0" style="stop-color:#CB236D"/>
						<stop  offset="1" style="stop-color:#28256B"/>
					</linearGradient>
					<path style="fill:url(#SVGID_00000018225804233479834170000015348945368636434849_);" d="M2494.88,2114.84v551.99
						c0,18.59-22.16,47.4-41.03,47.4H2292.4v-599.39H2494.88z"/>
					
						<linearGradient id="SVGID_00000128443380515457734900000000279582586351060128_" gradientUnits="userSpaceOnUse" x1="1583.0951" y1="751.7984" x2="1547.2201" y2="2846.8875" gradientTransform="matrix(-1 0 0 1 3710 0)">
						<stop  offset="0" style="stop-color:#CB236D"/>
						<stop  offset="1" style="stop-color:#28256B"/>
					</linearGradient>
					<path style="fill:url(#SVGID_00000128443380515457734900000000279582586351060128_);" d="M2237.12,1693.88h10.29v365.57
						h-202.48v-187.63C2044.93,1767.64,2131.32,1693.88,2237.12,1693.88z"/>
					
						<linearGradient id="SVGID_00000183242371842176160220000008590613167470775937_" gradientUnits="userSpaceOnUse" x1="1366.744" y1="3078.7427" x2="1918.7096" y2="1160.3193" gradientTransform="matrix(-1 0 0 1 3710 0)">
						<stop  offset="0" style="stop-color:#CB236D"/>
						<stop  offset="1" style="stop-color:#28256B"/>
					</linearGradient>
					<path style="fill:url(#SVGID_00000183242371842176160220000008590613167470775937_);" d="M2247.41,2714.24h-167.67
						c-18.87,0-34.81-28.82-34.81-47.4v-551.99h202.48V2714.24z"/>
				</g>
				<path class="st2" d="M861.48,2698.79v-831.08c0-131.42,108.57-238.34,242.02-238.34h104.73
					c133.45,0,242.03,106.92,242.03,238.34v831.08c0,27.52-22.74,49.92-50.69,49.92H912.17
					C884.22,2748.71,861.48,2726.32,861.48,2698.79z M1103.51,1634c-130.87,0-237.33,104.85-237.33,233.72v831.08
					c0,24.98,20.63,45.29,45.99,45.29h487.41c25.36,0,45.99-20.32,45.99-45.29v-831.08c0-128.88-106.47-233.72-237.33-233.72
					H1103.51z"/>
				
					<linearGradient id="SVGID_00000096758565406276125680000012154958943237292211_" gradientUnits="userSpaceOnUse" x1="1870.6674" y1="3816.9443" x2="1547.5651" y2="2659.1599" gradientTransform="matrix(-1 0 0 1 3710 0)">
					<stop  offset="0" style="stop-color:#7D8AFF"/>
					<stop  offset="1" style="stop-color:#CD97F7"/>
				</linearGradient>
				<path style="fill:url(#SVGID_00000096758565406276125680000012154958943237292211_);" d="M1976.5,2698.79v-831.08
					c0-131.42,108.57-238.34,242.03-238.34h104.73c133.45,0,242.02,106.92,242.02,238.34v831.08c0,27.52-22.74,49.92-50.69,49.92
					h-487.41C1999.24,2748.71,1976.5,2726.32,1976.5,2698.79z M2218.53,1634c-130.87,0-237.33,104.85-237.33,233.72v831.08
					c0,24.98,20.63,45.29,45.99,45.29h487.41c25.36,0,45.99-20.32,45.99-45.29v-831.08c0-128.88-106.47-233.72-237.33-233.72
					H2218.53z"/>
				
					<linearGradient id="SVGID_00000160159423519606581560000010184848882699468166_" gradientUnits="userSpaceOnUse" x1="2663.8193" y1="971.9484" x2="1666.2638" y2="2710.4844" gradientTransform="matrix(-1 0 0 1 3710 0)">
					<stop  offset="0" style="stop-color:#7D8AFF"/>
					<stop  offset="1" style="stop-color:#CD97F7"/>
				</linearGradient>
				<path style="fill:url(#SVGID_00000160159423519606581560000010184848882699468166_);" d="M1930.52,2937.77h10.35
					c4.03,0,7.3-3.22,7.3-7.19v-809.62c0-3.38-2.78-6.12-6.21-6.12h-11.44V2937.77z"/>
			</g>
			<g>
				
					<linearGradient id="SVGID_00000048474971872802139920000013710384503764745385_" gradientUnits="userSpaceOnUse" x1="3423.1423" y1="457.3817" x2="1282.59" y2="2059.4304" gradientTransform="matrix(-1 0 0 1 3710 0)">
					<stop  offset="0" style="stop-color:#CB236D"/>
					<stop  offset="1" style="stop-color:#28256B"/>
				</linearGradient>
				<path style="fill:url(#SVGID_00000048474971872802139920000013710384503764745385_);" d="M2760.36,1604.95L1686.24,793.73
					L666.66,1572.56c-37.06,28.31-91.42,8.48-100.81-36.77l-14.3-68.89l1134.7-851.24l1098.34,826.16
					c19.67,14.79,26.8,40.74,17.4,63.29L2760.36,1604.95z"/>
			</g>
		</g>
		<g>
			
				<linearGradient id="SVGID_00000090975372843575950680000015023776143374809772_" gradientUnits="userSpaceOnUse" x1="3466.6631" y1="255.45" x2="1640.4182" y2="4495.6987" gradientTransform="matrix(-1 0 0 1 3710 0)">
				<stop  offset="0" style="stop-color:#53D8FF"/>
				<stop  offset="0.1068" style="stop-color:#50C8FE"/>
				<stop  offset="1" style="stop-color:#3840F7"/>
			</linearGradient>
			<path style="fill:url(#SVGID_00000090975372843575950680000015023776143374809772_);" d="M485.77,3219.17h1293.81
				c12.72,0,23.03-10.31,23.03-23.03V1444.55c0-12.72-10.31-23.03-23.03-23.03H485.77c-12.72,0-23.03,10.31-23.03,23.03v1751.59
				C462.73,3208.86,473.05,3219.17,485.77,3219.17z"/>
			
				<linearGradient id="SVGID_00000103955360583113288240000012683191189286699686_" gradientUnits="userSpaceOnUse" x1="2908.3125" y1="1521.91" x2="1691.3774" y2="4505.8086" gradientTransform="matrix(-1 0 0 1 3710 0)">
				<stop  offset="0" style="stop-color:#53D8FF"/>
				<stop  offset="0.1068" style="stop-color:#50C8FE"/>
				<stop  offset="1" style="stop-color:#3840F7"/>
			</linearGradient>
			<path style="fill:url(#SVGID_00000103955360583113288240000012683191189286699686_);" d="M652.79,2982.37h962.63
				c12.59,0,22.8-10.21,22.8-22.8V1714.39c0-12.59-10.21-22.8-22.8-22.8H652.79c-12.59,0-22.8,10.21-22.8,22.8v1245.18
				C629.98,2972.16,640.19,2982.37,652.79,2982.37z"/>
			
				<linearGradient id="SVGID_00000057838461481797482450000009689700544528708283_" gradientUnits="userSpaceOnUse" x1="3045.4646" y1="1489.1962" x2="4347.7944" y2="-886.8601" gradientTransform="matrix(-1 0 0 1 3710 0)">
				<stop  offset="0" style="stop-color:#53D8FF"/>
				<stop  offset="0.1068" style="stop-color:#50C8FE"/>
				<stop  offset="1" style="stop-color:#3840F7"/>
			</linearGradient>
			<path style="fill:url(#SVGID_00000057838461481797482450000009689700544528708283_);" d="M728.92,2892.57h809.55
				c12.59,0,22.8-10.21,22.8-22.8v-1049.2c0-12.59-10.21-22.8-22.8-22.8H728.92c-12.59,0-22.8,10.21-22.8,22.8v1049.2
				C706.12,2882.36,716.33,2892.57,728.92,2892.57z"/>
			
				<linearGradient id="SVGID_00000176723876142689777350000013160154453811493771_" gradientUnits="userSpaceOnUse" x1="2751.3047" y1="853.6771" x2="2528.3198" y2="1745.6193" gradientTransform="matrix(-1 0 0 1 3710 0)">
				<stop  offset="0" style="stop-color:#FDF53F"/>
				<stop  offset="1" style="stop-color:#D93C65"/>
			</linearGradient>
			<circle style="fill:url(#SVGID_00000176723876142689777350000013160154453811493771_);" cx="1135.11" cy="1559.36" r="40.08"/>
			
				<linearGradient id="SVGID_00000065044420212111422400000006929636514407167117_" gradientUnits="userSpaceOnUse" x1="2666.5491" y1="1791.3568" x2="2081.0432" y2="5849.519" gradientTransform="matrix(-1 0 0 1 3710 0)">
				<stop  offset="0" style="stop-color:#FDF53F"/>
				<stop  offset="1" style="stop-color:#D93C65"/>
			</linearGradient>
			<path style="fill:url(#SVGID_00000065044420212111422400000006929636514407167117_);" d="M876.16,2206.44l515.68,8.57
				c39.25,0.65,71.18,31.17,71.18,68.17v324.76c0,36.99-31.93,65.7-71.18,64.12l-515.68-20.71c-37.04-1.49-66.97-31.67-66.97-67.43
				v-313.87C809.19,2234.31,839.11,2205.82,876.16,2206.44z"/>
			
				<linearGradient id="SVGID_00000031889157922799365990000010733286533231136952_" gradientUnits="userSpaceOnUse" x1="2651.1912" y1="1789.141" x2="2065.6851" y2="5847.3057" gradientTransform="matrix(-1 0 0 1 3710 0)">
				<stop  offset="0" style="stop-color:#FDF53F"/>
				<stop  offset="1" style="stop-color:#D93C65"/>
			</linearGradient>
			<path style="fill:url(#SVGID_00000031889157922799365990000010733286533231136952_);" d="M850.06,2147.7
				c15.62,0.23,28.3-11.82,28.3-26.92v-71.08c0-71.31,60.32-129.14,134.98-128.93l167.99,0.49
				c76.59,0.22,139.35,59.77,139.35,132.74v72.74c0,15.45,13.3,28.18,29.73,28.43c16.46,0.24,29.82-12.12,29.82-27.63v-72.96
				c0-104.15-89.73-188.88-198.89-188.88h-167.99c-106.07,0-191.5,82.3-191.5,183.46v70.87
				C821.84,2135.08,834.46,2147.47,850.06,2147.7z"/>
			
				<linearGradient id="SVGID_00000137854323571685583620000013582069116798237075_" gradientUnits="userSpaceOnUse" x1="2684.6201" y1="2252.8853" x2="3542.9465" y2="546.3303" gradientTransform="matrix(-1 0 0 1 3710 0)">
				<stop  offset="0" style="stop-color:#CB236D"/>
				<stop  offset="1" style="stop-color:#28256B"/>
			</linearGradient>
			<path style="fill:url(#SVGID_00000137854323571685583620000013582069116798237075_);" d="M1050.57,2386.42
				c0-36.09,31.51-64.43,69.81-61.82c33.87,2.3,61.88,29.43,63.71,61.81c1.42,25.13-12.39,46.85-33.39,57.84
				c-8.93,4.67-13.37,14.52-11.63,24.26l14.72,82.63c1.87,10.52-6.58,19.77-17.71,19.37l-37.84-1.36
				c-11.07-0.4-19.47-10.21-17.61-20.56l14.71-81.86c1.75-9.76-3.32-19.46-12.27-24.82
				C1063.6,2430.28,1050.57,2409.63,1050.57,2386.42z"/>
		</g>
		<g>
			<g>
				
					<linearGradient id="SVGID_00000060021601236845351170000002613522339120473229_" gradientUnits="userSpaceOnUse" x1="-1088.2256" y1="3195.5337" x2="-962.9565" y2="3195.5337" gradientTransform="matrix(-1 0 0 1 1289.4031 0)">
					<stop  offset="0" style="stop-color:#2B3582"/>
					<stop  offset="1" style="stop-color:#150E42"/>
				</linearGradient>
				<path style="fill:url(#SVGID_00000060021601236845351170000002613522339120473229_);" d="M2252.36,3240.14
					c-0.01-0.93,0.05-1.88,0.29-2.83c14.11-55.94,84.14-90.78,84.14-90.78l27.75,2.18c15.95,49.3,13.9,79.54,11.34,93.01
					c-0.07,0.38-0.19,0.74-0.29,1.1C2352.7,3244.86,2305.59,3246.2,2252.36,3240.14z"/>
				
					<linearGradient id="SVGID_00000155824664279921302060000003558661124744859550_" gradientUnits="userSpaceOnUse" x1="-774.6206" y1="3047.7515" x2="-1230.354" y2="3405.5945" gradientTransform="matrix(-1 0 0 1 1289.4031 0)">
					<stop  offset="0" style="stop-color:#53D8FF"/>
					<stop  offset="1" style="stop-color:#3840F7"/>
				</linearGradient>
				<path style="fill:url(#SVGID_00000155824664279921302060000003558661124744859550_);" d="M2375.59,3242.81
					c-1.24,4.5-4.56,8-8.81,8.89c-32.56,6.85-84.32,1.34-106.05-1.5c-4.79-0.63-8.3-5.06-8.38-10.07
					C2305.59,3246.2,2352.7,3244.86,2375.59,3242.81z"/>
				
					<linearGradient id="SVGID_00000167377429566127554890000012567350621902970289_" gradientUnits="userSpaceOnUse" x1="-1053.3895" y1="3052.9204" x2="-1077.318" y2="3261.7522" gradientTransform="matrix(-1 0 0 1 1289.4031 0)">
					<stop  offset="0" style="stop-color:#F9B776"/>
					<stop  offset="1" style="stop-color:#F47960"/>
				</linearGradient>
				<path style="fill:url(#SVGID_00000167377429566127554890000012567350621902970289_);" d="M2375.69,3107.38l-11.75,56.58
					c-0.86,4.15-4.05,7.25-7.91,7.61c-4.72,0.44-11.45,0.7-18.21-0.29c-6.06-0.89-10.28-7.05-9.21-13.66l8.17-50.24H2375.69z"/>
				
					<linearGradient id="SVGID_00000034078477041211193350000012323571414881485476_" gradientUnits="userSpaceOnUse" x1="-693.6622" y1="3150.7083" x2="-1149.3961" y2="3508.5518" gradientTransform="matrix(-1 0 0 1 1289.4031 0)">
					<stop  offset="0" style="stop-color:#53D8FF"/>
					<stop  offset="1" style="stop-color:#3840F7"/>
				</linearGradient>
				<path style="fill:url(#SVGID_00000034078477041211193350000012323571414881485476_);" d="M2132.18,3242.1
					c30.65-0.86,46.5-4.47,54.69-7.82c0.02,3.05,0,6.15-0.1,9.36c-0.11,3.43-2.65,6.17-5.77,6.15l-168.27-1.09
					c-5.37-0.03-8.51-6.26-6.18-11.19C2028.62,3239.35,2084.81,3243.42,2132.18,3242.1z"/>
				
					<linearGradient id="SVGID_00000112604365291526047950000009708557542294327179_" gradientUnits="userSpaceOnUse" x1="-897.4741" y1="3198.7178" x2="-717.1508" y2="3198.7178" gradientTransform="matrix(-1 0 0 1 1289.4031 0)">
					<stop  offset="0" style="stop-color:#2B3582"/>
					<stop  offset="1" style="stop-color:#150E42"/>
				</linearGradient>
				<path style="fill:url(#SVGID_00000112604365291526047950000009708557542294327179_);" d="M2006.55,3237.52
					c0.2-0.43,0.38-0.86,0.67-1.27c14.86-20.76,52.71-62.11,127.5-80.05l35.88-1.13c0,0,15.98,27.77,16.28,79.21
					c-8.19,3.35-24.05,6.96-54.69,7.82C2084.81,3243.42,2028.62,3239.35,2006.55,3237.52z"/>
				
					<linearGradient id="SVGID_00000026142406822737243610000010864034985260880038_" gradientUnits="userSpaceOnUse" x1="-753.0247" y1="2967.782" x2="-776.9536" y2="3176.6169" gradientTransform="matrix(-0.998 -0.0629 -0.0629 0.998 1586.2966 65.7657)">
					<stop  offset="0" style="stop-color:#F9B776"/>
					<stop  offset="1" style="stop-color:#F47960"/>
				</linearGradient>
				<path style="fill:url(#SVGID_00000026142406822737243610000010864034985260880038_);" d="M2178.85,3102.37
					c-0.57,2.64-8.03,42.9-10.92,58.51c-0.69,3.71-3.58,6.43-7.02,6.62c-6.14,0.34-16.05,0.39-24.57-1.93
					c-4.6-1.25-7.69-5.93-7.36-11.14l4.01-63.68L2178.85,3102.37z"/>
				
					<linearGradient id="SVGID_00000026155169984878345770000007571049656999309487_" gradientUnits="userSpaceOnUse" x1="-1686.7778" y1="3249.9304" x2="-1439.0991" y2="2068.9221" gradientTransform="matrix(1 0 0 1 3870.9626 0)">
					<stop  offset="0" style="stop-color:#2B3582"/>
					<stop  offset="1" style="stop-color:#150E42"/>
				</linearGradient>
				<path style="fill:url(#SVGID_00000026155169984878345770000007571049656999309487_);" d="M2206.04,2359.06
					c0,0-49.36,339.15-84.97,742.73c-0.66,7.52,5.33,14.06,12.71,15.61c10.88,2.29,26.88,5.01,40.12,4.64
					c7.07-0.2,12.98-5.44,14.17-12.41c12.13-71.16,98.72-453.05,121.44-537.1c0,0,26.1,357.03,17.76,542.26
					c-0.21,4.61,3.16,8.6,7.74,9.13c6.95,0.8,18.06,1.41,32.21-0.09c5.37-0.57,9.7-4.63,10.47-9.97
					c8.64-60.22,58.39-418.69,56.27-676.92c-0.12-14.56-17.09-134.21-17.09-134.21L2206.04,2359.06z"/>
			</g>
			
				<linearGradient id="SVGID_00000078731440124917867520000007768161307515465398_" gradientUnits="userSpaceOnUse" x1="1778.7682" y1="1636.2432" x2="1231.5065" y2="2239.9961" gradientTransform="matrix(-1 0 0 1 3710 0)">
				<stop  offset="0" style="stop-color:#FDF53F"/>
				<stop  offset="1" style="stop-color:#D93C65"/>
			</linearGradient>
			<path style="fill:url(#SVGID_00000078731440124917867520000007768161307515465398_);" d="M2186.91,1788.72l-6.61,177.47
				c-18.77,6.46-36.64,11.48-53.65,15.23c-10.64-34.27-34.08-76.32-53.27-107.59C2143.89,1848.91,2186.91,1788.72,2186.91,1788.72z"
				/>
			
				<linearGradient id="SVGID_00000044896128045615994250000011262288393636529540_" gradientUnits="userSpaceOnUse" x1="-1633.4165" y1="2172.9731" x2="-1996.144" y2="2794.3889" gradientTransform="matrix(1 0 0 1 3870.9626 0)">
				<stop  offset="0" style="stop-color:#FDF53F"/>
				<stop  offset="1" style="stop-color:#D93C65"/>
			</linearGradient>
			<path style="fill:url(#SVGID_00000044896128045615994250000011262288393636529540_);" d="M2424.28,2378.61
				c5.07-1.8,8.61-6.4,9.16-11.76c6.56-63.68,38.34-458.5-162.29-620.91c0,0-11.51-30.1-106.08,43.89
				c-94.57,74-43.94,151.56-21.3,258.54c27.4,129.45,75.47,235.27,54.2,314.93c-1.47,5.5,1.42,11.27,6.76,13.24
				C2278.22,2403.61,2351.4,2404.51,2424.28,2378.61z"/>
			
				<linearGradient id="SVGID_00000022554636633818186080000014239311314883857555_" gradientUnits="userSpaceOnUse" x1="-957.9298" y1="1835.757" x2="-902.3553" y2="1683.9961" gradientTransform="matrix(-1 0 0 1 1289.4031 0)">
				<stop  offset="0" style="stop-color:#F9B776"/>
				<stop  offset="1" style="stop-color:#F47960"/>
			</linearGradient>
			<path style="fill:url(#SVGID_00000022554636633818186080000014239311314883857555_);" d="M2192.9,1627.64
				c0.06,5.62,80.18,119.41,80.18,119.41s-14.38,28.32-83.03,51.31l-59.26-121.84L2192.9,1627.64z"/>
			
				<linearGradient id="SVGID_00000083048562445020828060000017025747915722370451_" gradientUnits="userSpaceOnUse" x1="1686.0687" y1="1390.1562" x2="1212.9515" y2="2442.3103" gradientTransform="matrix(-1 0 0 1 3710 0)">
				<stop  offset="0" style="stop-color:#FDF53F"/>
				<stop  offset="1" style="stop-color:#D93C65"/>
			</linearGradient>
			<path style="fill:url(#SVGID_00000083048562445020828060000017025747915722370451_);" d="M2232.59,2017.01
				c0.5,0,1.01-0.14,1.45-0.45c64-43.24,94.11-113.03,94.4-113.73c0.56-1.33-0.06-2.85-1.38-3.41c-1.33-0.56-2.85,0.05-3.41,1.38
				c-0.29,0.69-29.84,69.1-92.52,111.46c-1.19,0.8-1.5,2.42-0.7,3.61C2230.93,2016.6,2231.75,2017.01,2232.59,2017.01z"/>
			
				<linearGradient id="SVGID_00000065063059306045189140000001302174911781818258_" gradientUnits="userSpaceOnUse" x1="1727.2725" y1="1407.7438" x2="961.1077" y2="2848.2778" gradientTransform="matrix(-1 0 0 1 3710 0)">
				<stop  offset="0" style="stop-color:#FDF53F"/>
				<stop  offset="1" style="stop-color:#D93C65"/>
			</linearGradient>
			<path style="fill:url(#SVGID_00000065063059306045189140000001302174911781818258_);" d="M2137.26,1920.27
				c0.85,0,1.69-0.42,2.19-1.2c0.19-0.3,19.75-30.73,56.98-97.42c11.45-20.5,26.5-33.49,44.73-38.59
				c30.19-8.44,59.29,7.75,59.57,7.91c1.25,0.69,2.84,0.27,3.55-0.98c0.71-1.25,0.27-2.84-0.98-3.55
				c-1.26-0.71-31.18-17.46-63.5-8.41c-19.64,5.48-35.76,19.3-47.92,41.07c-37.15,66.51-56.62,96.84-56.82,97.14
				c-0.78,1.2-0.43,2.82,0.78,3.59C2136.29,1920.14,2136.78,1920.27,2137.26,1920.27z"/>
			<g>
				
					<linearGradient id="SVGID_00000057848029153971562170000014659371430401097881_" gradientUnits="userSpaceOnUse" x1="-821.3332" y1="1608.111" x2="-1152.4574" y2="1871.8379" gradientTransform="matrix(-1 0 0 1 1289.4031 0)">
					<stop  offset="0" style="stop-color:#F9B776"/>
					<stop  offset="1" style="stop-color:#F47960"/>
				</linearGradient>
				<path style="fill:url(#SVGID_00000057848029153971562170000014659371430401097881_);" d="M2129.83,1562.44
					c0,0-28.51,65.48-30.42,99.85c-1.91,34.37-9.32,56.67,30.42,63.59c39.74,6.92,73.22-12.88,91.35-47.11
					c0,0,28.42-52.75,22.04-74.36C2236.85,1582.81,2129.83,1562.44,2129.83,1562.44z"/>
				
					<linearGradient id="SVGID_00000072980586995054393400000017328308633885297540_" gradientUnits="userSpaceOnUse" x1="-949.1637" y1="1521.3512" x2="-797.395" y2="1716.7531" gradientTransform="matrix(-1 0 0 1 1289.4031 0)">
					<stop  offset="0" style="stop-color:#2B3582"/>
					<stop  offset="1" style="stop-color:#150E42"/>
				</linearGradient>
				<path style="fill:url(#SVGID_00000072980586995054393400000017328308633885297540_);" d="M2207.6,1654.15l-2.26-1
					c-2.88-1.27-4.11-4.7-2.67-7.49c5.6-10.83,16.53-35.64,2.42-41.43c-18.19-7.46-90.23-22.15-105.78-47.72
					c-14.94-24.57-1.7-56.28,18.19-65.3c1.33-0.6,2.9-0.12,3.58,1.17l1.66,3.14c1.14,2.15,4.31,1.82,4.98-0.51l0,0
					c0.65-2.24,3.63-2.67,4.86-0.7c4.78,7.65,17.68,20.05,52.17,26.41c49.03,9.05,81.44,28.89,82.25,62.77
					c0.05,2.15,2.34,3.35,4.18,2.23c3.62-2.21,9.41-3.24,17.15,3.27c13.46,11.32,7.95,40.69-21.56,64.85
					c-1.4,1.15-1.39,3.34,0.13,4.33c5.35,3.48,13.33,11.77-7.34,22.82c-21.38,11.43-37.34,10.49-43.49,9.48
					c-1.53-0.25-2.51-1.73-2.18-3.25l6.56-29.78c0.37-1.69-0.91-3.28-2.64-3.28H2207.6z"/>
				
					<linearGradient id="SVGID_00000096026045617463953030000015614592001326886335_" gradientUnits="userSpaceOnUse" x1="-854.6626" y1="1593.6592" x2="-1017.6191" y2="1718.3457" gradientTransform="matrix(-1 0 0 1 1289.4031 0)">
					<stop  offset="0" style="stop-color:#F9B776"/>
					<stop  offset="1" style="stop-color:#F47960"/>
				</linearGradient>
				<path style="fill:url(#SVGID_00000096026045617463953030000015614592001326886335_);" d="M2206.37,1660.44
					c0,0,10.87-41.83,29.63-30.1c18.75,11.73-9.73,46.87-24.81,48.43L2206.37,1660.44z"/>
			</g>
			
				<linearGradient id="SVGID_00000000908359815430541800000006882340615604282019_" gradientUnits="userSpaceOnUse" x1="-2112.5793" y1="1676.0372" x2="-1767.5541" y2="1974.0748" gradientTransform="matrix(1 0 0 1 3870.9626 0)">
				<stop  offset="0" style="stop-color:#F9B776"/>
				<stop  offset="1" style="stop-color:#F47960"/>
			</linearGradient>
			<path style="fill:url(#SVGID_00000000908359815430541800000006882340615604282019_);" d="M1837.25,1775.37
				c0,0,14.29-25.33,13.38-37.64c-0.91-12.31,6.76-30.38-1.4-29.04c-8.16,1.34-9.85,0.25-12.06,15.01
				C1834.96,1738.47,1809.2,1802.98,1837.25,1775.37z"/>
			
				<linearGradient id="SVGID_00000077320281422948927540000015920701922956940947_" gradientUnits="userSpaceOnUse" x1="-2119.7744" y1="1703.822" x2="-1783.9225" y2="1993.9354" gradientTransform="matrix(1 0 0 1 3870.9626 0)">
				<stop  offset="0" style="stop-color:#F9B776"/>
				<stop  offset="1" style="stop-color:#F47960"/>
			</linearGradient>
			<path style="fill:url(#SVGID_00000077320281422948927540000015920701922956940947_);" d="M1834.57,1735.1l0.33,50.61
				c96.72,104.43,175,110.57,238.49,88.13c19.19,31.27,42.63,73.33,53.27,107.59c-258.29,56.94-319.11-180.5-319.11-180.5
				c-34.98-14.49-42.04-22.97-40.53-32.46L1834.57,1735.1z"/>
			
				<linearGradient id="SVGID_00000089545106215267986860000009662329510878869427_" gradientUnits="userSpaceOnUse" x1="-2125.3523" y1="1690.8239" x2="-1780.3279" y2="1988.8607" gradientTransform="matrix(1 0 0 1 3870.9626 0)">
				<stop  offset="0" style="stop-color:#F9B776"/>
				<stop  offset="1" style="stop-color:#F47960"/>
			</linearGradient>
			<path style="fill:url(#SVGID_00000089545106215267986860000009662329510878869427_);" d="M1760.18,1684.89
				c8.26-3.35,24.41-34.15,27.5-24.02c3.09,10.13-1.31,24.02,0,28.33c1.31,4.31,21.45,53.87,17.42,64.89
				c-2.9,7.95-18.89,6.77-21.33,19.77c-0.81,4.31-4.26,7.41-8.26,7.41c-4,0-7.45-3.09-8.26-7.4
				C1766.93,1772.14,1751.93,1688.24,1760.18,1684.89z"/>
			<g>
				<g>
					
						<linearGradient id="SVGID_00000183225617274977584560000007062221108499615417_" gradientUnits="userSpaceOnUse" x1="2132.6133" y1="1956.1934" x2="2556.6855" y2="360.877" gradientTransform="matrix(-1 0 0 1 3710 0)">
						<stop  offset="0" style="stop-color:#FDF53F"/>
						<stop  offset="1" style="stop-color:#D93C65"/>
					</linearGradient>
					<path style="fill:url(#SVGID_00000183225617274977584560000007062221108499615417_);" d="M1850.42,1932.27l65.7-298.13
						l21.09-95.65l1.79-8.11l13.63-61.93c1.98-8.08-3.09-16.01-11.17-17.99l-794.49-194.87c-8.08-1.98-16.25,2.7-18.23,10.78
						l-16.03,61.51l-2.07,7.91l-24.69,94.75l-75.74,290.54c-1.98,8.08,3.68,26.14,21.41,29.23l771.53,210.54
						c10.07,2.74,20.84,1.24,29.77-4.16C1841.85,1951.28,1848.18,1942.46,1850.42,1932.27z"/>
					<path class="st68" d="M1930.2,1475.88c1.85-7.53-2.94-15.24-10.64-17.13l-756.83-185.63c-7.7-1.89-15.51,2.73-17.36,10.26
						l-110.8,424.53c-1.85,7.53,3.61,24.46,20.48,27.43l735.06,200.17c9.6,2.61,19.83,1.26,28.31-3.74
						c8.48-5,14.46-13.21,16.55-22.72L1930.2,1475.88z"/>
					<path class="st2" d="M1122.9,1755.44c1.51,0,2.89-1.03,3.27-2.56c0.44-1.81-0.66-3.63-2.47-4.07l-67.46-16.55
						c-6.11-1.5-10.74-5.28-13.39-10.93c-2.57-5.47-3.06-12.22-1.4-19.02l37.18-151.59c0.44-1.81-0.66-3.63-2.47-4.07
						c-1.8-0.44-3.63,0.66-4.07,2.47l-37.18,151.59c-2.03,8.29-1.38,16.63,1.84,23.49c3.5,7.44,9.85,12.63,17.88,14.6l67.46,16.55
						C1122.37,1755.41,1122.64,1755.44,1122.9,1755.44z"/>
					<path class="st2" d="M1871.62,1748.59c1.51,0,2.89-1.03,3.27-2.56l63.89-260.46c1.58-6.44,0.36-12.99-3.44-18.46
						c-3.61-5.19-9.19-8.93-15.71-10.52l-85.95-21.08c-1.8-0.44-3.63,0.66-4.07,2.47c-0.44,1.81,0.66,3.63,2.47,4.07l85.95,21.08
						c4.93,1.21,9.12,3.99,11.79,7.83c2.68,3.85,3.54,8.47,2.43,13.01l-63.89,260.46c-0.44,1.81,0.66,3.63,2.47,4.07
						C1871.09,1748.55,1871.36,1748.59,1871.62,1748.59z"/>
				</g>
				
					<linearGradient id="SVGID_00000029754382298093776100000016165278026447812744_" gradientUnits="userSpaceOnUse" x1="2370.3862" y1="887.9243" x2="2168.4465" y2="1776.4556" gradientTransform="matrix(-1 0 0 1 3710 0)">
					<stop  offset="0" style="stop-color:#FDF53F"/>
					<stop  offset="1" style="stop-color:#D93C65"/>
				</linearGradient>
				<path style="fill:url(#SVGID_00000029754382298093776100000016165278026447812744_);" d="M1200.36,1520.83l-0.16,0.64
					c-4.65,18.52,6.75,37.03,25.27,41.68l5.09,1.28l-15.24,60.73c-3.69,14.69,5.14,30.24,19.83,33.92l0.97,0.24
					c14.69,3.69,28.3-6.23,31.99-20.92l15.24-60.73l70.37,17.66l-9.9,39.46c-3.69,14.69,3.8,30.08,18.49,33.76l0.97,0.24
					c14.69,3.69,29.63-6.07,33.32-20.76l9.9-39.46l73.5,18.45c-4.51,75.54,45.04,146.21,121.11,165.3
					c86,21.58,173.15-30.42,194.74-116.41c21.58-86-30.67-173.07-116.66-194.65c-72.64-18.23-146.32,16.9-180.3,79.44l-256.63-64.41
					C1223.73,1491.65,1205.01,1502.31,1200.36,1520.83z M1544.09,1612.59c13.32-53.06,67.12-85.27,120.18-71.95
					c53.06,13.32,85.27,67.12,71.96,120.18s-67.12,85.27-120.18,71.96C1562.99,1719.45,1530.77,1665.64,1544.09,1612.59z"/>
			</g>
			
				<linearGradient id="SVGID_00000021092831467989911540000016538286675251359146_" gradientUnits="userSpaceOnUse" x1="-410.3947" y1="4134.1235" x2="-826.8218" y2="4857.7017" gradientTransform="matrix(-0.9478 -0.3187 -0.3187 0.9478 2892.7693 -2113.7644)">
				<stop  offset="0" style="stop-color:#F9B776"/>
				<stop  offset="1" style="stop-color:#F47960"/>
			</linearGradient>
			<path style="fill:url(#SVGID_00000021092831467989911540000016538286675251359146_);" d="M2232.59,2017.01
				c0,0-246.47,82.51-384.33-22.46c-8.55-6.51-19.34-9.35-29.95-7.62l-52.67,8.58c-22.11,3.6-43.16-10.72-47.93-32.61
				c-2.72-12.48-4.03-26.14-1.26-37.87l99.43-6l-2.84-12.9c0,0,43.95,10.75,44.83,45.13c0,0,103.08,67.52,291.1-37.28
				C2148.97,1913.99,2222.18,1971.28,2232.59,2017.01z"/>
		</g>
		<g>
			
				<ellipse transform="matrix(0.9665 -0.2567 0.2567 0.9665 -264.4182 446.5966)" class="st2" cx="1578.62" cy="1236.23" rx="43.5" ry="43.5"/>
			<path class="st2" d="M1578.62,871.64c90.88,0,173.98,33.27,237.83,88.27c13.1,11.29,14.04,31.24,1.81,43.47l-1.23,1.23
				c-10.88,10.88-28.36,11.67-40,1.62c-53.23-45.98-122.55-73.82-198.41-73.82c-75.86,0-145.18,27.84-198.41,73.82
				c-11.64,10.06-29.12,9.26-40-1.62l-1.23-1.23c-12.23-12.23-11.29-32.18,1.81-43.47C1404.63,904.91,1487.73,871.64,1578.62,871.64
				z"/>
			<path class="st2" d="M1578.62,972.92c62.78,0,120.4,22.01,165.64,58.7c13.54,10.98,14.4,31.37,2.07,43.7l-0.21,0.21
				c-10.8,10.8-27.9,11.39-39.79,1.81c-34.95-28.14-79.35-45.01-127.71-45.01c-48.36,0-92.76,16.86-127.71,45.01
				c-11.9,9.58-28.99,8.99-39.79-1.81l-0.21-0.21c-12.33-12.33-11.47-32.72,2.07-43.7C1458.22,994.93,1515.83,972.92,1578.62,972.92
				z"/>
			<path class="st2" d="M1673.88,1147.76c-10.69,10.69-27.28,11.9-39.94,3.63c-15.9-10.39-34.91-16.43-55.32-16.43
				c-20.41,0-39.42,6.04-55.32,16.43c-12.66,8.27-29.25,7.06-39.94-3.63l-0.14-0.14c-13.11-13.11-11.05-34.9,4.27-45.35
				c25.96-17.71,57.33-28.08,91.13-28.08c33.8,0,65.17,10.37,91.13,28.08c15.31,10.45,17.37,32.24,4.27,45.35L1673.88,1147.76z"/>
		</g>
	</g>
</g>
</svg>
