<?xml version="1.0" encoding="utf-8"?>
<!-- Generator: Adobe Illustrator 27.0.0, SVG Export Plug-In . SVG Version: 6.00 Build 0)  -->
<svg version="1.1" id="Calque_1" xmlns="http://www.w3.org/2000/svg" xmlns:xlink="http://www.w3.org/1999/xlink" x="0px" y="0px"
	 viewBox="0 0 3131.23 3057.7" style="enable-background:new 0 0 3131.23 3057.7;" xml:space="preserve">
<style type="text/css">
	.st0{display:none;}
	.st1{display:inline;}
	.st2{fill:#FFFFFF;}
	.st3{fill:#F4F7FA;}
	.st4{fill:#97A6B7;}
	.st5{fill:#D8DEE8;}
	.st6{opacity:0.8;clip-path:url(#SVGID_00000107551145527644260560000007140378137278385835_);}
	.st7{fill:url(#SVGID_00000127006899500834519680000015967962473571018425_);}
	.st8{opacity:0.8;clip-path:url(#SVGID_00000122686003231359171400000011351146558098622082_);}
	.st9{fill:url(#SVGID_00000022535278743475332500000007517565446405772931_);}
	.st10{opacity:0.8;clip-path:url(#SVGID_00000003822041028029936210000018420942788557770163_);}
	.st11{fill:url(#SVGID_00000052066016368267498580000013765684159823420307_);}
	.st12{fill:url(#SVGID_00000154426952513702655040000009927382464866688928_);}
	.st13{fill:url(#SVGID_00000119822503788967044810000001816114812145231781_);}
	.st14{fill:url(#SVGID_00000078021686836436778080000007887318513291817610_);}
	.st15{fill:url(#SVGID_00000117658308519901968020000012624747297618869940_);}
	.st16{fill:url(#SVGID_00000052067081230027708530000012798592155628186511_);}
	.st17{fill:url(#SVGID_00000073710452852695091070000017036165417262934411_);}
	.st18{fill:url(#SVGID_00000008145436600906546240000016888508788794735017_);}
	.st19{opacity:0.6;fill:url(#SVGID_00000129181015464515609340000001764932152590099366_);enable-background:new    ;}
	.st20{fill:url(#SVGID_00000136398507079425503170000013568314115811190430_);}
	.st21{opacity:0.6;fill:url(#SVGID_00000016074303615885906000000002511901645280737162_);enable-background:new    ;}
	.st22{fill:url(#SVGID_00000182505320168829314050000005684879723987675023_);}
	.st23{opacity:0.6;fill:url(#SVGID_00000098200620237106592070000007566463355956064956_);enable-background:new    ;}
	.st24{fill:url(#SVGID_00000121980579884071865160000016135057453954957443_);}
	.st25{fill:url(#SVGID_00000034068791644383496390000008035953092325996949_);}
	.st26{fill:url(#SVGID_00000176034286469755577760000008204430148367774363_);}
	.st27{opacity:0.5;fill:url(#SVGID_00000160891001666857668070000015002783441580211597_);enable-background:new    ;}
	.st28{fill:url(#SVGID_00000002381914960609858410000008333961772125743267_);}
	.st29{fill:url(#SVGID_00000088854984890367099220000015175839931611515795_);}
	.st30{fill:url(#SVGID_00000032620704429035208080000008218458095719455396_);}
	.st31{opacity:0.6;fill:url(#SVGID_00000075142404948242174800000004778223810821193387_);enable-background:new    ;}
	.st32{fill:url(#SVGID_00000133496829758266523630000001691474650732385162_);}
	.st33{opacity:0.6;fill:url(#SVGID_00000125600945259874737550000002893365608227530898_);enable-background:new    ;}
	.st34{fill:url(#SVGID_00000144320776897075589850000012767539403060132012_);}
	.st35{opacity:0.3;fill:url(#SVGID_00000145036151982251010190000018064804964128953495_);enable-background:new    ;}
	.st36{opacity:0.3;fill:url(#SVGID_00000096772274363608240900000000736262844865560758_);enable-background:new    ;}
	.st37{fill:url(#SVGID_00000127026961240660875870000009144407082184262587_);}
	.st38{opacity:0.4;fill:#FFFFFF;enable-background:new    ;}
	.st39{opacity:0.3;fill:url(#SVGID_00000182516891033826434600000003877688350111337130_);enable-background:new    ;}
	.st40{fill:url(#SVGID_00000104703533165556315750000017329885884614248357_);}
	.st41{fill:url(#SVGID_00000031200240518511958720000006497672968468991646_);}
	.st42{fill:url(#SVGID_00000101088663772843168010000017744097544028968362_);}
	.st43{opacity:0.3;fill:url(#SVGID_00000183249499767776998810000010286461140170650528_);enable-background:new    ;}
	.st44{fill:url(#SVGID_00000131334198951239516880000005328232353373047168_);}
	.st45{fill:url(#SVGID_00000148638237679402555930000003994049900815441300_);}
	.st46{fill:url(#SVGID_00000121240665061938446230000017734784362461306288_);}
	.st47{fill:url(#SVGID_00000019673282563199272610000010491019384314645406_);}
	.st48{opacity:0.3;fill:url(#SVGID_00000183206858669225029000000015553914964304900527_);enable-background:new    ;}
	.st49{fill:url(#SVGID_00000094593855993092517550000012475249300920191141_);}
	.st50{fill:url(#SVGID_00000128445104615770572230000013121231764544028564_);}
	.st51{fill:url(#SVGID_00000173879480196281718490000000597759164533873563_);}
	.st52{fill:url(#SVGID_00000173140048536548500600000012877436088027316609_);}
	.st53{fill:url(#SVGID_00000116208930465592521220000006501962035169974939_);}
	.st54{fill:url(#SVGID_00000123420156515167515370000009489591971167421615_);}
	.st55{fill:url(#SVGID_00000028306618493043108720000000525923846180957066_);}
	.st56{fill:url(#SVGID_00000054226402645684467180000007404518132638711210_);}
	.st57{fill:url(#SVGID_00000057829255094201864370000017630701707152387968_);}
	.st58{fill:url(#SVGID_00000126282157867323061430000003763429375456591272_);}
	.st59{opacity:0.3;fill:url(#SVGID_00000178917807080266210250000013874192350599277207_);enable-background:new    ;}
	.st60{fill:url(#SVGID_00000181070126560197159040000015619793895443716259_);}
	.st61{fill:url(#SVGID_00000130636303683109089480000002797440696019612048_);}
	.st62{fill:url(#SVGID_00000173118696438557191930000009694524319828686246_);}
	.st63{fill:url(#SVGID_00000034079851127165928560000010897433906817365170_);}
	.st64{fill:url(#SVGID_00000158708584087001074180000014006329578286747283_);}
	.st65{fill:url(#SVGID_00000175284386727668718220000006049997942340925583_);}
</style>
<g id="Background" class="st0">
	<g class="st1">
		<g>
			<rect x="-274.74" y="-280.87" class="st2" width="3710" height="3710"/>
		</g>
	</g>
</g>
<g id="Illustration">
	<g>
		<path class="st3" d="M1340.47,2918.61C620.6,2809.59,35.58,2128.97,141.87,1372.47C232.54,727.3,798.18,225.22,1476.5,177.81
			c49.12-3.44,98.8-4.51,148.94-3.05c378.41,10.93,714.62,162.29,963.28,391.32c247.49,227.94,408.29,532.81,437.56,852.67
			C3104.25,2269.75,2235.83,3054.21,1340.47,2918.61z"/>
		<g>
			<path class="st4" d="M987.63,404.62v1155.86l8.45,6.17l1302.03-18.99V403.35l-1302.03-6.09L987.63,404.62z M1584.06,1406.04
				l-473.43-3.75V512.74l473.43,0.02V1406.04z M2189.97,1402.16l-478.81,3.07V512.76l478.81,0.02V1402.16z"/>
			<path class="st5" d="M996.08,397.26v1169.39l1313.68-7.47V394.72L996.08,397.26z M1593.9,1399.31l-474.54-3.37V505.39
				l474.54-0.43V1399.31z M2201.33,1394.93l-480.02,3.47V504.84l480.02-0.44V1394.93z"/>
		</g>
		<g>
			<g>
				<g>
					<path id="SVGID_1_" class="st5" d="M1566.76,1765.97c-10.6-21.37-32.7-40.27-53.54-51.39
						c-147.78-78.77-312.1,230.26-320.46,311.96s-33.94,98.36-170.72,82.12c-136.78-16.23-111.11,81.25-115.17,129.77
						c-4.05,48.52,9.15,96.91-97.04,99.61c-106.19,2.71-87.26,42.12-87.26,42.12s87.96,237.22,102.6,180.33
						s66.39-129.58,213.95-71.13c63.56,25.17,172.36,37.96,223.27-19.42c11.86-13.36,25.87-35.6,29.29-53.37
						c4.75-24.65-2.07-48.78-0.85-73.43c2.85-57.44,66.41-72.13,108.37-92.68c21.91-10.73,44.01-21.9,63.63-36.51
						c40.75-30.34,51.57-77.53,43.44-125.86c-3.9-23.17-11.94-49.5-7.61-73.14c4.65-25.4,23.44-54.55,35.26-77.54
						c9.27-18.03,19.24-35.67,26.45-54.67C1573.8,1847.41,1584.48,1801.68,1566.76,1765.97z"/>
				</g>
				<g>
					<defs>
						<path id="SVGID_00000039824175252580591100000004584493809228045709_" d="M1566.76,1765.97
							c-10.6-21.37-32.7-40.27-53.54-51.39c-147.78-78.77-312.1,230.26-320.46,311.96s-33.94,98.36-170.72,82.12
							c-136.78-16.23-111.11,81.25-115.17,129.77c-4.05,48.52,9.15,96.91-97.04,99.61c-106.19,2.71-87.26,42.12-87.26,42.12
							s87.96,237.22,102.6,180.33s66.39-129.58,213.95-71.13c63.56,25.17,172.36,37.96,223.27-19.42
							c11.86-13.36,25.87-35.6,29.29-53.37c4.75-24.65-2.07-48.78-0.85-73.43c2.85-57.44,66.41-72.13,108.37-92.68
							c21.91-10.73,44.01-21.9,63.63-36.51c40.75-30.34,51.57-77.53,43.44-125.86c-3.9-23.17-11.94-49.5-7.61-73.14
							c4.65-25.4,23.44-54.55,35.26-77.54c9.27-18.03,19.24-35.67,26.45-54.67C1573.8,1847.41,1584.48,1801.68,1566.76,1765.97z"/>
					</defs>
					<clipPath id="SVGID_00000065068240373321769830000017234078769424739766_">
						<use xlink:href="#SVGID_00000039824175252580591100000004584493809228045709_"  style="overflow:visible;"/>
					</clipPath>
					<g style="opacity:0.8;clip-path:url(#SVGID_00000065068240373321769830000017234078769424739766_);">
						<g>
							<path class="st2" d="M668.56,2467.25c-1.21-0.09-2.2-1.06-2.28-2.31c-0.09-1.36,0.95-2.53,2.31-2.62
								c0.84-0.05,84.79-5.54,186.91-30.67c94.09-23.16,223.31-68.2,304.51-151.3c67.82-69.4,157.11-194.3,244.97-342.68
								c78.79-133.05,127.58-235.67,129.23-258.02c0.1-1.36,1.28-2.38,2.65-2.28c1.36,0.1,2.38,1.28,2.28,2.65
								c-1.93,26.14-58.99,140.42-129.91,260.17c-88.06,148.7-177.61,273.94-245.69,343.61c-82.04,83.95-212.2,129.36-306.95,152.67
								c-102.53,25.22-186.85,30.73-187.69,30.78C668.78,2467.26,668.67,2467.26,668.56,2467.25z"/>
						</g>
						<g>
							<path class="st2" d="M1392.62,1963.85c-1.35,0-2.4-0.5-2.31-1.85c0.12-1.8,11.4-179.94-46.57-247.16
								c-0.89-1.03-0.78-2.4,0.25-3.29s2.59-0.68,3.48,0.35c59.29,68.76,48.27,242.97,47.77,250.38c-0.09,1.36-1.25,1.57-2.61,1.57
								H1392.62z"/>
						</g>
						<g>
							<path class="st2" d="M1285.83,2129.89c-1.01-0.07-1.91-0.77-2.2-1.8c-0.36-1.31,0.41-2.68,1.72-3.04
								c0.57-0.16,57.75-15.86,122.27-21.68c87.17-7.86,145.52,5.1,173.44,38.52c0.87,1.05,0.73,2.6-0.31,3.48
								c-1.05,0.87-2.6,0.73-3.48-0.31c-64.22-76.87-288.34-15.87-290.6-15.25C1286.39,2129.89,1286.1,2129.91,1285.83,2129.89z"/>
						</g>
						<g>
							<path class="st2" d="M941.92,2411.46c-0.26-0.02-0.53-0.08-0.79-0.19c-1.25-0.54-1.84-1.99-1.3-3.24
								c0.28-0.66,28.37-66.84,45.44-142.15c15.65-69.05,25.02-160.09-19.22-201.74c-0.99-0.94-1.04-2.5-0.11-3.49
								s2.5-1.04,3.49-0.11c36.89,34.73,43.84,104.2,20.64,206.49c-17.17,75.73-45.41,142.27-45.7,142.93
								C943.95,2410.96,942.94,2411.53,941.92,2411.46z"/>
						</g>
						<g>
							<path class="st2" d="M1082.4,2346.9c-1.06-0.08-1.99-0.84-2.23-1.93c-0.29-1.33,0.55-2.65,1.88-2.95
								c9.66-2.14,237.17-51.81,298.65-10c1.13,0.77,1.42,2.3,0.65,3.43s-2.3,1.42-3.43,0.65
								c-59.74-40.62-292.47,10.22-294.81,10.74C1082.88,2346.9,1082.63,2346.91,1082.4,2346.9z"/>
						</g>
					</g>
				</g>
			</g>
		</g>
		<g>
			<g>
				<g>
					<g>
						
							<linearGradient id="SVGID_00000011752873441123546010000014149766923455777716_" gradientUnits="userSpaceOnUse" x1="257.6967" y1="1232.0131" x2="1162.0957" y2="1232.0131" gradientTransform="matrix(1 0 0 -1 0 3148.2554)">
							<stop  offset="0" style="stop-color:#FF9085"/>
							<stop  offset="1" style="stop-color:#FB6FBB"/>
						</linearGradient>
						
							<path id="SVGID_00000063596073694594603200000016299985995922611092_" style="fill:url(#SVGID_00000011752873441123546010000014149766923455777716_);" d="
							M291.56,1339.34c19.22-23.34,51.92-40.36,80.85-48.1c205.06-54.91,319.38,373.79,306.28,477.07
							c-13.1,103.28,13.71,131.18,187.27,150.34c173.56,19.17,113.91,132.18,105.01,193.25s-39.08,117.04,91.27,150.82
							s95.68,77.02,95.68,77.02s-176.61,267.71-178.38,193.27s-44.84-179.03-243.79-149.16c-85.7,12.87-223.71-2.53-270.13-87.98
							c-10.81-19.9-21.74-51.37-20.87-74.29c1.2-31.8,16.54-59.64,22.1-90.43c12.95-71.74-61.32-108.1-107.25-145.5
							c-23.98-19.53-48.06-39.65-68.11-63.33c-41.62-49.15-41.46-110.52-17.56-167.86c11.46-27.5,28.93-57.7,30.37-88.13
							c1.54-32.69-13.31-74.08-21.32-105.86c-6.28-24.92-13.53-49.56-16.99-75.09C259.53,1437.89,259.44,1378.36,291.56,1339.34z"/>
					</g>
					<g>
						<defs>
							<path id="SVGID_00000103252024906610856830000017044105363795996087_" d="M291.56,1339.34
								c19.22-23.34,51.92-40.36,80.85-48.1c205.06-54.91,319.38,373.79,306.28,477.07c-13.1,103.28,13.71,131.18,187.27,150.34
								c173.56,19.17,113.91,132.18,105.01,193.25s-39.08,117.04,91.27,150.82s95.68,77.02,95.68,77.02
								s-176.61,267.71-178.38,193.27s-44.84-179.03-243.79-149.16c-85.7,12.87-223.71-2.53-270.13-87.98
								c-10.81-19.9-21.74-51.37-20.87-74.29c1.2-31.8,16.54-59.64,22.1-90.43c12.95-71.74-61.32-108.1-107.25-145.5
								c-23.98-19.53-48.06-39.65-68.11-63.33c-41.62-49.15-41.46-110.52-17.56-167.86c11.46-27.5,28.93-57.7,30.37-88.13
								c1.54-32.69-13.31-74.08-21.32-105.86c-6.28-24.92-13.53-49.56-16.99-75.09C259.53,1437.89,259.44,1378.36,291.56,1339.34z"
								/>
						</defs>
						<clipPath id="SVGID_00000139981041767718614850000015213731642772231048_">
							<use xlink:href="#SVGID_00000103252024906610856830000017044105363795996087_"  style="overflow:visible;"/>
						</clipPath>
						<g style="opacity:0.8;clip-path:url(#SVGID_00000139981041767718614850000015213731642772231048_);">
							<g>
								<path class="st2" d="M1199.65,2462.76c1.52,0.24,3.02-0.68,3.48-2.2c0.5-1.66-0.44-3.4-2.1-3.9
									c-1.02-0.3-103.11-31.14-222-91.45c-109.55-55.57-256.19-148.23-332.64-274.11c-63.85-105.14-138.3-284.96-204.27-493.36
									c-59.15-186.87-89.98-327.57-85.61-355.64c0.27-1.71-0.9-3.31-2.61-3.58c-1.71-0.27-3.31,0.9-3.58,2.61
									c-5.11,32.84,32.6,190.31,85.83,358.5c66.11,208.85,140.78,389.17,204.88,494.72c77.23,127.18,224.95,220.56,335.26,276.5
									c119.38,60.54,221.92,91.5,222.94,91.81C1199.37,2462.71,1199.51,2462.74,1199.65,2462.76z"/>
							</g>
							<g>
								<path class="st2" d="M449.48,1633.81c1.7,0,3.3-0.03,3.58-1.73c0.37-2.25,37.6-225.51,128.45-291.9
									c1.4-1.02,1.7-2.76,0.68-4.16s-2.98-1.59-4.37-0.57c-92.92,67.91-129.43,286.28-130.94,295.58
									c-0.28,1.71,0.87,2.78,2.58,2.78C449.47,1633.81,449.48,1633.81,449.48,1633.81z"/>
							</g>
							<g>
								<path class="st2" d="M534.14,1869.25c1.27,0.2,2.58-0.41,3.23-1.6c0.83-1.52,0.26-3.42-1.25-4.25
									c-0.66-0.36-66.77-36.14-144.77-61.81c-105.39-34.69-181.16-35.41-225.2-2.16c-1.38,1.04-1.65,3.01-0.61,4.39
									s3.01,1.65,4.39,0.61c101.34-76.51,360.59,63.05,363.2,64.47C533.45,1869.08,533.8,1869.19,534.14,1869.25z"/>
							</g>
							<g>
								<path class="st2" d="M878.1,2315.5c0.33,0.05,0.68,0.05,1.03-0.01c1.7-0.3,2.84-1.93,2.54-3.63
									c-0.16-0.9-15.87-90.67-15.36-188.55c0.47-89.74,15-204.86,81.56-243.6c1.49-0.87,2-2.79,1.13-4.28
									c-0.87-1.5-2.79-2-4.28-1.13c-55.51,32.31-84,116.1-84.68,249.06c-0.5,98.44,15.29,188.69,15.45,189.59
									C875.73,2314.31,876.81,2315.3,878.1,2315.5z"/>
							</g>
							<g>
								<path class="st2" d="M723.14,2195.52c1.33,0.21,2.69-0.47,3.3-1.74c0.75-1.56,0.09-3.43-1.47-4.18
									c-11.31-5.4-278.01-131.96-365.91-97.96c-1.61,0.62-2.42,2.44-1.79,4.05c0.62,1.61,2.44,2.42,4.05,1.79
									c85.41-33.03,358.21,96.46,360.95,97.77C722.55,2195.38,722.84,2195.47,723.14,2195.52z"/>
							</g>
						</g>
					</g>
				</g>
			</g>
		</g>
		<g>
			<g>
				<g>
					
						<linearGradient id="SVGID_00000047778537424430136820000002991089938235098807_" gradientUnits="userSpaceOnUse" x1="619.3002" y1="1386.2196" x2="517.0527" y2="-102.04" gradientTransform="matrix(1 0 0 -1 0 3148.2554)">
						<stop  offset="0" style="stop-color:#FFC444"/>
						<stop  offset="0.9964" style="stop-color:#F36F56"/>
					</linearGradient>
					
						<path id="SVGID_00000031197331044075399240000007030900735921777563_" style="fill:url(#SVGID_00000047778537424430136820000002991089938235098807_);" d="
						M157.93,1859.48c8.83-21.8,29.15-42.04,48.82-54.52c139.44-88.47,324.04,203.17,338.35,282.88s40.7,94.18,173.99,68.03
						S834.4,2227.49,842,2274.89s-1.78,95.97,102.84,90.72s88.94,34.91,88.94,34.91s-68.82,239.81-87.45,184.96
						c-18.63-54.84-74.94-122.47-215.67-54c-60.62,29.49-166.65,50.17-220.99-2.46c-12.65-12.26-28.09-33.08-32.78-50.29
						c-6.51-23.89-1.6-48.12-4.63-72.27c-7.08-56.27-70.67-65.97-113.46-83.05c-22.34-8.92-44.9-18.25-65.29-31.16
						c-42.33-26.8-56.49-72.4-52.09-120.52c2.11-23.08,8.05-49.56,2.04-72.48c-6.46-24.62-27.11-51.89-40.45-73.62
						c-10.46-17.04-21.57-33.64-30.08-51.78C157.08,1940.09,143.16,1895.93,157.93,1859.48z"/>
				</g>
				<g>
					<defs>
						<path id="SVGID_00000067208734003309610630000013708856822835391116_" d="M157.93,1859.48c8.83-21.8,29.15-42.04,48.82-54.52
							c139.44-88.47,324.04,203.17,338.35,282.88s40.7,94.18,173.99,68.03S834.4,2227.49,842,2274.89s-1.78,95.97,102.84,90.72
							s88.94,34.91,88.94,34.91s-68.82,239.81-87.45,184.96c-18.63-54.84-74.94-122.47-215.67-54
							c-60.62,29.49-166.65,50.17-220.99-2.46c-12.65-12.26-28.09-33.08-32.78-50.29c-6.51-23.89-1.6-48.12-4.63-72.27
							c-7.08-56.27-70.67-65.97-113.46-83.05c-22.34-8.92-44.9-18.25-65.29-31.16c-42.33-26.8-56.49-72.4-52.09-120.52
							c2.11-23.08,8.05-49.56,2.04-72.48c-6.46-24.62-27.11-51.89-40.45-73.62c-10.46-17.04-21.57-33.64-30.08-51.78
							C157.08,1940.09,143.16,1895.93,157.93,1859.48z"/>
					</defs>
					<clipPath id="SVGID_00000096042806262913952220000015152375095832490405_">
						<use xlink:href="#SVGID_00000067208734003309610630000013708856822835391116_"  style="overflow:visible;"/>
					</clipPath>
					<g style="opacity:0.8;clip-path:url(#SVGID_00000096042806262913952220000015152375095832490405_);">
						<g>
							<path class="st2" d="M1093.37,2482.14c1.18-0.18,2.09-1.21,2.07-2.44c-0.02-1.35-1.12-2.42-2.47-2.4
								c-0.83,0.01-83.78,0.87-186.07-16.23c-94.25-15.76-224.66-50.43-310.69-126.09c-71.86-63.19-168.96-179.35-266.41-318.7
								c-87.38-124.95-143-222.23-146.29-244.08c-0.2-1.33-1.44-2.25-2.77-2.05s-2.25,1.44-2.05,2.77
								c3.85,25.56,68.47,133.68,147.12,246.15c97.66,139.65,195.05,256.13,267.18,319.57c86.92,76.44,218.29,111.39,313.19,127.25
								c102.7,17.16,186.02,16.29,186.85,16.28C1093.15,2482.17,1093.26,2482.16,1093.37,2482.14z"/>
						</g>
						<g>
							<path class="st2" d="M343.98,2041.92c1.32,0,2.29-1.08,2.1-2.41c-0.25-1.76-24.63-176.29,27.36-246.71
								c0.8-1.08,0.58-2.52-0.5-3.32s-2.6-0.53-3.4,0.56c-53.18,72.03-29.32,242.9-28.28,250.15c0.19,1.33,1.38,1.74,2.71,1.74
								C343.97,2041.92,343.97,2041.92,343.98,2041.92z"/>
						</g>
						<g>
							<path class="st2" d="M461.28,2196.4c0.99-0.15,1.82-0.9,2.03-1.94c0.26-1.32-0.6-2.6-1.92-2.86
								c-0.57-0.11-57.97-11.29-121.84-12.21c-86.3-1.23-142.71,15.86-167.67,50.79c-0.78,1.09-0.53,2.62,0.57,3.4
								c1.1,0.78,2.62,0.53,3.4-0.57c57.42-80.37,282.34-37.09,284.61-36.64C460.73,2196.44,461.01,2196.44,461.28,2196.4z"/>
						</g>
						<g>
							<path class="st2" d="M820.42,2447.64c0.26-0.04,0.52-0.12,0.76-0.25c1.19-0.62,1.66-2.09,1.04-3.28
								c-0.33-0.63-32.87-63.61-55.27-136.39c-20.53-66.73-36.53-155.56,3.87-199.8c0.91-0.99,0.84-2.53-0.16-3.44
								c-0.99-0.91-2.53-0.84-3.44,0.16c-33.69,36.89-35.34,105.73-4.91,204.58c22.53,73.19,55.25,136.51,55.58,137.14
								C818.39,2447.3,819.42,2447.79,820.42,2447.64z"/>
						</g>
						<g>
							<path class="st2" d="M677.48,2394.63c1.04-0.16,1.89-0.97,2.05-2.06c0.19-1.33-0.73-2.57-2.07-2.76
								c-9.65-1.38-237.07-33.27-294.41,12.41c-1.05,0.84-1.23,2.37-0.39,3.42c0.84,1.05,2.37,1.23,3.42,0.39
								c55.72-44.39,288.34-11.74,290.69-11.4C677.01,2394.66,677.25,2394.66,677.48,2394.63z"/>
						</g>
					</g>
				</g>
			</g>
		</g>
		<g>
			<g>
				<g>
					
						<linearGradient id="SVGID_00000111913981574599301750000018101571101743637652_" gradientUnits="userSpaceOnUse" x1="514.9626" y1="774.1124" x2="495.2244" y2="404.7247" gradientTransform="matrix(-1 0 0 -1 3268.2031 3148.2554)">
						<stop  offset="0" style="stop-color:#311944"/>
						<stop  offset="1" style="stop-color:#A03976"/>
					</linearGradient>
					<path style="fill:url(#SVGID_00000111913981574599301750000018101571101743637652_);" d="M2725.07,2383.6h61.84h12.21v83.46
						l-10.18,153.92c-1.15,17.36-15.56,30.85-32.96,30.85s-31.81-13.49-32.96-30.85l-10.18-153.92v-83.46H2725.07z"/>
					
						<linearGradient id="SVGID_00000054243095572297687800000012143336511076767132_" gradientUnits="userSpaceOnUse" x1="1062.7686" y1="744.84" x2="1043.0304" y2="375.4526" gradientTransform="matrix(-1 0 0 -1 3268.2031 3148.2554)">
						<stop  offset="0" style="stop-color:#311944"/>
						<stop  offset="1" style="stop-color:#A03976"/>
					</linearGradient>
					<path style="fill:url(#SVGID_00000054243095572297687800000012143336511076767132_);" d="M2175.7,2383.6h61.84h12.21v83.46
						l-10.18,153.92c-1.15,17.36-15.56,30.85-32.96,30.85s-31.81-13.49-32.96-30.85l-10.18-153.92v-83.46H2175.7z"/>
					
						<linearGradient id="SVGID_00000050626768147944506440000016604821338814092189_" gradientUnits="userSpaceOnUse" x1="655.1685" y1="766.6204" x2="635.4301" y2="397.2327" gradientTransform="matrix(-1 0 0 -1 3268.2031 3148.2554)">
						<stop  offset="0" style="stop-color:#311944"/>
						<stop  offset="1" style="stop-color:#A03976"/>
					</linearGradient>
					<path style="fill:url(#SVGID_00000050626768147944506440000016604821338814092189_);" d="M2591.63,2517.71h61.84h12.21v83.46
						l-10.18,153.92c-1.15,17.36-15.56,30.85-32.96,30.85s-31.81-13.49-32.96-30.85l-10.18-153.92v-83.46H2591.63z"/>
					
						<linearGradient id="SVGID_00000054955877209927340980000011532130806661321607_" gradientUnits="userSpaceOnUse" x1="1486.0323" y1="722.2229" x2="1466.2941" y2="352.8354" gradientTransform="matrix(-1 0 0 -1 3268.2031 3148.2554)">
						<stop  offset="0" style="stop-color:#311944"/>
						<stop  offset="1" style="stop-color:#A03976"/>
					</linearGradient>
					<path style="fill:url(#SVGID_00000054955877209927340980000011532130806661321607_);" d="M1755.23,2458.5h61.84h12.21v83.46
						l-10.18,153.92c-1.15,17.36-15.56,30.85-32.96,30.85c-17.4,0-31.81-13.49-32.96-30.85L1743,2541.96v-83.46H1755.23z"/>
					
						<linearGradient id="SVGID_00000032630041960588054270000013527158765096277642_" gradientUnits="userSpaceOnUse" x1="507.7371" y1="459.4501" x2="513.3765" y2="687.8488" gradientTransform="matrix(-1 0 0 -1 3268.2031 3148.2554)">
						<stop  offset="0" style="stop-color:#311944"/>
						<stop  offset="1" style="stop-color:#A03976"/>
					</linearGradient>
					<polygon style="fill:url(#SVGID_00000032630041960588054270000013527158765096277642_);" points="2829.58,2388.46 
						2819.9,2462.62 2705.44,2560.73 2678.17,2454.89 					"/>
					
						<linearGradient id="SVGID_00000067956654673665493030000005131625553298653060_" gradientUnits="userSpaceOnUse" x1="1070.5334" y1="816.0038" x2="1025.4177" y2="393.0424" gradientTransform="matrix(-1 0 0 -1 3268.2031 3148.2554)">
						<stop  offset="0" style="stop-color:#311944"/>
						<stop  offset="1" style="stop-color:#A03976"/>
					</linearGradient>
					<path style="fill:url(#SVGID_00000067956654673665493030000005131625553298653060_);" d="M2710.11,2415.53l-4.68,145.2
						c0,0-990.86-25.31-990.3-31.53c0.56-6.21-7.11-93.83-7.11-93.83L2710.11,2415.53z"/>
					
						<linearGradient id="SVGID_00000106857241030639865050000014577608066953968035_" gradientUnits="userSpaceOnUse" x1="447.4778" y1="1256.7391" x2="1609.2128" y2="1008.6007" gradientTransform="matrix(-1 0 0 -1 3268.2031 3148.2554)">
						<stop  offset="3.597120e-03" style="stop-color:#E38DDD"/>
						<stop  offset="1" style="stop-color:#494CF4"/>
					</linearGradient>
					<path style="fill:url(#SVGID_00000106857241030639865050000014577608066953968035_);" d="M1692.56,2206.6
						c0.43-39.79,28.25-74.02,67.11-82.57l365.83-80.5c0,0,1.38-329.09-38.44-515.54c-11.66-54.61,36.04-103.93,90.87-93.35
						c29.98,5.78,64.02,19.47,99.84,46.93c0,0,296-78.07,496.71,0c0,0,23.21-67.49,122.93-58.68
						c51.83,4.58,86.04,56.09,70.81,105.84c-49.77,162.57-151.77,538.98-122.34,809.55c4.81,44.22-14.28,87.68-49.6,114.73
						l-62.97,48.22c-18.01,13.79-40.31,20.77-62.97,19.7l-910.04-42.99c-39.41-1.86-70.28-34.57-69.85-74.02L1692.56,2206.6z"/>
					
						<linearGradient id="SVGID_00000126307105873838739620000012705947582577170602_" gradientUnits="userSpaceOnUse" x1="485.0279" y1="1674.5776" x2="493.7278" y2="1674.5776" gradientTransform="matrix(-1 0 0 -1 3268.2031 3148.2554)">
						<stop  offset="3.597120e-03" style="stop-color:#E38DDD"/>
						<stop  offset="1" style="stop-color:#494CF4"/>
					</linearGradient>
					<path style="fill:url(#SVGID_00000126307105873838739620000012705947582577170602_);" d="M2783.18,1465.8l-8.7,15.76
						C2774.48,1481.56,2776.82,1474.78,2783.18,1465.8z"/>
					
						<linearGradient id="SVGID_00000083061970607388096110000004518490127559567798_" gradientUnits="userSpaceOnUse" x1="493.7379" y1="1325.7327" x2="1567.3779" y2="1325.7327" gradientTransform="matrix(-1 0 0 -1 3268.2031 3148.2554)">
						<stop  offset="3.597120e-03" style="stop-color:#E38DDD"/>
						<stop  offset="1" style="stop-color:#494CF4"/>
					</linearGradient>
					
						<path style="opacity:0.6;fill:url(#SVGID_00000083061970607388096110000004518490127559567798_);enable-background:new    ;" d="
						M1700.83,2170.83c11.07-23.27,32.39-40.99,58.84-46.81l365.83-80.5c0,0,0.23-54.52-2.19-131.74
						c30.66-0.95,82.52-26.95,85.75-190.49c2.69-135.73-11.56-230.01-23.93-285.11c28.18,6.51,59.65,20.1,92.63,45.38
						c0,0,296-78.07,496.71,0l-74.65,727.31C2699.83,2208.87,2235.41,2084.86,1700.83,2170.83z"/>
					
						<linearGradient id="SVGID_00000067218641401548740560000013424769692307315349_" gradientUnits="userSpaceOnUse" x1="419.88" y1="1127.5343" x2="1581.6161" y2="879.3956" gradientTransform="matrix(-1 0 0 -1 3268.2031 3148.2554)">
						<stop  offset="3.597120e-03" style="stop-color:#E38DDD"/>
						<stop  offset="1" style="stop-color:#494CF4"/>
					</linearGradient>
					<path style="fill:url(#SVGID_00000067218641401548740560000013424769692307315349_);" d="M2800.52,2188.97l27.73-277.78
						c0,0-22.54-33.37-103.23-32.68c-80.69,0.69-96.43,43.99-97.6,330.38l85.43,12.51L2800.52,2188.97z"/>
					
						<linearGradient id="SVGID_00000165220896598489642410000005821823923542680506_" gradientUnits="userSpaceOnUse" x1="296.3409" y1="1173.0305" x2="517.378" y2="1173.0305" gradientTransform="matrix(-1 0 0 -1 3268.2031 3148.2554)">
						<stop  offset="3.597120e-03" style="stop-color:#E38DDD"/>
						<stop  offset="1" style="stop-color:#494CF4"/>
					</linearGradient>
					
						<path style="opacity:0.6;fill:url(#SVGID_00000165220896598489642410000005821823923542680506_);enable-background:new    ;" d="
						M2828.25,1911.2c0,0,52.75-322.67,81.4-409.84c12.48-37.95,32.93-42.85,52.05-36.29c10.21,18.64,13.37,41.32,6.53,63.66
						c-49.77,162.57-151.77,538.98-122.34,809.55c4.81,44.22-14.28,87.68-49.6,114.73l-45.46,34.82
						c4.23-178.04,14.49-543.39,28.01-573.94C2796.77,1873.35,2828.25,1911.2,2828.25,1911.2z"/>
					
						<linearGradient id="SVGID_00000181060413160050813640000011039339966527716782_" gradientUnits="userSpaceOnUse" x1="1404.3488" y1="1351.0743" x2="1156.2112" y2="781.4847" gradientTransform="matrix(-1 0 0 -1 3268.2031 3148.2554)">
						<stop  offset="3.597120e-03" style="stop-color:#E38DDD"/>
						<stop  offset="1" style="stop-color:#494CF4"/>
					</linearGradient>
					<path style="fill:url(#SVGID_00000181060413160050813640000011039339966527716782_);" d="M2187.66,2070.2l-4.23-105.35
						c0,0-5.32-20.49-70.25-38.18c-51.14-13.93-199.22-43.33-259.82-55.19c-16.77-3.28-33.89-4.31-50.93-2.98
						c-4.15,0.32-8.34,0.63-12.12,0.85c-20.08,1.22-35.61,18.1-35.19,38.21l4.55,216.46l82.83,15.21L2187.66,2070.2z"/>
					
						<linearGradient id="SVGID_00000111163909115287988170000011270284003065909163_" gradientUnits="userSpaceOnUse" x1="1366.0479" y1="1230.7316" x2="1219.4215" y2="962.8568" gradientTransform="matrix(-1 0 0 -1 3268.2031 3148.2554)">
						<stop  offset="3.597120e-03" style="stop-color:#E38DDD"/>
						<stop  offset="1" style="stop-color:#494CF4"/>
					</linearGradient>
					
						<path style="opacity:0.6;fill:url(#SVGID_00000111163909115287988170000011270284003065909163_);enable-background:new    ;" d="
						M1839.77,2085.99c32.59-39.39-7.32-113.82,29.2-139.4c19.16-13.42,41.45-0.86,106.15,15.33
						c49.19,12.31,164.44,41.17,178.58,16.92c3.28-5.62,3.06-17.5-21.14-46.22c46.61,16.03,50.86,32.24,50.86,32.24l4.24,105.35
						l-345.16,69.04l-82.83-15.21l-0.32-15.16C1803.75,2111.57,1827.31,2101.05,1839.77,2085.99z"/>
				</g>
			</g>
		</g>
		<g>
			
				<linearGradient id="SVGID_00000145778564200472767370000006697966597745485469_" gradientUnits="userSpaceOnUse" x1="980.9656" y1="1209.7117" x2="1015.9122" y2="161.3424" gradientTransform="matrix(1 0 0 -1 0 3148.2554)">
				<stop  offset="0" style="stop-color:#494CF4"/>
				<stop  offset="0.9964" style="stop-color:#6165D7"/>
			</linearGradient>
			<path style="fill:url(#SVGID_00000145778564200472767370000006697966597745485469_);" d="M1357.28,2432.29h-7.04
				c-76.82,0-139.1-59.63-139.1-136.45c0-51.54-41.78-90.67-93.32-90.67H881.88c-51.54,0-93.32,40.55-93.32,92.09
				c0,76.82-62.28,138.48-139.1,138.48c-98.22,0-177.83,78.74-177.83,176.96c0,22.37,18.13,39.62,40.5,39.62h982.49
				c22.37,0,40.5-18.98,40.5-41.34C1535.12,2512.75,1455.5,2432.29,1357.28,2432.29z"/>
			
				<linearGradient id="SVGID_00000079450313115155176840000008028918056563925172_" gradientUnits="userSpaceOnUse" x1="1010.0996" y1="1296.1755" x2="996.0131" y2="836.0132" gradientTransform="matrix(1 0 0 -1 0 3148.2554)">
				<stop  offset="0" style="stop-color:#494CF4"/>
				<stop  offset="0.9964" style="stop-color:#6165D7"/>
			</linearGradient>
			<path style="fill:url(#SVGID_00000079450313115155176840000008028918056563925172_);" d="M1130.15,2262.57
				c0,71.98-60.65,130.29-132.62,130.29c-71.98,0-132.62-58.32-132.62-130.29v-1.41c7.1-42.4,23.46-79.87,55.15-103.32
				c20.15-15,45.88-24.23,72.65-25.43c1.97-0.07,4.52-0.14,6.57-0.14c29.02,0,56.14,9.51,77.76,25.57
				C1109.08,2181.51,1130.15,2219.61,1130.15,2262.57z"/>
			
				<linearGradient id="SVGID_00000011015530390226267260000002288678340469944203_" gradientUnits="userSpaceOnUse" x1="1013.1743" y1="1560.6581" x2="999.1537" y2="1102.6516" gradientTransform="matrix(1 0 0 -1 0 3148.2554)">
				<stop  offset="0" style="stop-color:#494CF4"/>
				<stop  offset="0.9964" style="stop-color:#6165D7"/>
			</linearGradient>
			<path style="fill:url(#SVGID_00000011015530390226267260000002288678340469944203_);" d="M1077.83,1885.78v280.35h-68.82
				c-3.66,0-7.18,0-10.56,0h-76.76v-280.35H1077.83z"/>
			
				<linearGradient id="SVGID_00000129164839285156468910000011022336415640360121_" gradientUnits="userSpaceOnUse" x1="869.2053" y1="1018.6224" x2="1015.0596" y2="1018.6224" gradientTransform="matrix(1 0 0 -1 0 3148.2554)">
				<stop  offset="0" style="stop-color:#494CF4"/>
				<stop  offset="0.9964" style="stop-color:#6165D7"/>
			</linearGradient>
			<path style="opacity:0.5;fill:url(#SVGID_00000129164839285156468910000011022336415640360121_);enable-background:new    ;" d="
				M1009.01,2063.61c-10.28,16.2-16.06,45.43-15.14,68.81c0.63,18.17,5.35,32.75,15.14,35.07c-3.66-0.14-7.18-0.14-10.56,0
				c-73.88,2.82-94.65,63.67-71.63,95.08c-29.16-4.86-48.59-3.03-57.61-1.41c0.5-42.4,20.53-79.87,52.47-103.32V1996.7l76.98,10
				C998.66,2006.7,1027.18,2034.87,1009.01,2063.61z"/>
			
				<linearGradient id="SVGID_00000154383801462376365020000015550578143208630941_" gradientUnits="userSpaceOnUse" x1="1014.6147" y1="1218.37" x2="1050.0914" y2="154.096" gradientTransform="matrix(1 0 0 -1 0 3148.2554)">
				<stop  offset="0" style="stop-color:#494CF4"/>
				<stop  offset="0.9964" style="stop-color:#6165D7"/>
			</linearGradient>
			<path style="fill:url(#SVGID_00000154383801462376365020000015550578143208630941_);" d="M1570.33,2650.01
				c0,1.06-0.04,2.13-0.14,3.19c-1.6,20.94-19.06,38.15-40.35,38.15H547.35c-22.39,0-40.53-19.59-40.53-41.95
				c0-98.19,79.63-179.28,177.86-179.28c76.8,0,139.08-62.94,139.08-139.77c0-30.59,14.73-57.76,37.47-75.5c0.04,0,0.04,0,0.04,0
				c15.58-10.65,34.88-17.74,55.82-17.74h235.92c51.53,0,93.33,42.69,93.33,94.22c0,76.83,62.28,140,139.08,140h7.06
				C1490.73,2471.33,1570.33,2551.78,1570.33,2650.01z"/>
			
				<linearGradient id="SVGID_00000039833543964347335950000010226593329149075119_" gradientUnits="userSpaceOnUse" x1="506.4654" y1="1881.7477" x2="1493.0354" y2="1881.7477" gradientTransform="matrix(1 0 0 -1 0 3148.2554)">
				<stop  offset="0" style="stop-color:#494CF4"/>
				<stop  offset="0.9964" style="stop-color:#6165D7"/>
			</linearGradient>
			<path style="fill:url(#SVGID_00000039833543964347335950000010226593329149075119_);" d="M1493.04,999.98v532.03
				c0,237.56-170.03,435.99-394.99,479.23c-30,5.85-61.08,9.39-92.78,9.39h-10.84c-269.26,0-487.96-219.37-487.96-488.63V999.97
				c0-255.94,197.39-465.82,448.19-485.96c13.03-1.06,26.45-1.62,39.77-1.62h10.84C1274.53,512.4,1493.04,730.73,1493.04,999.98z"/>
			<path class="st5" d="M1439.8,1537.07c0,163.18-132.29,295.47-295.47,295.47h-65.58c-163.19,0-295.47-132.29-295.47-295.47
				v-509.18c0-163.18,132.29-295.47,295.47-295.47h65.58c163.19,0,295.47,132.29,295.47,295.47V1537.07z"/>
			
				<linearGradient id="SVGID_00000014614182376953695850000016646071393349829034_" gradientUnits="userSpaceOnUse" x1="811.6655" y1="1865.7777" x2="1407.8555" y2="1865.7777" gradientTransform="matrix(1 0 0 -1 0 3148.2554)">
				<stop  offset="0" style="stop-color:#444B8C"/>
				<stop  offset="0.9964" style="stop-color:#26264F"/>
			</linearGradient>
			<path style="fill:url(#SVGID_00000014614182376953695850000016646071393349829034_);" d="M1407.86,1028.11
				c0-147.63-119.68-267.3-267.3-267.3h-61.59c-147.63,0-267.3,119.67-267.3,267.3v508.74c0,147.63,119.68,267.3,267.3,267.3h61.59
				c147.63,0,267.3-119.67,267.3-267.3L1407.86,1028.11L1407.86,1028.11z"/>
			
				<linearGradient id="SVGID_00000097484628946333587910000009327256798437639847_" gradientUnits="userSpaceOnUse" x1="974.0253" y1="2026.9377" x2="1327.9253" y2="2026.9377" gradientTransform="matrix(1 0 0 -1 0 3148.2554)">
				<stop  offset="0" style="stop-color:#494CF4"/>
				<stop  offset="0.9964" style="stop-color:#6165D7"/>
			</linearGradient>
			
				<circle style="opacity:0.6;fill:url(#SVGID_00000097484628946333587910000009327256798437639847_);enable-background:new    ;" cx="1150.98" cy="1121.32" r="176.95"/>
			
				<linearGradient id="SVGID_00000067234518852148109500000002787743764476309680_" gradientUnits="userSpaceOnUse" x1="1021.5654" y1="2024.2977" x2="1299.7654" y2="2024.2977" gradientTransform="matrix(1 0 0 -1 0 3148.2554)">
				<stop  offset="0" style="stop-color:#444B8C"/>
				<stop  offset="0.9964" style="stop-color:#26264F"/>
			</linearGradient>
			<circle style="fill:url(#SVGID_00000067234518852148109500000002787743764476309680_);" cx="1160.67" cy="1123.96" r="139.1"/>
			
				<linearGradient id="SVGID_00000091706924916984906140000010706532901802159242_" gradientUnits="userSpaceOnUse" x1="985.1752" y1="1633.2677" x2="1301.2354" y2="1633.2677" gradientTransform="matrix(1 0 0 -1 0 3148.2554)">
				<stop  offset="0" style="stop-color:#494CF4"/>
				<stop  offset="0.9964" style="stop-color:#6165D7"/>
			</linearGradient>
			
				<circle style="opacity:0.6;fill:url(#SVGID_00000091706924916984906140000010706532901802159242_);enable-background:new    ;" cx="1143.21" cy="1514.99" r="158.03"/>
			
				<linearGradient id="SVGID_00000032610442731693586780000006317452126468686527_" gradientUnits="userSpaceOnUse" x1="1027.6354" y1="1630.9077" x2="1276.0753" y2="1630.9077" gradientTransform="matrix(1 0 0 -1 0 3148.2554)">
				<stop  offset="0" style="stop-color:#444B8C"/>
				<stop  offset="0.9964" style="stop-color:#26264F"/>
			</linearGradient>
			<circle style="fill:url(#SVGID_00000032610442731693586780000006317452126468686527_);" cx="1151.86" cy="1517.35" r="124.22"/>
			
				<linearGradient id="SVGID_00000153706899154151879370000008857364834950572972_" gradientUnits="userSpaceOnUse" x1="1094.9254" y1="2024.0077" x2="1241.0653" y2="2024.0077" gradientTransform="matrix(1 0 0 -1 0 3148.2554)">
				<stop  offset="0" style="stop-color:#444B8C"/>
				<stop  offset="0.9964" style="stop-color:#26264F"/>
			</linearGradient>
			
				<circle style="opacity:0.3;fill:url(#SVGID_00000153706899154151879370000008857364834950572972_);enable-background:new    ;" cx="1168" cy="1124.25" r="73.07"/>
			
				<linearGradient id="SVGID_00000008119064626478257800000006250229878325229443_" gradientUnits="userSpaceOnUse" x1="1094.9254" y1="1629.5977" x2="1241.0653" y2="1629.5977" gradientTransform="matrix(1 0 0 -1 0 3148.2554)">
				<stop  offset="0" style="stop-color:#444B8C"/>
				<stop  offset="0.9964" style="stop-color:#26264F"/>
			</linearGradient>
			
				<circle style="opacity:0.3;fill:url(#SVGID_00000008119064626478257800000006250229878325229443_);enable-background:new    ;" cx="1168" cy="1518.66" r="73.07"/>
			
				<linearGradient id="SVGID_00000087405591260890218570000010331995333505205897_" gradientUnits="userSpaceOnUse" x1="491.502" y1="1197.8833" x2="526.7177" y2="141.435" gradientTransform="matrix(1 0 0 -1 0 3148.2554)">
				<stop  offset="0" style="stop-color:#494CF4"/>
				<stop  offset="0.9964" style="stop-color:#6165D7"/>
			</linearGradient>
			<path style="fill:url(#SVGID_00000087405591260890218570000010331995333505205897_);" d="M472.69,2593.51
				c0,0-13.39,64.35,23.59,82.83c36.98,18.49,63.39,12.33,63.39,12.33L472.69,2593.51z"/>
			<path class="st38" d="M1493.04,999.98v532.03c0,237.56-170.03,435.47-394.99,478.71c56.42-17.18,102.79-94.38,109.55-188.82
				c0.7-9.58,0.96-19.3,0.75-29.23c-0.63-40.36-8.6-82.9-26-124.59c-3.87-9.3-8.25-18.52-13.04-27.68
				c-10.7-20.28-23.73-40.21-39.44-59.44c-0.07-0.07-0.07-0.07-0.14-0.14c-11.91-14.58-22.68-29.02-32.4-43.53
				c-20.21-30.29-35.71-60.5-46.98-91.49c-5.63-15.57-10.21-31.27-13.8-47.33c-10.5-46.62-12.46-95.5-7.46-148.96
				c1.83-19.79,4.57-40.21,8.16-61.34c9.3-53.88,24.16-112.55,43.32-177.83c5.5-18.73,11.27-38.03,17.47-57.89
				c3.52-11.48,7.18-23.17,10.98-35.07c19.09-60.22,23.8-112.83,18.95-158.47c-0.99-9.72-2.47-19.09-4.3-28.17
				c-24.65-122.13-118.46-188.96-168.82-216.71c13.03-1.06,26.27-1.62,39.58-1.62h10.84
				C1274.53,512.4,1493.04,730.73,1493.04,999.98z"/>
			
				<linearGradient id="SVGID_00000173881730761652909230000007020340484976862848_" gradientUnits="userSpaceOnUse" x1="1015.3115" y1="1192.2596" x2="1049.5977" y2="163.7052" gradientTransform="matrix(1 0 0 -1 0 3148.2554)">
				<stop  offset="0" style="stop-color:#494CF4"/>
				<stop  offset="0.9964" style="stop-color:#6165D7"/>
			</linearGradient>
			<path style="opacity:0.3;fill:url(#SVGID_00000173881730761652909230000007020340484976862848_);enable-background:new    ;" d="
				M1570.19,2653.2c-1.6,20.94-19.06,38.15-40.35,38.15H547.35c-22.39,0-40.53-19.59-40.53-41.95
				c0-98.19,79.63-179.28,177.86-179.28c76.8,0,139.08-62.94,139.08-139.77c0-30.59,14.73-57.76,37.47-75.5c0.04,0,0.04,0,0.04,0
				c3.12,3.55,5.75,3.74,7.91,5.84c0,0-19.59,145.35,85.67,167.81c105.22,22.46,204.59,15.49,240.08,124.33
				C1224.07,2642.22,1452.72,2589.68,1570.19,2653.2z"/>
		</g>
		<g>
			
				<linearGradient id="SVGID_00000085212946800067933070000001574989484170093225_" gradientUnits="userSpaceOnUse" x1="5224.0845" y1="1331.8329" x2="5213.9268" y2="1131.2211" gradientTransform="matrix(-1 0 0 -1 7505.9155 3148.2554)">
				<stop  offset="0" style="stop-color:#FF9085"/>
				<stop  offset="1" style="stop-color:#FB6FBB"/>
			</linearGradient>
			<polygon style="fill:url(#SVGID_00000085212946800067933070000001574989484170093225_);" points="2292.54,1970.41 
				1818.66,1851.88 1794.96,1967.01 2228.78,2167.23 2572.28,2082.38 2779.5,1878.92 			"/>
			
				<linearGradient id="SVGID_00000156558615650251269370000010796842978429866114_" gradientUnits="userSpaceOnUse" x1="5224.0845" y1="1331.8329" x2="5213.9268" y2="1131.2211" gradientTransform="matrix(-1 0 0 -1 7505.9155 3148.2554)">
				<stop  offset="0" style="stop-color:#311944"/>
				<stop  offset="1" style="stop-color:#A03976"/>
			</linearGradient>
			<polygon style="fill:url(#SVGID_00000156558615650251269370000010796842978429866114_);" points="2292.54,1970.41 
				1818.66,1851.88 1794.96,1967.01 2228.78,2167.23 2572.28,2082.38 2779.5,1878.92 			"/>
			
				<linearGradient id="SVGID_00000150064679006955692650000010221275022303903670_" gradientUnits="userSpaceOnUse" x1="5198.4902" y1="1151.8693" x2="5792.2139" y2="1151.8693" gradientTransform="matrix(-1 0 0 -1 7505.9155 3148.2554)">
				<stop  offset="0" style="stop-color:#311944"/>
				<stop  offset="1" style="stop-color:#A03976"/>
			</linearGradient>
			<path style="fill:url(#SVGID_00000150064679006955692650000010221275022303903670_);" d="M2307.43,2129.77
				c-94.18-50.49-163.74-101.92-210.96-140.8c-92.9-76.49-135.52-134.19-229.57-156.99c-16.81-4.07-112.57-27.29-143.48,15.24
				c-34.21,47.08,32.3,145.54,40.38,157.5c120.16,177.85,426.14,169.55,522.12,163.79
				C2293.1,2155.59,2300.27,2142.68,2307.43,2129.77z"/>
			
				<linearGradient id="SVGID_00000122719082250469565210000011965798122235219626_" gradientUnits="userSpaceOnUse" x1="5198.4863" y1="1150.4833" x2="5792.2012" y2="1150.4833" gradientTransform="matrix(-1 0 0 -1 7505.9155 3148.2554)">
				<stop  offset="0" style="stop-color:#311944"/>
				<stop  offset="1" style="stop-color:#A03976"/>
			</linearGradient>
			<path style="opacity:0.3;fill:url(#SVGID_00000122719082250469565210000011965798122235219626_);enable-background:new    ;" d="
				M1723.43,1847.22c9.03-12.43,23.66-19.13,40.18-22.45c-5.5,19.03-6,36.9,0.87,52.5c18.78,42.65,74.37,29.51,113.43,79.57
				c38.35,49.16,11.8,96.54,45.71,116.81c38.86,23.24,87.04-31.05,128.66-5.08c28.3,17.66,19.5,51.16,52.48,69.41
				c22.79,12.61,45.14,6.65,71.1,3.39c29.76-3.74,70.54-4.54,121.72,6.15c-3.88,7-7.76,13.99-11.65,20.99
				c-95.98,5.77-401.96,14.07-522.12-163.79C1755.74,1992.76,1689.22,1894.3,1723.43,1847.22z"/>
			
				<linearGradient id="SVGID_00000066500203655521638440000012081535101333149088_" gradientUnits="userSpaceOnUse" x1="5366.6133" y1="920.8478" x2="5252.3413" y2="1063.0529" gradientTransform="matrix(-1 0 0 -1 7505.9155 3148.2554)">
				<stop  offset="0" style="stop-color:#311944"/>
				<stop  offset="1" style="stop-color:#6B3976"/>
			</linearGradient>
			<path style="fill:url(#SVGID_00000066500203655521638440000012081535101333149088_);" d="M2236.23,2156.34
				c0,0-17.26-12.38-42.3-3.94c-25.04,8.43-64.81,15.24-64.75,27.48s39.85,19.91,67.34,14.88
				C2222.82,2189.95,2243.5,2167.09,2236.23,2156.34z"/>
			
				<linearGradient id="SVGID_00000042712886481443124220000010116012293956988335_" gradientUnits="userSpaceOnUse" x1="5296.4556" y1="954.6163" x2="5139.0112" y2="1152.6909" gradientTransform="matrix(-1 0 0 -1 7505.9155 3148.2554)">
				<stop  offset="0" style="stop-color:#FFC444"/>
				<stop  offset="0.9964" style="stop-color:#F36F56"/>
			</linearGradient>
			<path style="fill:url(#SVGID_00000042712886481443124220000010116012293956988335_);" d="M2261.52,2135.44l-46.09,14.83
				c0,0-7.49,12.47,2.62,20.38c10.1,7.91,45.21-8.82,45.21-8.82L2261.52,2135.44z"/>
			
				<linearGradient id="SVGID_00000029729072648961766770000016606392419696758164_" gradientUnits="userSpaceOnUse" x1="4957.5015" y1="1158.5095" x2="4826.6821" y2="886.4053" gradientTransform="matrix(-1 0 0 -1 7505.9155 3148.2554)">
				<stop  offset="0" style="stop-color:#311944"/>
				<stop  offset="1" style="stop-color:#A03976"/>
			</linearGradient>
			<path style="fill:url(#SVGID_00000029729072648961766770000016606392419696758164_);" d="M2902.13,1922.98
				c13.61,79.23-157.39,164.94-196.54,184.57c-79.78,39.99-229.9,96.44-452.7,74.87c-2.96-17.78-5.93-35.55-8.89-53.33
				c29.43-10.08,73.05-26.47,123.66-51.37c86.38-42.49,119.17-72.83,239.03-145.3c132.63-80.19,171.27-90.47,210.78-80.55
				C2851.28,1860.36,2895.81,1886.16,2902.13,1922.98z"/>
			
				<linearGradient id="SVGID_00000160165421013417529970000003168094884663979413_" gradientUnits="userSpaceOnUse" x1="4903.8384" y1="825.4664" x2="5187.251" y2="1434.8031" gradientTransform="matrix(-1 0 0 -1 7505.9155 3148.2554)">
				<stop  offset="3.597000e-03" style="stop-color:#F36F56"/>
				<stop  offset="1" style="stop-color:#FFC444"/>
			</linearGradient>
			<path style="fill:url(#SVGID_00000160165421013417529970000003168094884663979413_);" d="M2723.95,1772.31
				c28.91-104.54-18.81-245.6-119.35-313.61c-82.07-55.51-178.22-51.91-208.23-50.79c-32.85,1.23-29.45,5.49-132.84,24.62
				c-143.54,26.56-156.79,20.12-198.55,40.13c-78.51,37.63-116.61,105.99-123.74,119.3c-36.49,68.08-66.18,194.64,3.12,256.53
				c39.39,35.19,94.62,35.04,125.7,31.74c2.12-13.97,4.23-27.93,6.35-41.9c-6.32-4.9-43.64-34.81-48.25-87.61
				c-5.3-60.68,37.12-99.85,41.9-104.12c15.04,29.04,33.56,73.14,41.9,129.51c10.77,72.79-0.38,132.65-9.82,167.85
				c37.96,20.84,100.73,49.11,182.5,58.16c61.6,6.82,137.88,15.25,186.65-22.85c68.81-53.78,74.63-193.82,6.67-339.58
				c24.88,16.66,60.91,46.81,75.86,94.53c2.26,7.22,6.09,21.37,7.62,76.18C2564.18,1908.87,2694,1880.64,2723.95,1772.31z"/>
			
				<linearGradient id="SVGID_00000122715065930558262130000000894718791868759699_" gradientUnits="userSpaceOnUse" x1="5150.6016" y1="1640.4222" x2="5172.1865" y2="1291.256" gradientTransform="matrix(-1 0 0 -1 7505.9155 3148.2554)">
				<stop  offset="3.597000e-03" style="stop-color:#F36F56"/>
				<stop  offset="1" style="stop-color:#FFC444"/>
			</linearGradient>
			<path style="opacity:0.3;fill:url(#SVGID_00000122715065930558262130000000894718791868759699_);enable-background:new    ;" d="
				M2257.97,1844.68c34.63,4.25,44.05,40.2,76.18,38.09c69.91-4.58,126.03-125.61,96.5-191.72c-19.25-43.1-69.45-50.62-66.02-78.72
				c2.74-22.48,37.58-39.79,66.02-40.63c44.29-1.31,73.54,37.25,83.8,50.79c23.98,31.63,29.16,66.36,29.7,88.69
				c-17.6-34.53-45.63-57.71-66.2-71.49c67.96,145.76,62.14,285.8-6.67,339.58c-48.76,38.11-125.04,29.67-186.65,22.85
				c-66.37-7.34-120.21-27.35-158.44-45.77C2163.34,1895.89,2210.65,1838.88,2257.97,1844.68z"/>
			
				<linearGradient id="SVGID_00000070095275770095294790000005033867169162158237_" gradientUnits="userSpaceOnUse" x1="4963.4399" y1="1185.0076" x2="5369.6499" y2="1185.0076" gradientTransform="matrix(-1 0 0 -1 7505.9155 3148.2554)">
				<stop  offset="0" style="stop-color:#494CF4"/>
				<stop  offset="0.9964" style="stop-color:#6165D7"/>
			</linearGradient>
			<polygon style="fill:url(#SVGID_00000070095275770095294790000005033867169162158237_);" points="2137.3,1943.3 2542.48,1937.25 
				2434.73,1989.25 2136.27,1969.71 			"/>
			
				<linearGradient id="SVGID_00000132062873901422154460000015815833626680185012_" gradientUnits="userSpaceOnUse" x1="4949.1401" y1="1172.0028" x2="5091.0703" y2="1172.0028" gradientTransform="matrix(-1 0 0 -1 7505.9155 3148.2554)">
				<stop  offset="0" style="stop-color:#444B8C"/>
				<stop  offset="0.9964" style="stop-color:#26264F"/>
			</linearGradient>
			<path style="fill:url(#SVGID_00000132062873901422154460000015815833626680185012_);" d="M2556.78,1948.01L2556.78,1948.01
				c0,7.59-4.74,14.36-11.87,16.95l-129.47,50.75l-0.59-35.19l127.63-43.28C2549.64,1935.19,2556.78,1940.56,2556.78,1948.01z"/>
			
				<linearGradient id="SVGID_00000029010237655177885500000001894530958701211817_" gradientUnits="userSpaceOnUse" x1="4746.667" y1="898.5685" x2="5030.0791" y2="1507.9044" gradientTransform="matrix(-1 0 0 -1 7505.9155 3148.2554)">
				<stop  offset="3.597000e-03" style="stop-color:#F36F56"/>
				<stop  offset="1" style="stop-color:#FFC444"/>
			</linearGradient>
			<path style="fill:url(#SVGID_00000029010237655177885500000001894530958701211817_);" d="M2704.36,1702.65
				c-31.27-29.59-107.97-10.95-136.58,31.57c-21.06,31.3-3.63,57.06-19.05,96.5c-18.88,48.31-90.11,91.99-133.89,106.53
				c6.85,14.75,4.84,18.57,11.69,33.32c27.85-3.48,229.13-34.31,278.37-153.82C2707.47,1810.52,2737.89,1734.38,2704.36,1702.65z"/>
			
				<linearGradient id="SVGID_00000062185868591351942180000001139411599421027746_" gradientUnits="userSpaceOnUse" x1="5141.1265" y1="1585.3741" x2="5273.0898" y2="1782.877" gradientTransform="matrix(-1 0 0 -1 7505.9155 3148.2554)">
				<stop  offset="3.597000e-03" style="stop-color:#F36F56"/>
				<stop  offset="1" style="stop-color:#FFC444"/>
			</linearGradient>
			<path style="fill:url(#SVGID_00000062185868591351942180000001139411599421027746_);" d="M2247.47,1390.64
				c0,0,32.77,35.43,59.97,39.12s66.51-3.54,73.28,0s-34.16,18.1-66.62,27c-32.46,8.91-91.41,26.69-107.7,22.8
				c-16.3-3.9,17.81-24.79,31.31-30.33c13.51-5.54-5.82-33.99-5.82-33.99L2247.47,1390.64z"/>
			<g>
				
					<linearGradient id="SVGID_00000167386515844868203690000014123860249399840953_" gradientUnits="userSpaceOnUse" x1="1314.9294" y1="2318.4873" x2="1255.6716" y2="2468.9912" gradientTransform="matrix(0.9727 0.232 0.232 -0.9727 458.6031 3442.9282)">
					<stop  offset="0" style="stop-color:#311944"/>
					<stop  offset="1" style="stop-color:#6B3976"/>
				</linearGradient>
				<path style="fill:url(#SVGID_00000167386515844868203690000014123860249399840953_);" d="M2215.66,1366.58
					c-4.96-11.25-1.49-28.04,9.28-36.65c9.26-7.4,20.8-6.06,27.7-5.26c20.01,2.32,42.68,16.22,47.03,36.15
					c2.57,11.81-13.56,31.32-16.21,34.89c-3,4.03-6.88,4.75-10.94,7.38c-5.62,3.65-14.45,9.47-28.93,19.28
					c-0.03-3.9-0.32-8.79-1.33-14.26c-0.39-2.1-1.99-10.34-5.61-17.7C2229.42,1375.63,2220.36,1377.24,2215.66,1366.58z"/>
				
					<linearGradient id="SVGID_00000005266926255625277820000011718371718354201505_" gradientUnits="userSpaceOnUse" x1="1248.6017" y1="2202.0176" x2="1322.7413" y2="2202.0176" gradientTransform="matrix(-0.6319 -0.775 0.775 -0.6319 1343.6768 3782.7463)">
					<stop  offset="3.597000e-03" style="stop-color:#F36F56"/>
					<stop  offset="1" style="stop-color:#FFC444"/>
				</linearGradient>
				<path style="fill:url(#SVGID_00000005266926255625277820000011718371718354201505_);" d="M2262.54,1415.7
					c0,0-17.74,18.01-42.85,10.37c-22.48-6.84-13.82-58.82,3.31-66.27c5.72-2.48,15.81-1.7,23.21,2.38
					c4.37,2.41,5.5,4.72,12.72,8.52c6.66,3.5,8.85,3.19,10.56,5.49c2.15,2.88,2.81,8.87-5.17,22.78c5.39-3.39,11.01-3.86,14.31-1.24
					c0.52,0.42,1.84,1.85,2.35,3.68C2282.81,1408,2275.72,1414.22,2262.54,1415.7z"/>
				
					<linearGradient id="SVGID_00000071529084692976631210000000656412704206824375_" gradientUnits="userSpaceOnUse" x1="1296.8314" y1="2311.2773" x2="1237.51" y2="2461.9431" gradientTransform="matrix(0.9727 0.232 0.232 -0.9727 458.6031 3442.9282)">
					<stop  offset="0" style="stop-color:#311944"/>
					<stop  offset="1" style="stop-color:#6B3976"/>
				</linearGradient>
				<path style="fill:url(#SVGID_00000071529084692976631210000000656412704206824375_);" d="M2271.25,1373.36
					c-1.29,0.56,1.11,5.46-0.01,11.33c-2.16,11.4-16.76,22.27-28.68,20.68c-7.05-0.94-7.97-5.53-19.07-9.41
					c-6.88-2.4-12.96-2.88-16.84-2.94c-6.48,11.54-6.01,24.67,0.92,32.33c7.46,8.25,19.72,7.18,24.84,6.74
					c3.43-0.3,14.41-1.24,21.93-9.34c7.84-8.44,3.77-15.59,11.68-20.69c3.99-2.57,8.55-3.02,14.17-8.49
					c1.53-1.49,2.63-2.86,3.33-3.79C2279.1,1382.16,2273.13,1372.55,2271.25,1373.36z"/>
				
					<linearGradient id="SVGID_00000103239519774863233850000012495799087687283332_" gradientUnits="userSpaceOnUse" x1="1283.8816" y1="2182.7605" x2="1298.5718" y2="2182.7605" gradientTransform="matrix(-0.6319 -0.775 0.775 -0.6319 1343.6768 3782.7463)">
					<stop  offset="3.597000e-03" style="stop-color:#F36F56"/>
					<stop  offset="1" style="stop-color:#FFC444"/>
				</linearGradient>
				<path style="fill:url(#SVGID_00000103239519774863233850000012495799087687283332_);" d="M2213.86,1399.56
					c0,0,4.33,3.73,12.96,5.25c0.42,0.07,0.85,0.3,0.85,0.53c0.01,0.85-6.31,3.2-11.01,0.6c-3.34-1.84-5.33-5.88-4.65-6.63
					C2212.3,1399,2213.1,1399.24,2213.86,1399.56z"/>
			</g>
			<g>
				
					<linearGradient id="SVGID_00000094583503139851573830000017416610122366147470_" gradientUnits="userSpaceOnUse" x1="5073.2051" y1="1286.3552" x2="5579.2949" y2="1286.3552" gradientTransform="matrix(-1 0 0 -1 7505.9155 3148.2554)">
					<stop  offset="0" style="stop-color:#444B8C"/>
					<stop  offset="0.9964" style="stop-color:#26264F"/>
				</linearGradient>
				<path style="fill:url(#SVGID_00000094583503139851573830000017416610122366147470_);" d="M2404.1,1733.64l28.56,260.04
					c0.99,8.97-11.58,22.34-20.59,21.91l-418.97-25.72c-6.88-0.33-12.62-5.39-13.78-12.19l-52.59-251.15
					c-1.57-9.14,14.86-18.58,24.13-18.32l439.05,12.35C2397.24,1720.77,2403.3,1726.35,2404.1,1733.64z"/>
				
					<linearGradient id="SVGID_00000016779180467152954530000016347445483596397486_" gradientUnits="userSpaceOnUse" x1="5082.7397" y1="1281.5826" x2="5579.7466" y2="1281.5826" gradientTransform="matrix(-1 0 0 -1 7505.9155 3148.2554)">
					<stop  offset="0" style="stop-color:#444B8C"/>
					<stop  offset="0.9964" style="stop-color:#26264F"/>
				</linearGradient>
				<path style="fill:url(#SVGID_00000016779180467152954530000016347445483596397486_);" d="M2394.53,1741.22l28.56,260.04
					c0.99,8.97-6.28,16.7-15.3,16.28l-424.27-20.08c-6.88-0.33-12.62-5.39-13.78-12.19l-43.35-252.3
					c-1.57-9.14,5.62-17.43,14.89-17.17l439.06,12.34C2387.67,1728.35,2393.72,1733.93,2394.53,1741.22z"/>
			</g>
			
				<linearGradient id="SVGID_00000003827870400622699780000016467491752787582141_" gradientUnits="userSpaceOnUse" x1="5082.7412" y1="1275.8546" x2="5542.1602" y2="1275.8546" gradientTransform="matrix(-1 0 0 -1 7505.9155 3148.2554)">
				<stop  offset="0" style="stop-color:#444B8C"/>
				<stop  offset="0.9964" style="stop-color:#26264F"/>
			</linearGradient>
			<path style="opacity:0.3;fill:url(#SVGID_00000003827870400622699780000016467491752787582141_);enable-background:new    ;" d="
				M2145.39,1936.52c37.05-15.7,23.97-45.64,67.72-82.95c57.71-49.22,116.53-27.87,137.13-66.02c6.41-11.88,9.47-30.37-1.69-60.3
				l31.79,0.89c7.33,0.21,13.39,5.79,14.19,13.08l28.56,260.04c0.98,8.97-6.28,16.7-15.3,16.28l-424.27-20.08
				c-6.88-0.33-12.62-5.39-13.78-12.19l-5.98-34.82c12.87-7.16,28.26-13.68,46.2-17.32
				C2072.2,1920.51,2102.74,1954.6,2145.39,1936.52z"/>
		</g>
		<g>
			<path class="st2" d="M2145.28,1669.68c0,8.89-7.21,16.1-16.1,16.1s-16.1-7.21-16.1-16.1s7.21-16.1,16.1-16.1
				S2145.28,1660.78,2145.28,1669.68z"/>
			<path class="st2" d="M2129.18,1534.72c-33.64,0-64.4,12.31-88.03,32.67c-4.85,4.18-5.2,11.56-0.67,16.09l0.45,0.45
				c4.03,4.03,10.5,4.32,14.81,0.6c19.7-17.02,45.36-27.33,73.44-27.33c28.08,0,53.74,10.31,73.44,27.33
				c4.31,3.72,10.78,3.43,14.81-0.6l0.45-0.45c4.53-4.53,4.18-11.91-0.67-16.09C2193.58,1547.04,2162.82,1534.72,2129.18,1534.72z"
				/>
			<path class="st2" d="M2129.18,1572.21c-23.24,0-44.57,8.15-61.31,21.73c-5.01,4.06-5.33,11.61-0.77,16.18l0.08,0.08
				c4,4,10.33,4.22,14.73,0.67c12.94-10.42,29.37-16.66,47.27-16.66s34.34,6.24,47.27,16.66c4.4,3.55,10.73,3.33,14.73-0.67
				l0.08-0.08c4.56-4.56,4.24-12.11-0.77-16.18C2173.75,1580.36,2152.42,1572.21,2129.18,1572.21z"/>
			<path class="st2" d="M2093.92,1636.93c3.96,3.96,10.1,4.4,14.78,1.34c5.89-3.85,12.92-6.08,20.48-6.08s14.59,2.24,20.48,6.08
				c4.69,3.06,10.83,2.61,14.78-1.34l0.05-0.05c4.85-4.85,4.09-12.92-1.58-16.79c-9.61-6.56-21.22-10.39-33.73-10.39
				s-24.12,3.84-33.73,10.39c-5.67,3.87-6.43,11.94-1.58,16.79L2093.92,1636.93z"/>
		</g>
		<g>
			
				<linearGradient id="SVGID_00000115475375159568256920000012468452847567540667_" gradientUnits="userSpaceOnUse" x1="5640.6309" y1="2897.9009" x2="5413.1519" y2="2679.2556" gradientTransform="matrix(-1 0 0 -1 7640.2798 3148.2554)">
				<stop  offset="0" style="stop-color:#311944"/>
				<stop  offset="1" style="stop-color:#A03976"/>
			</linearGradient>
			<path style="fill:url(#SVGID_00000115475375159568256920000012468452847567540667_);" d="M2453.54,1272.73
				c20.07,0.58,39.64-4.48,56.59-14.64c51.65-30.96,127.98-82.1,196.65-149.04c87.13-84.94,137.19-171.28,148.15-256.06l0.17-1.33
				l2.13-361.77c0-71.5-46.63-129.53-134.19-167.67c-72.34-31.51-168.21-47.12-269.5-44.19c-100.11,2.9-192.74,23.55-261.3,57.97
				c-81.5,40.91-124.27,98.41-124.27,166.58l1.94,345.67l0.16,1.27c10.01,81.19,56.07,165.11,137.48,249.97
				c65.3,68.07,139.09,122.01,189.77,155.43C2414.08,1265.99,2433.51,1272.15,2453.54,1272.73z"/>
			
				<linearGradient id="SVGID_00000065774235819928248640000006624700305207643290_" gradientUnits="userSpaceOnUse" x1="5020.2378" y1="2178.1973" x2="4631.5981" y2="1530.4656" gradientTransform="matrix(-1 0 0 -1 7640.2798 3148.2554)">
				<stop  offset="0" style="stop-color:#FF9085"/>
				<stop  offset="1" style="stop-color:#FB6FBB"/>
			</linearGradient>
			<path style="fill:url(#SVGID_00000065774235819928248640000006624700305207643290_);" d="M2433.67,1272.73
				c19.8,0.58,39.12-4.48,55.85-14.64c50.97-30.96,126.29-82.1,194.05-149.04c85.98-84.94,135.38-171.28,146.19-256.06l0.17-1.33
				l2.1-361.77c0-71.5-46.02-129.53-132.41-167.67c-71.38-31.51-165.99-47.12-265.94-44.19c-98.78,2.9-190.19,23.55-257.85,57.97
				c-80.43,40.91-122.62,98.41-122.62,166.58l1.91,345.67l0.15,1.27c9.88,81.19,55.33,165.11,135.67,249.97
				c64.44,68.07,137.25,122.01,187.26,155.43C2394.73,1265.99,2413.91,1272.15,2433.67,1272.73z"/>
			
				<linearGradient id="SVGID_00000057854227080373367200000017226074016323204994_" gradientUnits="userSpaceOnUse" x1="5374.5698" y1="2127.9956" x2="4746.5732" y2="3390.7678" gradientTransform="matrix(-1 0 0 -1 7640.2798 3148.2554)">
				<stop  offset="0" style="stop-color:#FF9085"/>
				<stop  offset="1" style="stop-color:#FB6FBB"/>
			</linearGradient>
			<path style="fill:url(#SVGID_00000057854227080373367200000017226074016323204994_);" d="M2808.13,490.16l-2.11,359.94
				c-23.69,183.65-239.53,332.34-333.53,388.83c-26.93,16.18-61.36,15.22-88.1-2.37c-92.04-60.56-296.05-213.04-317.85-389.61
				l-1.94-344.72C2064.61,246.48,2808.13,223.1,2808.13,490.16z"/>
			
				<linearGradient id="SVGID_00000062884621365145582590000013186457683291999931_" gradientUnits="userSpaceOnUse" x1="4903.4141" y1="2372.9719" x2="5509.7842" y2="2372.9719" gradientTransform="matrix(-1 0 0 -1 7640.2798 3148.2554)">
				<stop  offset="0" style="stop-color:#311944"/>
				<stop  offset="1" style="stop-color:#893976"/>
			</linearGradient>
			<path style="fill:url(#SVGID_00000062884621365145582590000013186457683291999931_);" d="M2428.33,1183.45
				c1.72,0.04,4.33-0.25,6.97-1.84c38.7-23.44,113.73-72.53,179.01-136.65c70.5-69.25,111.17-136.59,120.49-199.83l2.07-353.98
				c-0.09-33.96-26.97-63.03-79.67-86.29c-58.83-25.97-142.39-39.59-228.86-37.54c-85.61,2.03-166.72,19.27-222.92,47.15
				c-49.71,24.66-74.84,53.74-74.92,86.53l1.93,341.73c8.7,61.2,46.87,127.17,113.88,196.52c63.01,65.21,136.6,116.9,175.07,142.03
				C2424.01,1183,2426.61,1183.41,2428.33,1183.45z"/>
			<path class="st2" d="M2437.17,1159.26c39.09-24.07,108.59-70.56,169.24-130.24c66.26-65.21,104.6-127.78,113.61-185.68
				l2.05-351.93c-0.06-24.28-22.38-46.56-66.18-65.95c-55.73-24.68-135.58-37.68-218.72-35.82c-82.34,1.85-159.96,18.11-213.29,44.5
				c-41.44,20.5-62.41,42.87-62.46,66.55l1.92,340.47c8.46,56.17,44.62,117.61,107.87,182.94
				C2329.92,1084.77,2398.26,1133.55,2437.17,1159.26z"/>
			<g>
				
					<linearGradient id="SVGID_00000147184835241803223170000013873726953895756963_" gradientUnits="userSpaceOnUse" x1="5069.1313" y1="1992.9395" x2="5233.6372" y2="2376.7869" gradientTransform="matrix(-1 0 0 -1 7640.2798 3148.2554)">
					<stop  offset="3.597120e-03" style="stop-color:#E38DDD"/>
					<stop  offset="1" style="stop-color:#494CF4"/>
				</linearGradient>
				<path style="fill:url(#SVGID_00000147184835241803223170000013873726953895756963_);" d="M2297.1,711.74l263.19-3.85
					c20.35-0.3,36.95,15.68,36.95,35.67v175c0,19.88-16.53,35.59-36.81,35.11l-262.27-6.17c-18.55-0.44-33.58-16.07-33.67-34.92
					l-0.83-166C2263.56,727.61,2278.49,712.01,2297.1,711.74z"/>
				<path class="st2" d="M2392.35,809.39c-0.06-19.24,15.91-34.82,35.42-33.98c17.29,0.74,31.64,14.86,32.61,32.17
					c0.75,13.43-6.28,25.22-16.99,31.36c-4.55,2.61-6.8,7.92-5.9,13.1l7.61,43.91c0.97,5.59-3.33,10.61-9,10.52l-19.25-0.32
					c-5.63-0.09-9.9-5.22-8.98-10.75l7.35-43.77c0.88-5.23-1.72-10.34-6.28-13.08C2399.03,832.59,2392.38,821.76,2392.35,809.39z"/>
				
					<linearGradient id="SVGID_00000007393922080179177600000005900642767669760431_" gradientUnits="userSpaceOnUse" x1="5009.8833" y1="2029.6372" x2="5173.1582" y2="2410.6118" gradientTransform="matrix(-1 0 0 -1 7640.2798 3148.2554)">
					<stop  offset="3.597120e-03" style="stop-color:#E38DDD"/>
					<stop  offset="1" style="stop-color:#494CF4"/>
				</linearGradient>
				<path style="fill:url(#SVGID_00000007393922080179177600000005900642767669760431_);" d="M2300.77,694.4
					c7.86-0.14,14.22-6.77,14.19-14.82l-0.16-37.89c-0.16-38.06,30.21-70.18,68.12-71.59l85.9-3.18
					c39.44-1.46,71.92,29.47,71.95,68.92l0.03,39.28c0.01,8.34,6.89,14.98,15.4,14.83c8.53-0.15,15.45-7.06,15.45-15.44l-0.01-39.47
					c-0.02-56.42-46.58-100.45-102.87-98.09l-85.94,3.59c-53.83,2.25-96.74,47.98-96.49,101.89l0.18,37.72
					C2286.56,688.16,2292.93,694.54,2300.77,694.4z"/>
			</g>
		</g>
	</g>
</g>
</svg>
