<?xml version="1.0" encoding="utf-8"?>
<!-- Generator: Adobe Illustrator 27.0.0, SVG Export Plug-In . SVG Version: 6.00 Build 0)  -->
<svg version="1.1" xmlns="http://www.w3.org/2000/svg" xmlns:xlink="http://www.w3.org/1999/xlink" x="0px" y="0px"
	 viewBox="0 0 3710 3710" style="enable-background:new 0 0 3710 3710;" xml:space="preserve">
<style type="text/css">
	.st0{display:none;}
	.st1{display:inline;}
	.st2{fill:#FFFFFF;}
	.st3{fill:url(#SVGID_1_);}
	.st4{fill:#BDD0FB;}
	.st5{opacity:0.52;}
	.st6{fill:url(#SVGID_00000053527792748994127940000006663496283106623912_);}
	.st7{fill:url(#SVGID_00000149362138785971814450000001657364234124850820_);}
	.st8{fill:url(#SVGID_00000158716091744034076170000002497152273216022461_);}
	.st9{fill:url(#SVGID_00000125592487445812063870000017677879885614876062_);}
	.st10{fill:url(#SVGID_00000000220348595562739580000003763304307869852553_);}
	.st11{fill:url(#SVGID_00000048482670484805175250000014991109611399323541_);}
	.st12{fill:url(#SVGID_00000112598564170198895460000000874498999300030629_);}
	.st13{fill:url(#SVGID_00000139283276819669215790000018376363903443176623_);}
	.st14{fill:url(#SVGID_00000041263731121862356660000001974263023498849207_);}
	.st15{fill:url(#SVGID_00000119107588082701829280000017991249346903771794_);}
	.st16{fill:url(#SVGID_00000062905811557114729670000013903349029303306153_);}
	.st17{fill:url(#SVGID_00000031176233471167461660000007265418334541960623_);}
	.st18{fill:url(#SVGID_00000002369354812229730420000009783970378481156001_);}
	.st19{fill:url(#SVGID_00000041980034718343936640000009497965564255526051_);}
	.st20{fill:url(#SVGID_00000063632003360193257210000013344717717757029807_);}
	.st21{fill:url(#SVGID_00000137098301313132141600000004511243693596218009_);}
	.st22{fill:url(#SVGID_00000015337765282012056300000017321503784324291246_);}
	.st23{fill:url(#SVGID_00000116953741738634448330000003719943386656464532_);}
	.st24{fill:url(#SVGID_00000054267978264677985250000004320601556471875729_);}
	.st25{fill:url(#SVGID_00000157271456517410158620000007616849780996163482_);}
	.st26{fill:url(#SVGID_00000140003479101607262080000005040006623874703018_);}
	.st27{fill:url(#SVGID_00000118394373857050721310000005335473596004067717_);}
	.st28{fill:url(#SVGID_00000012473944697636768590000002462979743347504033_);}
	.st29{fill:url(#SVGID_00000011007171144490819090000006326640204548797118_);}
	.st30{fill:url(#SVGID_00000063614747997624282610000017330385222244809347_);}
	.st31{fill:url(#SVGID_00000036241214667740301840000009803673770314853251_);}
	.st32{fill:url(#SVGID_00000034800499543991271420000009266688809989558913_);}
	.st33{opacity:0.5;}
	.st34{fill:#91B3FA;}
	.st35{opacity:0.57;fill:#FFFFFF;}
	.st36{fill:#7D97F4;}
	.st37{fill:url(#SVGID_00000141428913628651787790000000680967151001349251_);}
	.st38{fill:url(#SVGID_00000116956491111918705510000003534521977526753190_);}
	.st39{fill:url(#SVGID_00000023963446552195171010000013746290932699599279_);}
	.st40{fill:url(#SVGID_00000132049939494264282990000017897786065195456932_);}
	.st41{fill:url(#SVGID_00000045619661124360274310000013843831578106328202_);}
	.st42{fill:url(#SVGID_00000109720540072559870410000012631336380980875399_);}
	.st43{fill:url(#SVGID_00000130641158233681121070000001970912653339254426_);}
	.st44{fill:url(#SVGID_00000050661687821637613130000008958593989184881546_);}
	.st45{fill:url(#SVGID_00000151540952505173494130000018014788935591012763_);}
	.st46{fill:url(#SVGID_00000098183851702745021130000016805589184825183662_);}
	.st47{fill:url(#SVGID_00000166633598893537518970000006231498065029850779_);}
	.st48{fill:url(#SVGID_00000017479066424121659650000014717565837188947129_);}
	.st49{fill:url(#SVGID_00000021112177188375289780000016697312530223787443_);}
	.st50{fill:url(#SVGID_00000165205304455663684950000012131118010105006736_);}
	.st51{fill:url(#SVGID_00000178179788984551180040000016808706932694540169_);}
	.st52{fill:url(#SVGID_00000159446080025397239460000009184935839610072991_);}
	.st53{fill:url(#SVGID_00000011022396210721872770000006251444580643693478_);}
	.st54{fill:url(#SVGID_00000060718797753176366180000000777239931565340032_);}
	.st55{fill:url(#SVGID_00000134236520564338189390000002892302199348771003_);}
	.st56{fill:url(#SVGID_00000083774027039888588250000016387818450940577445_);}
	.st57{fill:url(#SVGID_00000147927601479597421010000003301340188775340679_);}
	.st58{fill:url(#SVGID_00000175318109834829933490000005106159831928875427_);}
	.st59{fill:url(#SVGID_00000049221716473488482640000002515168164999282565_);}
	.st60{fill:url(#SVGID_00000145756289793192613660000000766146263886921902_);}
	.st61{fill:url(#SVGID_00000007413659719028296310000011166602419869180812_);}
	.st62{fill:url(#SVGID_00000003808034502348633120000001797286398430862474_);}
	.st63{fill:url(#SVGID_00000152243980555379976070000002148534753560094125_);}
	.st64{fill:url(#SVGID_00000103978419393159471040000004252242992137367732_);}
	.st65{opacity:0.3;}
</style>
<g id="Background" class="st0">
	<g class="st1">
		<g>
			<rect class="st2" width="3710" height="3710"/>
		</g>
	</g>
</g>
<g id="Illustration">
	<g>
		<linearGradient id="SVGID_1_" gradientUnits="userSpaceOnUse" x1="3573.9189" y1="4029.532" x2="1127.3884" y2="991.0947">
			<stop  offset="0" style="stop-color:#DAE3FE"/>
			<stop  offset="1" style="stop-color:#E9EFFD"/>
		</linearGradient>
		<path class="st3" d="M2910.68,2824.46c-56.73,58.79-110.42,96.7-152.83,126.65c-498.55,352.09-1088.47,249.46-1213.85,224.39
			c-185.14-37.01-543.01-108.55-801.74-408.03c-391.44-453.09-330.49-1166.92-26.86-1638.13c55.54-86.19,348.91-564.58,945.18-641.3
			c360.86-46.43,781.5,47.21,1086.12,298.41C3386.14,1313.74,3340.62,2378.96,2910.68,2824.46z"/>
		<g>
			<g>
				<path class="st4" d="M996.65,1243.76c0.26-13.32,11.45-24.04,25.17-24.04h832.26c13.91,0,28.68,11.05,28.68,24.56v1886.35
					c0,10.08-5.88,19.75-13.23,26.86c-7.35,7.12-18.19,11.1-28.57,11.08l-841.37-2.23c-10.47-0.03-20.71-4.14-28.03-11.4
					c-7.32-7.27-11.45-17.11-11.25-27.28L996.65,1243.76z"/>
				<g class="st5">
					<polygon class="st2" points="1474.61,1353.4 1746.86,1352.49 1746.76,1319.4 1474.81,1320.24 					"/>
					<polygon class="st2" points="1473.86,1475.25 1747.23,1474.04 1747.13,1440.69 1474.07,1441.82 					"/>
					<polygon class="st2" points="1473.11,1598.11 1747.61,1596.6 1747.51,1562.97 1473.32,1564.4 					"/>
					<polygon class="st2" points="1472.35,1721.99 1747.99,1720.17 1747.88,1686.26 1472.56,1688 					"/>
					<polygon class="st2" points="1471.59,1846.9 1748.37,1844.77 1748.26,1810.58 1471.8,1812.63 					"/>
					<polygon class="st2" points="1470.04,2099.87 1749.14,2097.1 1749.04,2062.34 1470.25,2065.02 					"/>
					<polygon class="st2" points="1467.66,2487.4 1750.33,2483.64 1750.22,2447.98 1467.88,2451.65 					"/>
					<polygon class="st2" points="1470.81,1972.86 1748.76,1970.41 1748.65,1935.93 1471.02,1938.29 					"/>
					<polygon class="st2" points="1469.25,2227.96 1749.54,2224.87 1749.43,2189.81 1469.47,2192.81 					"/>
					<polygon class="st2" points="1468.46,2357.13 1749.93,2353.7 1749.82,2318.35 1468.68,2321.69 					"/>
					<polygon class="st2" points="1466.86,2618.79 1750.73,2614.68 1750.62,2578.72 1467.08,2582.73 					"/>
					<polygon class="st2" points="1466.05,2751.3 1751.14,2746.84 1751.03,2710.57 1466.27,2714.93 					"/>
					<polygon class="st2" points="1465.23,2884.96 1751.55,2880.14 1751.44,2843.56 1465.45,2848.28 					"/>
					<polygon class="st2" points="1464.4,3019.77 1751.96,3014.59 1751.85,2977.69 1464.63,2982.77 					"/>
					<polygon class="st2" points="1117.67,1354.6 1391.63,1353.68 1391.92,1320.49 1118.27,1321.33 					"/>
					<polygon class="st2" points="1115.44,1476.84 1390.54,1475.62 1390.84,1442.16 1116.05,1443.3 					"/>
					<polygon class="st2" points="1113.2,1600.09 1389.44,1598.57 1389.74,1564.83 1113.82,1566.27 					"/>
					<polygon class="st2" points="1110.94,1724.38 1388.33,1722.55 1388.64,1688.53 1111.56,1690.27 					"/>
					<polygon class="st2" points="1108.67,1849.7 1387.22,1847.55 1387.52,1813.25 1109.29,1815.31 					"/>
					<polygon class="st2" points="1104.05,2103.5 1384.96,2100.72 1385.27,2065.83 1104.69,2068.53 					"/>
					<polygon class="st2" points="1096.98,2492.34 1381.49,2488.55 1381.81,2452.77 1097.64,2456.47 					"/>
					<polygon class="st2" points="1106.37,1976.07 1386.09,1973.6 1386.4,1939.01 1107,1941.39 					"/>
					<polygon class="st2" points="1101.72,2232.02 1383.81,2228.9 1384.13,2193.73 1102.36,2196.75 					"/>
					<polygon class="st2" points="1099.36,2361.63 1382.66,2358.18 1382.97,2322.7 1100.01,2326.06 					"/>
					<polygon class="st2" points="1094.59,2624.18 1380.32,2620.04 1380.64,2583.96 1095.24,2588 					"/>
					<polygon class="st2" points="1092.17,2757.15 1379.14,2752.66 1379.46,2716.26 1092.83,2720.66 					"/>
					<polygon class="st2" points="1089.73,2891.27 1377.94,2886.42 1378.27,2849.72 1090.4,2854.46 					"/>
					<polygon class="st2" points="1087.27,3026.56 1376.74,3021.35 1377.07,2984.32 1087.95,2989.43 					"/>
				</g>
			</g>
			<g>
				<path class="st4" d="M519.07,1764.07c0.36-15.41,16.19-28.09,35.58-28.09h733.01c19.65,0,38.95,13.34,38.95,28.96v1395.91
					c0,7.51-5.45,14.72-12.14,20.02c-6.69,5.3-16.61,8.27-26.07,8.25L522,3187.47c-9.54-0.02-18.87-3.08-25.54-8.5
					c-6.67-5.42-10.43-12.9-10.25-20.48L519.07,1764.07z"/>
				<g>
					<g>
						
							<linearGradient id="SVGID_00000009577268102578235890000008698527109859130294_" gradientUnits="userSpaceOnUse" x1="1058.8914" y1="1857.8364" x2="1269.3678" y2="1857.8364">
							<stop  offset="0" style="stop-color:#DAE3FE"/>
							<stop  offset="1" style="stop-color:#E9EFFD"/>
						</linearGradient>
						<polygon style="fill:url(#SVGID_00000009577268102578235890000008698527109859130294_);" points="1058.89,1900.48 
							1267.71,1900.25 1269.37,1815.2 1060.35,1815.2 						"/>
						
							<linearGradient id="SVGID_00000162351218399335594080000014655043276861981372_" gradientUnits="userSpaceOnUse" x1="824.8279" y1="1857.8152" x2="1034.8676" y2="1857.8152">
							<stop  offset="0" style="stop-color:#DAE3FE"/>
							<stop  offset="1" style="stop-color:#E9EFFD"/>
						</linearGradient>
						<polygon style="fill:url(#SVGID_00000162351218399335594080000014655043276861981372_);" points="824.83,1900.43 
							1033.44,1900.21 1034.87,1815.2 826.05,1815.2 						"/>
						
							<linearGradient id="SVGID_00000057869845250982688060000014407883951895938697_" gradientUnits="userSpaceOnUse" x1="591" y1="1857.7938" x2="800.6026" y2="1857.7938">
							<stop  offset="0" style="stop-color:#DAE3FE"/>
							<stop  offset="1" style="stop-color:#E9EFFD"/>
						</linearGradient>
						<polygon style="fill:url(#SVGID_00000057869845250982688060000014407883951895938697_);" points="591,1900.39 799.4,1900.17 
							800.6,1815.2 592,1815.2 						"/>
					</g>
					<g>
						
							<linearGradient id="SVGID_00000183215206310367422930000016520608414480403869_" gradientUnits="userSpaceOnUse" x1="1056.2817" y1="2010.9712" x2="1266.3884" y2="2010.9712">
							<stop  offset="0" style="stop-color:#DAE3FE"/>
							<stop  offset="1" style="stop-color:#E9EFFD"/>
						</linearGradient>
						<polygon style="fill:url(#SVGID_00000183215206310367422930000016520608414480403869_);" points="1056.28,2053.15 
							1264.74,2053.26 1266.39,1968.75 1057.73,1968.69 						"/>
						
							<linearGradient id="SVGID_00000152953188920381659050000009826675637868611252_" gradientUnits="userSpaceOnUse" x1="822.6263" y1="2010.8732" x2="1032.2979" y2="2010.8732">
							<stop  offset="0" style="stop-color:#DAE3FE"/>
							<stop  offset="1" style="stop-color:#E9EFFD"/>
						</linearGradient>
						<polygon style="fill:url(#SVGID_00000152953188920381659050000009826675637868611252_);" points="822.63,2053.03 
							1030.87,2053.14 1032.3,1968.68 823.85,1968.61 						"/>
						
							<linearGradient id="SVGID_00000127031590228748874130000000339439526623542714_" gradientUnits="userSpaceOnUse" x1="589.2053" y1="2010.7756" x2="798.4407" y2="2010.7756">
							<stop  offset="0" style="stop-color:#DAE3FE"/>
							<stop  offset="1" style="stop-color:#E9EFFD"/>
						</linearGradient>
						<polygon style="fill:url(#SVGID_00000127031590228748874130000000339439526623542714_);" points="589.21,2052.91 
							797.24,2053.02 798.44,1968.6 590.2,1968.53 						"/>
					</g>
					<g>
						
							<linearGradient id="SVGID_00000168802015082736384160000013066070733290656422_" gradientUnits="userSpaceOnUse" x1="1053.6813" y1="2162.7764" x2="1263.4193" y2="2162.7764">
							<stop  offset="0" style="stop-color:#DAE3FE"/>
							<stop  offset="1" style="stop-color:#E9EFFD"/>
						</linearGradient>
						<polygon style="fill:url(#SVGID_00000168802015082736384160000013066070733290656422_);" points="1053.68,2204.77 
							1261.77,2204.95 1263.42,2120.74 1055.12,2120.6 						"/>
						
							<linearGradient id="SVGID_00000086663845185407003900000011473523680102839225_" gradientUnits="userSpaceOnUse" x1="820.432" y1="2162.6023" x2="1029.736" y2="2162.6023">
							<stop  offset="0" style="stop-color:#DAE3FE"/>
							<stop  offset="1" style="stop-color:#E9EFFD"/>
						</linearGradient>
						<polygon style="fill:url(#SVGID_00000086663845185407003900000011473523680102839225_);" points="820.43,2204.58 
							1028.32,2204.75 1029.74,2120.59 821.65,2120.45 						"/>
						
							<linearGradient id="SVGID_00000049932422539258830570000013516781711642320566_" gradientUnits="userSpaceOnUse" x1="587.4167" y1="2162.429" x2="796.2862" y2="2162.429">
							<stop  offset="0" style="stop-color:#DAE3FE"/>
							<stop  offset="1" style="stop-color:#E9EFFD"/>
						</linearGradient>
						<polygon style="fill:url(#SVGID_00000049932422539258830570000013516781711642320566_);" points="587.42,2204.39 
							795.09,2204.56 796.29,2120.43 588.41,2120.3 						"/>
					</g>
					<g>
						
							<linearGradient id="SVGID_00000001649513610104896960000013129876862712856731_" gradientUnits="userSpaceOnUse" x1="1051.0896" y1="2314.0552" x2="1260.4606" y2="2314.0552">
							<stop  offset="0" style="stop-color:#DAE3FE"/>
							<stop  offset="1" style="stop-color:#E9EFFD"/>
						</linearGradient>
						<polygon style="fill:url(#SVGID_00000001649513610104896960000013129876862712856731_);" points="1051.09,2355.87 
							1258.82,2356.12 1260.46,2272.2 1052.53,2271.99 						"/>
						
							<linearGradient id="SVGID_00000060742981249715096690000007223600830679496610_" gradientUnits="userSpaceOnUse" x1="818.2451" y1="2313.8059" x2="1027.1837" y2="2313.8059">
							<stop  offset="0" style="stop-color:#DAE3FE"/>
							<stop  offset="1" style="stop-color:#E9EFFD"/>
						</linearGradient>
						<polygon style="fill:url(#SVGID_00000060742981249715096690000007223600830679496610_);" points="818.25,2355.6 
							1025.77,2355.85 1027.18,2271.97 819.46,2271.77 						"/>
						
							<linearGradient id="SVGID_00000018236619096028803810000014690883415117779101_" gradientUnits="userSpaceOnUse" x1="585.6337" y1="2313.5574" x2="794.1396" y2="2313.5574">
							<stop  offset="0" style="stop-color:#DAE3FE"/>
							<stop  offset="1" style="stop-color:#E9EFFD"/>
						</linearGradient>
						<polygon style="fill:url(#SVGID_00000018236619096028803810000014690883415117779101_);" points="585.63,2355.34 
							792.95,2355.58 794.14,2271.74 586.62,2271.54 						"/>
					</g>
					<g>
						
							<linearGradient id="SVGID_00000121248412415325143730000003188351244644071297_" gradientUnits="userSpaceOnUse" x1="1048.5074" y1="2464.8113" x2="1257.5118" y2="2464.8113">
							<stop  offset="0" style="stop-color:#DAE3FE"/>
							<stop  offset="1" style="stop-color:#E9EFFD"/>
						</linearGradient>
						<polygon style="fill:url(#SVGID_00000121248412415325143730000003188351244644071297_);" points="1048.51,2506.45 
							1255.88,2506.76 1257.51,2423.13 1049.94,2422.86 						"/>
						
							<linearGradient id="SVGID_00000085930831540389205350000012149847173864587693_" gradientUnits="userSpaceOnUse" x1="816.0661" y1="2464.4871" x2="1024.6396" y2="2464.4871">
							<stop  offset="0" style="stop-color:#DAE3FE"/>
							<stop  offset="1" style="stop-color:#E9EFFD"/>
						</linearGradient>
						<polygon style="fill:url(#SVGID_00000085930831540389205350000012149847173864587693_);" points="816.07,2506.11 
							1023.23,2506.41 1024.64,2422.83 817.28,2422.56 						"/>
						
							<linearGradient id="SVGID_00000015348098354648400000000004043092930800778112_" gradientUnits="userSpaceOnUse" x1="583.8569" y1="2464.1636" x2="792" y2="2464.1636">
							<stop  offset="0" style="stop-color:#DAE3FE"/>
							<stop  offset="1" style="stop-color:#E9EFFD"/>
						</linearGradient>
						<polygon style="fill:url(#SVGID_00000015348098354648400000000004043092930800778112_);" points="583.86,2505.76 
							790.81,2506.07 792,2422.53 584.84,2422.26 						"/>
					</g>
					<g>
						
							<linearGradient id="SVGID_00000161615569951191551330000017030776540609722786_" gradientUnits="userSpaceOnUse" x1="1045.9338" y1="2615.0466" x2="1254.5739" y2="2615.0466">
							<stop  offset="0" style="stop-color:#DAE3FE"/>
							<stop  offset="1" style="stop-color:#E9EFFD"/>
						</linearGradient>
						<polygon style="fill:url(#SVGID_00000161615569951191551330000017030776540609722786_);" points="1045.93,2656.51 
							1252.95,2656.88 1254.57,2573.55 1047.36,2573.21 						"/>
						
							<linearGradient id="SVGID_00000026121982498632896270000017091160614326495118_" gradientUnits="userSpaceOnUse" x1="813.8941" y1="2614.6479" x2="1022.1053" y2="2614.6479">
							<stop  offset="0" style="stop-color:#DAE3FE"/>
							<stop  offset="1" style="stop-color:#E9EFFD"/>
						</linearGradient>
						<polygon style="fill:url(#SVGID_00000026121982498632896270000017091160614326495118_);" points="813.89,2656.09 
							1020.7,2656.46 1022.11,2573.17 815.1,2572.83 						"/>
						
							<linearGradient id="SVGID_00000069364949804701012010000013731552190354840469_" gradientUnits="userSpaceOnUse" x1="582.0867" y1="2614.2505" x2="789.8682" y2="2614.2505">
							<stop  offset="0" style="stop-color:#DAE3FE"/>
							<stop  offset="1" style="stop-color:#E9EFFD"/>
						</linearGradient>
						<polygon style="fill:url(#SVGID_00000069364949804701012010000013731552190354840469_);" points="582.09,2655.67 
							788.69,2656.05 789.87,2572.79 583.07,2572.45 						"/>
					</g>
					<g>
						
							<linearGradient id="SVGID_00000181088871794761442120000002638789551554148273_" gradientUnits="userSpaceOnUse" x1="1043.3684" y1="2764.7644" x2="1251.6458" y2="2764.7644">
							<stop  offset="0" style="stop-color:#DAE3FE"/>
							<stop  offset="1" style="stop-color:#E9EFFD"/>
						</linearGradient>
						<polygon style="fill:url(#SVGID_00000181088871794761442120000002638789551554148273_);" points="1043.37,2806.05 
							1250.02,2806.49 1251.65,2723.44 1044.79,2723.04 						"/>
						
							<linearGradient id="SVGID_00000127034999781465231530000011143877145304083632_" gradientUnits="userSpaceOnUse" x1="811.7304" y1="2764.292" x2="1019.5788" y2="2764.292">
							<stop  offset="0" style="stop-color:#DAE3FE"/>
							<stop  offset="1" style="stop-color:#E9EFFD"/>
						</linearGradient>
						<polygon style="fill:url(#SVGID_00000127034999781465231530000011143877145304083632_);" points="811.73,2805.56 
							1018.18,2806 1019.58,2722.99 812.93,2722.59 						"/>
						
							<linearGradient id="SVGID_00000005247686993873402270000005923567334982853002_" gradientUnits="userSpaceOnUse" x1="580.3221" y1="2763.8201" x2="787.7435" y2="2763.8201">
							<stop  offset="0" style="stop-color:#DAE3FE"/>
							<stop  offset="1" style="stop-color:#E9EFFD"/>
						</linearGradient>
						<polygon style="fill:url(#SVGID_00000005247686993873402270000005923567334982853002_);" points="580.32,2805.07 
							786.57,2805.51 787.74,2722.54 581.3,2722.13 						"/>
					</g>
					<g>
						
							<linearGradient id="SVGID_00000149341461618938181320000008608126162379399302_" gradientUnits="userSpaceOnUse" x1="1040.8126" y1="2913.967" x2="1248.7279" y2="2913.967">
							<stop  offset="0" style="stop-color:#DAE3FE"/>
							<stop  offset="1" style="stop-color:#E9EFFD"/>
						</linearGradient>
						<polygon style="fill:url(#SVGID_00000149341461618938181320000008608126162379399302_);" points="1040.81,2955.08 
							1247.11,2955.58 1248.73,2872.82 1042.23,2872.35 						"/>
						
							<linearGradient id="SVGID_00000105412914284248462790000010179336791066513843_" gradientUnits="userSpaceOnUse" x1="809.5737" y1="2913.4211" x2="1017.062" y2="2913.4211">
							<stop  offset="0" style="stop-color:#DAE3FE"/>
							<stop  offset="1" style="stop-color:#E9EFFD"/>
						</linearGradient>
						<polygon style="fill:url(#SVGID_00000105412914284248462790000010179336791066513843_);" points="809.57,2954.51 
							1015.67,2955.02 1017.06,2872.29 810.77,2871.82 						"/>
						
							<linearGradient id="SVGID_00000054951448710111450590000014594332371275512215_" gradientUnits="userSpaceOnUse" x1="578.5637" y1="2912.8762" x2="785.6253" y2="2912.8762">
							<stop  offset="0" style="stop-color:#DAE3FE"/>
							<stop  offset="1" style="stop-color:#E9EFFD"/>
						</linearGradient>
						<polygon style="fill:url(#SVGID_00000054951448710111450590000014594332371275512215_);" points="578.56,2953.95 
							784.45,2954.45 785.63,2871.77 579.54,2871.3 						"/>
					</g>
					<g>
						
							<linearGradient id="SVGID_00000047782479089945628760000018352062629234081943_" gradientUnits="userSpaceOnUse" x1="1038.2651" y1="3062.6575" x2="1245.8195" y2="3062.6575">
							<stop  offset="0" style="stop-color:#DAE3FE"/>
							<stop  offset="1" style="stop-color:#E9EFFD"/>
						</linearGradient>
						<polygon style="fill:url(#SVGID_00000047782479089945628760000018352062629234081943_);" points="1038.27,3103.6 
							1244.21,3104.16 1245.82,3021.68 1039.68,3021.15 						"/>
						
							<linearGradient id="SVGID_00000120561345663848069940000007116850235574263949_" gradientUnits="userSpaceOnUse" x1="807.4241" y1="3062.0386" x2="1014.5535" y2="3062.0386">
							<stop  offset="0" style="stop-color:#DAE3FE"/>
							<stop  offset="1" style="stop-color:#E9EFFD"/>
						</linearGradient>
						<polygon style="fill:url(#SVGID_00000120561345663848069940000007116850235574263949_);" points="807.42,3102.96 
							1013.16,3103.53 1014.55,3021.08 808.62,3020.55 						"/>
						
							<linearGradient id="SVGID_00000088093753861468615610000001293700931547387791_" gradientUnits="userSpaceOnUse" x1="576.8118" y1="3061.4207" x2="783.5159" y2="3061.4207">
							<stop  offset="0" style="stop-color:#DAE3FE"/>
							<stop  offset="1" style="stop-color:#E9EFFD"/>
						</linearGradient>
						<polygon style="fill:url(#SVGID_00000088093753861468615610000001293700931547387791_);" points="576.81,3102.32 
							782.35,3102.89 783.52,3020.49 577.78,3019.95 						"/>
					</g>
				</g>
			</g>
			<g>
				<path class="st4" d="M2432.45,1797.41c0.36-15.41,16.19-28.09,35.58-28.09h733.01c19.65,0,38.95,13.34,38.95,28.96v1395.91
					c0,7.51-5.45,14.72-12.14,20.02c-6.7,5.3-16.61,8.27-26.07,8.25l-766.41-1.66c-9.54-0.02-18.87-3.08-25.54-8.5
					s-10.43-12.9-10.25-20.48L2432.45,1797.41z"/>
				<g class="st33">
					<g>
						<polygon class="st2" points="2972.28,1933.81 3181.1,1933.59 3182.75,1848.53 2973.73,1848.53 						"/>
						<polygon class="st2" points="2738.21,1933.77 2946.82,1933.54 2948.25,1848.53 2739.44,1848.53 						"/>
						<polygon class="st2" points="2504.38,1933.72 2712.79,1933.5 2713.99,1848.53 2505.39,1848.53 						"/>
					</g>
					<g>
						<polygon class="st2" points="2969.67,2086.48 3178.12,2086.59 3179.77,2002.09 2971.12,2002.02 						"/>
						<polygon class="st2" points="2736.01,2086.37 2944.26,2086.47 2945.68,2002.01 2737.23,2001.94 						"/>
						<polygon class="st2" points="2502.59,2086.25 2710.63,2086.35 2711.83,2001.94 2503.59,2001.87 						"/>
					</g>
					<g>
						<polygon class="st2" points="2967.07,2238.11 3175.16,2238.28 3176.8,2154.07 2968.51,2153.94 						"/>
						<polygon class="st2" points="2733.82,2237.91 2941.7,2238.09 2943.12,2153.92 2735.03,2153.79 						"/>
						<polygon class="st2" points="2500.8,2237.72 2708.48,2237.89 2709.67,2153.77 2501.79,2153.63 						"/>
					</g>
					<g>
						<polygon class="st2" points="2964.47,2389.21 3172.21,2389.45 3173.85,2305.53 2965.91,2305.33 						"/>
						<polygon class="st2" points="2731.63,2388.94 2939.15,2389.18 2940.57,2305.3 2732.84,2305.1 						"/>
						<polygon class="st2" points="2499.02,2388.67 2706.33,2388.91 2707.52,2305.08 2500.01,2304.87 						"/>
					</g>
					<g>
						<polygon class="st2" points="2961.89,2539.79 3169.26,2540.09 3170.9,2456.47 2963.33,2456.2 						"/>
						<polygon class="st2" points="2729.45,2539.44 2936.61,2539.75 2938.02,2456.16 2730.66,2455.89 						"/>
						<polygon class="st2" points="2497.24,2539.1 2704.2,2539.4 2705.38,2455.86 2498.23,2455.59 						"/>
					</g>
					<g>
						<polygon class="st2" points="2959.32,2689.85 3166.33,2690.22 3167.96,2606.88 2960.75,2606.54 						"/>
						<polygon class="st2" points="2727.28,2689.43 2934.09,2689.8 2935.49,2606.5 2728.48,2606.17 						"/>
						<polygon class="st2" points="2495.47,2689.01 2702.07,2689.38 2703.25,2606.12 2496.45,2605.79 						"/>
					</g>
					<g>
						<polygon class="st2" points="2956.75,2839.39 3163.41,2839.83 3165.03,2756.77 2958.18,2756.37 						"/>
						<polygon class="st2" points="2725.11,2838.89 2931.56,2839.33 2932.96,2756.32 2726.32,2755.92 						"/>
						<polygon class="st2" points="2493.71,2838.4 2699.95,2838.84 2701.13,2755.87 2494.69,2755.47 						"/>
					</g>
					<g>
						<polygon class="st2" points="2954.2,2988.41 3160.5,2988.92 3162.11,2906.15 2955.62,2905.68 						"/>
						<polygon class="st2" points="2722.96,2987.85 2929.05,2988.35 2930.45,2905.63 2724.16,2905.16 						"/>
						<polygon class="st2" points="2491.95,2987.28 2697.84,2987.79 2699.01,2905.1 2492.92,2904.63 						"/>
					</g>
					<g>
						<polygon class="st2" points="2951.65,3136.93 3157.59,3137.5 3159.2,3055.02 2953.06,3054.48 						"/>
						<polygon class="st2" points="2720.81,3136.29 2926.55,3136.86 2927.94,3054.42 2722,3053.89 						"/>
						<polygon class="st2" points="2490.2,3135.65 2695.73,3136.22 2696.9,3053.82 2491.17,3053.29 						"/>
					</g>
				</g>
			</g>
		</g>
		<g>
			<g>
				<path class="st34" d="M1703.74,2177.14c-59.82-187.83-175.57-337.52-312.67-425.51c-122.56-78.67-210.87-201.18-243.56-342.69
					c-3.44-14.87-7.52-29.79-12.27-44.7c-71.95-225.89-269.29-364.74-440.77-310.12c-171.48,54.62-252.17,282.02-180.22,507.91
					c14.71,46.19,34.67,88.73,58.58,126.72c76.3,121.23,106.16,266.63,78.09,407.27c-25.09,125.68-18.28,267.19,26.57,408.01
					c66.89,210.02,203.7,372.37,362.12,454.1c59.92,30.91,113.95,72.48,158.69,122.72c74.35,83.48,179.14,122.71,275.41,92.05
					c103.86-33.08,168.74-138.25,173.41-260.95c2.64-69.44,18.97-137.49,45.58-201.84
					C1755.52,2558.19,1764.23,2367.04,1703.74,2177.14z"/>
				<path class="st35" d="M831.06,1275.29c69.95,142.16,135.26,286.45,199.05,431.43c15.96,36.24,31.34,72.73,46.83,109.17
					l23.23,54.66l22.77,54.86c15.04,36.63,30.59,73.05,45.21,109.86l43.88,110.4c28.31,73.98,57.25,147.71,84.17,222.21
					c13.51,37.23,27.76,74.19,40.51,111.7l38.78,112.32c50.18,150.27,96.6,301.88,135.21,455.55l-6.63,1.74l-33.29-113.87
					l-8.26-28.48l-8.97-28.27l-18.05-56.5l-17.94-56.52c-5.95-18.85-12.59-37.48-18.86-56.23c-12.78-37.42-25.25-74.93-38.27-112.26
					c-53.05-149-108.09-297.28-166.19-444.41c-29.62-73.34-58.6-146.93-88.73-220.07l-22.45-54.91l-22.91-54.73
					c-15.25-36.5-30.5-72.99-46.12-109.33c-30.62-72.95-61.76-145.68-93.5-218.15c-31.36-72.64-63.41-145-95.68-217.23
					L831.06,1275.29z"/>
			</g>
			<g>
				<path class="st36" d="M2204.2,1803.79c-27.96-205.13-120.37-380.94-245.85-496.82c-112.17-103.58-181.18-246.31-189.49-398.62
					c-0.87-16.01-2.41-32.18-4.63-48.47c-33.62-246.7-212.04-426.09-398.5-400.68c-186.46,25.41-310.36,246.01-276.74,492.71
					c6.87,50.45,19.81,98.07,37.63,141.69c56.87,139.23,61.57,295.04,7.43,435.42c-48.38,125.45-66.74,273.06-45.78,426.85
					c31.26,229.37,143.11,422.1,291.66,535.35c56.19,42.84,104.4,95.63,141.49,155.7c61.64,99.82,162.56,159.4,267.24,145.14
					c112.93-15.39,198.63-112.42,225.45-238.49c15.17-71.35,44.2-138.79,83.15-200.52
					C2189.22,2207.33,2232.47,2011.19,2204.2,1803.79z"/>
				<path class="st35" d="M1466.8,712.76c46.58,159.72,87.99,320.82,127.72,482.34c9.95,40.38,19.25,80.91,28.68,121.41l14.14,60.75
					l13.63,60.87c8.93,40.62,18.42,81.11,26.88,121.83l25.41,122.15c15.9,81.65,32.49,163.16,46.88,245.1
					c7.25,40.96,15.29,81.77,21.71,122.88l19.82,123.21c24.76,164.53,45.39,329.77,57.63,495.72l-7.15,0.6l-13.88-123.82l-3.4-30.95
					l-4.18-30.87l-8.47-61.71l-8.35-61.72c-2.74-20.57-6.26-41.05-9.35-61.58c-6.45-41.02-12.58-82.09-19.3-123.06
					c-27.94-163.73-58.06-327.1-91.54-489.82c-17.36-81.23-34.03-162.61-51.96-243.72l-13.28-60.87l-13.79-60.76
					c-9.17-40.51-18.34-81.03-27.92-121.45c-18.47-81-37.51-161.88-57.22-242.6c-19.28-80.82-39.33-161.48-59.63-242.04
					L1466.8,712.76z"/>
			</g>
		</g>
		<g>
			
				<linearGradient id="SVGID_00000075162799236500402020000008063834241398301592_" gradientUnits="userSpaceOnUse" x1="2741.292" y1="-790.1846" x2="2137.1833" y2="2733.7744">
				<stop  offset="0" style="stop-color:#4042E2"/>
				<stop  offset="1" style="stop-color:#4F52FF"/>
			</linearGradient>
			<path style="fill:url(#SVGID_00000075162799236500402020000008063834241398301592_);" d="M3061.22,3213.66H1433.57
				c-12.72,0-23.03-10.31-23.03-23.03V991.14c0-12.72,10.31-23.03,23.03-23.03h1627.66c12.72,0,23.03,10.31,23.03,23.03v2199.49
				C3084.25,3203.35,3073.94,3213.66,3061.22,3213.66z"/>
			<path class="st36" d="M2799.32,2917.86H1691.9c-41.98,0-76.01-34.03-76.01-76.01V1381.47c0-41.98,34.03-76.01,76.01-76.01
				h1107.43c41.98,0,76.01,34.03,76.01,76.01v1460.38C2875.33,2883.83,2841.3,2917.86,2799.32,2917.86z"/>
			
				<linearGradient id="SVGID_00000152985355360245483190000006960458859338891404_" gradientUnits="userSpaceOnUse" x1="1711.9962" y1="2121.8967" x2="2780.2222" y2="2121.8967">
				<stop  offset="0" style="stop-color:#4042E2"/>
				<stop  offset="1" style="stop-color:#4F52FF"/>
			</linearGradient>
			<path style="fill:url(#SVGID_00000152985355360245483190000006960458859338891404_);" d="M2757.42,2805.69H1734.8
				c-12.59,0-22.8-10.21-22.8-22.8V1460.9c0-12.59,10.21-22.8,22.8-22.8h1022.62c12.59,0,22.8,10.21,22.8,22.8v1321.99
				C2780.22,2795.48,2770.01,2805.69,2757.42,2805.69z"/>
			
				<linearGradient id="SVGID_00000152241423249493174020000008610310472976221619_" gradientUnits="userSpaceOnUse" x1="2329.2961" y1="944.2405" x2="2654.2888" y2="194.2579">
				<stop  offset="0" style="stop-color:#09005D"/>
				<stop  offset="1" style="stop-color:#1A0F91"/>
			</linearGradient>
			<circle style="fill:url(#SVGID_00000152241423249493174020000008610310472976221619_);" cx="2244.34" cy="1140.29" r="50.07"/>
			
				<linearGradient id="SVGID_00000019652445323451694020000009604722201262080688_" gradientUnits="userSpaceOnUse" x1="2358.8447" y1="1430.0939" x2="1627.453" y2="6499.395">
				<stop  offset="0" style="stop-color:#FEBBBA"/>
				<stop  offset="1" style="stop-color:#FF928E"/>
			</linearGradient>
			<path style="fill:url(#SVGID_00000019652445323451694020000009604722201262080688_);" d="M2567.82,1948.6l-644.17,10.71
				c-49.03,0.82-88.92,38.94-88.92,85.15v405.68c0,46.21,39.89,82.07,88.92,80.1l644.17-25.87c46.27-1.86,83.65-39.56,83.65-84.22
				v-392.07C2651.47,1983.41,2614.09,1947.83,2567.82,1948.6z"/>
			
				<linearGradient id="SVGID_00000154415238153504590770000003433263611797967247_" gradientUnits="userSpaceOnUse" x1="2339.6602" y1="1427.326" x2="1608.2683" y2="6496.6289">
				<stop  offset="0" style="stop-color:#FEBBBA"/>
				<stop  offset="1" style="stop-color:#FF928E"/>
			</linearGradient>
			<path style="fill:url(#SVGID_00000154415238153504590770000003433263611797967247_);" d="M2600.43,1875.23
				c-19.51,0.29-35.35-14.77-35.35-33.63v-88.79c0-89.07-75.34-161.32-168.61-161.05l-209.85,0.61
				c-95.67,0.28-174.07,74.66-174.07,165.81v90.86c0,19.31-16.61,35.2-37.13,35.51c-20.56,0.31-37.25-15.14-37.25-34.51v-91.14
				c0-130.1,112.09-235.95,248.45-235.95h209.85c132.5,0,239.21,102.81,239.21,229.17v88.52
				C2635.67,1859.46,2619.9,1874.94,2600.43,1875.23z"/>
			
				<linearGradient id="SVGID_00000138544554138100203060000004759014449000098492_" gradientUnits="userSpaceOnUse" x1="2381.4185" y1="2006.6177" x2="3453.6072" y2="-125.1459">
				<stop  offset="0" style="stop-color:#FE7062"/>
				<stop  offset="1" style="stop-color:#FF928E"/>
			</linearGradient>
			<path style="fill:url(#SVGID_00000138544554138100203060000004759014449000098492_);" d="M2349.95,2173.43
				c0-45.08-39.36-80.48-87.2-77.23c-42.31,2.88-77.3,36.76-79.58,77.21c-1.77,31.39,15.48,58.53,41.7,72.25
				c11.16,5.84,16.7,18.14,14.53,30.31l-18.39,103.21c-2.34,13.14,8.22,24.69,22.12,24.19l47.27-1.69
				c13.83-0.5,24.32-12.75,22-25.68l-18.38-102.26c-2.19-12.2,4.15-24.31,15.33-31C2333.68,2228.21,2349.95,2202.42,2349.95,2173.43
				z"/>
		</g>
		<g>
			<g>
				
					<linearGradient id="SVGID_00000068639168176152520230000017463455897960099513_" gradientUnits="userSpaceOnUse" x1="-1483.0153" y1="3175.3572" x2="-1364.4141" y2="3175.3572" gradientTransform="matrix(1 0 0 1 2420.5969 0)">
					<stop  offset="0" style="stop-color:#09005D"/>
					<stop  offset="1" style="stop-color:#1A0F91"/>
				</linearGradient>
				<path style="fill:url(#SVGID_00000068639168176152520230000017463455897960099513_);" d="M1056.18,3217.59
					c0.01-0.88-0.05-1.78-0.27-2.68c-13.36-52.96-79.66-85.94-79.66-85.94l-26.27,2.06c-15.11,46.68-13.16,75.3-10.74,88.06
					c0.07,0.36,0.18,0.7,0.27,1.04C961.18,3222.06,1005.79,3223.32,1056.18,3217.59z"/>
				<path class="st34" d="M939.51,3220.12c1.17,4.26,4.31,7.57,8.34,8.42c30.83,6.48,79.83,1.27,100.4-1.42
					c4.54-0.59,7.86-4.79,7.93-9.53C1005.79,3223.32,961.18,3222.06,939.51,3220.12z"/>
				
					<linearGradient id="SVGID_00000121968820531075946880000008893497924834215086_" gradientUnits="userSpaceOnUse" x1="-1450.0334" y1="3040.3352" x2="-1472.6882" y2="3238.0508" gradientTransform="matrix(1 0 0 1 2420.5969 0)">
					<stop  offset="0" style="stop-color:#FEBBBA"/>
					<stop  offset="1" style="stop-color:#FF928E"/>
				</linearGradient>
				<path style="fill:url(#SVGID_00000121968820531075946880000008893497924834215086_);" d="M939.42,3091.89l11.13,53.57
					c0.82,3.93,3.83,6.86,7.48,7.21c4.47,0.42,10.84,0.67,17.24-0.27c5.74-0.84,9.74-6.68,8.72-12.94l-7.73-47.56H939.42z"/>
				<path class="st34" d="M1169.96,3219.44c-29.02-0.81-44.02-4.23-51.78-7.4c-0.02,2.88,0,5.82,0.09,8.86
					c0.1,3.25,2.51,5.84,5.47,5.83l159.31-1.03c5.08-0.03,8.05-5.93,5.85-10.59C1268.02,3216.84,1214.81,3220.7,1169.96,3219.44z"/>
				
					<linearGradient id="SVGID_00000008865086922923094010000004257444815612992915_" gradientUnits="userSpaceOnUse" x1="-1302.4172" y1="3178.3716" x2="-1131.6923" y2="3178.3716" gradientTransform="matrix(1 0 0 1 2420.5969 0)">
					<stop  offset="0" style="stop-color:#09005D"/>
					<stop  offset="1" style="stop-color:#1A0F91"/>
				</linearGradient>
				<path style="fill:url(#SVGID_00000008865086922923094010000004257444815612992915_);" d="M1288.9,3215.11
					c-0.19-0.41-0.36-0.82-0.63-1.2c-14.07-19.66-49.9-58.81-120.71-75.79l-33.97-1.07c0,0-15.13,26.29-15.41,74.99
					c7.76,3.17,22.77,6.59,51.78,7.4C1214.81,3220.7,1268.02,3216.84,1288.9,3215.11z"/>
				
					<linearGradient id="SVGID_00000047740840444912627900000008406031898685161917_" gradientUnits="userSpaceOnUse" x1="-1158.2068" y1="2928.4578" x2="-1180.8619" y2="3126.1768" gradientTransform="matrix(0.998 -0.0629 0.0629 0.998 2123.7034 65.7657)">
					<stop  offset="0" style="stop-color:#FEBBBA"/>
					<stop  offset="1" style="stop-color:#FF928E"/>
				</linearGradient>
				<path style="fill:url(#SVGID_00000047740840444912627900000008406031898685161917_);" d="M1125.78,3087.15
					c0.54,2.5,7.6,40.62,10.34,55.4c0.65,3.51,3.39,6.09,6.64,6.27c5.82,0.33,15.2,0.36,23.26-1.83c4.35-1.18,7.28-5.62,6.97-10.54
					l-3.8-60.29L1125.78,3087.15z"/>
				
					<linearGradient id="SVGID_00000149376360262605470200000010668072367176065446_" gradientUnits="userSpaceOnUse" x1="-1281.6914" y1="3226.8584" x2="-1047.1964" y2="2108.7139" gradientTransform="matrix(-1 0 0 1 -160.9626 0)">
					<stop  offset="0" style="stop-color:#09005D"/>
					<stop  offset="1" style="stop-color:#1A0F91"/>
				</linearGradient>
				<path style="fill:url(#SVGID_00000149376360262605470200000010668072367176065446_);" d="M1100.04,2383.41
					c0,0,46.73,321.1,80.45,703.2c0.63,7.12-5.04,13.31-12.03,14.78c-10.3,2.17-25.44,4.75-37.98,4.39
					c-6.69-0.19-12.29-5.15-13.41-11.75c-11.49-67.37-93.46-428.94-114.98-508.52c0,0-24.71,338.03-16.81,513.4
					c0.2,4.36-3,8.14-7.33,8.64c-6.58,0.76-17.1,1.34-30.49-0.08c-5.08-0.54-9.18-4.38-9.91-9.44
					c-8.18-57.02-55.28-396.4-53.28-640.89c0.11-13.79,16.18-127.06,16.18-127.06L1100.04,2383.41z"/>
			</g>
			
				<linearGradient id="SVGID_00000003811865539688353930000002200619910736625572_" gradientUnits="userSpaceOnUse" x1="1360.2175" y1="1699.0657" x2="842.0858" y2="2270.6819">
				<stop  offset="0" style="stop-color:#4042E2"/>
				<stop  offset="1" style="stop-color:#4F52FF"/>
			</linearGradient>
			<path style="fill:url(#SVGID_00000003811865539688353930000002200619910736625572_);" d="M1118.15,1843.43l6.26,168.02
				c17.77,6.12,34.69,10.87,50.8,14.42c10.08-32.44,32.27-72.26,50.43-101.87C1158.88,1900.41,1118.15,1843.43,1118.15,1843.43z"/>
			
				<linearGradient id="SVGID_00000088124796055467741590000006823149774165165996_" gradientUnits="userSpaceOnUse" x1="1259.4879" y1="1730.8054" x2="504.2102" y2="3117.0728">
				<stop  offset="0" style="stop-color:#4042E2"/>
				<stop  offset="1" style="stop-color:#4F52FF"/>
			</linearGradient>
			<path style="fill:url(#SVGID_00000088124796055467741590000006823149774165165996_);" d="M893.41,2401.91
				c-4.8-1.71-8.15-6.06-8.68-11.13c-6.21-60.29-36.3-434.09,153.65-587.86c0,0,10.89-28.5,100.43,41.56
				c89.54,70.06,41.6,143.49,20.16,244.77c-25.94,122.56-71.45,222.74-51.32,298.17c1.39,5.2-1.35,10.67-6.4,12.53
				C1031.7,2425.59,962.42,2426.44,893.41,2401.91z"/>
			
				<linearGradient id="SVGID_00000036946889321902370740000009554652087377764521_" gradientUnits="userSpaceOnUse" x1="-1359.6549" y1="1887.9598" x2="-1307.0386" y2="1744.2769" gradientTransform="matrix(1 0 0 1 2420.5969 0)">
				<stop  offset="0" style="stop-color:#FEBBBA"/>
				<stop  offset="1" style="stop-color:#FF928E"/>
			</linearGradient>
			<path style="fill:url(#SVGID_00000036946889321902370740000009554652087377764521_);" d="M1112.47,1690.92
				c-0.06,5.32-75.91,113.05-75.91,113.05s13.61,26.81,78.61,48.58l56.1-115.35L1112.47,1690.92z"/>
			
				<linearGradient id="SVGID_00000073711587716592524650000012651572934145189019_" gradientUnits="userSpaceOnUse" x1="1106.4756" y1="1424.8339" x2="1082.0304" y2="1611.5056">
				<stop  offset="0" style="stop-color:#4042E2"/>
				<stop  offset="1" style="stop-color:#4F52FF"/>
			</linearGradient>
			<path style="fill:url(#SVGID_00000073711587716592524650000012651572934145189019_);" d="M1074.9,2059.56
				c-0.47,0-0.96-0.14-1.38-0.42c-60.59-40.94-89.1-107.02-89.38-107.68c-0.53-1.26,0.06-2.7,1.31-3.23c1.26-0.53,2.7,0.05,3.23,1.3
				c0.27,0.65,28.25,65.42,87.6,105.52c1.13,0.76,1.42,2.29,0.66,3.42C1076.47,2059.18,1075.69,2059.56,1074.9,2059.56z"/>
			
				<linearGradient id="SVGID_00000045608892018521440290000013605496527675356828_" gradientUnits="userSpaceOnUse" x1="1149.2323" y1="1430.4329" x2="1124.7871" y2="1617.1042">
				<stop  offset="0" style="stop-color:#4042E2"/>
				<stop  offset="1" style="stop-color:#4F52FF"/>
			</linearGradient>
			<path style="fill:url(#SVGID_00000045608892018521440290000013605496527675356828_);" d="M1165.15,1967.97
				c-0.81,0-1.6-0.4-2.07-1.13c-0.18-0.28-18.69-29.1-53.95-92.23c-10.84-19.41-25.09-31.71-42.35-36.54
				c-28.58-7.99-56.13,7.34-56.4,7.49c-1.19,0.65-2.68,0.26-3.36-0.92c-0.67-1.18-0.26-2.69,0.92-3.36
				c1.19-0.67,29.52-16.53,60.12-7.96c18.59,5.19,33.86,18.27,45.37,38.88c35.17,62.97,53.61,91.69,53.79,91.97
				c0.74,1.14,0.41,2.67-0.74,3.4C1166.07,1967.85,1165.61,1967.97,1165.15,1967.97z"/>
			<g>
				
					<linearGradient id="SVGID_00000148620544381550410250000014082214605229051043_" gradientUnits="userSpaceOnUse" x1="-1230.3292" y1="1672.4312" x2="-1543.828" y2="1922.1201" gradientTransform="matrix(1 0 0 1 2420.5969 0)">
					<stop  offset="0" style="stop-color:#FEBBBA"/>
					<stop  offset="1" style="stop-color:#FF928E"/>
				</linearGradient>
				<path style="fill:url(#SVGID_00000148620544381550410250000014082214605229051043_);" d="M1172.19,1629.19
					c0,0,26.99,62,28.8,94.54c1.81,32.54,8.82,53.65-28.8,60.21c-37.62,6.55-69.32-12.19-86.49-44.6c0,0-26.9-49.95-20.87-70.4
					C1070.87,1648.47,1172.19,1629.19,1172.19,1629.19z"/>
				
					<linearGradient id="SVGID_00000041297172405471161990000015901729094145521292_" gradientUnits="userSpaceOnUse" x1="-1351.3553" y1="1590.2894" x2="-1207.6652" y2="1775.2904" gradientTransform="matrix(1 0 0 1 2420.5969 0)">
					<stop  offset="0" style="stop-color:#09005D"/>
					<stop  offset="1" style="stop-color:#1A0F91"/>
				</linearGradient>
				<path style="fill:url(#SVGID_00000041297172405471161990000015901729094145521292_);" d="M1098.56,1716.02l2.14-0.94
					c2.73-1.2,3.89-4.45,2.52-7.09c-5.31-10.25-15.65-33.74-2.29-39.22c17.22-7.06,85.43-20.97,100.15-45.18
					c14.14-23.26,1.61-53.29-17.22-61.83c-1.26-0.57-2.75-0.12-3.39,1.11l-1.57,2.97c-1.07,2.03-4.08,1.72-4.72-0.48l0,0
					c-0.61-2.12-3.43-2.53-4.6-0.66c-4.52,7.24-16.74,18.98-49.4,25.01c-46.42,8.57-77.1,27.35-77.87,59.43
					c-0.05,2.04-2.22,3.17-3.96,2.11c-3.43-2.09-8.91-3.07-16.24,3.09c-12.75,10.72-7.53,38.52,20.41,61.39
					c1.33,1.09,1.32,3.16-0.12,4.09c-5.07,3.3-12.62,11.14,6.95,21.6c20.24,10.82,35.35,9.93,41.17,8.97
					c1.45-0.24,2.38-1.64,2.06-3.07l-6.21-28.19c-0.35-1.6,0.86-3.11,2.5-3.11H1098.56z"/>
				
					<linearGradient id="SVGID_00000049944913972056362120000013251316433543318402_" gradientUnits="userSpaceOnUse" x1="-1261.8846" y1="1658.7487" x2="-1416.1669" y2="1776.7981" gradientTransform="matrix(1 0 0 1 2420.5969 0)">
					<stop  offset="0" style="stop-color:#FEBBBA"/>
					<stop  offset="1" style="stop-color:#FF928E"/>
				</linearGradient>
				<path style="fill:url(#SVGID_00000049944913972056362120000013251316433543318402_);" d="M1099.73,1721.97
					c0,0-10.3-39.6-28.05-28.5c-17.76,11.1,9.21,44.37,23.49,45.86L1099.73,1721.97z"/>
			</g>
			
				<linearGradient id="SVGID_00000136369846173239753200000003337940214773720711_" gradientUnits="userSpaceOnUse" x1="-1684.828" y1="1736.7418" x2="-1358.1681" y2="2018.915" gradientTransform="matrix(-1 0 0 1 -160.9626 0)">
				<stop  offset="0" style="stop-color:#FEBBBA"/>
				<stop  offset="1" style="stop-color:#FF928E"/>
			</linearGradient>
			<path style="fill:url(#SVGID_00000136369846173239753200000003337940214773720711_);" d="M1449.19,1830.79
				c0,0-13.53-23.98-12.67-35.64c0.86-11.65-6.4-28.76,1.33-27.5c7.73,1.27,9.32,0.23,11.42,14.21
				C1451.37,1795.85,1475.75,1856.93,1449.19,1830.79z"/>
			
				<linearGradient id="SVGID_00000083076405974056119150000005789085300775853206_" gradientUnits="userSpaceOnUse" x1="-1691.64" y1="1763.0476" x2="-1373.6653" y2="2037.7185" gradientTransform="matrix(-1 0 0 1 -160.9626 0)">
				<stop  offset="0" style="stop-color:#FEBBBA"/>
				<stop  offset="1" style="stop-color:#FF928E"/>
			</linearGradient>
			<path style="fill:url(#SVGID_00000083076405974056119150000005789085300775853206_);" d="M1451.74,1792.66l-0.31,47.91
				c-91.57,98.87-165.69,104.69-225.79,83.44c-18.17,29.61-40.36,69.42-50.43,101.87c244.54,53.91,302.12-170.9,302.12-170.9
				c33.12-13.72,39.8-21.75,38.37-30.74L1451.74,1792.66z"/>
			
				<linearGradient id="SVGID_00000179603867818673837740000018429314580881523357_" gradientUnits="userSpaceOnUse" x1="-1696.921" y1="1750.7412" x2="-1370.262" y2="2032.9138" gradientTransform="matrix(-1 0 0 1 -160.9626 0)">
				<stop  offset="0" style="stop-color:#FEBBBA"/>
				<stop  offset="1" style="stop-color:#FF928E"/>
			</linearGradient>
			<path style="fill:url(#SVGID_00000179603867818673837740000018429314580881523357_);" d="M1522.16,1745.13
				c-7.82-3.17-23.11-32.33-26.04-22.74s1.24,22.74,0,26.82c-1.24,4.08-20.3,51.01-16.5,61.43c2.75,7.52,17.89,6.41,20.2,18.72
				c0.77,4.08,4.03,7.01,7.82,7.02c3.79,0,7.05-2.92,7.82-7.01C1515.77,1827.73,1529.98,1748.3,1522.16,1745.13z"/>
			<g>
				
					<linearGradient id="SVGID_00000147195580195912964170000002646425270022027191_" gradientUnits="userSpaceOnUse" x1="527.4989" y1="1846.2122" x2="-61.1504" y2="3081.0952" gradientTransform="matrix(0.4597 -0.8881 0.8881 0.4597 -758.4859 793.5534)">
					<stop  offset="0" style="stop-color:#E1473D"/>
					<stop  offset="1" style="stop-color:#E9605A"/>
				</linearGradient>
				<path style="fill:url(#SVGID_00000147195580195912964170000002646425270022027191_);" d="M1272.56,1645.34
					c-61.75,122.13-12.8,271.19,109.33,332.94c99.26,50.19,216.32,27.25,289.83-48.68l424.33,214.54
					c7.05,3.56,15.43,3.27,22.21-0.77l41.5-24.72c0.71-0.43,1.39-0.89,2.04-1.38c0.18-0.14,0.36-0.28,0.54-0.43
					c0.48-0.39,0.95-0.79,1.39-1.2c0.15-0.14,0.3-0.28,0.45-0.43c0.55-0.55,1.08-1.11,1.56-1.7c0.01-0.01,0.02-0.02,0.02-0.03
					c5.21-6.34,6.8-15.19,3.61-23.19l-33.72-84.53c-2.08-5.22-6-9.5-11.02-12.04l-42.5-21.49l-11.25,22.25l-36.51-18.46l11.25-22.25
					l-34.16-17.27l-10.35,20.46l-44.37-22.44l10.35-20.46l-16.53-8.36l-5.33,10.53l-37.2-18.81l5.33-10.53l-28.93-14.63
					l-11.25,22.25l-20.67-10.45l11.25-22.25l-17.91-9.06l-11.25,22.24l-35.82-18.11l11.25-22.25l-50.35-25.46l0,0l-21.56-10.9
					c17.57-104.21-33.35-212.08-132.61-262.27C1483.37,1474.26,1334.31,1523.21,1272.56,1645.34z M1417.14,1662.21
					c24.73,12.5,34.64,42.69,22.14,67.42c-12.5,24.73-42.69,34.64-67.42,22.14c-24.73-12.5-34.64-42.69-22.14-67.42
					C1362.22,1659.62,1392.41,1649.71,1417.14,1662.21z"/>
				
					<linearGradient id="SVGID_00000036971666489936014740000012724942337996716681_" gradientUnits="userSpaceOnUse" x1="4105.2314" y1="0.9878" x2="3760.2639" y2="687.3659" gradientTransform="matrix(0.9652 -0.2615 0.2615 0.9652 -1955.4407 2439.333)">
					<stop  offset="0" style="stop-color:#FE7062"/>
					<stop  offset="1" style="stop-color:#FF928E"/>
				</linearGradient>
				<path style="fill:url(#SVGID_00000036971666489936014740000012724942337996716681_);" d="M1616.51,1720.18l201.15,101.7
					l-11.25,22.25l35.82,18.11l11.25-22.25l17.91,9.06l-11.25,22.25l20.67,10.45l11.25-22.25l28.93,14.63l-5.33,10.53l37.2,18.81
					l5.33-10.53l16.53,8.36l-10.35,20.46l44.37,22.44l10.35-20.46l34.16,17.27l-11.25,22.25l36.51,18.46l11.25-22.25l42.5,21.49
					c5.02,2.54,8.93,6.82,11.02,12.04l33.72,84.53c4.2,10.53,0.12,22.56-9.62,28.37l-41.5,24.72c-6.79,4.04-15.17,4.33-22.21,0.77
					l-512.24-258.99L1616.51,1720.18z"/>
				
					<linearGradient id="SVGID_00000044865771824632171850000013882900327394665905_" gradientUnits="userSpaceOnUse" x1="81.2225" y1="2178.4968" x2="590.6898" y2="3373.429" gradientTransform="matrix(0.4597 -0.8881 0.8881 0.4597 -758.4859 793.5534)">
					<stop  offset="0" style="stop-color:#FF9085"/>
					<stop  offset="1" style="stop-color:#FB6FBB"/>
				</linearGradient>
				<path style="fill:url(#SVGID_00000044865771824632171850000013882900327394665905_);" d="M1389.53,1965.52
					c122.13,61.75,271.19,12.8,332.94-109.33c61.75-122.13,12.8-271.19-109.33-332.94c-122.13-61.75-271.19-12.8-332.94,109.33
					C1218.45,1754.71,1267.4,1903.77,1389.53,1965.52z M1379.49,1739.01c-24.73-12.5-34.64-42.69-22.14-67.42
					c12.5-24.73,42.69-34.64,67.42-22.14c24.73,12.5,34.64,42.69,22.14,67.42C1434.41,1741.6,1404.22,1751.51,1379.49,1739.01z"/>
				
					<linearGradient id="SVGID_00000131366104610467931520000009760362096150655882_" gradientUnits="userSpaceOnUse" x1="1802.6949" y1="1673.6989" x2="2116.0364" y2="877.0122">
					<stop  offset="0" style="stop-color:#FE7062"/>
					<stop  offset="1" style="stop-color:#FF928E"/>
				</linearGradient>
				<path style="fill:url(#SVGID_00000131366104610467931520000009760362096150655882_);" d="M1679.36,1916.84l424.33,214.54
					c7.05,3.56,15.43,3.27,22.21-0.77l41.5-24.72c6.26-3.73,10.14-10.03,11.03-16.85c-38.68-41.9-406.29-202.43-420.04-235.47
					c-4.89-11.75-5.73-29.55,8.93-57.15l-21.56-10.9c17.57-104.21-33.35-212.08-132.61-262.27
					c-122.13-61.75-271.19-12.8-332.94,109.33c-61.75,122.13-12.8,271.19,109.33,332.94
					C1488.79,2015.71,1605.85,1992.77,1679.36,1916.84z M1424.77,1649.46c24.73,12.5,34.64,42.69,22.14,67.42
					c-12.5,24.73-42.69,34.64-67.42,22.14c-24.73-12.5-34.64-42.69-22.14-67.42C1369.86,1646.86,1400.04,1636.95,1424.77,1649.46z"
					/>
				
					<linearGradient id="SVGID_00000069360606158089046940000015245449996902354623_" gradientUnits="userSpaceOnUse" x1="1975.2948" y1="826.0914" x2="1921.96" y2="929.4275">
					<stop  offset="0" style="stop-color:#FE7062"/>
					<stop  offset="1" style="stop-color:#FF928E"/>
				</linearGradient>
				<path style="fill:url(#SVGID_00000069360606158089046940000015245449996902354623_);" d="M1411.47,1922.12
					c98.16,49.63,217.97,10.29,267.6-87.87c49.63-98.16,10.29-217.97-87.87-267.6c-98.16-49.63-217.97-10.29-267.6,87.87
					C1273.97,1752.69,1313.31,1872.49,1411.47,1922.12z M1379.49,1739.01c-24.73-12.5-34.64-42.69-22.14-67.42
					c12.5-24.73,42.69-34.64,67.42-22.14c24.73,12.5,34.64,42.69,22.14,67.42C1434.41,1741.6,1404.22,1751.51,1379.49,1739.01z"/>
			</g>
			
				<linearGradient id="SVGID_00000083089663146857311690000006709349542169513365_" gradientUnits="userSpaceOnUse" x1="-820.4249" y1="4045.7346" x2="-1214.6862" y2="4730.7979" gradientTransform="matrix(0.9478 -0.3187 0.3187 0.9478 817.2306 -2113.7644)">
				<stop  offset="0" style="stop-color:#FEBBBA"/>
				<stop  offset="1" style="stop-color:#FF928E"/>
			</linearGradient>
			<path style="fill:url(#SVGID_00000083089663146857311690000006709349542169513365_);" d="M1074.9,2059.56
				c0,0,233.35,78.12,363.87-21.26c8.1-6.16,18.31-8.85,28.35-7.22l49.86,8.12c20.93,3.41,40.87-10.15,45.38-30.87
				c2.57-11.82,3.81-24.75,1.19-35.85l-94.13-5.68l2.69-12.21c0,0-41.61,10.18-42.44,42.73c0,0-97.6,63.93-275.6-35.3
				C1154.07,1962.02,1084.75,2016.27,1074.9,2059.56z"/>
		</g>
		<g>
			<g>
				<g class="st65">
					<path class="st34" d="M2877.24,889.66c-5.43-0.22-9.66-4.81-9.43-10.24c0.43-10.56,0.41-21.29-0.06-31.9
						c-0.24-5.37,3.87-9.92,9.21-10.26c0.06,0,0.13-0.01,0.19-0.01c5.43-0.24,10.03,3.97,10.27,9.4
						c0.49,11.17,0.52,22.46,0.06,33.58c-0.21,5.08-4.24,9.1-9.2,9.42C2877.94,889.67,2877.59,889.68,2877.24,889.66z
						 M2861.92,796.04c-1.91-10.44-4.29-20.9-7.07-31.09c-1.43-5.24,1.66-10.66,6.91-12.09c5.27-1.42,10.66,1.67,12.09,6.91
						c2.92,10.72,5.43,21.73,7.44,32.72c0.98,5.35-2.56,10.48-7.91,11.46c-0.39,0.07-0.78,0.12-1.16,0.14
						C2867.3,804.4,2862.82,801,2861.92,796.04z M2837.79,716.05c-4.18-9.73-8.83-19.39-13.83-28.73
						c-2.57-4.79-0.76-10.76,4.03-13.33c4.79-2.56,10.76-0.76,13.33,4.03c5.26,9.83,10.16,20.01,14.56,30.25
						c2.15,5-0.17,10.78-5.16,12.93c-1.07,0.46-2.17,0.71-3.26,0.78C2843.42,722.26,2839.48,719.99,2837.79,716.05z M2796.38,643.47
						c-6.25-8.56-12.95-16.94-19.9-24.93c-3.57-4.1-3.14-10.32,0.96-13.89c4.1-3.57,10.32-3.14,13.89,0.96
						c7.32,8.41,14.37,17.23,20.95,26.24c3.21,4.39,2.25,10.55-2.14,13.76c-1.57,1.15-3.37,1.76-5.18,1.88
						C2801.72,647.69,2798.44,646.29,2796.38,643.47z M2739.83,581.93c-7.98-6.94-16.37-13.64-24.93-19.9
						c-4.39-3.21-5.34-9.37-2.14-13.76c3.21-4.39,9.37-5.35,13.76-2.13c9.01,6.59,17.84,13.63,26.23,20.94
						c4.1,3.57,4.54,9.79,0.97,13.89c-1.8,2.07-4.27,3.2-6.8,3.36C2744.42,584.48,2741.86,583.7,2739.83,581.93z M2671.07,534.42
						c-9.33-5.01-18.99-9.68-28.71-13.88c-4.99-2.16-7.29-7.95-5.13-12.94c2.16-4.99,7.95-7.29,12.94-5.13
						c10.23,4.42,20.4,9.34,30.22,14.61c4.79,2.57,6.59,8.54,4.01,13.33c-1.67,3.11-4.78,4.96-8.06,5.17
						C2674.57,535.69,2672.75,535.33,2671.07,534.42z M2305.5,529.84c-2.56-4.8-0.74-10.76,4.05-13.32
						c9.83-5.24,20.02-10.12,30.29-14.51c5-2.14,10.79,0.19,12.92,5.19c2.14,5-0.19,10.78-5.19,12.92
						c-9.75,4.16-19.43,8.8-28.76,13.78c-1.28,0.68-2.64,1.05-4,1.14C2311.08,535.27,2307.37,533.36,2305.5,529.84z M2593.54,503.36
						c-10.2-2.81-20.65-5.21-31.06-7.13c-5.35-0.99-8.88-6.13-7.89-11.47c0.99-5.35,6.12-8.85,11.47-7.89
						c10.96,2.03,21.96,4.55,32.71,7.51c5.24,1.44,8.32,6.86,6.88,12.11c-1.14,4.16-4.79,6.96-8.87,7.21
						C2595.72,503.77,2594.63,503.66,2593.54,503.36z M2384.44,496.21c-1.42-5.25,1.69-10.65,6.94-12.07
						c10.75-2.91,21.77-5.39,32.75-7.38c5.35-0.99,10.47,2.58,11.44,7.93c0.97,5.35-2.58,10.47-7.93,11.44
						c-10.44,1.89-20.91,4.25-31.12,7.01c-0.65,0.18-1.31,0.28-1.95,0.32C2389.98,503.76,2385.68,500.81,2384.44,496.21z
						 M2511.03,490.41c-10.57-0.45-21.29-0.46-31.89-0.01c-5.43,0.23-10.02-3.98-10.25-9.42c-0.23-5.36,3.88-9.9,9.21-10.24
						c0.07,0,0.14-0.01,0.21-0.01c11.15-0.48,22.44-0.47,33.56,0c5.43,0.24,9.65,4.83,9.41,10.26c-0.22,5.07-4.24,9.09-9.2,9.4
						C2511.74,490.42,2511.39,490.43,2511.03,490.41z"/>
					<path class="st34" d="M2257,572.95c1.93-0.12,3.85-0.81,5.49-2.11c3.97-3.16,8.08-6.28,12.21-9.3
						c4.39-3.2,5.36-9.36,2.15-13.76c-3.2-4.39-9.37-5.36-13.76-2.15c-4.34,3.17-8.66,6.45-12.84,9.77
						c-4.26,3.38-4.97,9.58-1.59,13.83C2250.74,571.87,2253.89,573.15,2257,572.95z"/>
				</g>
				<g class="st65">
					<path class="st34" d="M2113.47,836.58c4.74-0.3,8.7-4,9.17-8.89c0.48-5.05,1.08-10.18,1.78-15.24
						c0.74-5.39-3.03-10.36-8.41-11.1c-5.41-0.74-10.36,3.03-11.1,8.41c-0.73,5.33-1.36,10.73-1.87,16.05
						c-0.52,5.41,3.45,10.22,8.86,10.74C2112.43,836.6,2112.95,836.61,2113.47,836.58z"/>
					<path class="st34" d="M2499.68,1256.89c-5.44,0.08-9.91-4.27-9.99-9.71c-0.08-5.44,4.26-9.9,9.7-9.98
						c10.35-0.15,20.86-0.74,31.34-1.76c5.38-0.54,10.23,3.44,10.75,8.85s-3.43,10.23-8.85,10.75c-4.54,0.44-9.08,0.81-13.6,1.09
						C2512.6,1256.54,2506.09,1256.8,2499.68,1256.89z M2573.73,1238.92c-1.25-5.29,2.02-10.59,7.31-11.85
						c10.16-2.41,20.32-5.27,30.21-8.51c5.16-1.71,10.73,1.12,12.42,6.29c1.69,5.16-1.12,10.73-6.29,12.42
						c-10.41,3.41-21.11,6.43-31.8,8.96c-0.55,0.13-1.11,0.21-1.66,0.25C2579.22,1246.78,2574.85,1243.66,2573.73,1238.92z
						 M2446.11,1253.98c-10.87-1.34-21.83-3.17-32.59-5.43c-5.32-1.12-8.73-6.34-7.61-11.66c1.12-5.32,6.34-8.72,11.66-7.61
						c10.21,2.15,20.62,3.88,30.94,5.15c5.4,0.67,9.23,5.58,8.57,10.98c-0.59,4.77-4.5,8.32-9.14,8.62
						C2447.35,1254.08,2446.73,1254.06,2446.11,1253.98z M2653.95,1212.57c-2.39-4.89-0.36-10.78,4.53-13.17
						c9.37-4.57,18.65-9.6,27.59-14.94c4.67-2.79,10.71-1.27,13.5,3.4c2.79,4.67,1.27,10.71-3.4,13.5
						c-9.42,5.63-19.19,10.92-29.05,15.74c-1.19,0.58-2.44,0.9-3.69,0.98C2659.57,1218.33,2655.76,1216.27,2653.95,1212.57z
						 M2361.94,1233.94c-10.3-3.7-20.59-7.89-30.58-12.46c-4.94-2.26-7.12-8.1-4.86-13.04c2.26-4.95,8.1-7.12,13.05-4.86
						c9.49,4.34,19.26,8.32,29.05,11.83c5.12,1.84,7.78,7.48,5.94,12.59c-1.37,3.81-4.85,6.26-8.65,6.5
						C2364.59,1234.59,2363.25,1234.41,2361.94,1233.94z M2284.21,1195.93c-9.27-5.87-18.4-12.21-27.13-18.82
						c-4.33-3.29-5.19-9.46-1.9-13.79c3.29-4.34,9.46-5.19,13.79-1.9c8.3,6.29,16.98,12.31,25.78,17.89
						c4.59,2.91,5.96,8.99,3.05,13.59c-1.76,2.77-4.66,4.36-7.7,4.55C2288.1,1197.57,2286.04,1197.08,2284.21,1195.93z
						 M2216.61,1141.88c-7.77-7.76-15.31-15.93-22.39-24.29c-3.52-4.15-3-10.36,1.15-13.88c4.15-3.52,10.36-3,13.88,1.15
						c6.73,7.94,13.89,15.7,21.27,23.08c3.85,3.84,3.86,10.08,0.01,13.92c-1.76,1.77-4.03,2.73-6.34,2.87
						C2221.47,1144.91,2218.69,1143.95,2216.61,1141.88z M2162.41,1074.36c-5.89-9.27-11.45-18.9-16.53-28.62
						c-2.52-4.82-0.65-10.77,4.17-13.29c4.81-2.51,10.77-0.65,13.28,4.17c4.82,9.23,10.1,18.37,15.7,27.17
						c2.92,4.59,1.56,10.67-3.03,13.59c-1.45,0.92-3.05,1.42-4.65,1.52C2167.89,1079.13,2164.41,1077.51,2162.41,1074.36z
						 M2124.35,996.55c-3.69-10.31-6.99-20.92-9.81-31.53c-1.4-5.26,1.73-10.65,6.99-12.04c5.24-1.39,10.65,1.73,12.04,6.99
						c2.67,10.08,5.81,20.16,9.32,29.95c1.83,5.12-0.83,10.75-5.95,12.59c-0.89,0.32-1.8,0.5-2.7,0.56
						C2129.97,1003.34,2125.86,1000.78,2124.35,996.55z M2104.32,912.37c-1-8.01-1.77-16.15-2.28-24.19
						c-0.19-2.91-0.34-5.82-0.46-8.72c-0.23-5.43,3.92-10.12,9.43-10.24c5.43-0.23,10.02,3.99,10.25,9.43
						c0.12,2.76,0.26,5.52,0.43,8.29c0.49,7.65,1.21,15.38,2.16,23c0.68,5.39-3.15,10.32-8.55,10.99c-0.2,0.02-0.41,0.05-0.61,0.06
						C2109.55,921.3,2104.97,917.56,2104.32,912.37z"/>
					<path class="st34" d="M2734.91,1172.72c1.95-0.12,3.89-0.83,5.53-2.14c4.16-3.34,8.32-6.82,12.38-10.36
						c4.1-3.57,4.52-9.79,0.95-13.89c-3.58-4.1-9.79-4.53-13.89-0.95c-3.86,3.36-7.81,6.67-11.76,9.84
						c-4.24,3.4-4.92,9.6-1.52,13.84C2728.68,1171.66,2731.82,1172.92,2734.91,1172.72z"/>
				</g>
				<g>
					<path class="st34" d="M2753.51,1004.97c1.14-1.6,1.15-3.74,0.01-5.34l-32.44-45.66c9.97-24.18,16.15-50.13,17.92-76.98
						l49.21-26.66c1.73-0.94,2.67-2.86,2.35-4.8l-10.99-66.27c-0.32-1.94-1.84-3.46-3.77-3.78l-55.18-9.34
						c-10.34-24.85-24.57-47.41-41.81-67.08l15.96-53.68c0.56-1.88-0.14-3.91-1.73-5.05l-54.63-39.09c-1.6-1.14-3.74-1.15-5.34-0.01
						l-45.66,32.44c-24.18-9.97-50.13-16.15-76.98-17.92l-26.66-49.21c-0.94-1.73-2.86-2.67-4.8-2.35l-66.27,10.99
						c-1.94,0.32-3.46,1.84-3.78,3.77l-9.34,55.19c-24.85,10.34-47.41,24.57-67.08,41.81l-53.68-15.96
						c-1.88-0.56-3.91,0.14-5.05,1.73l-39.09,54.63c-1.14,1.6-1.15,3.74-0.01,5.34l32.44,45.66c-9.97,24.18-16.15,50.12-17.92,76.98
						l-49.21,26.66c-1.73,0.93-2.67,2.86-2.35,4.8l10.99,66.27c0.32,1.94,1.84,3.46,3.77,3.78l55.18,9.34
						c10.34,24.85,24.57,47.41,41.81,67.08l-15.96,53.68c-0.56,1.88,0.14,3.91,1.73,5.05l54.63,39.09c1.6,1.14,3.74,1.15,5.34,0.01
						l45.66-32.44c24.18,9.97,50.12,16.15,76.98,17.92l26.66,49.21c0.94,1.72,2.86,2.67,4.8,2.35l66.27-10.99
						c1.94-0.32,3.46-1.84,3.78-3.77l9.34-55.18c24.85-10.34,47.41-24.57,67.08-41.81l53.68,15.96c1.88,0.56,3.91-0.14,5.05-1.73
						L2753.51,1004.97z"/>
					<g>
						<path class="st4" d="M2488.49,927.94c-37.11-3.09-64.78-35.78-61.7-72.89c1.49-17.98,9.9-34.29,23.67-45.95
							c13.76-11.65,31.24-17.25,49.22-15.75c37.11,3.09,64.78,35.78,61.7,72.89c-2.81,33.76-30.12,59.71-62.97,61.8
							C2495.15,928.25,2491.83,928.22,2488.49,927.94z M2460.63,821.13c-10.56,8.94-17,21.45-18.15,35.23
							c-2.36,28.45,18.86,53.52,47.31,55.88c28.46,2.38,53.52-18.86,55.89-47.31c2.36-28.45-18.86-53.52-47.31-55.88
							c-2.58-0.21-5.14-0.24-7.68-0.08C2479.68,809.68,2469.21,813.87,2460.63,821.13z"/>
					</g>
					<g>
						<path class="st4" d="M2503.21,1025.46c5.64-0.36,11.3-1,16.95-1.94l0,0c1.78-0.29,3.55-0.62,5.32-0.97
							c8.72-1.74,17.3-4.17,25.58-7.25c0.11-0.04,0.23-0.08,0.34-0.13c0.32-0.12,0.64-0.24,0.96-0.37c0.62-0.24,1.24-0.48,1.86-0.72
							c1.63-0.64,2.59-2.25,2.48-3.91c-0.03-0.4-0.11-0.81-0.27-1.2c-0.8-2.02-3.09-3.01-5.11-2.21
							c-10.41,4.12-21.33,7.14-32.46,8.98c-55.29,9.18-108.74-11.66-143.67-50.55c-19.43-21.63-33.13-48.85-38.23-79.6
							c-0.9-5.39-1.51-10.79-1.85-16.17c-2.29-36.22,7.85-71.82,29.25-101.73c24.58-34.36,61.07-57.09,102.75-64
							c86.07-14.27,167.64,44.12,181.91,130.15c0.88,5.3,1.49,10.63,1.82,15.97c1.46,23.1-2.15,46.27-10.65,67.82
							c-0.22,0.56-0.3,1.13-0.27,1.69c0.09,1.47,1.02,2.84,2.48,3.41c2.03,0.79,4.31-0.19,5.11-2.22
							c8.93-22.63,12.72-46.95,11.18-71.2c-0.35-5.6-0.99-11.19-1.91-16.76c-14.98-90.33-100.67-151.61-190.96-136.64
							c-43.75,7.26-82.06,31.12-107.87,67.19c-22.47,31.4-33.12,68.78-30.71,106.8c0.36,5.65,1.01,11.32,1.94,16.98
							c7.26,43.76,31.12,82.06,67.18,107.87C2427.78,1017.23,2465.18,1027.88,2503.21,1025.46z"/>
					</g>
				</g>
			</g>
			<g>
				<g class="st65">
					<path class="st34" d="M3230.02,1127.3c2.63-0.17,4.94-2.03,5.54-4.73c1.14-5.03,2.14-10.17,2.97-15.27
						c0.54-3.31-1.7-6.44-5.02-6.98c-3.32-0.56-6.44,1.71-6.98,5.02c-0.79,4.86-1.75,9.76-2.83,14.56
						c-0.74,3.27,1.32,6.53,4.59,7.27C3228.87,1127.3,3229.45,1127.34,3230.02,1127.3z"/>
					<path class="st34" d="M3235.47,1080.93c-3.36-0.13-5.97-2.95-5.84-6.31c0.32-8.47,0.21-17.05-0.32-25.51
						c-0.11-1.78-0.25-3.57-0.4-5.37c-0.28-3.34,2.2-6.29,5.55-6.57c3.17-0.14,6.29,2.2,6.57,5.55c0.16,1.88,0.3,3.75,0.42,5.61
						c0.56,8.87,0.68,17.87,0.33,26.75c-0.12,3.14-2.61,5.64-5.68,5.83C3235.89,1080.93,3235.68,1080.94,3235.47,1080.93z
						 M3224.43,1013.18c-2.11-10.06-4.85-20.08-8.16-29.77c-1.09-3.18,0.61-6.63,3.79-7.72c3.16-1.08,6.64,0.61,7.72,3.79
						c3.47,10.16,6.35,20.67,8.56,31.21c0.69,3.29-1.42,6.51-4.71,7.2c-0.29,0.06-0.58,0.1-0.87,0.11
						C3227.79,1018.2,3225.06,1016.18,3224.43,1013.18z M3204.48,954.87c-4.5-9.22-9.62-18.26-15.24-26.86
						c-1.83-2.81-1.04-6.58,1.77-8.41c2.82-1.84,6.58-1.05,8.42,1.77c5.89,9.02,11.26,18.5,15.98,28.17
						c1.47,3.02,0.22,6.66-2.8,8.13c-0.74,0.36-1.51,0.55-2.28,0.6C3207.94,958.42,3205.59,957.15,3204.48,954.87z M3170.8,903.23
						c-6.63-7.85-13.82-15.36-21.34-22.31c-2.47-2.28-2.62-6.13-0.34-8.59c2.27-2.46,6.12-2.62,8.59-0.34
						c7.89,7.29,15.42,15.16,22.38,23.4c2.17,2.56,1.84,6.4-0.72,8.57c-1.04,0.87-2.28,1.34-3.53,1.42
						C3173.98,905.49,3172.1,904.76,3170.8,903.23z M3125.54,861.38c-8.34-6-17.12-11.53-26.12-16.46
						c-2.94-1.61-4.02-5.31-2.41-8.25c1.61-2.95,5.31-4.03,8.25-2.41c9.43,5.16,18.64,10.97,27.38,17.25
						c2.72,1.96,3.35,5.76,1.39,8.49c-1.11,1.54-2.8,2.41-4.56,2.52C3128.12,862.6,3126.73,862.23,3125.54,861.38z M3071.49,831.79
						c-9.54-3.79-19.4-7.01-29.32-9.58c-3.25-0.84-5.2-4.16-4.36-7.41c0.84-3.25,4.15-5.2,7.41-4.36
						c10.4,2.7,20.75,6.08,30.75,10.05c3.12,1.24,4.65,4.77,3.41,7.89c-0.9,2.26-3,3.68-5.27,3.83
						C3073.25,832.26,3072.36,832.13,3071.49,831.79z M3011.87,816.32c-10.14-1.33-20.51-2.03-30.8-2.09
						c-3.36-0.02-6.06-2.76-6.04-6.12c0.02-3.36,2.75-6.01,6.12-6.05c10.79,0.07,21.66,0.81,32.3,2.2c3.33,0.44,5.68,3.49,5.24,6.82
						c-0.38,2.93-2.79,5.1-5.64,5.28C3012.67,816.38,3012.27,816.37,3011.87,816.32z M2912.5,816.93c-0.8-3.26,1.2-6.55,4.47-7.35
						c9.03-2.2,18.34-3.95,27.64-5.19c1.41-0.2,2.82-0.37,4.23-0.54c3.31-0.48,6.36,2,6.74,5.34c0.39,3.34-2,6.35-5.34,6.74
						c-1.32,0.15-2.65,0.32-4,0.5c-8.9,1.18-17.78,2.85-26.39,4.95c-0.35,0.09-0.71,0.14-1.06,0.16
						C2915.89,821.75,2913.2,819.84,2912.5,816.93z"/>
				</g>
				<g class="st65">
					<path class="st34" d="M2992.3,1327.05c-10.58,0.53-21.29,0.42-31.83-0.32c-3.35-0.24-5.87-3.14-5.64-6.5
						c0.24-3.35,3.17-5.84,6.5-5.64c10.05,0.71,20.26,0.81,30.36,0.3c3.35-0.17,6.21,2.41,6.38,5.77c0.17,3.33-2.37,6.17-5.69,6.38
						C2992.35,1327.04,2992.32,1327.05,2992.3,1327.05z M3016.93,1318.57c-0.57-3.31,1.65-6.45,4.96-7.02
						c9.96-1.71,19.91-4.05,29.58-6.94c3.2-0.95,6.61,0.87,7.57,4.09c0.96,3.22-0.87,6.6-4.08,7.57c-10.14,3.03-20.57,5.48-31,7.27
						c-0.22,0.04-0.44,0.06-0.66,0.08C3020.24,1323.8,3017.46,1321.67,3016.93,1318.57z M2928.89,1322.54
						c-10.41-2.04-20.78-4.73-30.82-8c-3.19-1.04-4.94-4.48-3.9-7.67c1.04-3.2,4.46-4.93,7.66-3.9c9.58,3.12,19.47,5.69,29.4,7.64
						c3.3,0.65,5.44,3.84,4.8,7.13c-0.54,2.77-2.89,4.73-5.58,4.9C2929.94,1322.67,2929.41,1322.64,2928.89,1322.54z
						 M3076.85,1302.15c-1.35-3.07,0.05-6.66,3.13-8.01c9.25-4.06,18.34-8.72,27.02-13.87c2.89-1.71,6.62-0.75,8.33,2.12
						c1.71,2.89,0.76,6.62-2.13,8.33c-9.1,5.4-18.64,10.3-28.34,14.55c-0.67,0.29-1.37,0.46-2.06,0.5
						C3080.33,1305.93,3077.91,1304.55,3076.85,1302.15z M2868.47,1302.85c-9.59-4.47-19-9.58-27.98-15.18
						c-2.85-1.78-3.72-5.53-1.94-8.38c1.78-2.85,5.53-3.73,8.38-1.94c8.57,5.35,17.54,10.22,26.69,14.48
						c3.04,1.42,4.36,5.04,2.94,8.08c-0.97,2.09-2.98,3.36-5.13,3.5C2870.44,1303.47,2869.42,1303.29,2868.47,1302.85z
						 M2814.53,1269.23c-8.25-6.65-16.18-13.87-23.55-21.44c-2.34-2.4-2.29-6.25,0.11-8.59c2.4-2.34,6.25-2.29,8.6,0.11
						c7.03,7.22,14.59,14.1,22.47,20.45c2.61,2.11,3.02,5.94,0.92,8.55c-1.11,1.38-2.71,2.15-4.35,2.25
						C2817.26,1270.66,2815.76,1270.22,2814.53,1269.23z M2770.18,1223.66c-6.43-8.44-12.39-17.35-17.72-26.47
						c-1.7-2.9-0.72-6.62,2.18-8.32c2.9-1.7,6.62-0.71,8.32,2.18c5.08,8.7,10.77,17.2,16.9,25.24c2.03,2.67,1.52,6.49-1.16,8.52
						c-0.99,0.76-2.14,1.16-3.29,1.23C2773.45,1226.17,2771.47,1225.34,2770.18,1223.66z"/>
					<path class="st34" d="M3136.47,1273.92c1.17-0.07,2.33-0.49,3.33-1.26c4.12-3.18,8.16-6.5,12.02-9.87
						c2.53-2.21,2.79-6.05,0.59-8.58c-2.21-2.52-6.05-2.79-8.58-0.59c-3.68,3.21-7.53,6.38-11.46,9.42
						c-2.66,2.05-3.14,5.88-1.09,8.53C3132.55,1273.23,3134.52,1274.05,3136.47,1273.92z"/>
				</g>
				<g>
					<path class="st34" d="M3152.61,1159.29c0.76-1.07,0.77-2.5,0.01-3.58l-21.7-30.55c6.67-16.18,10.81-33.54,11.99-51.51
						l32.93-17.84c1.16-0.63,1.79-1.92,1.57-3.21l-7.35-44.35c-0.21-1.3-1.23-2.31-2.52-2.53l-36.93-6.25
						c-6.92-16.63-16.44-31.72-27.98-44.89l10.68-35.92c0.37-1.26-0.09-2.62-1.16-3.38l-36.56-26.16c-1.07-0.76-2.5-0.77-3.58-0.01
						l-30.55,21.7c-16.18-6.67-33.54-10.81-51.51-11.99l-17.84-32.93c-0.63-1.16-1.92-1.79-3.21-1.57l-44.35,7.35
						c-1.3,0.22-2.31,1.23-2.53,2.52l-6.25,36.93c-16.63,6.92-31.72,16.44-44.89,27.98l-35.92-10.68c-1.26-0.37-2.62,0.09-3.38,1.16
						l-26.16,36.56c-0.76,1.07-0.77,2.5-0.01,3.57l21.7,30.55c-6.67,16.18-10.81,33.54-11.99,51.51l-32.93,17.84
						c-1.16,0.62-1.79,1.91-1.57,3.21l7.35,44.35c0.22,1.3,1.23,2.31,2.52,2.53l36.93,6.25c6.92,16.63,16.44,31.72,27.98,44.89
						l-10.68,35.92c-0.37,1.26,0.09,2.62,1.16,3.38l36.56,26.16c1.07,0.76,2.5,0.77,3.58,0.01l30.55-21.7
						c16.18,6.67,33.54,10.81,51.51,11.99l17.84,32.93c0.63,1.15,1.92,1.79,3.21,1.57l44.35-7.35c1.3-0.22,2.31-1.23,2.53-2.52
						l6.25-36.93c16.63-6.92,31.72-16.44,44.89-27.98l35.92,10.68c1.26,0.37,2.62-0.09,3.38-1.16L3152.61,1159.29z"/>
					<g>
						<path class="st4" d="M2975.21,1108.55c-12.25-1.01-23.36-6.74-31.3-16.12c-7.94-9.37-11.75-21.28-10.73-33.53
							c2.1-25.27,24.34-44.09,49.65-42.03c25.28,2.11,44.13,24.38,42.02,49.65c-1.02,12.24-6.74,23.36-16.12,31.3
							c-7.62,6.45-16.92,10.18-26.71,10.8C2979.77,1108.76,2977.49,1108.74,2975.21,1108.55z M2945.29,1059.91
							c-0.75,9.01,2.05,17.77,7.89,24.67c5.84,6.89,14.02,11.11,23.02,11.86l0,0c9.01,0.74,17.77-2.06,24.67-7.9
							c6.9-5.83,11.11-14.02,11.86-23.02c1.55-18.59-12.32-34.97-30.91-36.52c-1.68-0.14-3.34-0.15-4.97-0.05
							C2960.39,1029.99,2946.7,1043,2945.29,1059.91z"/>
					</g>
					<g>
						<path class="st4" d="M2985.45,1176.43c3.84-0.24,7.7-0.69,11.57-1.32c7.69-1.27,15.26-3.33,22.52-6.12
							c0.33-0.13,0.65-0.26,0.98-0.38c2.51-0.99,4-3.47,3.84-6.03c-0.04-0.62-0.18-1.25-0.42-1.86c-1.23-3.12-4.77-4.64-7.89-3.41
							c-6.75,2.67-13.82,4.63-21.01,5.81l0,0c-0.39,0.07-0.79,0.13-1.18,0.19c-17.04,2.66-34.1,0.97-49.92-4.69
							c-8.59-3.07-16.81-7.32-24.47-12.7c-0.06-0.04-0.12-0.09-0.19-0.13c-0.19-0.14-0.38-0.27-0.57-0.4
							c-22.24-15.92-36.96-39.54-41.43-66.52c-0.58-3.49-0.98-6.98-1.2-10.47c-1.49-23.45,5.08-46.5,18.94-65.86
							c15.92-22.24,39.54-36.95,66.52-41.42c26.96-4.46,54.09,1.83,76.33,17.74c22.24,15.92,36.96,39.54,41.43,66.52
							c0.57,3.43,0.96,6.88,1.18,10.33c0.95,14.96-1.39,29.95-6.89,43.9c-0.34,0.86-0.47,1.75-0.41,2.61
							c0.14,2.28,1.57,4.38,3.84,5.27c3.13,1.22,6.65-0.3,7.89-3.43c6.16-15.61,8.77-32.39,7.72-49.12
							c-0.25-3.86-0.68-7.72-1.32-11.56c-5.01-30.19-21.47-56.62-46.36-74.42c-24.88-17.8-55.2-24.87-85.39-19.84
							c-30.19,5-56.61,21.46-74.42,46.35c-15.5,21.66-22.85,47.45-21.19,73.68c0.25,3.89,0.69,7.8,1.34,11.71
							C2874.97,1139.28,2927.56,1180.1,2985.45,1176.43z"/>
					</g>
				</g>
			</g>
		</g>
	</g>
</g>
</svg>
