<?xml version="1.0" encoding="utf-8"?>
<!-- Generator: Adobe Illustrator 27.0.0, SVG Export Plug-In . SVG Version: 6.00 Build 0)  -->
<svg version="1.1" xmlns="http://www.w3.org/2000/svg" xmlns:xlink="http://www.w3.org/1999/xlink" x="0px" y="0px"
	 viewBox="0 0 1893.45 2040.51" style="enable-background:new 0 0 1893.45 2040.51;" xml:space="preserve">
<style type="text/css">
	.st0{display:none;}
	.st1{display:inline;fill:#FFFFFF;}
	.st2{fill:#FFFFFF;}
	.st3{fill:#4649EF;}
</style>
<g id="Background" class="st0">
	<rect x="-289.64" y="-363.17" class="st1" width="2500" height="2500"/>
</g>
<g id="Illustration">
	<g id="Access_control_system_1_">
		<g>
			<g>
				<g>
					<path class="st2" d="M266.15,1251.07l24.27,6.96l13.25-24.18c5.91,0.61,11.79,0.72,17.59,0.34l12.38,24.6l24.5-6.11
						l-0.62-27.58c5.35-2.41,10.49-5.26,15.37-8.52l23.06,15.14l18.16-17.54l-14.3-23.54c3.4-4.71,6.42-9.76,9.04-15.09l27.53,1.58
						l6.96-24.27l-24.18-13.25c0.61-5.91,0.72-11.79,0.34-17.59l24.6-12.38l-6.11-24.5l-27.58,0.62
						c-2.41-5.35-5.26-10.49-8.52-15.37l15.14-23.05l-17.54-18.16l-23.54,14.3c-4.71-3.4-9.76-6.42-15.09-9.04l1.58-27.53
						l-24.27-6.96l-13.25,24.18c-5.91-0.61-11.79-0.72-17.59-0.34l-12.38-24.6l-24.5,6.11l0.62,27.58
						c-5.35,2.41-10.49,5.26-15.37,8.52l-23.06-15.14l-18.16,17.54l14.3,23.54c-3.4,4.71-6.42,9.76-9.04,15.09l-27.53-1.58
						l-6.96,24.27l24.18,13.25c-0.61,5.91-0.72,11.79-0.34,17.59l-24.6,12.38l6.11,24.5l27.58-0.62c2.41,5.35,5.26,10.49,8.52,15.37
						l-15.14,23.06l17.54,18.16l23.54-14.3c4.71,3.4,9.76,6.42,15.09,9.04L266.15,1251.07z M251.82,1111.08
						c9.9-34.5,45.89-54.45,80.4-44.55c34.5,9.9,54.45,45.89,44.55,80.4c-9.9,34.51-45.89,54.45-80.4,44.55
						C261.87,1181.58,241.92,1145.58,251.82,1111.08z"/>
					<path class="st3" d="M333.63,1261c-0.82,0-1.6-0.46-1.98-1.22l-11.72-23.3c-4.93,0.26-9.98,0.16-15.02-0.29l-12.55,22.91
						c-0.5,0.91-1.56,1.35-2.55,1.06l-24.27-6.96c-1-0.29-1.66-1.22-1.6-2.25l1.5-26.07c-4.52-2.29-8.84-4.88-12.89-7.72
						l-22.29,13.55c-0.88,0.54-2.02,0.39-2.74-0.35l-17.54-18.16c-0.72-0.74-0.83-1.89-0.26-2.75l14.34-21.84
						c-2.72-4.2-5.16-8.6-7.27-13.12l-26.12,0.58c-0.02,0-0.03,0-0.05,0c-1.01,0-1.9-0.69-2.15-1.68l-6.11-24.5
						c-0.25-1,0.23-2.05,1.15-2.51l23.3-11.72c-0.26-4.94-0.16-9.98,0.29-15.03l-22.91-12.55c-0.91-0.5-1.35-1.56-1.06-2.55
						l6.96-24.27c0.28-0.99,1.15-1.67,2.25-1.6l26.07,1.5c2.29-4.52,4.88-8.84,7.72-12.89l-13.54-22.29
						c-0.54-0.88-0.39-2.02,0.35-2.74l18.16-17.54c0.75-0.72,1.89-0.82,2.75-0.26l21.84,14.34c4.2-2.72,8.6-5.16,13.12-7.27
						l-0.58-26.12c-0.02-1.03,0.67-1.95,1.68-2.2l24.5-6.11c1.01-0.25,2.05,0.23,2.51,1.15l11.72,23.3
						c4.95-0.26,9.98-0.16,15.02,0.29l12.55-22.91c0.5-0.91,1.56-1.35,2.55-1.06l24.27,6.96c1,0.29,1.66,1.22,1.6,2.26l-1.5,26.07
						c4.52,2.29,8.84,4.88,12.9,7.72l22.29-13.55c0.88-0.54,2.02-0.39,2.74,0.35l17.54,18.16c0.72,0.74,0.83,1.89,0.26,2.75
						l-14.34,21.84c2.72,4.2,5.16,8.6,7.27,13.12l26.12-0.58c0.02,0,0.03,0,0.05,0c1.01,0,1.9,0.69,2.15,1.68l6.11,24.5
						c0.25,1-0.23,2.05-1.15,2.51l-23.3,11.72c0.26,4.95,0.16,9.99-0.29,15.02l22.91,12.55c0.91,0.5,1.35,1.56,1.06,2.55
						l-6.96,24.27c-0.28,0.99-1.19,1.66-2.25,1.6l-26.07-1.5c-2.29,4.52-4.88,8.84-7.72,12.89l13.54,22.29
						c0.54,0.88,0.39,2.02-0.35,2.74l-18.16,17.54c-0.74,0.72-1.89,0.82-2.75,0.26l-21.84-14.34c-4.19,2.72-8.6,5.16-13.12,7.27
						l0.58,26.12c0.02,1.03-0.67,1.95-1.68,2.2l-24.5,6.11C333.99,1260.98,333.81,1261,333.63,1261z M321.25,1231.97
						c0.83,0,1.6,0.47,1.98,1.22l11.58,23.02l21.06-5.25l-0.58-25.81c-0.02-0.89,0.5-1.7,1.3-2.07c5.22-2.35,10.28-5.16,15.05-8.34
						c0.74-0.49,1.7-0.5,2.44-0.01l21.58,14.17l15.62-15.08l-13.38-22.03c-0.46-0.76-0.42-1.72,0.1-2.44
						c3.3-4.58,6.28-9.55,8.84-14.77c0.39-0.8,1.17-1.29,2.11-1.23l25.76,1.48l5.99-20.87l-22.63-12.4
						c-0.78-0.43-1.23-1.28-1.14-2.17c0.59-5.77,0.71-11.56,0.33-17.21c-0.06-0.89,0.42-1.72,1.21-2.12l23.02-11.58l-5.25-21.06
						l-25.81,0.58c-0.9,0.03-1.7-0.49-2.07-1.3c-2.35-5.22-5.15-10.28-8.34-15.05c-0.49-0.74-0.5-1.7-0.01-2.44l14.17-21.57
						l-15.08-15.62l-22.03,13.38c-0.76,0.46-1.72,0.42-2.44-0.1c-4.58-3.3-9.55-6.28-14.77-8.84c-0.8-0.39-1.29-1.23-1.23-2.11
						l1.48-25.76l-20.87-5.99l-12.4,22.63c-0.43,0.78-1.25,1.23-2.17,1.14c-5.78-0.59-11.58-0.71-17.21-0.33
						c-0.92,0.06-1.72-0.42-2.12-1.21l-11.58-23.02l-21.06,5.25l0.58,25.81c0.02,0.89-0.5,1.7-1.31,2.07
						c-5.22,2.35-10.28,5.15-15.05,8.34c-0.74,0.49-1.7,0.5-2.44,0.01l-21.58-14.17l-15.62,15.08l13.38,22.03
						c0.46,0.76,0.42,1.72-0.1,2.44c-3.3,4.58-6.28,9.55-8.84,14.77c-0.39,0.8-1.2,1.29-2.11,1.23l-25.76-1.48l-5.99,20.87
						l22.63,12.4c0.78,0.43,1.23,1.28,1.14,2.17c-0.6,5.79-0.71,11.58-0.33,17.22c0.06,0.89-0.42,1.72-1.21,2.12l-23.02,11.58
						l5.25,21.06l25.8-0.58c0.88-0.03,1.7,0.49,2.07,1.3c2.34,5.21,5.15,10.27,8.34,15.05c0.49,0.74,0.5,1.7,0.01,2.44l-14.17,21.58
						l15.08,15.62l22.03-13.38c0.76-0.46,1.73-0.42,2.44,0.1c4.58,3.3,9.55,6.28,14.77,8.84c0.8,0.39,1.28,1.23,1.23,2.11
						l-1.48,25.76l20.87,5.99l12.4-22.63c0.43-0.78,1.26-1.23,2.17-1.14c5.79,0.59,11.58,0.71,17.22,0.33
						C321.16,1231.97,321.21,1231.97,321.25,1231.97z M314.4,1196.24c-6.23,0-12.48-0.87-18.63-2.64
						c-35.62-10.22-56.29-47.51-46.07-83.14c4.95-17.26,16.32-31.55,32.02-40.25c15.7-8.7,33.86-10.77,51.11-5.82
						c35.62,10.22,56.29,47.51,46.07,83.14c-4.95,17.26-16.32,31.55-32.02,40.25C336.77,1193.39,325.64,1196.24,314.4,1196.24z
						 M253.95,1111.69c-9.55,33.28,9.76,68.12,43.04,77.66c16.12,4.62,33.08,2.69,47.74-5.43c14.67-8.13,25.29-21.48,29.92-37.6
						c9.55-33.28-9.76-68.12-43.04-77.66c-16.12-4.62-33.08-2.69-47.74,5.43C269.2,1082.21,258.57,1095.57,253.95,1111.69z"/>
				</g>
			</g>
			<g>
				<g>
					<path class="st2" d="M264.04,1731.38l41.53,11.91l22.67-41.38c10.11,1.04,20.17,1.24,30.1,0.58l21.18,42.1l41.92-10.45
						l-1.06-47.19c9.15-4.12,17.95-9,26.3-14.57l39.45,25.91l31.08-30.01l-24.47-40.28c5.82-8.07,10.98-16.7,15.46-25.83l47.11,2.71
						l11.91-41.53l-41.38-22.67c1.04-10.11,1.24-20.17,0.58-30.09l42.1-21.18l-10.45-41.92l-47.19,1.06
						c-4.12-9.15-8.99-17.95-14.57-26.3l25.91-39.45l-30.01-31.08l-40.28,24.47c-8.07-5.82-16.7-10.98-25.83-15.46l2.71-47.11
						l-41.53-11.91l-22.67,41.38c-10.11-1.04-20.17-1.24-30.1-0.58l-21.18-42.1l-41.92,10.45l1.06,47.19
						c-9.15,4.12-17.95,9-26.3,14.57l-39.45-25.91l-31.08,30.01l24.47,40.28c-5.82,8.07-10.98,16.7-15.46,25.83l-47.11-2.71
						l-11.91,41.53l41.38,22.67c-1.04,10.11-1.24,20.17-0.58,30.1l-42.1,21.18l10.45,41.92l47.19-1.06c4.12,9.15,9,17.95,14.57,26.3
						l-25.91,39.45l30.01,31.08l40.28-24.47c8.07,5.82,16.7,10.98,25.83,15.46L264.04,1731.38z M239.53,1491.83
						c16.94-59.04,78.53-93.18,137.58-76.24c59.04,16.94,93.18,78.53,76.24,137.58c-16.94,59.04-78.53,93.18-137.58,76.24
						C256.73,1612.47,222.59,1550.88,239.53,1491.83z"/>
					<path class="st3" d="M379.53,1746.81c-0.82,0-1.6-0.46-1.98-1.22l-20.53-40.8c-9.03,0.52-18.29,0.34-27.54-0.53l-21.97,40.1
						c-0.5,0.91-1.56,1.35-2.55,1.06l-41.53-11.91c-1-0.29-1.66-1.22-1.6-2.25l2.63-45.65c-8.31-4.16-16.25-8.91-23.63-14.15
						l-39.03,23.71c-0.88,0.54-2.02,0.39-2.74-0.35l-30.01-31.08c-0.72-0.74-0.83-1.89-0.26-2.75l25.11-38.23
						c-5.03-7.66-9.51-15.74-13.33-24.06l-45.73,1.02c-1.09,0.03-1.95-0.67-2.2-1.68l-10.45-41.92c-0.25-1,0.23-2.05,1.15-2.51
						l40.8-20.52c-0.52-9.03-0.34-18.28,0.53-27.54l-40.1-21.97c-0.91-0.5-1.35-1.56-1.06-2.55l11.91-41.53
						c0.28-0.99,1.14-1.67,2.25-1.6l45.65,2.63c4.16-8.31,8.91-16.24,14.14-23.63l-23.71-39.03c-0.54-0.88-0.39-2.02,0.35-2.74
						l31.08-30.01c0.74-0.72,1.89-0.82,2.75-0.26l38.23,25.11c7.66-5.03,15.74-9.51,24.06-13.33l-1.02-45.73
						c-0.02-1.03,0.67-1.95,1.68-2.2l41.92-10.45c1.01-0.25,2.05,0.23,2.51,1.15l20.52,40.8c9.03-0.52,18.28-0.34,27.54,0.53
						l21.97-40.1c0.5-0.91,1.56-1.35,2.55-1.06l41.53,11.91c1,0.29,1.66,1.22,1.6,2.26l-2.63,45.65
						c8.31,4.16,16.25,8.91,23.63,14.15l39.03-23.71c0.88-0.54,2.02-0.39,2.74,0.35l30.01,31.08c0.72,0.74,0.83,1.89,0.26,2.75
						l-25.11,38.23c5.02,7.65,9.5,15.73,13.33,24.06l45.73-1.02c0.02,0,0.03,0,0.05,0c1.01,0,1.9,0.69,2.15,1.68l10.45,41.92
						c0.25,1-0.23,2.05-1.15,2.51l-40.8,20.52c0.52,9.03,0.34,18.28-0.53,27.54l40.1,21.97c0.91,0.5,1.35,1.56,1.06,2.55
						l-11.91,41.53c-0.28,0.99-1.19,1.66-2.25,1.6l-45.65-2.63c-4.16,8.31-8.91,16.25-14.15,23.63l23.72,39.03
						c0.54,0.88,0.39,2.02-0.35,2.74l-31.08,30.01c-0.74,0.72-1.89,0.82-2.75,0.26l-38.23-25.11c-7.65,5.02-15.73,9.5-24.05,13.33
						l1.02,45.73c0.02,1.03-0.67,1.95-1.68,2.2l-41.92,10.45C379.88,1746.79,379.7,1746.81,379.53,1746.81z M358.34,1700.28
						c0.83,0,1.6,0.47,1.98,1.22l20.39,40.52l38.49-9.59l-1.02-45.42c-0.02-0.89,0.49-1.7,1.3-2.07c9.02-4.06,17.76-8.9,25.97-14.4
						c0.74-0.49,1.7-0.5,2.44-0.01l37.97,24.94l28.54-27.55l-23.56-38.77c-0.46-0.76-0.42-1.72,0.1-2.44
						c5.71-7.91,10.84-16.49,15.27-25.51c0.39-0.8,1.17-1.29,2.11-1.23l45.34,2.61l10.94-38.13l-39.83-21.82
						c-0.78-0.43-1.23-1.28-1.14-2.17c1.02-10,1.22-20,0.57-29.72c-0.06-0.89,0.42-1.72,1.21-2.12l40.52-20.39l-9.59-38.49
						l-45.42,1.02c-0.92,0.03-1.7-0.49-2.07-1.3c-4.06-9.02-8.9-17.76-14.39-25.98c-0.49-0.74-0.5-1.7-0.01-2.44l24.94-37.97
						l-27.55-28.54l-38.77,23.55c-0.76,0.46-1.72,0.42-2.44-0.1c-7.91-5.7-16.49-10.84-25.51-15.27c-0.8-0.39-1.29-1.23-1.23-2.11
						l2.61-45.34l-38.13-10.94l-21.82,39.83c-0.43,0.78-1.27,1.23-2.17,1.14c-10-1.03-20-1.22-29.72-0.57
						c-0.92,0.06-1.72-0.42-2.12-1.21l-20.38-40.52l-38.49,9.59l1.02,45.42c0.02,0.89-0.49,1.7-1.31,2.07
						c-9.01,4.06-17.75,8.9-25.97,14.39c-0.74,0.49-1.7,0.5-2.44,0.01L207,1349.52l-28.54,27.55l23.55,38.77
						c0.46,0.76,0.42,1.72-0.1,2.44c-5.7,7.91-10.84,16.49-15.27,25.51c-0.39,0.8-1.19,1.29-2.11,1.23l-45.34-2.61l-10.94,38.13
						l39.83,21.82c0.78,0.43,1.23,1.28,1.14,2.17c-1.03,10-1.22,20-0.57,29.72c0.06,0.89-0.42,1.72-1.21,2.12l-40.52,20.39
						l9.59,38.49l45.42-1.02c0.87-0.05,1.7,0.49,2.07,1.3c4.05,9,8.89,17.74,14.39,25.98c0.5,0.74,0.5,1.7,0.01,2.44l-24.94,37.97
						l27.55,28.54l38.77-23.55c0.76-0.46,1.72-0.42,2.44,0.1c7.91,5.7,16.49,10.84,25.51,15.27c0.8,0.39,1.29,1.23,1.23,2.11
						l-2.61,45.34l38.13,10.94l21.82-39.83c0.43-0.78,1.24-1.23,2.17-1.14c9.99,1.03,19.99,1.22,29.72,0.57
						C358.25,1700.28,358.3,1700.28,358.34,1700.28z M346.39,1635.95c-10.33,0-20.82-1.42-31.23-4.41
						c-29.13-8.35-53.25-27.55-67.94-54.05c-14.69-26.5-18.17-57.14-9.82-86.26c8.35-29.12,27.55-53.25,54.05-67.94
						c26.5-14.69,57.13-18.17,86.26-9.82c29.13,8.35,53.25,27.55,67.94,54.05c14.68,26.5,18.17,57.14,9.82,86.26
						C441.21,1603.49,395.71,1635.95,346.39,1635.95z M239.53,1491.83l2.13,0.61c-8.03,27.99-4.68,57.43,9.44,82.9
						c14.11,25.47,37.3,43.91,65.29,51.94c10,2.87,20.09,4.24,30.01,4.24c47.4,0,91.12-31.19,104.83-78.96
						c8.03-27.99,4.68-57.43-9.44-82.9c-14.11-25.47-37.3-43.91-65.29-51.94c-27.99-8.03-57.43-4.68-82.89,9.44
						c-25.47,14.11-43.91,37.3-51.94,65.29L239.53,1491.83z"/>
				</g>
			</g>
		</g>
		<g>
			<g>
				<g>
					<path class="st2" d="M1132.02,1162.13c17.84-23.7-99.77-66.12-98.19-149.38c1.45-76.07,100.68-95.61,97.76-165.3
						c-3.13-74.57-118.31-89.16-118.36-165.17c-0.04-58.58,68.35-67.4,73.9-130.06c6.67-75.28-90.05-85.29-121.47-184.71
						c-29.35-92.85,38.14-137.46-11.1-210.98c-6.41-9.57-46.37-66.76-103.04-67.59c-92.19-1.36-211.28,146.64-193.75,274.68
						C672.52,471.44,773.1,484.45,778.99,599c4.99,97.09-65.95,113.33-42.87,188.64c27.31,89.12,135.79,96.13,158.11,196.57
						c11.69,52.61-14.39,67.27,7.01,104.48C946.41,1167.29,1112.35,1188.26,1132.02,1162.13z"/>
					<path class="st3" d="M1089.76,1175.01c-4.28,0-8.8-0.14-13.55-0.44c-53.42-3.3-144.61-28.61-176.9-84.77
						c-11.9-20.69-9.56-34.89-6.85-51.33c2.3-14,4.92-29.87-0.4-53.77c-11.54-51.94-47.03-78.94-81.35-105.06
						c-31.23-23.76-63.53-48.33-76.71-91.35c-12.1-39.46,0.86-62.76,15.87-89.73c13.74-24.7,29.31-52.7,26.91-99.44
						c-3.02-58.89-30.8-89.9-60.21-122.74c-26.47-29.56-53.84-60.12-61.01-112.45c-11-80.39,30.56-160.4,73.13-208.47
						c39.19-44.25,84.04-69.3,122.85-68.73c56.63,0.84,97.28,57.27,104.85,68.57c26.81,40.02,19.56,72.29,11.88,106.45
						c-6.89,30.66-14.02,62.37-0.51,105.1c15.02,47.53,45.16,74.37,71.74,98.06c28.64,25.52,53.37,47.55,49.83,87.51
						c-2.83,31.96-21.41,50.1-39.39,67.64c-17.75,17.33-34.52,33.7-34.5,62.22c0.03,37.41,28.33,59.19,58.29,82.24
						c28.75,22.13,58.48,45,60.07,82.84c1.49,35.58-22.24,57.85-47.36,81.42c-24.43,22.92-49.68,46.61-50.39,84.01
						c-0.92,48.58,39.79,83.1,69.52,108.31c21.3,18.06,36.69,31.11,28.23,42.35C1128.15,1170.95,1112.4,1175.01,1089.76,1175.01z
						 M850.28,91.14c-36.81,0-80.91,25.05-118.28,67.25c-41.92,47.34-82.86,126.03-72.06,204.94c6.98,50.99,33.89,81.04,59.92,110.1
						c28.63,31.96,58.23,65.02,61.33,125.46c2.47,48.01-13.44,76.59-27.46,101.82c-14.51,26.09-27.05,48.62-15.5,86.29
						c12.77,41.65,43.07,64.71,75.16,89.12c34.96,26.6,71.1,54.1,83,107.62c5.49,24.74,2.81,41.06,0.44,55.45
						c-2.68,16.25-4.79,29.08,6.32,48.41c31.42,54.65,120.87,79.32,173.33,82.56c27.55,1.7,48.15-1.88,53.78-9.35
						c5.95-7.9-8.84-20.44-27.55-36.32c-30.41-25.78-72.04-61.09-71.08-111.77c0.75-39.26,26.7-63.61,51.79-87.15
						c24.37-22.86,47.38-44.45,45.97-78.01c-1.5-35.77-29.11-57.02-58.35-79.52c-29.49-22.7-59.99-46.16-60.02-85.75
						c-0.02-30.4,18.21-48.19,35.84-65.39c17.4-16.98,35.39-34.54,38.07-64.86c3.34-37.75-20.62-59.1-48.37-83.82
						c-27.01-24.07-57.62-51.34-73.01-100.03c-13.87-43.87-6.28-77.62,0.41-107.4c7.79-34.65,14.51-64.57-11.24-103.01
						c-7.36-10.98-46.81-65.81-101.23-66.61C851.08,91.15,850.68,91.14,850.28,91.14z"/>
				</g>
				<path class="st3" d="M1094.56,1148.69c-0.22,0-0.44-0.03-0.65-0.1c-71.26-22.08-116.22-53.18-133.64-92.45
					c-13.23-29.83-5.72-53.89,2.23-79.37c7.99-25.6,16.25-52.07,4.43-87.41c-12.5-37.39-34.96-54.19-56.67-70.44
					c-21.08-15.77-40.99-30.67-49.85-62.56c-12.54-45.11,10.92-77.18,33.61-108.19c21.96-30.02,44.68-61.07,35.93-104.69
					c-7.05-35.18-30.01-55.7-54.32-77.42c-26.29-23.49-56.08-50.12-70.03-99.7c-10.37-36.88-9.29-76.33,3.21-117.27
					c0.35-1.17,1.59-1.83,2.76-1.47c1.17,0.36,1.83,1.59,1.47,2.76c-12.25,40.11-13.32,78.73-3.18,114.78
					c13.59,48.33,41.61,73.37,68.71,97.59c24.87,22.23,48.37,43.23,55.71,79.85c9.12,45.53-14.17,77.37-36.7,108.17
					c-23.08,31.55-44.88,61.35-32.91,104.39c8.46,30.44,27.78,44.9,48.24,60.2c22.26,16.66,45.28,33.88,58.22,72.58
					c12.27,36.69,3.79,63.86-4.41,90.13c-7.7,24.66-14.97,47.95-2.41,76.25c16.88,38.05,60.92,68.33,130.9,90.02
					c1.17,0.36,1.82,1.6,1.46,2.77C1096.38,1148.08,1095.5,1148.69,1094.56,1148.69z"/>
			</g>
			<g>
				<g>
					<path class="st2" d="M1174.32,1485.65c8.04-18.32-93.93-45.7-179.65-174.73c-51.9-78.13-71.86-154.42-89.99-226.04
						c-44.85-177.21-8.04-211.93-55.61-294.4c-57.09-98.97-129.1-60.88-210.36-162.8c-100.23-125.71-25.25-226.99-127.98-340.19
						c-56.13-61.86-155.88-116.87-243.55-88.67c-53.06,17.07-108.5,66.81-109.95,120.96c-1.4,52.26,48.54,69.71,87.61,133.35
						C314.6,566.76,231.39,634.84,275.85,750c60.34,156.29,249.85,124.78,330.86,311.02c32.63,75.01,4.6,86.36,33.53,157.99
						C737.87,1460.75,1158.44,1521.86,1174.32,1485.65z"/>
					<path class="st3" d="M1133.42,1497.49c-1.28,0-2.54-0.01-3.78-0.03c-58.79-0.87-161.48-21.25-258.36-64.82
						c-82.03-36.89-189.05-103.76-233.09-212.8c-14.16-35.05-14.83-56.11-15.47-76.48c-0.71-22.19-1.37-43.15-18.03-81.45
						c-41.63-95.72-111.52-133.16-179.1-169.38c-62.94-33.73-122.4-65.59-151.79-141.73c-20.55-53.22-14.1-96.56-7.86-138.47
						c7.43-49.92,14.45-97.08-22.98-158.04c-15.26-24.86-32.19-42.61-47.13-58.27c-23.28-24.41-41.68-43.69-40.8-76.29
						c1.47-55.02,57.84-105.75,111.48-123.01c87.67-28.21,188.9,26.51,245.87,89.29c52.43,57.78,58.88,111.57,65.71,168.53
						c6.49,54.14,13.21,110.13,62.36,171.77c39.17,49.13,75.42,65.11,110.48,80.57c36.19,15.95,70.37,31.02,100.07,82.5
						c25.28,43.82,26.95,73.77,29.48,119.12c2.29,41,5.14,92.02,26.36,175.84c17.31,68.41,36.94,145.95,89.69,225.36
						c54.13,81.49,114.09,121.79,149.91,145.87c21.67,14.57,33.6,22.59,29.92,30.98
						C1172.44,1495.45,1151.63,1497.49,1133.42,1497.49z M316.44,193.51c-16.43,0-32.74,2.32-48.59,7.42
						c-52.18,16.79-107,65.86-108.41,118.92c-0.82,30.76,17.01,49.45,39.58,73.12c15.09,15.82,32.19,33.75,47.7,59.01
						c38.28,62.34,31.14,110.27,23.59,161.01c-6.16,41.34-12.52,84.09,7.61,136.22c28.81,74.61,87.56,106.09,149.76,139.42
						c68.25,36.57,138.82,74.39,181.06,171.51c17,39.08,17.71,61.45,18.4,83.08c0.63,19.98,1.29,40.65,15.15,74.97
						c75.91,187.96,359.5,272.96,487.41,274.85c28.61,0.42,40.72-4,42.6-8.27c2.2-5-10.61-13.61-28.34-25.53
						c-36.09-24.26-96.51-64.87-151.13-147.09c-53.17-80.04-72.89-157.97-90.29-226.72c-21.32-84.24-24.18-135.49-26.48-176.68
						c-2.5-44.71-4.15-74.25-28.9-117.16c-28.97-50.22-60.97-64.33-98.02-80.66c-33.89-14.94-72.31-31.88-112.16-81.86
						c-49.93-62.62-56.72-119.25-63.29-174c-6.75-56.24-13.12-109.35-64.6-166.08C463.4,238.63,388.9,193.51,316.44,193.51z"/>
				</g>
				<path class="st3" d="M1100.98,1476.95c-0.29,0-0.58-0.06-0.86-0.17c-83.72-35.12-150.69-76.58-199.05-123.24
					c-39.16-37.79-67.15-80.04-83.17-125.6c-16.77-47.67-18.66-92.8-20.5-136.43c-2.75-65.32-5.34-127.02-57.3-189.42
					c-36.6-43.96-74.9-61.36-111.94-78.19c-41.27-18.75-80.24-36.46-107.01-90.14c-18.62-37.34-18.96-67.33-19.34-102.06
					c-0.38-34.29-0.82-73.15-17.74-130.24c-16.75-56.53-43.7-110.34-80.08-159.95c-0.72-0.99-0.51-2.37,0.48-3.09
					c0.99-0.72,2.37-0.51,3.1,0.48c36.69,50.02,63.86,104.29,80.76,161.31c17.1,57.69,17.53,96.88,17.92,131.45
					c0.4,35.59,0.72,63.7,18.88,100.13c26.07,52.27,62.59,68.86,104.88,88.08c35.74,16.24,76.25,34.65,113.51,79.39
					c52.92,63.55,55.54,125.97,58.32,192.06c1.82,43.31,3.7,88.1,20.25,135.15c35.28,100.31,129.4,183.16,279.76,246.23
					c1.13,0.47,1.66,1.77,1.18,2.9C1102.66,1476.44,1101.84,1476.95,1100.98,1476.95z"/>
			</g>
		</g>
		<g>
			<path class="st3" d="M1682.14,1497.86H986.25V82.13h690.77c19.88,0,36,16.12,36,36v1348.86
				C1713.01,1484.04,1699.19,1497.86,1682.14,1497.86z"/>
			<path class="st2" d="M1640.57,1499.07H971.48c-15.93,0-28.84-12.91-28.84-28.84V113.39c0-15.93,12.91-28.84,28.84-28.84h669.09
				c15.93,0,28.84,12.91,28.84,28.84v1356.84C1669.4,1486.16,1656.49,1499.07,1640.57,1499.07z"/>
			<g>
				<path class="st3" d="M1158.79,625.02h-82.12c-5.5,0-9.96-4.46-9.96-9.96V540.5c0-5.5,4.46-9.96,9.96-9.96h82.12
					c5.5,0,9.96,4.46,9.96,9.96v74.56C1168.75,620.56,1164.29,625.02,1158.79,625.02z"/>
				<path class="st3" d="M1288.27,625.02h-83.2c-5.5,0-9.96-4.46-9.96-9.96V540.5c0-5.5,4.46-9.96,9.96-9.96h83.2
					c5.5,0,9.96,4.46,9.96,9.96v74.56C1298.23,620.56,1293.77,625.02,1288.27,625.02z"/>
				<path class="st3" d="M1416.94,626.23h-81.04c-5.5,0-9.96-4.46-9.96-9.96v-74.56c0-5.5,4.46-9.96,9.96-9.96h81.04
					c5.5,0,9.96,4.46,9.96,9.96v74.56C1426.9,621.77,1422.44,626.23,1416.94,626.23z"/>
				<path class="st3" d="M1544.13,626.23h-81.04c-5.5,0-9.96-4.46-9.96-9.96v-74.56c0-5.5,4.46-9.96,9.96-9.96h81.04
					c5.5,0,9.96,4.46,9.96,9.96v74.56C1554.09,621.77,1549.63,626.23,1544.13,626.23z"/>
				<path class="st3" d="M1158.79,753.42h-82.12c-5.5,0-9.96-4.46-9.96-9.96V668.9c0-5.5,4.46-9.96,9.96-9.96h82.12
					c5.5,0,9.96,4.46,9.96,9.96v74.56C1168.75,748.96,1164.29,753.42,1158.79,753.42z"/>
				<path class="st3" d="M1288.27,753.42h-83.2c-5.5,0-9.96-4.46-9.96-9.96V668.9c0-5.5,4.46-9.96,9.96-9.96h83.2
					c5.5,0,9.96,4.46,9.96,9.96v74.56C1298.23,748.96,1293.77,753.42,1288.27,753.42z"/>
				<path class="st3" d="M1416.94,754.63h-81.04c-5.5,0-9.96-4.46-9.96-9.96v-74.56c0-5.5,4.46-9.96,9.96-9.96h81.04
					c5.5,0,9.96,4.46,9.96,9.96v74.56C1426.9,750.17,1422.44,754.63,1416.94,754.63z"/>
				<path class="st3" d="M1544.13,754.63h-81.04c-5.5,0-9.96-4.46-9.96-9.96v-74.56c0-5.5,4.46-9.96,9.96-9.96h81.04
					c5.5,0,9.96,4.46,9.96,9.96v74.56C1554.09,750.17,1549.63,754.63,1544.13,754.63z"/>
				<path class="st3" d="M1161.4,881.83h-82.12c-5.5,0-9.96-4.46-9.96-9.96v-74.56c0-5.5,4.46-9.96,9.96-9.96h82.12
					c5.5,0,9.96,4.46,9.96,9.96v74.56C1171.36,877.37,1166.9,881.83,1161.4,881.83z"/>
				<path class="st3" d="M1288.7,881.83h-83.2c-5.5,0-9.96-4.46-9.96-9.96v-74.56c0-5.5,4.46-9.96,9.96-9.96h83.2
					c5.5,0,9.96,4.46,9.96,9.96v74.56C1298.66,877.37,1294.2,881.83,1288.7,881.83z"/>
				<path class="st3" d="M1419.52,883.05h-81.04c-5.5,0-9.96-4.46-9.96-9.96v-74.56c0-5.5,4.46-9.96,9.96-9.96h81.04
					c5.5,0,9.96,4.46,9.96,9.96v74.56C1429.48,878.59,1425.03,883.05,1419.52,883.05z"/>
				<path class="st3" d="M1546.72,883.04h-81.04c-5.5,0-9.96-4.46-9.96-9.96v-74.56c0-5.5,4.46-9.96,9.96-9.96h81.04
					c5.5,0,9.96,4.46,9.96,9.96v74.56C1556.68,878.58,1552.22,883.04,1546.72,883.04z"/>
				<path class="st3" d="M1161.4,1010.24h-82.12c-5.5,0-9.96-4.46-9.96-9.96v-74.56c0-5.5,4.46-9.96,9.96-9.96h82.12
					c5.5,0,9.96,4.46,9.96,9.96v74.56C1171.36,1005.78,1166.9,1010.24,1161.4,1010.24z"/>
				<path class="st3" d="M1290.91,1010.24h-83.2c-5.5,0-9.96-4.46-9.96-9.96v-74.56c0-5.5,4.46-9.96,9.96-9.96h83.2
					c5.5,0,9.96,4.46,9.96,9.96v74.56C1300.87,1005.78,1296.41,1010.24,1290.91,1010.24z"/>
				<path class="st3" d="M1419.52,1011.45h-81.04c-5.5,0-9.96-4.46-9.96-9.96v-74.56c0-5.5,4.46-9.96,9.96-9.96h81.04
					c5.5,0,9.96,4.46,9.96,9.96v74.56C1429.48,1006.99,1425.02,1011.45,1419.52,1011.45z"/>
				<path class="st3" d="M1546.71,1011.45h-81.04c-5.5,0-9.96-4.46-9.96-9.96v-74.56c0-5.5,4.46-9.96,9.96-9.96h81.04
					c5.5,0,9.96,4.46,9.96,9.96v74.56C1556.67,1006.99,1552.21,1011.45,1546.71,1011.45z"/>
			</g>
			<g>
				<g>
					<path class="st2" d="M1148.64,628.81h-74.56c-5.5,0-9.96-4.46-9.96-9.96v-74.56c0-5.5,4.46-9.96,9.96-9.96h74.56
						c5.5,0,9.96,4.46,9.96,9.96v74.56C1158.6,624.36,1154.14,628.81,1148.64,628.81z"/>
					<path class="st3" d="M1148.64,631.03h-74.56c-6.71,0-12.17-5.46-12.17-12.17v-74.56c0-6.71,5.46-12.17,12.17-12.17h74.56
						c6.71,0,12.17,5.46,12.17,12.17v74.56C1160.82,625.57,1155.36,631.03,1148.64,631.03z M1074.08,536.54
						c-4.27,0-7.75,3.48-7.75,7.75v74.56c0,4.27,3.48,7.75,7.75,7.75h74.56c4.27,0,7.75-3.48,7.75-7.75v-74.56
						c0-4.27-3.48-7.75-7.75-7.75H1074.08z"/>
				</g>
				<g>
					<path class="st2" d="M1277.05,628.81h-74.56c-5.5,0-9.96-4.46-9.96-9.96v-74.56c0-5.5,4.46-9.96,9.96-9.96h74.56
						c5.5,0,9.96,4.46,9.96,9.96v74.56C1287.01,624.36,1282.55,628.81,1277.05,628.81z"/>
					<path class="st3" d="M1277.04,631.03h-74.56c-6.71,0-12.17-5.46-12.17-12.17v-74.56c0-6.71,5.46-12.17,12.17-12.17h74.56
						c6.71,0,12.17,5.46,12.17,12.17v74.56C1289.22,625.57,1283.76,631.03,1277.04,631.03z M1202.48,536.54
						c-4.27,0-7.75,3.48-7.75,7.75v74.56c0,4.27,3.48,7.75,7.75,7.75h74.56c4.27,0,7.75-3.48,7.75-7.75v-74.56
						c0-4.27-3.48-7.75-7.75-7.75H1202.48z"/>
				</g>
				<g>
					<path class="st2" d="M1407.87,630.03h-74.56c-5.5,0-9.96-4.46-9.96-9.96V545.5c0-5.5,4.46-9.96,9.96-9.96h74.56
						c5.5,0,9.96,4.46,9.96,9.96v74.56C1417.83,625.57,1413.37,630.03,1407.87,630.03z"/>
					<path class="st3" d="M1407.87,632.24h-74.56c-6.71,0-12.17-5.46-12.17-12.17V545.5c0-6.71,5.46-12.17,12.17-12.17h74.56
						c6.71,0,12.17,5.46,12.17,12.17v74.56C1420.05,626.78,1414.58,632.24,1407.87,632.24z M1333.31,537.76
						c-4.27,0-7.75,3.48-7.75,7.75v74.56c0,4.27,3.48,7.75,7.75,7.75h74.56c4.27,0,7.75-3.48,7.75-7.75V545.5
						c0-4.27-3.48-7.75-7.75-7.75H1333.31z"/>
				</g>
				<g>
					<path class="st2" d="M1535.06,630.02h-74.56c-5.5,0-9.96-4.46-9.96-9.96V545.5c0-5.5,4.46-9.96,9.96-9.96h74.56
						c5.5,0,9.96,4.46,9.96,9.96v74.56C1545.02,625.57,1540.56,630.02,1535.06,630.02z"/>
					<path class="st3" d="M1535.06,632.24h-74.56c-6.71,0-12.17-5.46-12.17-12.17V545.5c0-6.71,5.46-12.17,12.17-12.17h74.56
						c6.71,0,12.17,5.46,12.17,12.17v74.56C1547.24,626.78,1541.78,632.24,1535.06,632.24z M1460.5,537.75
						c-4.27,0-7.75,3.48-7.75,7.75v74.56c0,4.27,3.48,7.75,7.75,7.75h74.56c4.27,0,7.75-3.48,7.75-7.75V545.5
						c0-4.27-3.48-7.75-7.75-7.75H1460.5z"/>
				</g>
				<g>
					<path class="st2" d="M1148.64,757.22h-74.56c-5.5,0-9.96-4.46-9.96-9.96v-74.56c0-5.5,4.46-9.96,9.96-9.96h74.56
						c5.5,0,9.96,4.46,9.96,9.96v74.56C1158.6,752.76,1154.14,757.22,1148.64,757.22z"/>
					<path class="st3" d="M1148.64,759.43h-74.56c-6.71,0-12.17-5.46-12.17-12.17v-74.56c0-6.71,5.46-12.17,12.17-12.17h74.56
						c6.71,0,12.17,5.46,12.17,12.17v74.56C1160.82,753.97,1155.35,759.43,1148.64,759.43z M1074.08,664.95
						c-4.27,0-7.75,3.48-7.75,7.75v74.56c0,4.27,3.48,7.75,7.75,7.75h74.56c4.27,0,7.75-3.48,7.75-7.75v-74.56
						c0-4.27-3.48-7.75-7.75-7.75H1074.08z"/>
				</g>
				<g>
					<path class="st2" d="M1277.04,757.22h-74.56c-5.5,0-9.96-4.46-9.96-9.96v-74.56c0-5.5,4.46-9.96,9.96-9.96h74.56
						c5.5,0,9.96,4.46,9.96,9.96v74.56C1287,752.76,1282.54,757.22,1277.04,757.22z"/>
					<path class="st3" d="M1277.04,759.43h-74.56c-6.71,0-12.17-5.46-12.17-12.17v-74.56c0-6.71,5.46-12.17,12.17-12.17h74.56
						c6.71,0,12.17,5.46,12.17,12.17v74.56C1289.22,753.97,1283.75,759.43,1277.04,759.43z M1202.48,664.95
						c-4.27,0-7.75,3.48-7.75,7.75v74.56c0,4.27,3.48,7.75,7.75,7.75h74.56c4.27,0,7.75-3.48,7.75-7.75v-74.56
						c0-4.27-3.48-7.75-7.75-7.75H1202.48z"/>
				</g>
				<g>
					<path class="st2" d="M1407.87,758.43h-74.56c-5.5,0-9.96-4.46-9.96-9.96V673.9c0-5.5,4.46-9.96,9.96-9.96h74.56
						c5.5,0,9.96,4.46,9.96,9.96v74.56C1417.83,753.97,1413.37,758.43,1407.87,758.43z"/>
					<path class="st3" d="M1407.87,760.64h-74.56c-6.71,0-12.17-5.46-12.17-12.17V673.9c0-6.71,5.46-12.17,12.17-12.17h74.56
						c6.71,0,12.17,5.46,12.17,12.17v74.56C1420.04,755.18,1414.58,760.64,1407.87,760.64z M1333.31,666.16
						c-4.27,0-7.75,3.48-7.75,7.75v74.56c0,4.27,3.48,7.75,7.75,7.75h74.56c4.27,0,7.75-3.48,7.75-7.75V673.9
						c0-4.27-3.48-7.75-7.75-7.75H1333.31z"/>
				</g>
				<g>
					<path class="st2" d="M1535.06,758.43h-74.56c-5.5,0-9.96-4.46-9.96-9.96V673.9c0-5.5,4.46-9.96,9.96-9.96h74.56
						c5.5,0,9.96,4.46,9.96,9.96v74.56C1545.02,753.97,1540.56,758.43,1535.06,758.43z"/>
					<path class="st3" d="M1535.06,760.64h-74.56c-6.71,0-12.17-5.46-12.17-12.17V673.9c0-6.71,5.46-12.17,12.17-12.17h74.56
						c6.71,0,12.17,5.46,12.17,12.17v74.56C1547.23,755.18,1541.77,760.64,1535.06,760.64z M1460.5,666.16
						c-4.27,0-7.75,3.48-7.75,7.75v74.56c0,4.27,3.48,7.75,7.75,7.75h74.56c4.27,0,7.75-3.48,7.75-7.75V673.9
						c0-4.27-3.48-7.75-7.75-7.75H1460.5z"/>
				</g>
				<g>
					<path class="st2" d="M1151.06,885.63h-74.56c-5.5,0-9.96-4.46-9.96-9.96V801.1c0-5.5,4.46-9.96,9.96-9.96h74.56
						c5.5,0,9.96,4.46,9.96,9.96v74.56C1161.02,881.17,1156.56,885.63,1151.06,885.63z"/>
					<path class="st3" d="M1151.06,887.84h-74.56c-6.71,0-12.17-5.46-12.17-12.17V801.1c0-6.71,5.46-12.17,12.17-12.17h74.56
						c6.71,0,12.17,5.46,12.17,12.17v74.56C1163.24,882.38,1157.77,887.84,1151.06,887.84z M1076.5,793.36
						c-4.27,0-7.75,3.48-7.75,7.75v74.56c0,4.27,3.48,7.75,7.75,7.75h74.56c4.27,0,7.75-3.48,7.75-7.75V801.1
						c0-4.27-3.48-7.75-7.75-7.75H1076.5z"/>
				</g>
				<g>
					<path class="st2" d="M1279.46,885.63h-74.56c-5.5,0-9.96-4.46-9.96-9.96V801.1c0-5.5,4.46-9.96,9.96-9.96h74.56
						c5.5,0,9.96,4.46,9.96,9.96v74.56C1289.42,881.17,1284.97,885.63,1279.46,885.63z"/>
					<path class="st3" d="M1279.47,887.84h-74.56c-6.71,0-12.17-5.46-12.17-12.17V801.1c0-6.71,5.46-12.17,12.17-12.17h74.56
						c6.71,0,12.17,5.46,12.17,12.17v74.56C1291.64,882.38,1286.18,887.84,1279.47,887.84z M1204.9,793.36
						c-4.27,0-7.75,3.48-7.75,7.75v74.56c0,4.27,3.48,7.75,7.75,7.75h74.56c4.27,0,7.75-3.48,7.75-7.75V801.1
						c0-4.27-3.48-7.75-7.75-7.75H1204.9z"/>
				</g>
				<g>
					<path class="st2" d="M1410.29,886.84h-74.56c-5.5,0-9.96-4.46-9.96-9.96v-74.56c0-5.5,4.46-9.96,9.96-9.96h74.56
						c5.5,0,9.96,4.46,9.96,9.96v74.56C1420.25,882.38,1415.79,886.84,1410.29,886.84z"/>
					<path class="st3" d="M1410.29,889.05h-74.56c-6.71,0-12.17-5.46-12.17-12.17v-74.56c0-6.71,5.46-12.17,12.17-12.17h74.56
						c6.71,0,12.17,5.46,12.17,12.17v74.56C1422.47,883.59,1417,889.05,1410.29,889.05z M1335.73,794.57
						c-4.27,0-7.75,3.48-7.75,7.75v74.56c0,4.27,3.48,7.75,7.75,7.75h74.56c4.27,0,7.75-3.48,7.75-7.75v-74.56
						c0-4.27-3.48-7.75-7.75-7.75H1335.73z"/>
				</g>
				<g>
					<path class="st2" d="M1537.48,886.84h-74.56c-5.5,0-9.96-4.46-9.96-9.96v-74.56c0-5.5,4.46-9.96,9.96-9.96h74.56
						c5.5,0,9.96,4.46,9.96,9.96v74.56C1547.44,882.38,1542.98,886.84,1537.48,886.84z"/>
					<path class="st3" d="M1537.48,889.05h-74.56c-6.71,0-12.17-5.46-12.17-12.17v-74.56c0-6.71,5.46-12.17,12.17-12.17h74.56
						c6.71,0,12.17,5.46,12.17,12.17v74.56C1549.66,883.59,1544.19,889.05,1537.48,889.05z M1462.92,794.57
						c-4.27,0-7.75,3.48-7.75,7.75v74.56c0,4.27,3.48,7.75,7.75,7.75h74.56c4.27,0,7.75-3.48,7.75-7.75v-74.56
						c0-4.27-3.48-7.75-7.75-7.75H1462.92z"/>
				</g>
				<g>
					<path class="st2" d="M1151.06,1014.03h-74.56c-5.5,0-9.96-4.46-9.96-9.96v-74.56c0-5.5,4.46-9.96,9.96-9.96h74.56
						c5.5,0,9.96,4.46,9.96,9.96v74.56C1161.02,1009.57,1156.56,1014.03,1151.06,1014.03z"/>
					<path class="st3" d="M1151.06,1016.24h-74.56c-6.71,0-12.17-5.46-12.17-12.17v-74.56c0-6.71,5.46-12.17,12.17-12.17h74.56
						c6.71,0,12.17,5.46,12.17,12.17v74.56C1163.23,1010.78,1157.77,1016.24,1151.06,1016.24z M1076.5,921.76
						c-4.27,0-7.75,3.48-7.75,7.75v74.56c0,4.27,3.48,7.75,7.75,7.75h74.56c4.27,0,7.75-3.48,7.75-7.75v-74.56
						c0-4.27-3.48-7.75-7.75-7.75H1076.5z"/>
				</g>
				<g>
					<path class="st2" d="M1279.46,1014.03h-74.56c-5.5,0-9.96-4.46-9.96-9.96v-74.56c0-5.5,4.46-9.96,9.96-9.96h74.56
						c5.5,0,9.96,4.46,9.96,9.96v74.56C1289.42,1009.57,1284.96,1014.03,1279.46,1014.03z"/>
					<path class="st3" d="M1279.46,1016.24h-74.56c-6.71,0-12.17-5.46-12.17-12.17v-74.56c0-6.71,5.46-12.17,12.17-12.17h74.56
						c6.71,0,12.17,5.46,12.17,12.17v74.56C1291.63,1010.78,1286.17,1016.24,1279.46,1016.24z M1204.9,921.76
						c-4.27,0-7.75,3.48-7.75,7.75v74.56c0,4.27,3.48,7.75,7.75,7.75h74.56c4.27,0,7.75-3.48,7.75-7.75v-74.56
						c0-4.27-3.48-7.75-7.75-7.75H1204.9z"/>
				</g>
				<g>
					<path class="st2" d="M1410.29,1015.24h-74.56c-5.5,0-9.96-4.46-9.96-9.96v-74.56c0-5.5,4.46-9.96,9.96-9.96h74.56
						c5.5,0,9.96,4.46,9.96,9.96v74.56C1420.25,1010.78,1415.79,1015.24,1410.29,1015.24z"/>
					<path class="st3" d="M1410.29,1017.45h-74.56c-6.71,0-12.17-5.46-12.17-12.17v-74.56c0-6.71,5.46-12.17,12.17-12.17h74.56
						c6.71,0,12.17,5.46,12.17,12.17v74.56C1422.46,1011.99,1417,1017.45,1410.29,1017.45z M1335.72,922.97
						c-4.27,0-7.75,3.48-7.75,7.75v74.56c0,4.27,3.48,7.75,7.75,7.75h74.56c4.27,0,7.75-3.48,7.75-7.75v-74.56
						c0-4.27-3.48-7.75-7.75-7.75H1335.72z"/>
				</g>
				<g>
					<path class="st2" d="M1537.48,1015.24h-74.56c-5.5,0-9.96-4.46-9.96-9.96v-74.56c0-5.5,4.46-9.96,9.96-9.96h74.56
						c5.5,0,9.96,4.46,9.96,9.96v74.56C1547.44,1010.78,1542.98,1015.24,1537.48,1015.24z"/>
					<path class="st3" d="M1537.48,1017.45h-74.56c-6.71,0-12.17-5.46-12.17-12.17v-74.56c0-6.71,5.46-12.17,12.17-12.17h74.56
						c6.71,0,12.17,5.46,12.17,12.17v74.56C1549.65,1011.99,1544.19,1017.45,1537.48,1017.45z M1462.92,922.97
						c-4.27,0-7.75,3.48-7.75,7.75v74.56c0,4.27,3.48,7.75,7.75,7.75h74.56c4.27,0,7.75-3.48,7.75-7.75v-74.56
						c0-4.27-3.48-7.75-7.75-7.75H1462.92z"/>
				</g>
			</g>
			<g>
				<path class="st2" d="M1376.77,1108.55h-123.12c-3.46,0-6.27-2.81-6.27-6.27v-50.24c0-3.46,2.81-6.27,6.27-6.27h123.12
					c3.46,0,6.27,2.81,6.27,6.27v50.24C1383.05,1105.74,1380.24,1108.55,1376.77,1108.55z"/>
				<path class="st3" d="M1376.77,1110.76h-123.12c-4.68,0-8.49-3.81-8.49-8.49v-50.24c0-4.68,3.81-8.49,8.49-8.49h123.12
					c4.68,0,8.49,3.81,8.49,8.49v50.24C1385.26,1106.95,1381.45,1110.76,1376.77,1110.76z M1253.65,1047.97
					c-2.24,0-4.06,1.82-4.06,4.06v50.24c0,2.24,1.82,4.06,4.06,4.06h123.12c2.24,0,4.06-1.82,4.06-4.06v-50.24
					c0-2.24-1.82-4.06-4.06-4.06H1253.65z"/>
			</g>
			<path class="st3" d="M1640.57,1501.28H971.48c-17.12,0-31.05-13.93-31.05-31.05V113.39c0-17.12,13.93-31.05,31.05-31.05h669.09
				c17.12,0,31.05,13.93,31.05,31.05v1356.84C1671.62,1487.35,1657.69,1501.28,1640.57,1501.28z M971.48,86.76
				c-14.68,0-26.63,11.94-26.63,26.63v1356.84c0,14.68,11.94,26.62,26.63,26.62h669.09c14.68,0,26.62-11.94,26.62-26.62V113.39
				c0-14.68-11.94-26.63-26.62-26.63H971.48z"/>
			<g>
				<path class="st2" d="M1404.17,1513.62h-171.51c-4.19,0-7.58-3.39-7.58-7.58v-267.45c0-15.5,12.56-28.06,28.06-28.06h139.4
					c11.22,0,20.31,9.09,20.31,20.31v274.1C1412.85,1509.74,1408.96,1513.62,1404.17,1513.62z"/>
				<path class="st3" d="M1404.17,1515.84h-171.51c-5.4,0-9.79-4.39-9.79-9.79v-267.45c0-16.69,13.58-30.28,30.28-30.28h139.4
					c12.42,0,22.52,10.1,22.52,22.53v274.1C1415.06,1510.95,1410.17,1515.84,1404.17,1515.84z M1253.13,1212.75
					c-14.25,0-25.85,11.6-25.85,25.85v267.45c0,2.96,2.41,5.37,5.37,5.37h171.51c3.57,0,6.47-2.9,6.47-6.47v-274.1
					c0-9.98-8.12-18.1-18.1-18.1H1253.13z"/>
			</g>
			<path class="st3" d="M1344.2,1345.07h-54.65c-6.92,0-12.54-5.61-12.54-12.54v-54.65c0-6.92,5.61-12.54,12.54-12.54h54.65
				c6.92,0,12.54,5.61,12.54,12.54v54.65C1356.73,1339.45,1351.12,1345.07,1344.2,1345.07z"/>
			<g>
				<g>
					<path class="st2" d="M1552.17,486.72h-487.67c-9.17,0-16.6-7.43-16.6-16.6V183.53c0-9.17,7.43-16.6,16.6-16.6h487.67
						c9.17,0,16.6,7.43,16.6,16.6v286.58C1568.78,479.29,1561.34,486.72,1552.17,486.72z"/>
					<path class="st3" d="M1552.17,488.94h-487.67c-10.38,0-18.82-8.44-18.82-18.82V183.53c0-10.38,8.44-18.82,18.82-18.82h487.67
						c10.38,0,18.82,8.44,18.82,18.82v286.58C1570.99,480.49,1562.55,488.94,1552.17,488.94z M1064.51,169.14
						c-7.93,0-14.39,6.46-14.39,14.39v286.58c0,7.93,6.45,14.39,14.39,14.39h487.67c7.93,0,14.39-6.46,14.39-14.39V183.53
						c0-7.93-6.46-14.39-14.39-14.39H1064.51z"/>
				</g>
			</g>
			<g>
				<circle class="st3" cx="1168.49" cy="338.86" r="23.24"/>
				<circle class="st3" cx="1241.53" cy="337.76" r="23.24"/>
				<circle class="st3" cx="1315.68" cy="336.65" r="23.24"/>
				<circle class="st3" cx="1388.72" cy="335.54" r="23.24"/>
				<circle class="st3" cx="1460.65" cy="333.33" r="23.24"/>
			</g>
		</g>
		<g>
			<g>
				<path class="st3" d="M1051.08,1802.66c-1.1,0-2.05-0.82-2.19-1.94c-0.15-1.21,0.71-2.32,1.92-2.47
					c193.16-24.13,400.45-182.66,402.52-184.26c0.97-0.75,2.36-0.57,3.11,0.4c0.75,0.97,0.57,2.36-0.4,3.1
					c-2.08,1.61-210.34,160.86-404.68,185.14C1051.26,1802.65,1051.17,1802.66,1051.08,1802.66z"/>
				<path class="st3" d="M1034.42,1837.19c-1.18,0-2.16-0.93-2.21-2.11c-0.06-1.22,0.89-2.26,2.11-2.31
					c150.95-6.96,346.89-129.14,348.85-130.37c1.04-0.65,2.4-0.34,3.05,0.7c0.65,1.03,0.34,2.4-0.7,3.05
					c-1.97,1.24-198.9,124.03-351.01,131.05C1034.49,1837.19,1034.46,1837.19,1034.42,1837.19z"/>
				<path class="st3" d="M1017.4,1824.13c-3.99,0-7.98-1.5-11.05-4.5c0,0,0,0,0,0c-6.22-6.09-6.33-16.11-0.24-22.34
					c6.09-6.22,16.11-6.33,22.34-0.24c6.23,6.09,6.33,16.11,0.24,22.34C1025.61,1822.54,1021.51,1824.13,1017.4,1824.13z
					 M1009.45,1816.47c4.49,4.39,11.7,4.3,16.08-0.18c4.38-4.48,4.31-11.69-0.17-16.08c-4.49-4.39-11.7-4.3-16.08,0.18
					C1004.9,1804.87,1004.97,1812.08,1009.45,1816.47z"/>
				<path class="st3" d="M1494.53,1608.34c-0.04,0-0.09,0-0.13,0c-0.79-0.05-1.5-0.52-1.85-1.23l-19.23-39.02
					c-0.32-0.65-0.3-1.43,0.05-2.06c0.36-0.64,1.01-1.06,1.73-1.12l47.38-4.24c0.83-0.08,1.66,0.34,2.09,1.06
					c0.44,0.73,0.42,1.64-0.04,2.35l-28.15,43.26C1495.98,1607.97,1495.28,1608.34,1494.53,1608.34z M1478.71,1569.03l16.09,32.64
					l23.54-36.18L1478.71,1569.03z"/>
			</g>
			<g>
				<path d="M1759.49,486.9c-0.57,0-1.13-0.22-1.56-0.65c-0.86-0.86-0.86-2.27,0-3.13l7.72-7.72c0.86-0.86,2.27-0.86,3.13,0
					c0.86,0.86,0.86,2.27,0,3.13l-7.72,7.72C1760.62,486.69,1760.05,486.9,1759.49,486.9z"/>
				<path d="M1788.66,457.73c-0.57,0-1.13-0.22-1.56-0.65c-0.86-0.86-0.86-2.27,0-3.13l7.72-7.72c0.86-0.86,2.27-0.86,3.13,0
					c0.86,0.86,0.86,2.27,0,3.13l-7.72,7.72C1789.79,457.51,1789.22,457.73,1788.66,457.73z"/>
				<path d="M1796.38,486.9c-0.57,0-1.13-0.22-1.56-0.65l-7.72-7.72c-0.86-0.86-0.86-2.27,0-3.13c0.86-0.86,2.27-0.86,3.13,0
					l7.72,7.72c0.86,0.86,0.86,2.27,0,3.13C1797.51,486.69,1796.95,486.9,1796.38,486.9z"/>
				<path d="M1767.21,457.73c-0.57,0-1.13-0.22-1.56-0.65l-7.72-7.72c-0.86-0.86-0.86-2.27,0-3.13c0.86-0.86,2.27-0.86,3.13,0
					l7.72,7.72c0.86,0.86,0.86,2.27,0,3.13C1768.34,457.51,1767.77,457.73,1767.21,457.73z"/>
			</g>
			<g>
				<path d="M167.65,813.14c-0.31,0-0.62-0.06-0.91-0.2c-1.11-0.51-1.6-1.82-1.1-2.93l4.53-9.94c0.51-1.11,1.82-1.6,2.93-1.1
					c1.11,0.51,1.6,1.82,1.1,2.93l-4.53,9.94C169.29,812.66,168.49,813.14,167.65,813.14z"/>
				<path d="M184.75,775.6c-0.31,0-0.62-0.06-0.91-0.2c-1.11-0.51-1.6-1.82-1.1-2.93l4.53-9.94c0.51-1.11,1.82-1.6,2.93-1.1
					c1.11,0.51,1.6,1.82,1.1,2.93l-4.53,9.94C186.4,775.12,185.59,775.6,184.75,775.6z"/>
				<path d="M202.2,800.21c-0.31,0-0.62-0.06-0.91-0.2l-9.94-4.53c-1.11-0.51-1.6-1.82-1.1-2.93c0.51-1.11,1.82-1.6,2.93-1.1
					l9.94,4.53c1.11,0.51,1.6,1.82,1.1,2.93C203.85,799.73,203.05,800.21,202.2,800.21z"/>
				<path d="M164.66,783.11c-0.31,0-0.62-0.06-0.91-0.2l-9.94-4.53c-1.11-0.51-1.6-1.82-1.1-2.93c0.51-1.11,1.82-1.6,2.93-1.1
					l9.94,4.53c1.11,0.51,1.6,1.82,1.1,2.93C166.3,782.63,165.5,783.11,164.66,783.11z"/>
			</g>
			<path d="M267.06,934.43c-8.78,0-15.93-7.14-15.93-15.93c0-8.78,7.14-15.93,15.93-15.93s15.93,7.14,15.93,15.93
				C282.99,927.29,275.84,934.43,267.06,934.43z M267.06,907.01c-6.34,0-11.5,5.16-11.5,11.5c0,6.34,5.16,11.5,11.5,11.5
				s11.5-5.16,11.5-11.5C278.56,912.17,273.4,907.01,267.06,907.01z"/>
		</g>
		<g>
			<path class="st2" d="M565.6,1438.5c-41.99,58.19-74.06,157.67-98.52,273.35c-1.61,7.62-19.86,141.93-12.42,144.27
				c154.93,48.69,166,48.69,270.03,55.33c26.24,1.67,137.23,0,214.17-2.18c6.67-0.19,12.41-4.51,12.05-11.18
				c-9.54-175.01-26.16-386.02-26.16-386.02L565.6,1438.5z"/>
			<path class="st3" d="M950.9,1900.3c-1.17,0-2.14-0.91-2.21-2.09c-8.99-164.84-24.44-364.09-26.02-384.3l-356.11-72.94
				c-37.68,52.87-70.42,144.16-97.32,271.35c-2.33,11.01-18,132.66-13.38,141.95c0.81,0.53,1.2,1.55,0.9,2.52
				c-0.37,1.16-1.61,1.82-2.78,1.45c-2.58-0.81-6.47-2.03,1.28-72.5c3.75-34.03,8.76-70.17,9.64-74.33
				c27.23-128.74,60.5-220.99,98.89-274.18c0.51-0.71,1.39-1.05,2.24-0.87l359.15,73.57c0.97,0.2,1.69,1.01,1.76,1.99
				c0.17,2.11,16.73,213.03,26.16,386.07c0.07,1.22-0.87,2.26-2.09,2.33C950.98,1900.3,950.94,1900.3,950.9,1900.3z"/>
			<g>
				<g>
					<path class="st2" d="M1014.23,1003.2c0,0,97.08,65.34,142.46,53.04c63.85-17.32,91.96-179.98,94.71-194.42
						s15.05-87.66,27.81-114.98c11.99-25.68,19.29-51.96,23.14-68.12c2.32-9.74,8.95-14.45,15.53-13.45
						c5.78,0.88,9.61,5.41,6.36,19.93c-3.76,16.8-7.1,33.69-10.17,48.06c-0.97,4.52-2.81,8.8,0.38,5.58
						c7.41-7.48,19.4-15.81,31.49-19.86c5.31-1.78,47.64-47.64,58.89-42.01c10.07,5.03-47.32,67.89-45.01,75.4
						c5.68,18.53,2.43,43.29-6.56,65.63c-15.3,38.04-39.76,33.77-43.99,51.68s-26.29,245.13-43.95,286.72
						c-25.39,59.82-268.88,16.16-268.88,16.16L1014.23,1003.2z"/>
					<path class="st3" d="M1156.51,1190.23c-72.71,0-154.65-14.44-160.47-15.48c-1.14-0.2-1.93-1.26-1.81-2.41l17.8-169.37
						c0.08-0.77,0.56-1.45,1.26-1.77c0.7-0.33,1.53-0.27,2.17,0.17c0.96,0.65,96.75,64.64,140.64,52.74
						c54.52-14.78,83.03-138.35,92.76-190.78l0.36-1.91c0.31-1.63,0.74-4.01,1.28-6.98c4.17-22.98,15.26-84.03,26.7-108.52
						c11.59-24.82,18.9-50.51,23-67.69c2.46-10.31,9.7-16.39,18.01-15.13c3.21,0.49,5.64,1.92,7.23,4.25
						c2.57,3.75,2.88,9.76,0.96,18.36c-2.36,10.57-4.54,21.05-6.64,31.18c-1.22,5.88-2.39,11.54-3.53,16.86
						c-0.03,0.16-0.07,0.32-0.11,0.48c7.09-6.33,17.62-13.48,29.11-17.33c1.34-0.55,7.28-5.99,12.51-10.79
						c21.28-19.53,39.58-35.34,48.07-31.1c1.17,0.58,1.95,1.59,2.26,2.9c1.5,6.35-8.97,20.99-26.41,44.34
						c-8.36,11.2-19.81,26.54-19.71,29.63c5.49,17.85,3.01,42.93-6.66,66.96c-9.07,22.55-21.61,30.88-30.77,36.96
						c-6.69,4.45-11.53,7.66-13.12,14.4c-1.19,5.05-4,28.46-7.54,58.09c-8.92,74.47-23.84,199.11-36.52,228.99
						C1256.55,1182.72,1208.93,1190.23,1156.51,1190.23z M998.85,1170.74c23.45,4,241.21,39.49,264.42-15.2
						c12.44-29.3,27.31-153.55,36.2-227.79c3.7-30.94,6.38-53.29,7.63-58.58c2-8.45,8.01-12.44,14.98-17.07
						c9.16-6.08,20.56-13.65,29.12-34.93c9.3-23.12,11.73-47.1,6.5-64.16c-1.21-3.94,4.64-12.3,20.42-33.43
						c10.27-13.76,27.46-36.78,25.63-40.73c-6.37-3.12-31.12,19.58-43.01,30.5c-8.34,7.65-12.11,11.06-14.1,11.73
						c-12.68,4.25-24.42,13.06-30.62,19.32c-0.8,0.81-2.47,2.5-4.3,1.46c-1.86-1.06-1.33-3.07-0.54-6.11
						c0.24-0.91,0.51-1.92,0.73-2.95c1.13-5.31,2.31-10.96,3.53-16.83c2.1-10.15,4.28-20.65,6.65-31.25
						c1.62-7.23,1.52-12.24-0.29-14.89c-0.9-1.31-2.25-2.07-4.25-2.37c-5.92-0.9-11.15,3.83-13.04,11.78
						c-4.14,17.38-11.54,43.38-23.29,68.54c-11.2,23.97-22.21,84.61-26.35,107.44c-0.54,2.99-0.98,5.38-1.29,7.02l-0.35,1.89
						c-9.88,53.26-39.01,178.81-95.95,194.25c-4.1,1.11-8.6,1.62-13.38,1.62c-43.94,0-112.36-42.86-127.84-52.94L998.85,1170.74z"/>
				</g>
				<path class="st3" d="M605.64,914.79c117.03-52.21,343.2-41.39,501.87,128.89c18.66,20.02-35.24,171.05-83.29,160.66
					c-42.47-9.18-77.09-19.81-80.33,4.78c-4.48,33.97,25.99,306.2-18.37,382.98c-79.25,137.16-315.62,116.67-437.24,49.81
					c-32.11-17.65,1.61-66.24,25.22-224.74c17.59-118.06,27.83-215.89,6.06-178.15c-10.69,18.52-122.51-92.86-110.83-126.12
					C434.32,1039.96,479.34,971.14,605.64,914.79z"/>
				<path class="st3" d="M1225.76,876.36l93.72,12.71c6.35,216.04-14.22,371.26-295.26,315.27l37.92-200.9
					C1166.94,1076.57,1205.95,987.62,1225.76,876.36z"/>
				<path class="st3" d="M434.68,1059.04c-136.61,198.56-58.08,604.58,127.08,607.61L557,1491.11
					c-15.5-19.61-23.32-213.35,5.96-274.81L434.68,1059.04z"/>
				<path class="st2" d="M480.16,1637.88c-0.2,0-0.4-0.03-0.6-0.08c-1.18-0.33-1.87-1.55-1.54-2.73
					c27.61-99.01,42.99-257.5,48.17-372.81c0.06-1.22,1.07-2.17,2.31-2.11c1.22,0.06,2.17,1.09,2.11,2.31
					c-5.2,115.55-20.62,274.43-48.33,373.8C482.01,1637.24,481.12,1637.88,480.16,1637.88z"/>
			</g>
			<g>
				<g>
					<path class="st2" d="M676.53,896.91c1.26-4.65,47.29-42.81,35.23-128.6c0,0-62.26-84.64-43.33-121.97s17.34-92.52,80.93-92.98
						c63.6-0.46,101,28.08,115.67,65.17c14.67,37.09,18.53,74.27,19.89,95.86c1,15.98-1.14,51.71-2.32,69.19
						c-0.41,6.02-4.56,11.11-10.37,12.74l-19.22,5.39c-6.26,1.76-10.54,7.53-10.41,14.03l0.72,34.35c3,83.98-24.2,72.31-44.13,76.84
						C748.28,938.51,669.86,921.53,676.53,896.91z"/>
					<path class="st3" d="M762.25,932.91c-34.65,0-70.34-8.54-83.29-22.02c-4.34-4.52-5.92-9.56-4.57-14.56
						c0.31-1.16,1.36-2.43,3.67-5.23c10.27-12.46,41.46-50.33,31.58-121.93c-5.44-7.48-61.99-86.75-43.19-123.83
						c4.49-8.85,7.89-18.98,11.18-28.78c10.74-31.98,21.85-65.05,71.71-65.41c57.91-0.39,100.85,23.85,117.74,66.57
						c11.03,27.89,17.77,60.36,20.04,96.53c0.99,15.81-1.03,50.32-2.32,69.48c-0.47,6.93-5.28,12.84-11.98,14.72l-19.22,5.39
						c-5.29,1.48-8.91,6.36-8.79,11.85l0.72,34.35c2.63,73.71-18.42,75.88-37.01,77.79c-3.11,0.32-6.06,0.62-8.85,1.26
						C788.2,931.7,775.29,932.91,762.25,932.91z M678.65,897.56c-0.92,3.49,0.23,6.85,3.51,10.26
						c16.64,17.34,76.54,26.05,116.54,16.95c3.05-0.69,6.27-1.03,9.37-1.34c17.46-1.8,35.52-3.66,33.04-73.26l-0.72-34.38
						c-0.15-7.51,4.79-14.18,12.02-16.2l19.22-5.39c4.9-1.37,8.42-5.7,8.76-10.76c1.29-19.05,3.3-53.34,2.32-68.9
						c-2.24-35.7-8.88-67.73-19.73-95.18c-16.18-40.93-57.53-64.13-113.59-63.77c-46.7,0.33-56.82,30.48-67.54,62.39
						c-3.34,9.95-6.8,20.23-11.43,29.37C652.3,683.04,712.93,766.16,713.54,767c0.22,0.3,0.36,0.64,0.41,1
						c10.39,73.89-21.87,113.05-32.47,125.91C680.22,895.45,678.91,897.03,678.65,897.56z"/>
				</g>
				<path class="st3" d="M843.44,675.88c7.7-3.24,12.72-10.71,12.89-19.06c0.21-10-5.89-32.99,8.7-38.29
					c39.2-14.25,23.96-61.37,0.64-78.8c-23.32-17.43-114.73-46.38-160.95-21.25c0,0-18.29,15.33-14.18,30.5
					c0,0-36.79,1.06-45.4,28.32c-8.6,27.26-23.09,127.36,68.65,203.11c0,0,23.68,2.79,50.02-4.18c15.32-4.05,26.53-17.2,28.66-32.9
					c3.26-24.07,13.04-60.95,19.7-71.89c0,0-4.25-17.05,5.32-21.44c6.21-2.85,13.78,4.35,17.14,10.3L843.44,675.88z"/>
				<path class="st3" d="M880.06,792.24c-0.12,0-0.24-0.01-0.37-0.03c-0.34-0.06-34.47-6.17-42.44-43.27
					c-0.26-1.2,0.5-2.37,1.7-2.63c1.19-0.26,2.37,0.5,2.63,1.7c7.35,34.2,38.53,39.78,38.85,39.84c1.2,0.2,2.02,1.34,1.82,2.55
					C882.06,791.47,881.12,792.24,880.06,792.24z"/>
				<path class="st3" d="M836.9,713.74c-0.02,0-0.03,0-0.05,0c-1.17-0.03-28.75-1.21-36.08-50.04c-0.18-1.21,0.65-2.34,1.86-2.52
					c1.22-0.18,2.33,0.65,2.52,1.86c6.74,44.91,30.8,46.24,31.82,46.27c1.22,0.04,2.18,1.06,2.14,2.27
					C839.07,712.79,838.09,713.74,836.9,713.74z"/>
			</g>
		</g>
		<path class="st3" d="M1233.6,1625.7l-4.28-15.63l-17.66,0.8c-1.64-3.44-3.53-6.7-5.68-9.75l9.35-14.99l-11.51-11.39l-14.9,9.54
			c-3.1-2.13-6.38-4-9.79-5.58l0.61-17.69l-15.66-4.11l-8.13,15.69c-3.72-0.29-7.49-0.26-11.28,0.08l-8.31-15.62l-15.62,4.28
			l0.8,17.68c-3.44,1.64-6.7,3.54-9.75,5.68l-14.98-9.36l-11.39,11.52l9.53,14.91c-2.13,3.1-3.99,6.38-5.58,9.79l-17.68-0.61
			l-4.1,15.67l15.68,8.13c-0.29,3.72-0.26,7.49,0.08,11.29l-15.61,8.31l4.28,15.63l17.66-0.8c1.64,3.44,3.53,6.7,5.68,9.75
			l-9.35,14.99l11.51,11.39l14.9-9.54c3.1,2.13,6.38,4,9.79,5.58l-0.61,17.69l15.66,4.11l8.13-15.69c3.72,0.29,7.49,0.26,11.28-0.08
			l8.31,15.62l15.62-4.28l-0.8-17.68c3.44-1.64,6.7-3.54,9.75-5.68l14.98,9.36l11.39-11.52l-9.53-14.91
			c2.13-3.1,3.99-6.38,5.58-9.79l17.68,0.61l4.1-15.67l-15.68-8.13c0.29-3.72,0.26-7.49-0.08-11.29L1233.6,1625.7z M1161.69,1680.24
			c-22.2,6.08-45.13-7-51.2-29.21s6.99-45.16,29.19-51.24c22.2-6.08,45.13,7,51.2,29.21
			C1196.96,1651.22,1183.89,1674.16,1161.69,1680.24z"/>
		<g>
			<circle class="st3" cx="473.75" cy="406.95" r="147.31"/>
			<g>
				<g>
					<path class="st2" d="M507.88,386.19l-0.74-46.73c-0.34-15.1-12.31-27.46-27.4-28.15c-16.63-0.76-30.43,12.83-30.04,29.48
						l0.33,14.5c0.12,5.06-4.06,9.16-9.12,8.96c-4.65-0.19-8.34-3.98-8.41-8.63l-0.2-13.77c-0.62-26.73,20.78-48.68,48.37-47.56
						l0,0.02c22.79,0.93,43.65,20.98,44.22,45.4l0.59,47.19L507.88,386.19z"/>
					<path class="st3" d="M525.48,389.12c-0.03,0-0.06,0-0.09,0l-17.6-0.72c-1.17-0.05-2.1-1-2.12-2.18l-0.74-46.73
						c-0.32-13.92-11.42-25.34-25.29-25.98c-7.4-0.34-14.38,2.34-19.7,7.53c-5.27,5.15-8.2,12.33-8.03,19.68l0.33,14.5
						c0.07,3.02-1.13,5.97-3.28,8.08c-2.15,2.12-5.15,3.26-8.14,3.14c-5.82-0.24-10.45-4.98-10.53-10.81l-0.2-13.77
						c-0.32-13.74,4.82-26.55,14.48-36.05c9.59-9.43,22.45-14.31,36.19-13.75c0.11,0,0.22,0.02,0.33,0.04
						c24.4,1.18,45.44,22.88,46.01,47.55l0.59,47.22c0.01,0.61-0.24,1.19-0.67,1.61C526.61,388.89,526.06,389.12,525.48,389.12z
						 M510.06,384.06l13.18,0.54l-0.56-44.86c-0.52-22.51-19.8-42.31-42.1-43.22c-0.11,0-0.21-0.02-0.31-0.04
						c-12.41-0.43-23.96,4.01-32.59,12.5c-8.78,8.63-13.45,20.28-13.16,32.81l0.2,13.79c0.05,3.48,2.81,6.31,6.29,6.45
						c1.84,0.08,3.55-0.59,4.85-1.87c1.3-1.28,2-2.99,1.96-4.82l-0.33-14.5c-0.2-8.58,3.21-16.94,9.36-22.95
						c6.2-6.06,14.34-9.18,23-8.79c16.18,0.74,29.14,14.06,29.51,30.31L510.06,384.06z"/>
				</g>
				<path class="st2" d="M488.35,514.67l-19.71,0.78c-27.3-0.68-51.42-33.3-48.84-71.65l4.14-61.34l116.02-0.93
					c10.3-0.04,18.92,9.14,18.21,19.41l-3.58,51.8C552.24,487.6,523.28,514.67,488.35,514.67z"/>
				<g>
					<path class="st2" d="M469.34,513.71c-38.43,0-68.84-32.53-66.24-70.87l4.02-59.46h122.66c5.64,0,10.11,4.78,9.73,10.4
						l-3.92,58.01C533.23,486.65,504.28,513.71,469.34,513.71z"/>
					<path class="st3" d="M469.34,515.92c-19.21,0-37.01-7.73-50.12-21.76c-13.11-14.03-19.62-32.31-18.33-51.48l4.02-59.46
						c0.08-1.16,1.04-2.06,2.21-2.06h122.66c3.3,0,6.49,1.38,8.74,3.79c2.25,2.41,3.42,5.68,3.2,8.97l-3.92,58.01
						C535.37,487.82,505.3,515.92,469.34,515.92z M409.19,385.59l-3.88,57.4c-1.21,17.93,4.88,35.03,17.15,48.15
						c12.27,13.13,28.92,20.35,46.89,20.35c33.64,0,61.77-26.29,64.04-59.85l3.92-58.01c0.14-2.1-0.57-4.11-2.01-5.65
						c-1.44-1.54-3.4-2.39-5.51-2.39H409.19z"/>
				</g>
				<g>
					<path class="st3" d="M467.82,476.1c-3.13,0-5.61-2.64-5.41-5.77l2.95-46.23c0.18-2.86,2.55-5.08,5.41-5.08
						c3.13,0,5.61,2.64,5.41,5.77l-2.95,46.23C473.05,473.87,470.68,476.1,467.82,476.1z"/>
					<circle class="st3" cx="469.72" cy="428.31" r="19.97"/>
				</g>
			</g>
		</g>
	</g>
</g>
</svg>
